<svg xmlns="http://www.w3.org/2000/svg" viewBox="0 0 48 48"><defs><style>.cls-1{fill:none;stroke:#ED954A;stroke-linejoin:round;stroke-width:2px;}</style></defs><title>05-jude</title><g id="_05-jude" data-name="05-jude"><rect class="cls-1" x="10" y="1" width="12" height="18" rx="6" ry="6"/><path class="cls-1" d="M10,9a2.938,2.938,0,0,0,3-3s0,3,9,3"/><polyline class="cls-1" points="22 10 23 10 23 13 22 13"/><polyline class="cls-1" points="10 13 9 13 9 10 10 10"/><path class="cls-1" d="M14,19v1a2,2,0,0,0,2,2h0a2,2,0,0,0,2-2V19"/><path class="cls-1" d="M21,21a8,8,0,0,1,8,8v6H3V29a8,8,0,0,1,8-8"/><polyline class="cls-1" points="25 22 16 31 7 22"/><line class="cls-1" x1="16" y1="31" x2="16" y2="35"/><line class="cls-1" x1="8" y1="35" x2="8" y2="31"/><line class="cls-1" x1="24" y1="35" x2="24" y2="31"/><rect class="cls-1" x="1" y="35" width="46" height="4"/><rect class="cls-1" x="3" y="39" width="42" height="8"/><path class="cls-1" d="M45,1H29a2,2,0,0,0-2,2V17a2,2,0,0,0,2,2h5v4l4-4h7a2,2,0,0,0,2-2V3A2,2,0,0,0,45,1Z"/><polyline class="cls-1" points="34 10 36 12 41 7"/></g></svg>