<svg xmlns="http://www.w3.org/2000/svg" viewBox="0 0 48 48"><defs><style>.cls-1{fill:none;stroke:#ED954A;stroke-linejoin:round;stroke-width:2px;}</style></defs><title>07-law</title><g id="_07-law" data-name="07-law"><path class="cls-1" d="M31,39H23.888A1.939,1.939,0,0,1,22,37.013v-.026A1.945,1.945,0,0,1,23.888,35H27.7s0-2,6.65-2S41,35,41,35V45s-15.05,2-16,2L9,39H9a2.8,2.8,0,0,1,3.759-2.633L21,40l2-1"/><rect class="cls-1" x="41" y="33" width="6" height="13"/><path class="cls-1" d="M7,23a6,6,0,0,0,12,0Z"/><polyline class="cls-1" points="7 23 13 9 19 23"/><path class="cls-1" d="M29,23a6,6,0,0,0,12,0Z"/><polyline class="cls-1" points="29 23 35 9 41 23"/><line class="cls-1" x1="13" y1="9" x2="35" y2="9"/><circle class="cls-1" cx="24" cy="3" r="2"/><line class="cls-1" x1="24" y1="5" x2="24" y2="30"/><polyline class="cls-1" points="16 38 24 30 28 34"/></g></svg>