<svg id="icons" xmlns="http://www.w3.org/2000/svg" viewBox="0 0 64 64"><defs><style>.cls-1{fill:none;stroke:#ED954A;stroke-linecap:round;stroke-linejoin:round;stroke-width:2px;}</style></defs><title>64</title><g id="meeting_1"><path class="cls-1" d="M20.60666,37.90381H13.47134V25.26665l3.78207,3.78207a1.9345,1.9345,0,0,0,1.3679.5666h7.69162A2.17433,2.17433,0,0,0,28.48726,27.441h0a2.17433,2.17433,0,0,0-2.17433-2.17433h-6.3164a1.9345,1.9345,0,0,1-1.3679-.5666L14.4593,20.53072a3.62688,3.62688,0,0,0-2.5646-1.06229h0a3.62688,3.62688,0,0,0-3.62688,3.62688V39.98346a1.9345,1.9345,0,0,0,1.9345,1.93451h10.4088Z"/><circle class="cls-1" cx="10.5888" cy="11.79526" r="4.05476"/><path class="cls-1" d="M43.5236,37.90381h7.1499V25.26665l-3.78207,3.78207a1.9345,1.9345,0,0,1-1.3679.5666H37.83191A2.17433,2.17433,0,0,1,35.65758,27.441h0a2.17433,2.17433,0,0,1,2.17433-2.17433h6.3164a1.9345,1.9345,0,0,0,1.3679-.5666l4.16933-4.16933a3.62688,3.62688,0,0,1,2.5646-1.06229h0A3.62688,3.62688,0,0,1,55.877,23.09531V39.98346a1.93451,1.93451,0,0,1-1.9345,1.93451H43.51915Z"/><circle class="cls-1" cx="53.55604" cy="11.79526" r="4.05476"/><path class="cls-1" d="M4.06617,27.95417V43.48631a1.93451,1.93451,0,0,0,1.93451,1.93451H20.60889"/><line class="cls-1" x1="7.33468" y1="45.42082" x2="4" y2="56.2595"/><line class="cls-1" x1="14.91665" y1="45.42082" x2="18.34109" y2="56.2595"/><path class="cls-1" d="M59.93383,27.95417V43.48631a1.93451,1.93451,0,0,1-1.93451,1.93451H43.52137"/><line class="cls-1" x1="56.66532" y1="45.42082" x2="60" y2="56.2595"/><line class="cls-1" x1="45.78917" y1="56.2595" x2="49.0834" y2="45.42082"/><path class="cls-1" d="M20.60889,33.8971H43.52137a0,0,0,0,1,0,0V55.2595a1,1,0,0,1-1,1H21.60889a1,1,0,0,1-1-1V33.8971A0,0,0,0,1,20.60889,33.8971Z"/><path class="cls-1" d="M18.36343,29.6137h27.8515a0,0,0,0,1,0,0v2.2834a2,2,0,0,1-2,2H20.36343a2,2,0,0,1-2-2V29.6137a0,0,0,0,1,0,0Z"/></g></svg>