<svg xmlns="http://www.w3.org/2000/svg" viewBox="0 0 48 48"><defs><style>.cls-1{fill:none;stroke:#ED954A;stroke-linejoin:round;stroke-width:2px;}</style></defs><title>13-law</title><g id="_13-law" data-name="13-law"><rect class="cls-1" x="8" y="13" width="12" height="18" rx="6" ry="6"/><path class="cls-1" d="M8,21a2.938,2.938,0,0,0,3-3s0,3,9,3"/><polyline class="cls-1" points="20 22 21 22 21 25 20 25"/><polyline class="cls-1" points="8 25 7 25 7 22 8 22"/><path class="cls-1" d="M12,31v1a2,2,0,0,0,2,2h0a2,2,0,0,0,2-2V31"/><path class="cls-1" d="M19,33a8,8,0,0,1,8,8v6H1V41a8,8,0,0,1,8-8"/><polyline class="cls-1" points="23 34 14 43 5 34"/><line class="cls-1" x1="14" y1="43" x2="14" y2="47"/><line class="cls-1" x1="6" y1="47" x2="6" y2="43"/><line class="cls-1" x1="22" y1="47" x2="22" y2="43"/><path class="cls-1" d="M35,19a6,6,0,0,0,12,0Z"/><polyline class="cls-1" points="35 19 41 9 47 19"/><line class="cls-1" x1="19" y1="9" x2="41" y2="9"/><circle class="cls-1" cx="30" cy="3" r="2"/><line class="cls-1" x1="30" y1="5" x2="30" y2="29"/><path class="cls-1" d="M22,31a2,2,0,0,1,2-2H36a2,2,0,0,1,2,2v2H27"/></g></svg>