<svg xmlns="http://www.w3.org/2000/svg" viewBox="0 0 48 48"><defs><style>.cls-1{fill:none;stroke:#ED954A;stroke-linejoin:round;stroke-width:2px;}</style></defs><title>19-jude</title><g id="_19-jude" data-name="19-jude"><rect class="cls-1" x="8" y="13" width="12" height="18" rx="6" ry="6"/><path class="cls-1" d="M8,21a2.938,2.938,0,0,0,3-3s0,3,9,3"/><polyline class="cls-1" points="20 22 21 22 21 25 20 25"/><polyline class="cls-1" points="8 25 7 25 7 22 8 22"/><path class="cls-1" d="M12,31v1a2,2,0,0,0,2,2h0a2,2,0,0,0,2-2V31"/><path class="cls-1" d="M19,33a8,8,0,0,1,8,8v6H1V41a8,8,0,0,1,8-8"/><polyline class="cls-1" points="23 34 14 43 5 34"/><line class="cls-1" x1="14" y1="43" x2="14" y2="47"/><line class="cls-1" x1="6" y1="47" x2="6" y2="43"/><line class="cls-1" x1="22" y1="47" x2="22" y2="43"/><path class="cls-1" d="M27,1H45a2,2,0,0,1,2,2V21a2,2,0,0,1-2,2H35l-6,6V23H27a2,2,0,0,1-2-2V3A2,2,0,0,1,27,1Z"/><path class="cls-1" d="M22,1H3A2,2,0,0,0,1,3V7A2,2,0,0,0,3,9H22"/><line class="cls-1" x1="4" y1="5" x2="6" y2="5"/><line class="cls-1" x1="8" y1="5" x2="22" y2="5"/><path class="cls-1" d="M35,27V39l-4,4h4v2a2,2,0,0,0,2,2h8a2,2,0,0,0,2-2V26"/><path class="cls-1" d="M37,12H35a2,2,0,0,1-2-2h0a2,2,0,0,1,2-2h2a2,2,0,0,1,2,2h0"/><path class="cls-1" d="M35,12h2a2,2,0,0,1,2,2h0a2,2,0,0,1-2,2H35a2,2,0,0,1-2-2h0"/><line class="cls-1" x1="36" y1="8" x2="36" y2="6"/><line class="cls-1" x1="36" y1="18" x2="36" y2="16"/></g></svg>