<svg xmlns="http://www.w3.org/2000/svg" viewBox="0 0 48 48"><defs><style>.cls-1{fill:none;stroke:#ED954A;stroke-linejoin:round;stroke-width:2px;}</style></defs><title>27-jude</title><g id="_27-jude" data-name="27-jude"><path class="cls-1" d="M41,13V8a2,2,0,0,0-2-2H15V5a4,4,0,0,0-4-4H1V33.828a4.116,4.116,0,0,0,3.607,4.153A4,4,0,0,0,9,34V30"/><path class="cls-1" d="M41,10H11a2,2,0,0,0-2,2v2"/><path class="cls-1" d="M11,1h8a4,4,0,0,1,4,4V6"/><line class="cls-1" x1="5" y1="38" x2="18" y2="38"/><rect class="cls-1" x="28" y="13" width="12" height="18" rx="6" ry="6"/><path class="cls-1" d="M28,21a2.938,2.938,0,0,0,3-3s0,3,9,3"/><polyline class="cls-1" points="40 22 41 22 41 25 40 25"/><polyline class="cls-1" points="28 25 27 25 27 22 28 22"/><path class="cls-1" d="M32,31v1a2,2,0,0,0,2,2h0a2,2,0,0,0,2-2V31"/><path class="cls-1" d="M39,33a8,8,0,0,1,8,8v6H21V41a8,8,0,0,1,8-8"/><polyline class="cls-1" points="43 34 34 43 25 34"/><line class="cls-1" x1="34" y1="43" x2="34" y2="47"/><line class="cls-1" x1="26" y1="47" x2="26" y2="43"/><line class="cls-1" x1="42" y1="47" x2="42" y2="43"/><rect class="cls-1" x="28" y="13" width="12" height="18" rx="6" ry="6"/><path class="cls-1" d="M28,21a2.938,2.938,0,0,0,3-3s0,3,9,3"/><polyline class="cls-1" points="40 22 41 22 41 25 40 25"/><polyline class="cls-1" points="28 25 27 25 27 22 28 22"/><path class="cls-1" d="M32,31v1a2,2,0,0,0,2,2h0a2,2,0,0,0,2-2V31"/><path class="cls-1" d="M39,33a8,8,0,0,1,8,8v6H21V41a8,8,0,0,1,8-8"/><polyline class="cls-1" points="43 34 34 43 25 34"/><line class="cls-1" x1="34" y1="43" x2="34" y2="47"/><line class="cls-1" x1="26" y1="47" x2="26" y2="43"/><line class="cls-1" x1="42" y1="47" x2="42" y2="43"/><path class="cls-1" d="M18,17H8a2,2,0,0,0-2,2v6a2,2,0,0,0,2,2h5l4,4V27h1a2,2,0,0,0,2-2V19A2,2,0,0,0,18,17Z"/><line class="cls-1" x1="9" y1="22" x2="17" y2="22"/></g></svg>