<svg width="64" height="64" viewBox="0 0 64 64" fill="none" xmlns="http://www.w3.org/2000/svg">
<path d="M36.707 44.293C36.5195 44.1054 36.2652 44.0001 36 44H20C19.7348 44.0001 19.4805 44.1054 19.293 44.293L13.293 50.293C13.1055 50.4805 13.0001 50.7348 13 51V60C13 60.7956 13.3161 61.5587 13.8787 62.1213C14.4413 62.6839 15.2044 63 16 63H40C40.7956 63 41.5587 62.6839 42.1213 62.1213C42.6839 61.5587 43 60.7956 43 60V51C42.9999 50.7348 42.8946 50.4805 42.707 50.293L36.707 44.293Z" fill="#ED954A"/>
<path d="M17 42H39C39.2652 42 39.5196 41.8946 39.7071 41.7071C39.8946 41.5196 40 41.2652 40 41V40C40 39.2044 39.6839 38.4413 39.1213 37.8787C38.5587 37.3161 37.7956 37 37 37H19C18.2044 37 17.4413 37.3161 16.8787 37.8787C16.3161 38.4413 16 39.2044 16 40V41C16 41.2652 16.1054 41.5196 16.2929 41.7071C16.4804 41.8946 16.7348 42 17 42Z" fill="#ED954A"/>
<path d="M62.966 45.739L54.9 15.883C54.7282 15.2462 54.3514 14.6837 53.8278 14.2827C53.3042 13.8816 52.6631 13.6642 52.0035 13.6642C51.3439 13.6642 50.7028 13.8816 50.1792 14.2827C49.6556 14.6837 49.2787 15.2462 49.107 15.883L41.034 45.739C40.9882 45.9089 40.988 46.0878 41.0335 46.2578C41.079 46.4277 41.1685 46.5827 41.293 46.707L51 56.414V62C51 62.2652 51.1054 62.5196 51.2929 62.7071C51.4804 62.8947 51.7348 63 52 63C52.2652 63 52.5196 62.8947 52.7071 62.7071C52.8946 62.5196 53 62.2652 53 62V56.414L62.707 46.707C62.8315 46.5827 62.921 46.4277 62.9665 46.2578C63.012 46.0878 63.0118 45.9089 62.966 45.739ZM55.293 45.293C55.4816 45.1108 55.7342 45.0101 55.9964 45.0123C56.2586 45.0146 56.5094 45.1198 56.6948 45.3052C56.8802 45.4906 56.9854 45.7414 56.9877 46.0036C56.99 46.2658 56.8892 46.5184 56.707 46.707L52.707 50.707C52.6141 50.8001 52.5038 50.874 52.3823 50.9244C52.2608 50.9748 52.1305 51.0008 51.999 51.0008C51.8675 51.0008 51.7372 50.9748 51.6157 50.9244C51.4942 50.874 51.3839 50.8001 51.291 50.707L47.291 46.707C47.1088 46.5184 47.008 46.2658 47.0103 46.0036C47.0126 45.7414 47.1178 45.4906 47.3032 45.3052C47.4886 45.1198 47.7394 45.0146 48.0016 45.0123C48.2638 45.0101 48.5164 45.1108 48.705 45.293L51 47.586V42.414L47.293 38.707C47.1108 38.5184 47.01 38.2658 47.0123 38.0036C47.0146 37.7414 47.1198 37.4906 47.3052 37.3052C47.4906 37.1198 47.7414 37.0146 48.0036 37.0123C48.2658 37.0101 48.5184 37.1108 48.707 37.293L51 39.586V30C51 29.7348 51.1054 29.4804 51.2929 29.2929C51.4804 29.1054 51.7348 29 52 29C52.2652 29 52.5196 29.1054 52.7071 29.2929C52.8946 29.4804 53 29.7348 53 30V39.586L55.293 37.293C55.4816 37.1108 55.7342 37.0101 55.9964 37.0123C56.2586 37.0146 56.5094 37.1198 56.6948 37.3052C56.8802 37.4906 56.9854 37.7414 56.9877 38.0036C56.99 38.2658 56.8892 38.5184 56.707 38.707L53 42.414V47.586L55.293 45.293Z" fill="#ED954A"/>
<path d="M48 40H46V4C46 3.20435 45.6839 2.44129 45.1213 1.87868C44.5587 1.31607 43.7956 1 43 1H5C3.93913 1 2.92172 1.42143 2.17157 2.17157C1.42143 2.92172 1 3.93913 1 5V12C1 12.7956 1.31607 13.5587 1.87868 14.1213C2.44129 14.6839 3.20435 15 4 15H7V47C7 48.0609 7.42143 49.0783 8.17157 49.8284C8.92172 50.5786 9.93913 51 11 51H47C48.0609 51 49.0783 50.5786 49.8284 49.8284C50.5786 49.0783 51 48.0609 51 47V43C51 42.2044 50.6839 41.4413 50.1213 40.8787C49.5587 40.3161 48.7956 40 48 40ZM7 13H4C3.73478 13 3.48043 12.8946 3.29289 12.7071C3.10536 12.5196 3 12.2652 3 12V5C3 4.46957 3.21071 3.96086 3.58579 3.58579C3.96086 3.21071 4.46957 3 5 3C5.53043 3 6.03914 3.21071 6.41421 3.58579C6.78929 3.96086 7 4.46957 7 5V13ZM13 43V47C13 47.5304 12.7893 48.0391 12.4142 48.4142C12.0391 48.7893 11.5304 49 11 49C10.4696 49 9.96086 48.7893 9.58579 48.4142C9.21071 48.0391 9 47.5304 9 47V5C8.99586 4.29575 8.80392 3.60535 8.444 3H43C43.2652 3 43.5196 3.10536 43.7071 3.29289C43.8946 3.48043 44 3.73478 44 4V40H16C15.2044 40 14.4413 40.3161 13.8787 40.8787C13.3161 41.4413 13 42.2044 13 43ZM49 47C49 47.5304 48.7893 48.0391 48.4142 48.4142C48.0391 48.7893 47.5304 49 47 49H14.463C14.8158 48.3926 15.0011 47.7024 15 47V43C15 42.7348 15.1054 42.4804 15.2929 42.2929C15.4804 42.1054 15.7348 42 16 42H48C48.2652 42 48.5196 42.1054 48.7071 42.2929C48.8946 42.4804 49 42.7348 49 43V47Z" fill="#202020"/>
<path d="M41 34C41 33.7348 40.8946 33.4804 40.7071 33.2929C40.5196 33.1054 40.2652 33 40 33H13C12.7348 33 12.4804 33.1054 12.2929 33.2929C12.1054 33.4804 12 33.7348 12 34C12 34.2652 12.1054 34.5196 12.2929 34.7071C12.4804 34.8946 12.7348 35 13 35H40C40.2652 35 40.5196 34.8946 40.7071 34.7071C40.8946 34.5196 41 34.2652 41 34Z" fill="#202020"/>
<path d="M13 27H40C40.2652 27 40.5196 26.8946 40.7071 26.7071C40.8946 26.5196 41 26.2652 41 26C41 25.7348 40.8946 25.4804 40.7071 25.2929C40.5196 25.1054 40.2652 25 40 25H13C12.7348 25 12.4804 25.1054 12.2929 25.2929C12.1054 25.4804 12 25.7348 12 26C12 26.2652 12.1054 26.5196 12.2929 26.7071C12.4804 26.8946 12.7348 27 13 27V27Z" fill="#202020"/>
<path d="M13 19H40C40.2652 19 40.5196 18.8946 40.7071 18.7071C40.8946 18.5196 41 18.2652 41 18C41 17.7348 40.8946 17.4804 40.7071 17.2929C40.5196 17.1054 40.2652 17 40 17H13C12.7348 17 12.4804 17.1054 12.2929 17.2929C12.1054 17.4804 12 17.7348 12 18C12 18.2652 12.1054 18.5196 12.2929 18.7071C12.4804 18.8946 12.7348 19 13 19V19Z" fill="#202020"/>
<path d="M13 11H40C40.2652 11 40.5196 10.8946 40.7071 10.7071C40.8946 10.5196 41 10.2652 41 10C41 9.73478 40.8946 9.48043 40.7071 9.29289C40.5196 9.10536 40.2652 9 40 9H13C12.7348 9 12.4804 9.10536 12.2929 9.29289C12.1054 9.48043 12 9.73478 12 10C12 10.2652 12.1054 10.5196 12.2929 10.7071C12.4804 10.8946 12.7348 11 13 11V11Z" fill="#202020"/>
</svg>
