<svg width="500" height="400" viewBox="0 0 500 400" fill="none" xmlns="http://www.w3.org/2000/svg">
<g clip-path="url(#clip0_4_322)">
<path d="M354.346 89.4092C367.082 89.4092 377.406 79.0852 377.406 66.3499C377.406 53.6146 367.082 43.2906 354.346 43.2906C341.611 43.2906 331.287 53.6146 331.287 66.3499C331.287 79.0852 341.611 89.4092 354.346 89.4092Z" fill="url(#paint0_radial_4_322)"/>
<path d="M500.195 0C497.503 12.4279 490.641 23.5609 480.747 31.5501C470.854 39.5392 458.526 43.9039 445.81 43.919C433.077 43.9259 420.726 39.5714 410.813 31.5804C400.901 23.5894 394.024 12.4441 391.328 0L500.195 0Z" fill="url(#paint1_radial_4_322)"/>
<path d="M92.7416 0H90.9288V89.4092H92.7416V0Z" fill="#EAEAEA"/>
<path d="M57.0529 0H55.2401V89.4092H57.0529V0Z" fill="#EAEAEA"/>
<path d="M79.3871 98.3888C79.3855 96.753 79.7063 95.133 80.3311 93.6213C80.956 92.1097 81.8727 90.736 83.0288 89.5788C84.1848 88.4216 85.5576 87.5036 87.0687 86.8772C88.5798 86.2509 90.1995 85.9285 91.8352 85.9285V85.9285C93.472 85.9269 95.093 86.2481 96.6054 86.8738C98.1179 87.4994 99.4921 88.4171 100.649 89.5745C101.807 90.7318 102.725 92.1061 103.35 93.6185C103.976 95.131 104.297 96.752 104.295 98.3888V167.277C104.295 169.114 103.087 170.902 100.67 172.353C97.9425 173.741 94.9256 174.464 91.8654 174.464C88.8052 174.464 85.7883 173.741 83.0611 172.353C80.644 170.951 79.4354 169.114 79.4354 167.277L79.3871 98.3888Z" fill="url(#paint2_radial_4_322)"/>
<path d="M47.312 84.9738C47.312 82.6307 48.2428 80.3836 49.8996 78.7268C51.5564 77.07 53.8035 76.1392 56.1466 76.1392C58.4897 76.1392 60.7368 77.07 62.3936 78.7268C64.0504 80.3836 64.9812 82.6307 64.9812 84.9738V133.763C64.9092 134.542 64.6319 135.288 64.1776 135.925C63.7232 136.562 63.1081 137.067 62.3948 137.389C60.457 138.366 58.3169 138.876 56.1466 138.876C53.9762 138.876 51.8361 138.366 49.8983 137.389C49.1851 137.067 48.5699 136.562 48.1156 135.925C47.6612 135.288 47.3839 134.542 47.312 133.763V133.763V84.9738Z" fill="url(#paint3_radial_4_322)"/>
<path opacity="0.4" d="M47.3119 133.763V84.9738C47.307 83.4374 47.7023 81.9263 48.4588 80.5891C49.2153 79.2519 50.3071 78.1348 51.6265 77.3478C52.5246 84.6542 52.6502 92.0349 52.0011 99.3677C50.2608 123.95 59.5546 131.612 64.9569 133.981C64.8311 134.704 64.5324 135.386 64.0863 135.969C63.6402 136.552 63.0599 137.018 62.3948 137.329C60.457 138.306 58.3169 138.815 56.1465 138.815C53.9762 138.815 51.8361 138.306 49.8983 137.329C49.1933 137.012 48.5836 136.516 48.1298 135.891C47.676 135.265 47.394 134.532 47.3119 133.763V133.763Z" fill="url(#paint4_radial_4_322)"/>
<path opacity="0.4" d="M79.3267 167.204V98.3162C79.3229 96.1631 79.8776 94.0457 80.9368 92.171C81.9959 90.2964 83.5232 88.7285 85.3695 87.6205C86.4572 95.029 86.8681 105.084 85.9012 118.729C83.4841 153.463 96.5849 164.279 104.211 167.627C104.066 169.343 102.857 171.035 100.585 172.353C97.8516 173.741 94.8288 174.465 91.7627 174.465C88.6967 174.465 85.6739 173.741 82.9403 172.353C80.5957 170.89 79.3267 169.041 79.3267 167.204Z" fill="url(#paint5_radial_4_322)"/>
<path d="M175.177 370.447C175.177 370.447 176.736 373.614 176.313 375.656C175.89 377.699 170.923 384.805 169.461 388.733C167.999 392.661 160.554 398.522 156.384 398.51C152.215 398.498 148.359 396.782 150.342 392.129C151.665 389.042 153.472 386.186 155.695 383.669C157.351 381.542 160.59 375.427 161.061 372.913C161.533 370.399 175.177 370.447 175.177 370.447Z" fill="black"/>
<path d="M154.692 351.328C154.692 351.328 155.369 355.461 154.765 356.936C154.161 358.41 152.831 359.776 149.121 360.839C145.411 361.903 141.966 362.29 135.827 365.952C129.687 369.614 121.324 371.16 118.738 367.16C116.151 363.16 124.962 357.141 128.177 355.558C131.391 353.975 136.371 353.141 139.054 350.724C141.737 348.307 142.208 348.887 142.208 348.887L154.692 351.328Z" fill="black"/>
<path d="M177.135 278.814C177.135 278.814 174.102 306.152 175.02 315.724C175.939 325.296 182.078 343.158 180.06 355.147C178.042 367.136 175.649 372.164 175.649 372.164C175.649 372.164 167.394 380.623 161.146 373.046C161.146 373.046 163.793 368.212 163.43 355.582C163.249 349.177 163.128 345.503 163.043 343.436C162.986 341.887 162.546 340.375 161.762 339.037C158.231 333.035 155.261 326.72 152.892 320.171C152.892 320.171 154.306 337.901 154.197 345.877C154.188 347.118 154.302 348.357 154.535 349.576C154.777 350.688 154.814 351.834 154.644 352.96C154.209 355.038 146.861 362.797 140.854 356.585C140.854 356.585 138.534 355.014 139.029 350.132C139.356 346.917 138.546 339.835 137.821 334.13C137.267 329.708 135.92 325.421 133.845 321.477C132.177 318.298 130.606 311.808 129.615 308.787C127.645 302.816 120.309 274.21 120.176 267.696C120.043 261.182 128.08 256.553 128.08 256.553C128.08 256.553 146.51 265.557 146.136 266.548C145.761 267.539 169.219 277.364 169.219 277.364L177.135 278.814Z" fill="url(#paint6_radial_4_322)"/>
<path opacity="0.4" d="M128.08 256.589C128.08 256.589 146.51 265.593 146.136 266.584C145.761 267.575 169.219 277.4 169.219 277.4L177.135 278.815C177.135 278.815 174.102 306.152 175.02 315.724C175.939 325.296 182.078 343.158 180.06 355.147C178.042 367.136 175.649 372.164 175.649 372.164C174.639 373.136 173.51 373.977 172.289 374.665C173.377 371.136 176.942 358.688 176.833 347.811C176.7 335.121 171.177 314.648 170.887 308.062C170.862 306.393 170.215 304.794 169.072 303.578C167.93 302.362 166.375 301.616 164.711 301.487C159.357 301.27 151.502 300.375 146.124 297.342C147.828 304.436 152.843 320.171 152.843 320.171C152.843 320.171 154.354 339.122 154.136 346.651C154.112 347.41 154.185 348.17 154.354 348.911C154.694 350.232 154.776 351.607 154.596 352.96C154.011 354.372 153.06 355.603 151.84 356.525C151.671 348.742 150.148 329.03 149.58 324.486C148.952 319.422 143.598 299.106 143.598 299.106C140.806 296.907 139.416 291.698 138.884 289.087C136.467 283.963 136.141 279.117 131.693 279.02C131.331 279.02 125.82 285.824 122.158 280.458C121.245 276.257 120.595 272.002 120.212 267.72C120.055 261.266 128.08 256.589 128.08 256.589Z" fill="#06033E"/>
<path d="M121.094 268.687L122.097 272.155C122.097 272.155 123.693 272.373 125.856 269.92C126.464 269.267 126.81 268.413 126.828 267.521C126.846 266.629 126.534 265.762 125.953 265.085L121.856 265.992L121.094 268.687Z" fill="#E2B1A6"/>
<path d="M135.38 174.286C134.046 174.416 132.765 174.868 131.645 175.604C129.047 176.993 125.759 180.655 123.91 189.43C122.061 198.204 114.242 221.203 113.674 225.457C113.094 229.517 114.52 256.746 117.07 268.312C117.111 268.519 117.195 268.714 117.317 268.886C117.439 269.058 117.596 269.202 117.777 269.309C117.958 269.417 118.16 269.484 118.369 269.508C118.579 269.532 118.791 269.512 118.992 269.448C122.01 268.508 124.882 267.149 127.524 265.412C130.775 262.898 130.195 243.222 130.195 243.222L127.983 217.976L131.609 197.297C131.609 197.297 136.733 180.982 135.984 179.918C135.235 178.855 135.38 174.286 135.38 174.286Z" fill="url(#paint7_radial_4_322)"/>
<path d="M191.783 199.412C191.783 199.412 195.348 206.253 190.574 215.341C185.801 224.429 174.404 243.222 174.404 243.222C174.404 243.222 178.102 269.376 177.582 275.781C177.063 282.186 172.386 289.716 171.177 292.109C169.969 294.502 159.998 300.569 148.48 294.804C136.963 289.039 136.008 281.195 134.872 272.663C133.736 264.131 134.086 264.65 134.086 264.65C134.086 264.65 128.745 281.497 125.518 278.343C124.14 276.99 124.043 272.844 124.418 268.481C125.238 259.268 125.456 250.011 125.071 240.769C125.071 240.431 125.071 240.141 125.071 239.923C125.071 236.974 124.539 210.156 125.324 202.941C126.11 195.726 125.01 184.354 128.793 179.664C130.584 177.398 132.86 175.561 135.452 174.286L140.806 174.02C140.806 174.02 171.975 171.458 174.646 175.446C176.09 177.486 177.306 179.679 178.271 181.985C178.271 181.985 187.686 191.847 191.783 199.424V199.412Z" fill="url(#paint8_linear_4_322)"/>
<path d="M167.068 170.963C167.902 171.464 168.544 172.23 168.893 173.138C169.654 175.434 170.625 177.655 171.793 179.773C171.793 179.773 157.992 192.826 152.843 199.521C149.909 203.188 147.613 207.322 146.051 211.752L138.896 203.364L141.12 200.947L142.329 195.436L144.444 189.188L145.954 183.012L163.068 173.344L167.068 170.963Z" fill="#F0F6FF"/>
<path d="M153.399 188.716C155.019 189.838 156.309 191.374 157.134 193.164C156.05 192.361 154.883 191.676 153.653 191.121C152.778 191.937 151.988 192.84 151.296 193.817C150.922 194.602 151.296 201.648 151.296 201.648L150.329 203.098L149.205 203.219C149.205 203.219 149.085 198.167 148.94 197.914C148.741 196.387 148.652 194.848 148.674 193.309C148.758 192.995 152.408 189.538 152.408 189.538L153.689 188.68L153.399 188.716Z" fill="#C4CCD6"/>
<path d="M146.16 187.169C147.061 186.745 148.054 186.554 149.048 186.614C150.734 187.138 152.313 187.956 153.713 189.031C154.185 189.635 153.593 190.408 151.852 191.75C150.112 193.091 149.906 193.925 149.906 193.925C149.906 193.925 150.922 199.654 150.329 203.122C150.329 203.122 146.704 209.637 145.882 212.791C145.06 215.945 141.833 202.675 141.833 202.675C142.291 200.875 142.844 199.1 143.489 197.358C144.021 196.294 146.039 190.553 145.507 189.562C144.975 188.571 146.16 187.169 146.16 187.169Z" fill="url(#paint9_radial_4_322)"/>
<path opacity="0.6" d="M177.22 182.843L174.875 187.738L170.73 187.508L171.225 191.81C171.225 191.81 154.197 203.147 147.707 214.978L148.106 216.187C148.106 216.187 155.732 203.582 172.216 193.224L172.76 192.886L171.926 188.729L175.552 189.417L177.22 182.843Z" fill="#020230"/>
<path d="M149.169 184.148C149.404 184.765 149.803 185.306 150.323 185.712C150.842 186.119 151.463 186.376 152.118 186.456C154.306 186.638 166.174 182.033 167.926 175.096C167.926 175.096 167.201 171.76 167.128 171.156C167.642 170.71 167.995 170.107 168.131 169.44C168.49 168.039 168.959 166.67 169.533 165.343C170.046 164.341 170.24 163.207 170.089 162.092C170.089 162.092 173.63 142.755 163.007 139.419C152.384 136.084 144.673 139.311 141.181 150.296C141.181 150.296 140.347 153.257 139.67 155.445C139.229 156.829 139.204 158.312 139.597 159.711C139.834 160.412 139.952 161.147 139.948 161.886C139.486 164.581 139.413 167.328 139.73 170.044C139.73 170.044 138.884 172.099 140.286 172.848C141.688 173.597 141.398 179.713 141.398 179.713L145.338 183.761C145.338 183.761 146.184 184.644 149.169 184.148Z" fill="#FCD1C5"/>
<path d="M170.162 163.155C170.162 163.155 177.764 145.909 165.521 138.912C155.913 133.437 143.984 136.072 140.516 148.496C140.516 148.496 139.634 151.722 143.936 153.257C148.239 154.792 153.774 156.484 156.288 156.424C158.801 156.363 160.07 157.777 160.107 161.089C160.016 162.082 160.17 163.082 160.554 164.001C160.751 164.306 160.84 164.668 160.808 165.029V165.669C160.807 165.877 160.871 166.08 160.99 166.251C161.109 166.422 161.277 166.552 161.472 166.624C162.077 166.817 162.753 166.624 162.778 166.491C162.903 165.485 163.245 164.519 163.779 163.657C164.313 162.796 165.027 162.06 165.871 161.5C167.708 160.291 169.896 159.675 170.162 163.155Z" fill="url(#paint10_radial_4_322)"/>
<path opacity="0.5" d="M143.489 197.309C144.021 196.246 146.039 190.505 145.507 189.514C144.976 188.523 146.16 187.169 146.16 187.169C147.061 186.745 148.054 186.554 149.048 186.614L149.459 186.734V186.795C149.459 186.795 147.973 189.442 147.646 190.082C147.32 190.723 145.942 197.442 145.229 198.953C144.385 201.159 143.663 203.411 143.066 205.697L142.619 205.455C142.184 203.848 141.882 202.627 141.882 202.627C142.323 200.827 142.86 199.052 143.489 197.309V197.309Z" fill="#380031"/>
<path d="M144.589 180.075C145.476 181.351 146.157 182.758 146.607 184.245C146.138 184.213 145.689 184.045 145.314 183.761L143.743 182.154C144.202 181.054 144.589 180.075 144.589 180.075Z" fill="#E2B1A6"/>
<path d="M132.104 205.805C132.104 205.805 129.965 202.518 130.074 199.763C130.195 197.73 130.473 195.709 130.908 193.72C130.908 193.72 129.325 193.72 129.421 191.436C129.518 189.152 130.171 186.928 130.968 186.336C131.426 185.984 132.004 185.828 132.576 185.901C132.576 185.901 133.144 184.003 134.824 184.293C134.898 183.844 135.07 183.417 135.327 183.041C135.584 182.666 135.919 182.35 136.31 182.118C136.493 181.986 136.702 181.894 136.922 181.847C137.143 181.8 137.371 181.8 137.592 181.847C137.813 181.894 138.021 181.986 138.204 182.118C138.387 182.25 138.541 182.419 138.655 182.613C138.655 182.613 139.223 180.583 139.791 180.196C140.297 179.957 140.841 179.806 141.398 179.749C141.398 179.749 144.117 179.386 144.613 180.112C145.44 183.054 146.014 186.063 146.329 189.103C146.22 189.502 145.568 193.539 145.121 194.82C144.673 196.101 141.579 199.376 141.084 200.947C140.588 202.518 135.585 207.558 135.537 207.57C135.488 207.582 132.104 205.805 132.104 205.805Z" fill="#FCD1C5"/>
<path opacity="0.6" d="M134.038 264.674C134.038 264.674 134.183 237.385 138.715 225.287L136.371 229.191C133.869 241.489 132.871 254.045 133.398 266.584L134.038 264.674Z" fill="#020230"/>
<path opacity="0.6" d="M134.763 221.843C134.763 221.843 155.091 240.092 155.188 240.334C155.285 240.576 184.906 222 184.906 222L185.813 224.079C180.652 233.083 174.464 243.235 174.464 243.235C174.464 243.235 174.912 246.389 175.467 250.788C175.467 250.788 160.82 266.415 151.695 264.408C143.827 262.692 135.416 236.539 133.289 229.517C132.932 228.393 132.932 227.185 133.289 226.061L134.763 221.843Z" fill="#020230"/>
<path d="M130.896 203.038C133.821 201.298 139.09 200.802 139.09 200.802L132.926 206.204L132.104 205.781C131.584 204.936 131.139 204.046 130.775 203.122L130.896 203.038Z" fill="#E2B1A6"/>
<path d="M168.446 210.603C171.727 206.783 175.604 203.518 179.927 200.935C183.649 198.518 187.698 196.693 189.91 198.216C194.684 201.527 193.68 207.582 191.445 213.673C189.209 219.764 168.687 254.196 154.33 253.447C154.33 253.447 143.972 242.703 139.211 234.303C135.21 227.245 128.684 215.063 126.75 211.437C126.587 211.135 126.529 210.786 126.586 210.447C126.643 210.108 126.811 209.797 127.065 209.564C129.869 207.026 138.486 199.485 141.048 200.754C141.048 200.754 146.897 215.534 152.759 222.81L157.351 227.197C159.436 223.391 161.724 219.7 164.204 216.139C165.291 214.64 166.935 212.537 168.446 210.603Z" fill="url(#paint11_radial_4_322)"/>
<path d="M152.118 186.456C151.463 186.376 150.842 186.119 150.323 185.712C149.803 185.306 149.404 184.765 149.169 184.148C149.169 184.148 161.364 179.314 162.657 171.833C162.657 171.833 162.765 179.676 159.527 183.81C156.288 185.574 153.145 186.541 152.118 186.456Z" fill="#E2B1A6"/>
<path d="M152.843 320.171V320.376C152.826 320.309 152.826 320.239 152.843 320.171Z" fill="#1E262D"/>
<path opacity="0.4" d="M163.503 375.149C162.581 374.593 161.763 373.882 161.086 373.046C161.086 373.046 163.732 368.212 163.37 355.582C163.188 349.189 163.068 345.515 162.983 343.497C162.925 341.939 162.485 340.42 161.702 339.073C158.381 333.449 155.55 327.55 153.242 321.44V321.271C155.309 324.897 164.639 336.052 165.859 344.608C167.068 352.899 164.409 369.891 163.503 375.149Z" fill="#06033E"/>
<path d="M153.242 321.223V321.114L152.904 320.171C152.88 319.942 153.049 320.353 153.242 321.223Z" fill="#1E262D"/>
<path opacity="0.6" d="M128.406 208.331C128.406 208.331 147.006 248.588 155.526 250.172C164.047 251.755 186.888 222.194 186.888 222.194V222.302C179.552 234.472 165.134 253.979 154.354 253.411C154.354 253.411 143.997 242.667 139.235 234.267C135.235 227.209 128.708 215.027 126.775 211.401C126.611 211.098 126.553 210.75 126.61 210.411C126.667 210.071 126.836 209.761 127.089 209.528L128.406 208.331Z" fill="#020230"/>
<path opacity="0.6" d="M157.351 227.209C158.594 229.168 159.673 231.225 160.578 233.361L157.774 226.436L157.351 227.209Z" fill="#020230"/>
<path opacity="0.5" d="M170.162 163.155C171.559 159.737 172.349 156.101 172.494 152.411C172.444 152.92 172.287 153.412 172.033 153.856C171.778 154.3 171.433 154.685 171.02 154.986C168.917 156.363 160.143 162.322 160.143 162.322C160.144 162.903 160.276 163.478 160.53 164.001C160.727 164.306 160.816 164.668 160.783 165.029V165.669C160.783 165.877 160.847 166.08 160.965 166.251C161.084 166.422 161.253 166.552 161.448 166.624C162.052 166.805 162.729 166.624 162.753 166.491C162.879 165.485 163.221 164.519 163.755 163.657C164.289 162.796 165.002 162.06 165.847 161.5C167.708 160.291 169.896 159.675 170.162 163.155Z" fill="#380031"/>
<path d="M35.7339 185.03V186.36L34.6221 186.831V185.671L35.7339 185.03Z" fill="#78C6D9"/>
</g>
<defs>
<radialGradient id="paint0_radial_4_322" cx="0" cy="0" r="1" gradientUnits="userSpaceOnUse" gradientTransform="translate(388.174 50.6386) rotate(180) scale(56.1496)">
<stop stop-color="#E89852"/>
<stop offset="1" stop-color="#BA7A42"/>
</radialGradient>
<radialGradient id="paint1_radial_4_322" cx="0" cy="0" r="1" gradientUnits="userSpaceOnUse" gradientTransform="translate(402.254 58.8206) rotate(180) scale(109.507)">
<stop stop-color="#E89852"/>
<stop offset="1" stop-color="#BA7A42"/>
</radialGradient>
<radialGradient id="paint2_radial_4_322" cx="0" cy="0" r="1" gradientUnits="userSpaceOnUse" gradientTransform="translate(97.878 85.6505) rotate(180) scale(86.8229)">
<stop stop-color="#E89852"/>
<stop offset="1" stop-color="#BA7A42"/>
</radialGradient>
<radialGradient id="paint3_radial_4_322" cx="0" cy="0" r="1" gradientUnits="userSpaceOnUse" gradientTransform="translate(71.0481 66.4586) rotate(180) scale(91.4155)">
<stop stop-color="#E89852"/>
<stop offset="1" stop-color="#BA7A42"/>
</radialGradient>
<radialGradient id="paint4_radial_4_322" cx="0" cy="0" r="1" gradientUnits="userSpaceOnUse" gradientTransform="translate(51.699 139.54) rotate(180) scale(92.2252)">
<stop stop-color="#E89852"/>
<stop offset="1" stop-color="#BA7A42"/>
</radialGradient>
<radialGradient id="paint5_radial_4_322" cx="0" cy="0" r="1" gradientUnits="userSpaceOnUse" gradientTransform="translate(85.5749 175.362) rotate(180) scale(130.307)">
<stop stop-color="#E89852"/>
<stop offset="1" stop-color="#BA7A42"/>
</radialGradient>
<radialGradient id="paint6_radial_4_322" cx="0" cy="0" r="1" gradientUnits="userSpaceOnUse" gradientTransform="translate(50.8046 229.457) rotate(180) scale(47.3513)">
<stop stop-color="#909090"/>
<stop offset="1" stop-color="#202020"/>
</radialGradient>
<radialGradient id="paint7_radial_4_322" cx="0" cy="0" r="1" gradientUnits="userSpaceOnUse" gradientTransform="translate(27.3103 156.956) rotate(180) scale(135.721)">
<stop stop-color="#909090"/>
<stop offset="1" stop-color="#202020"/>
</radialGradient>
<linearGradient id="paint8_linear_4_322" x1="81.2965" y1="200.584" x2="144.613" y2="227.729" gradientUnits="userSpaceOnUse">
<stop stop-color="#909090"/>
<stop offset="1" stop-color="#202020"/>
</linearGradient>
<radialGradient id="paint9_radial_4_322" cx="0" cy="0" r="1" gradientUnits="userSpaceOnUse" gradientTransform="translate(167.841 211.558) rotate(180) scale(129.86)">
<stop stop-color="#E89852"/>
<stop offset="1" stop-color="#BA7A42"/>
</radialGradient>
<radialGradient id="paint10_radial_4_322" cx="0" cy="0" r="1" gradientUnits="userSpaceOnUse" gradientTransform="translate(139.646 139.335) scale(40.5713)">
<stop stop-color="#E89852"/>
<stop offset="1" stop-color="#BA7A42"/>
</radialGradient>
<radialGradient id="paint11_radial_4_322" cx="0" cy="0" r="1" gradientUnits="userSpaceOnUse" gradientTransform="translate(469.848 280.676) rotate(180) scale(258.281)">
<stop stop-color="#909090"/>
<stop offset="1" stop-color="#202020"/>
</radialGradient>
<clipPath id="clip0_4_322">
<rect width="500" height="400" fill="white"/>
</clipPath>
</defs>
</svg>
