<svg width="64" height="64" viewBox="0 0 64 64" fill="none" xmlns="http://www.w3.org/2000/svg">
<path d="M43 13C39.0231 13.0045 35.2104 14.5863 32.3984 17.3984C29.5863 20.2104 28.0045 24.0231 28 28V29.586L20.293 37.293C20.1532 37.4329 20.058 37.611 20.0194 37.805C19.9808 37.9989 20.0007 38.2 20.0763 38.3827C20.152 38.5654 20.2801 38.7215 20.4445 38.8314C20.609 38.9413 20.8022 39 21 39H28V50C28.0016 51.3256 28.5289 52.5964 29.4662 53.5338C30.4036 54.4711 31.6744 54.9984 33 55H36V60C36 60.7956 36.3161 61.5587 36.8787 62.1213C37.4413 62.6839 38.2044 63 39 63H51C51.7956 63 52.5587 62.6839 53.1213 62.1213C53.6839 61.5587 54 60.7956 54 60V50.472C54.0046 47.6861 54.6549 44.9392 55.9 42.447C57.2787 39.6758 57.9974 36.6232 58 33.528V28C57.9955 24.0231 56.4137 20.2104 53.6016 17.3984C50.7896 14.5863 46.9769 13.0045 43 13V13ZM48.908 21.419L42.908 34.419C42.8346 34.5778 42.7207 34.7145 42.5779 34.8156C42.4351 34.9166 42.2683 34.9784 42.0941 34.9948C41.9199 35.0112 41.7445 34.9817 41.5853 34.909C41.4261 34.8364 41.2888 34.7233 41.187 34.581L36.187 27.581C36.1046 27.4746 36.0446 27.3527 36.0104 27.2225C35.9763 27.0924 35.9688 26.9567 35.9883 26.8236C36.0078 26.6905 36.0541 26.5626 36.1242 26.4478C36.1943 26.333 36.2868 26.2334 36.3963 26.1552C36.5057 26.077 36.6299 26.0216 36.7612 25.9925C36.8926 25.9634 37.0285 25.9611 37.1608 25.9857C37.293 26.0103 37.419 26.0614 37.5311 26.1359C37.6431 26.2103 37.739 26.3066 37.813 26.419L41.813 32.019L47.092 20.582C47.2031 20.3412 47.4054 20.1544 47.6542 20.0627C47.9031 19.971 48.1782 19.9819 48.419 20.093C48.6598 20.2041 48.8466 20.4064 48.9383 20.6552C49.03 20.9041 49.0191 21.1792 48.908 21.42V21.419Z" fill="#ED954A"/>
<path d="M43.707 25.293L36 17.586V16C36 12.0218 34.4196 8.20644 31.6066 5.3934C28.7936 2.58035 24.9782 1 21 1C17.0218 1 13.2064 2.58035 10.3934 5.3934C7.58035 8.20644 6 12.0218 6 16V21.528C6.00366 24.6236 6.72414 27.6764 8.105 30.447C9.34832 32.9396 9.99696 35.6865 10 38.472V48C10 48.7956 10.3161 49.5587 10.8787 50.1213C11.4413 50.6839 12.2044 51 13 51H25C25.7956 51 26.5587 50.6839 27.1213 50.1213C27.6839 49.5587 28 48.7956 28 48V43H31C32.3256 42.9984 33.5964 42.4711 34.5338 41.5338C35.4711 40.5964 35.9984 39.3256 36 38V27H43C43.1978 27 43.391 26.9413 43.5555 26.8314C43.7199 26.7215 43.848 26.5654 43.9237 26.3827C43.9993 26.2 44.0192 25.9989 43.9806 25.805C43.942 25.611 43.8468 25.4329 43.707 25.293V25.293ZM35 25C34.7348 25 34.4804 25.1054 34.2929 25.2929C34.1054 25.4804 34 25.7348 34 26V38C34 38.7956 33.6839 39.5587 33.1213 40.1213C32.5587 40.6839 31.7956 41 31 41H25.485C24.8282 41.0018 24.1777 40.8733 23.5709 40.622C22.9641 40.3707 22.4132 40.0016 21.95 39.536L19.707 37.293C19.5184 37.1108 19.2658 37.01 19.0036 37.0123C18.7414 37.0146 18.4906 37.1198 18.3052 37.3052C18.1198 37.4906 18.0146 37.7414 18.0123 38.0036C18.01 38.2658 18.1108 38.5184 18.293 38.707L20.536 40.95C21.1844 41.6019 21.9557 42.1188 22.8052 42.4707C23.6547 42.8225 24.5655 43.0025 25.485 43H26V48C26 48.2652 25.8946 48.5196 25.7071 48.7071C25.5196 48.8946 25.2652 49 25 49H13C12.7348 49 12.4804 48.8946 12.2929 48.7071C12.1054 48.5196 12 48.2652 12 48V38.472C11.9979 35.3768 11.2791 32.324 9.9 29.553C8.65495 27.0608 8.00459 24.3139 8 21.528V16C8 12.5522 9.36964 9.24558 11.8076 6.80761C14.2456 4.36964 17.5522 3 21 3C24.4478 3 27.7544 4.36964 30.1924 6.80761C32.6304 9.24558 34 12.5522 34 16V18C34.0001 18.2652 34.1054 18.5195 34.293 18.707L40.586 25H35Z" fill="#202020"/>
<path d="M26.707 8.293C26.5195 8.10553 26.2652 8.00021 26 8.00021C25.7348 8.00021 25.4805 8.10553 25.293 8.293L21 12.586L16.707 8.293C16.5184 8.11084 16.2658 8.01005 16.0036 8.01233C15.7414 8.0146 15.4906 8.11977 15.3052 8.30518C15.1198 8.49059 15.0146 8.7414 15.0123 9.0036C15.01 9.2658 15.1108 9.5184 15.293 9.707L19.586 14L15.293 18.293C15.1108 18.4816 15.01 18.7342 15.0123 18.9964C15.0146 19.2586 15.1198 19.5094 15.3052 19.6948C15.4906 19.8802 15.7414 19.9854 16.0036 19.9877C16.2658 19.99 16.5184 19.8892 16.707 19.707L21 15.414L25.293 19.707C25.4816 19.8892 25.7342 19.99 25.9964 19.9877C26.2586 19.9854 26.5094 19.8802 26.6948 19.6948C26.8802 19.5094 26.9854 19.2586 26.9877 18.9964C26.9899 18.7342 26.8892 18.4816 26.707 18.293L22.414 14L26.707 9.707C26.8945 9.51947 26.9998 9.26516 26.9998 9C26.9998 8.73484 26.8945 8.48053 26.707 8.293Z" fill="#202020"/>
</svg>
