<svg width="64" height="64" viewBox="0 0 64 64" fill="none" xmlns="http://www.w3.org/2000/svg">
<path d="M39 44C40.9778 44 42.9112 43.4135 44.5557 42.3147C46.2002 41.2159 47.4819 39.6541 48.2388 37.8268C48.9957 35.9996 49.1937 33.9889 48.8079 32.0491C48.422 30.1093 47.4696 28.3275 46.0711 26.9289C44.6725 25.5304 42.8907 24.578 40.9509 24.1922C39.0111 23.8063 37.0004 24.0043 35.1732 24.7612C33.3459 25.5181 31.7841 26.7998 30.6853 28.4443C29.5865 30.0888 29 32.0222 29 34C29.0029 36.6513 30.0574 39.1931 31.9321 41.0679C33.8069 42.9426 36.3487 43.9971 39 44V44ZM39 26C41.121 26.0024 43.1544 26.846 44.6542 28.3458C46.154 29.8456 46.9976 31.879 47 34C47 34.2652 46.8946 34.5196 46.7071 34.7071C46.5196 34.8946 46.2652 35 46 35C45.7348 35 45.4804 34.8946 45.2929 34.7071C45.1054 34.5196 45 34.2652 45 34C44.9984 32.4092 44.3658 30.884 43.2409 29.7591C42.116 28.6342 40.5908 28.0016 39 28C38.7348 28 38.4804 27.8946 38.2929 27.7071C38.1054 27.5196 38 27.2652 38 27C38 26.7348 38.1054 26.4804 38.2929 26.2929C38.4804 26.1054 38.7348 26 39 26Z" fill="#ED954A"/>
<path d="M59 53H58V16C57.9976 15.2051 57.6808 14.4434 57.1187 13.8813C56.5566 13.3192 55.7949 13.0024 55 13H23C22.2051 13.0024 21.4434 13.3192 20.8813 13.8813C20.3192 14.4434 20.0024 15.2051 20 16V58C20 59.3261 20.5268 60.5979 21.4645 61.5355C22.4021 62.4732 23.6739 63 25 63H57C58.3261 63 59.5979 62.4732 60.5355 61.5355C61.4732 60.5979 62 59.3261 62 58V56C61.9976 55.2051 61.6808 54.4434 61.1187 53.8813C60.5566 53.3192 59.7949 53.0024 59 53V53ZM39 22C41.3734 22 43.6935 22.7038 45.6668 24.0224C47.6402 25.3409 49.1783 27.2151 50.0866 29.4078C50.9948 31.6005 51.2324 34.0133 50.7694 36.3411C50.3064 38.6689 49.1635 40.8071 47.4853 42.4853C45.8071 44.1635 43.6689 45.3064 41.3411 45.7694C39.0133 46.2324 36.6005 45.9948 34.4078 45.0866C32.2151 44.1783 30.3409 42.6402 29.0224 40.6668C27.7038 38.6935 27 36.3734 27 34C27.0034 30.8185 28.2688 27.7682 30.5185 25.5185C32.7682 23.2688 35.8185 22.0034 39 22V22ZM60 58C59.9976 58.7949 59.6808 59.5566 59.1187 60.1187C58.5566 60.6808 57.7949 60.9976 57 61H29C29.6501 60.135 30.0011 59.082 30 58V56C30 55.7348 30.1054 55.4804 30.2929 55.2929C30.4804 55.1054 30.7348 55 31 55H59C59.2652 55 59.5196 55.1054 59.7071 55.2929C59.8946 55.4804 60 55.7348 60 56V58Z" fill="#ED954A"/>
<path d="M42.515 13.143L22.515 1.14299C22.3595 1.04955 22.1814 1.00018 22 1.00018C21.8186 1.00018 21.6405 1.04955 21.485 1.14299L1.485 13.143C1.34639 13.2417 1.23112 13.3696 1.14732 13.5176C1.06352 13.6657 1.01323 13.8304 1 14V18C1 18.2652 1.10536 18.5196 1.29289 18.7071C1.48043 18.8946 1.73478 19 2 19H42C42.2652 19 42.5196 18.8946 42.7071 18.7071C42.8946 18.5196 43 18.2652 43 18V14C42.9877 13.8301 42.9377 13.6652 42.8539 13.517C42.77 13.3687 42.6543 13.241 42.515 13.143V13.143ZM22 3.16599L38.39 13H5.61L22 3.16599ZM41 17H3V15H41V17Z" fill="#202020"/>
<path d="M22 11C22.2652 11 22.5196 10.8946 22.7071 10.7071C22.8946 10.5196 23 10.2652 23 10V8C23 7.73478 22.8946 7.48043 22.7071 7.29289C22.5196 7.10536 22.2652 7 22 7C21.7348 7 21.4804 7.10536 21.2929 7.29289C21.1054 7.48043 21 7.73478 21 8V10C21 10.2652 21.1054 10.5196 21.2929 10.7071C21.4804 10.8946 21.7348 11 22 11Z" fill="#202020"/>
<path d="M42 45H2C1.73478 45 1.48043 45.1054 1.29289 45.2929C1.10536 45.4804 1 45.7348 1 46V50C1 50.2652 1.10536 50.5196 1.29289 50.7071C1.48043 50.8946 1.73478 51 2 51H42C42.2652 51 42.5196 50.8946 42.7071 50.7071C42.8946 50.5196 43 50.2652 43 50V46C43 45.7348 42.8946 45.4804 42.7071 45.2929C42.5196 45.1054 42.2652 45 42 45ZM41 49H3V47H41V49Z" fill="#202020"/>
<path d="M11 43C11.2652 43 11.5196 42.8946 11.7071 42.7071C11.8946 42.5196 12 42.2652 12 42V22C12 21.7348 11.8946 21.4804 11.7071 21.2929C11.5196 21.1054 11.2652 21 11 21H5C4.73478 21 4.48043 21.1054 4.29289 21.2929C4.10536 21.4804 4 21.7348 4 22V42C4 42.2652 4.10536 42.5196 4.29289 42.7071C4.48043 42.8946 4.73478 43 5 43H11ZM6 23H10V41H6V23Z" fill="#202020"/>
<path d="M25 43C25.2652 43 25.5196 42.8946 25.7071 42.7071C25.8946 42.5196 26 42.2652 26 42V22C26 21.7348 25.8946 21.4804 25.7071 21.2929C25.5196 21.1054 25.2652 21 25 21H19C18.7348 21 18.4804 21.1054 18.2929 21.2929C18.1054 21.4804 18 21.7348 18 22V42C18 42.2652 18.1054 42.5196 18.2929 42.7071C18.4804 42.8946 18.7348 43 19 43H25ZM20 23H24V41H20V23Z" fill="#202020"/>
<path d="M39 43C39.2652 43 39.5196 42.8946 39.7071 42.7071C39.8946 42.5196 40 42.2652 40 42V22C40 21.7348 39.8946 21.4804 39.7071 21.2929C39.5196 21.1054 39.2652 21 39 21H33C32.7348 21 32.4804 21.1054 32.2929 21.2929C32.1054 21.4804 32 21.7348 32 22V42C32 42.2652 32.1054 42.5196 32.2929 42.7071C32.4804 42.8946 32.7348 43 33 43H39ZM34 23H38V41H34V23Z" fill="#202020"/>
</svg>
