<svg width="64" height="64" viewBox="0 0 64 64" fill="none" xmlns="http://www.w3.org/2000/svg">
<path d="M54 41H47V12H29V41H22C21.8115 40.9997 21.6267 41.0528 21.4671 41.153C21.3074 41.2532 21.1793 41.3965 21.0975 41.5664C21.0158 41.7362 20.9837 41.9258 21.005 42.1131C21.0264 42.3004 21.1002 42.4778 21.218 42.625L37.218 62.625C37.3117 62.7423 37.4306 62.8371 37.5659 62.9022C37.7012 62.9673 37.8494 63.0011 37.9995 63.0011C38.1496 63.0011 38.2979 62.9673 38.4331 62.9022C38.5684 62.8371 38.6873 62.7423 38.781 62.625L54.781 42.625C54.8988 42.4779 54.9726 42.3005 54.9939 42.1133C55.0153 41.9261 54.9833 41.7367 54.9017 41.5668C54.8201 41.397 54.6921 41.2537 54.5326 41.1534C54.3731 41.0531 54.1884 40.9999 54 41V41Z" fill="#ED954A"/>
<path d="M62 37H55V13C55 12.7348 54.8946 12.4804 54.7071 12.2929C54.5196 12.1054 54.2652 12 54 12H49V39H54C54.5652 39 55.1189 39.1596 55.5974 39.4605C56.0758 39.7615 56.4595 40.1914 56.7043 40.7009C56.949 41.2104 57.0449 41.7786 56.9808 42.3402C56.9167 42.9017 56.6953 43.4338 56.342 43.875L44.879 58.2L45.217 58.623C45.3107 58.7403 45.4296 58.8351 45.5649 58.9002C45.7001 58.9653 45.8484 58.9991 45.9985 58.9991C46.1486 58.9991 46.2969 58.9653 46.4321 58.9002C46.5674 58.8351 46.6863 58.7403 46.78 58.623L62.78 38.623C62.8971 38.4759 62.9704 38.2989 62.9915 38.112C63.0125 37.9252 62.9805 37.7363 62.8991 37.5668C62.8177 37.3974 62.6901 37.2543 62.5311 37.1541C62.3721 37.0538 62.188 37.0004 62 37Z" fill="#ED954A"/>
<path d="M22 39H27V12H22C21.7348 12 21.4804 12.1054 21.2929 12.2929C21.1054 12.4804 21 12.7348 21 13V37H14C13.8115 36.9997 13.6267 37.0528 13.4671 37.153C13.3074 37.2532 13.1793 37.3965 13.0975 37.5664C13.0158 37.7362 12.9837 37.9258 13.005 38.1131C13.0264 38.3004 13.1002 38.4778 13.218 38.625L29.218 58.625C29.3117 58.7423 29.4306 58.8371 29.5659 58.9022C29.7011 58.9673 29.8494 59.0011 29.9995 59.0011C30.1496 59.0011 30.2979 58.9673 30.4331 58.9022C30.5684 58.8371 30.6873 58.7423 30.781 58.625L31.119 58.202L19.656 43.874C19.3029 43.4326 19.0817 42.9005 19.0179 42.3389C18.954 41.7773 19.0501 41.2091 19.2951 40.6998C19.54 40.1904 19.9239 39.7606 20.4025 39.4599C20.881 39.1592 21.4348 38.9998 22 39V39Z" fill="#ED954A"/>
<path d="M48 1H27.41C27.1651 1.00003 26.9287 1.08996 26.7456 1.25272C26.5626 1.41547 26.4457 1.63975 26.417 1.883L25.361 10.869V10.884L25.012 13.884C24.9966 14.0154 25.0074 14.1485 25.0438 14.2757C25.0801 14.4029 25.1414 14.5217 25.224 14.625L28.871 19.184L23.536 33.654C23.4804 33.8048 23.4619 33.9669 23.4823 34.1263C23.5026 34.2858 23.561 34.438 23.6527 34.5701C23.7443 34.7022 23.8665 34.8102 24.0087 34.8851C24.151 34.9599 24.3093 34.9993 24.47 35H48C48.7957 35 49.5587 34.6839 50.1213 34.1213C50.6839 33.5587 51 32.7956 51 32V4C51 3.20435 50.6839 2.44129 50.1213 1.87868C49.5587 1.31607 48.7957 1 48 1V1ZM49 4V8.92C47.5071 8.70294 46.1242 8.00935 45.0574 6.94258C43.9907 5.87581 43.2971 4.49294 43.08 3H48C48.2652 3 48.5196 3.10536 48.7071 3.29289C48.8947 3.48043 49 3.73478 49 4ZM27.042 13.7L27.242 12H39C39.2652 12 39.5196 12.1054 39.7071 12.2929C39.8947 12.4804 40 12.7348 40 13V23C40 23.2652 39.8947 23.5196 39.7071 23.7071C39.5196 23.8946 39.2652 24 39 24H29.224L30.938 19.346C30.9977 19.1843 31.0147 19.01 30.9871 18.8399C30.9596 18.6697 30.8886 18.5096 30.781 18.375L27.042 13.7ZM28.485 26H39C39.7957 26 40.5587 25.6839 41.1213 25.1213C41.6839 24.5587 42 23.7956 42 23V13C42 12.2044 41.6839 11.4413 41.1213 10.8787C40.5587 10.3161 39.7957 10 39 10H27.477L28.3 3H41.06C41.2895 5.02685 42.1997 6.91592 43.642 8.35836C45.0842 9.80081 46.9732 10.7113 49 10.941V25.059C46.973 25.2885 45.0838 26.1989 43.6414 27.6413C42.1989 29.0838 41.2885 30.973 41.059 33H25.9L28.485 26ZM48 33H43.08C43.2971 31.5071 43.9907 30.1242 45.0574 29.0574C46.1242 27.9906 47.5071 27.2971 49 27.08V32C49 32.2652 48.8947 32.5196 48.7071 32.7071C48.5196 32.8946 48.2652 33 48 33Z" fill="#202020"/>
<path d="M23.866 25.217L24.977 20.217C25.0058 20.0852 25.0078 19.9489 24.9829 19.8163C24.958 19.6837 24.9067 19.5574 24.832 19.445L21.098 13.845L21.898 11.301V11.29L24.7 2.3C24.747 2.15054 24.7582 1.99212 24.7328 1.83753C24.7073 1.68293 24.6459 1.53648 24.5535 1.40998C24.461 1.28347 24.3401 1.18047 24.2006 1.10925C24.061 1.03804 23.9067 1.00062 23.75 1H4C3.20435 1 2.44129 1.31607 1.87868 1.87868C1.31607 2.44129 1 3.20435 1 4V32C1 32.7956 1.31607 33.5587 1.87868 34.1213C2.44129 34.6839 3.20435 35 4 35H20.89C21.1175 35 21.3382 34.9224 21.5156 34.78C21.693 34.6377 21.8166 34.4391 21.866 34.217L23.866 25.217ZM22.932 20.2L22.087 24H13C12.7348 24 12.4804 23.8946 12.2929 23.7071C12.1054 23.5196 12 23.2652 12 23V13C12 12.7348 12.1054 12.4804 12.2929 12.2929C12.4804 12.1054 12.7348 12 13 12H19.577L19.046 13.7C19.0013 13.8424 18.9891 13.9931 19.0102 14.1408C19.0313 14.2886 19.0852 14.4298 19.168 14.554L22.932 20.2ZM4 3H8.92C8.70294 4.49294 8.00935 5.87581 6.94258 6.94258C5.87581 8.00935 4.49294 8.70294 3 8.92V4C3 3.73478 3.10536 3.48043 3.29289 3.29289C3.48043 3.10536 3.73478 3 4 3V3ZM3 32V27.08C4.49294 27.2971 5.87581 27.9906 6.94258 29.0574C8.00935 30.1242 8.70294 31.5071 8.92 33H4C3.73478 33 3.48043 32.8946 3.29289 32.7071C3.10536 32.5196 3 32.2652 3 32ZM20.088 33H10.941C10.7115 30.973 9.80112 29.0838 8.35865 27.6413C6.91619 26.1989 5.027 25.2885 3 25.059V10.941C5.027 10.7115 6.91619 9.80112 8.35865 8.35865C9.80112 6.91619 10.7115 5.027 10.941 3H22.391L20.2 10H13C12.2044 10 11.4413 10.3161 10.8787 10.8787C10.3161 11.4413 10 12.2044 10 13V23C10 23.7956 10.3161 24.5587 10.8787 25.1213C11.4413 25.6839 12.2044 26 13 26H21.643L20.088 33Z" fill="#202020"/>
</svg>
