<svg width="64" height="64" viewBox="0 0 64 64" fill="none" xmlns="http://www.w3.org/2000/svg">
<path d="M57 25H19V32H57V25Z" fill="#ED954A"/>
<path d="M60 19H48.58L45.444 13.512C45.1812 13.0531 44.8019 12.6717 44.3445 12.4062C43.8872 12.1407 43.3678 12.0006 42.839 12H33.161C32.6322 12.0006 32.1128 12.1407 31.6555 12.4062C31.1981 12.6717 30.8188 13.0531 30.556 13.512L27.42 19H16C15.2044 19 14.4413 19.3161 13.8787 19.8787C13.3161 20.4413 13 21.2044 13 22V37C13 37.2652 13.1054 37.5196 13.2929 37.7071C13.4804 37.8946 13.7348 38 14 38H62C62.2652 38 62.5196 37.8946 62.7071 37.7071C62.8946 37.5196 63 37.2652 63 37V22C63 21.2044 62.6839 20.4413 62.1213 19.8787C61.5587 19.3161 60.7956 19 60 19ZM32.292 14.5C32.38 14.3475 32.5067 14.221 32.6593 14.1332C32.8119 14.0454 32.985 13.9995 33.161 14H42.839C43.015 13.9995 43.1881 14.0454 43.3407 14.1332C43.4933 14.221 43.62 14.3475 43.708 14.5L46.277 19H29.723L32.292 14.5ZM59 33C59 33.2652 58.8946 33.5196 58.7071 33.7071C58.5196 33.8946 58.2652 34 58 34H18C17.7348 34 17.4804 33.8946 17.2929 33.7071C17.1054 33.5196 17 33.2652 17 33V24C17 23.7348 17.1054 23.4804 17.2929 23.2929C17.4804 23.1054 17.7348 23 18 23H58C58.2652 23 58.5196 23.1054 58.7071 23.2929C58.8946 23.4804 59 23.7348 59 24V33Z" fill="#ED954A"/>
<path d="M43 40H33V44H43V40Z" fill="#ED954A"/>
<path d="M45 45C45 45.2652 44.8946 45.5196 44.7071 45.7071C44.5196 45.8946 44.2652 46 44 46H32C31.7348 46 31.4804 45.8946 31.2929 45.7071C31.1054 45.5196 31 45.2652 31 45V40H15V58C15 58.7956 15.3161 59.5587 15.8787 60.1213C16.4413 60.6839 17.2044 61 18 61H58C58.7956 61 59.5587 60.6839 60.1213 60.1213C60.6839 59.5587 61 58.7956 61 58V40H45V45ZM56 55C56 55.2652 55.8946 55.5196 55.7071 55.7071C55.5196 55.8946 55.2652 56 55 56H21C20.7348 56 20.4804 55.8946 20.2929 55.7071C20.1054 55.5196 20 55.2652 20 55C20 54.7348 20.1054 54.4804 20.2929 54.2929C20.4804 54.1054 20.7348 54 21 54H55C55.2652 54 55.5196 54.1054 55.7071 54.2929C55.8946 54.4804 56 54.7348 56 55Z" fill="#ED954A"/>
<path d="M22.271 31.59C16.862 30.068 11.138 30.068 5.72901 31.59C5.47668 31.6644 5.26384 31.8353 5.13662 32.0656C5.00939 32.2958 4.97803 32.5669 5.04933 32.8202C5.12063 33.0734 5.28884 33.2883 5.51752 33.4184C5.7462 33.5485 6.01692 33.5832 6.27101 33.515C11.3256 32.093 16.6744 32.093 21.729 33.515C21.9831 33.5832 22.2538 33.5485 22.4825 33.4184C22.7112 33.2883 22.8794 33.0734 22.9507 32.8202C23.022 32.5669 22.9906 32.2958 22.8634 32.0656C22.7362 31.8353 22.5233 31.6644 22.271 31.59Z" fill="#202020"/>
<path d="M22.271 24.924C16.8622 23.401 11.1379 23.401 5.72903 24.924C5.4818 25.0026 5.27481 25.1743 5.15178 25.4027C5.02874 25.6311 4.99928 25.8984 5.06963 26.1481C5.13998 26.3978 5.30462 26.6104 5.52879 26.741C5.75295 26.8716 6.0191 26.91 6.27103 26.848C11.3256 25.426 16.6745 25.426 21.729 26.848C21.8568 26.8887 21.9915 26.9032 22.1251 26.8907C22.2586 26.8783 22.3883 26.8391 22.5064 26.7754C22.6245 26.7118 22.7286 26.6251 22.8125 26.5204C22.8964 26.4158 22.9583 26.2953 22.9947 26.1662C23.0311 26.0371 23.0411 25.902 23.0242 25.7689C23.0073 25.6359 22.9638 25.5076 22.8962 25.3917C22.8287 25.2758 22.7386 25.1746 22.6312 25.0943C22.5237 25.0139 22.4013 24.956 22.271 24.924Z" fill="#202020"/>
<path d="M22.271 18.257C16.8621 16.734 11.1378 16.734 5.72898 18.257C5.59873 18.289 5.47625 18.347 5.36884 18.4273C5.26144 18.5076 5.17129 18.6088 5.10377 18.7247C5.03625 18.8406 4.99274 18.9689 4.97582 19.1019C4.9589 19.235 4.96893 19.3701 5.0053 19.4992C5.04167 19.6283 5.10364 19.7488 5.18753 19.8535C5.27141 19.9581 5.3755 20.0448 5.49359 20.1084C5.61168 20.1721 5.74135 20.2113 5.87491 20.2237C6.00846 20.2362 6.14315 20.2217 6.27097 20.181C11.3255 18.759 16.6744 18.759 21.729 20.181C21.9809 20.243 22.247 20.2046 22.4712 20.074C22.6954 19.9434 22.86 19.7308 22.9304 19.4811C23.0007 19.2314 22.9713 18.9641 22.8482 18.7357C22.7252 18.5073 22.5182 18.3356 22.271 18.257Z" fill="#202020"/>
<path d="M5.72901 11.59C5.47668 11.6644 5.26384 11.8353 5.13662 12.0656C5.00939 12.2958 4.97803 12.5669 5.04933 12.8202C5.12063 13.0734 5.28884 13.2883 5.51752 13.4184C5.7462 13.5485 6.01692 13.5832 6.27101 13.515C11.3256 12.093 16.6744 12.093 21.729 13.515C21.9831 13.5832 22.2538 13.5485 22.4825 13.4184C22.7112 13.2883 22.8794 13.0734 22.9507 12.8202C23.022 12.5669 22.9906 12.2958 22.8634 12.0656C22.7362 11.8353 22.5233 11.6644 22.271 11.59C16.862 10.068 11.138 10.068 5.72901 11.59V11.59Z" fill="#202020"/>
<path d="M50.47 6.115C46.7111 4.10964 42.5236 3.04138 38.2634 3.00099C34.0032 2.9606 29.7963 3.94927 26 5.883C22.2037 3.94927 17.9968 2.9606 13.7366 3.00099C9.47639 3.04138 5.28891 4.10964 1.53 6.115C1.36957 6.20042 1.23546 6.32795 1.14208 6.48388C1.0487 6.63981 0.999579 6.81824 1 7V43C1.00012 43.1726 1.04489 43.3422 1.12997 43.4923C1.21504 43.6425 1.33753 43.768 1.48551 43.8568C1.63349 43.9456 1.80192 43.9946 1.97444 43.999C2.14696 44.0034 2.31768 43.9631 2.47 43.882C6.01798 41.9877 9.97802 40.9968 14 40.9968C18.022 40.9968 21.982 41.9877 25.53 43.882C25.6759 43.9551 25.8368 43.9932 26 43.9932C26.1632 43.9932 26.3241 43.9551 26.47 43.882C30.018 41.9877 33.978 40.9968 38 40.9968C42.022 40.9968 45.982 41.9877 49.53 43.882C49.6823 43.9631 49.853 44.0034 50.0256 43.999C50.1981 43.9946 50.3665 43.9456 50.5145 43.8568C50.6625 43.768 50.785 43.6425 50.87 43.4923C50.9551 43.3422 50.9999 43.1726 51 43V7C51.0004 6.81824 50.9513 6.63981 50.8579 6.48388C50.7645 6.32795 50.6304 6.20042 50.47 6.115V6.115ZM25 41.389C21.5476 39.8108 17.796 38.9939 14 38.9939C10.204 38.9939 6.4524 39.8108 3 41.389V7.606C6.41273 5.88936 10.1799 4.99527 14 4.99527C17.8202 4.99527 21.5873 5.88936 25 7.606V41.389ZM49 41.389C45.5476 39.8108 41.796 38.9939 38 38.9939C34.204 38.9939 30.4524 39.8108 27 41.389V7.606C30.4127 5.88936 34.1799 4.99527 38 4.99527C41.8202 4.99527 45.5873 5.88936 49 7.606V41.389Z" fill="#202020"/>
<path d="M46.271 31.59C40.862 30.068 35.138 30.068 29.729 31.59C29.4767 31.6644 29.2638 31.8353 29.1366 32.0656C29.0094 32.2958 28.978 32.5669 29.0493 32.8202C29.1206 33.0734 29.2888 33.2883 29.5175 33.4184C29.7462 33.5485 30.0169 33.5832 30.271 33.515C35.3256 32.093 40.6744 32.093 45.729 33.515C45.9831 33.5832 46.2538 33.5485 46.4825 33.4184C46.7112 33.2883 46.8794 33.0734 46.9507 32.8202C47.022 32.5669 46.9906 32.2958 46.8634 32.0656C46.7362 31.8353 46.5233 31.6644 46.271 31.59V31.59Z" fill="#202020"/>
<path d="M46.271 24.924C40.8622 23.401 35.1378 23.401 29.729 24.924C29.4818 25.0026 29.2748 25.1743 29.1517 25.4027C29.0287 25.6311 28.9993 25.8984 29.0696 26.1481C29.1399 26.3978 29.3046 26.6104 29.5288 26.741C29.7529 26.8716 30.0191 26.91 30.271 26.848C35.3256 25.426 40.6744 25.426 45.729 26.848C45.9809 26.91 46.2471 26.8716 46.4712 26.741C46.6954 26.6104 46.86 26.3978 46.9304 26.1481C47.0007 25.8984 46.9713 25.6311 46.8482 25.4027C46.7252 25.1743 46.5182 25.0026 46.271 24.924Z" fill="#202020"/>
<path d="M46.271 18.257C40.8622 16.734 35.1378 16.734 29.729 18.257C29.4818 18.3356 29.2748 18.5073 29.1517 18.7357C29.0287 18.9641 28.9993 19.2314 29.0696 19.4811C29.1399 19.7308 29.3046 19.9434 29.5288 20.074C29.7529 20.2046 30.0191 20.243 30.271 20.181C35.3256 18.759 40.6744 18.759 45.729 20.181C45.9809 20.243 46.2471 20.2046 46.4712 20.074C46.6954 19.9434 46.86 19.7308 46.9304 19.4811C47.0007 19.2314 46.9713 18.9641 46.8482 18.7357C46.7252 18.5073 46.5182 18.3356 46.271 18.257Z" fill="#202020"/>
<path d="M29.729 11.59C29.4767 11.6644 29.2638 11.8353 29.1366 12.0656C29.0094 12.2958 28.978 12.5669 29.0493 12.8202C29.1206 13.0734 29.2888 13.2883 29.5175 13.4184C29.7462 13.5485 30.0169 13.5832 30.271 13.515C35.3256 12.093 40.6744 12.093 45.729 13.515C45.9831 13.5832 46.2538 13.5485 46.4825 13.4184C46.7112 13.2883 46.8794 13.0734 46.9507 12.8202C47.022 12.5669 46.9906 12.2958 46.8634 12.0656C46.7362 11.8353 46.5233 11.6644 46.271 11.59C40.862 10.068 35.138 10.068 29.729 11.59V11.59Z" fill="#202020"/>
</svg>
