<svg width="64" height="64" viewBox="0 0 64 64" fill="none" xmlns="http://www.w3.org/2000/svg">
<path d="M60 38H59V52C59.0001 52.4278 58.9087 52.8507 58.732 53.2403C58.5552 53.6299 58.2972 53.9772 57.9751 54.2588C57.6531 54.5405 57.2746 54.75 56.8649 54.8734C56.4553 54.9967 56.024 55.031 55.6 54.974C52.5472 54.5615 49.4528 54.5615 46.4 54.974C43.7732 55.3532 41.1927 56.0036 38.7 56.915C38.2135 57.0249 37.7084 57.0225 37.223 56.908C31.864 54.8718 26.0812 54.207 20.4 54.974C19.976 55.031 19.5447 54.9967 19.1351 54.8734C18.7254 54.75 18.3469 54.5405 18.0249 54.2588C17.7028 53.9772 17.4448 53.6299 17.268 53.2403C17.0913 52.8507 16.9999 52.4278 17 52V38H16C15.2044 38 14.4413 38.3161 13.8787 38.8787C13.3161 39.4413 13 40.2044 13 41V60C13 60.7956 13.3161 61.5587 13.8787 62.1213C14.4413 62.6839 15.2044 63 16 63H60C60.7956 63 61.5587 62.6839 62.1213 62.1213C62.6839 61.5587 63 60.7956 63 60V41C63 40.2044 62.6839 39.4413 62.1213 38.8787C61.5587 38.3161 60.7956 38 60 38Z" fill="#ED954A"/>
<path d="M49.707 22.293L51 23.586V18.665C49.6636 18.6713 48.3284 18.7477 47 18.894V23.586L48.293 22.293C48.4805 22.1055 48.7348 22.0002 49 22.0002C49.2652 22.0002 49.5195 22.1055 49.707 22.293V22.293Z" fill="#ED954A"/>
<path d="M20.133 52.991C25.8125 52.2177 31.5946 52.809 37 54.716V20.616C31.4878 18.7733 25.6251 18.2258 19.867 19.016C19.6282 19.048 19.409 19.1652 19.2497 19.346C19.0904 19.5268 19.0017 19.7591 19 20V52C19 52.1425 19.0305 52.2834 19.0894 52.4132C19.1484 52.543 19.2343 52.6587 19.3416 52.7526C19.4489 52.8464 19.575 52.9163 19.7115 52.9574C19.848 52.9985 19.9917 53.01 20.133 52.991V52.991ZM25 25H33C33.2652 25 33.5196 25.1054 33.7071 25.2929C33.8946 25.4804 34 25.7348 34 26C34 26.2652 33.8946 26.5196 33.7071 26.7071C33.5196 26.8946 33.2652 27 33 27H25C24.7348 27 24.4804 26.8946 24.2929 26.7071C24.1054 26.5196 24 26.2652 24 26C24 25.7348 24.1054 25.4804 24.2929 25.2929C24.4804 25.1054 24.7348 25 25 25ZM25 31H33C33.2652 31 33.5196 31.1054 33.7071 31.2929C33.8946 31.4804 34 31.7348 34 32C34 32.2652 33.8946 32.5196 33.7071 32.7071C33.5196 32.8946 33.2652 33 33 33H25C24.7348 33 24.4804 32.8946 24.2929 32.7071C24.1054 32.5196 24 32.2652 24 32C24 31.7348 24.1054 31.4804 24.2929 31.2929C24.4804 31.1054 24.7348 31 25 31ZM25 37H33C33.2652 37 33.5196 37.1054 33.7071 37.2929C33.8946 37.4804 34 37.7348 34 38C34 38.2652 33.8946 38.5196 33.7071 38.7071C33.5196 38.8946 33.2652 39 33 39H25C24.7348 39 24.4804 38.8946 24.2929 38.7071C24.1054 38.5196 24 38.2652 24 38C24 37.7348 24.1054 37.4804 24.2929 37.2929C24.4804 37.1054 24.7348 37 25 37ZM25 43H33C33.2652 43 33.5196 43.1054 33.7071 43.2929C33.8946 43.4804 34 43.7348 34 44C34 44.2652 33.8946 44.5196 33.7071 44.7071C33.5196 44.8946 33.2652 45 33 45H25C24.7348 45 24.4804 44.8946 24.2929 44.7071C24.1054 44.5196 24 44.2652 24 44C24 43.7348 24.1054 43.4804 24.2929 43.2929C24.4804 43.1054 24.7348 43 25 43Z" fill="#ED954A"/>
<path d="M55.867 52.991C56.0083 53.01 56.152 52.9985 56.2885 52.9574C56.4249 52.9162 56.5511 52.8464 56.6584 52.7526C56.7657 52.6587 56.8517 52.543 56.9106 52.4132C56.9695 52.2834 57 52.1425 57 52V20C57 19.7578 56.9121 19.5239 56.7526 19.3417C56.5932 19.1594 56.373 19.0412 56.133 19.009C55.092 18.869 54.046 18.786 53 18.732V26C53 26.1977 52.9413 26.391 52.8314 26.5555C52.7215 26.7199 52.5654 26.848 52.3827 26.9237C52.2 26.9993 51.9989 27.0191 51.805 26.9806C51.611 26.942 51.4329 26.8468 51.293 26.707L49 24.414L46.707 26.707C46.5671 26.8468 46.389 26.942 46.195 26.9806C46.0011 27.0191 45.8 26.9993 45.6173 26.9237C45.4346 26.848 45.2785 26.7199 45.1686 26.5555C45.0587 26.391 45 26.1977 45 26V19.15C42.9642 19.4761 40.9578 19.9646 39 20.611V54.716C44.4054 52.809 50.1875 52.2176 55.867 52.991V52.991ZM43 31H51C51.2652 31 51.5196 31.1054 51.7071 31.2929C51.8946 31.4804 52 31.7348 52 32C52 32.2652 51.8946 32.5196 51.7071 32.7071C51.5196 32.8946 51.2652 33 51 33H43C42.7348 33 42.4804 32.8946 42.2929 32.7071C42.1054 32.5196 42 32.2652 42 32C42 31.7348 42.1054 31.4804 42.2929 31.2929C42.4804 31.1054 42.7348 31 43 31ZM43 37H51C51.2652 37 51.5196 37.1054 51.7071 37.2929C51.8946 37.4804 52 37.7348 52 38C52 38.2652 51.8946 38.5196 51.7071 38.7071C51.5196 38.8946 51.2652 39 51 39H43C42.7348 39 42.4804 38.8946 42.2929 38.7071C42.1054 38.5196 42 38.2652 42 38C42 37.7348 42.1054 37.4804 42.2929 37.2929C42.4804 37.1054 42.7348 37 43 37ZM42 44C42 43.7348 42.1054 43.4804 42.2929 43.2929C42.4804 43.1054 42.7348 43 43 43H51C51.2652 43 51.5196 43.1054 51.7071 43.2929C51.8946 43.4804 52 43.7348 52 44C52 44.2652 51.8946 44.5196 51.7071 44.7071C51.5196 44.8946 51.2652 45 51 45H43C42.7348 45 42.4804 44.8946 42.2929 44.7071C42.1054 44.5196 42 44.2652 42 44Z" fill="#ED954A"/>
<path d="M38 1H4C3.20435 1 2.44129 1.31607 1.87868 1.87868C1.31607 2.44129 1 3.20435 1 4V46C1.00159 47.3256 1.52888 48.5964 2.46622 49.5338C3.40356 50.4711 4.6744 50.9984 6 51H40C40.2652 51 40.5196 50.8946 40.7071 50.7071C40.8946 50.5196 41 50.2652 41 50V4C41 3.20435 40.6839 2.44129 40.1213 1.87868C39.5587 1.31607 38.7956 1 38 1V1ZM4 3H38C38.2652 3 38.5196 3.10536 38.7071 3.29289C38.8946 3.48043 39 3.73478 39 4V41H6C4.91453 41.0037 3.86039 41.3642 3 42.026V4C3 3.73478 3.10536 3.48043 3.29289 3.29289C3.48043 3.10536 3.73478 3 4 3V3ZM39 49H6C5.20435 49 4.44129 48.6839 3.87868 48.1213C3.31607 47.5587 3 46.7956 3 46C3 45.2044 3.31607 44.4413 3.87868 43.8787C4.44129 43.3161 5.20435 43 6 43H39V49Z" fill="#202020"/>
<path d="M10 27C9.73478 27 9.48043 27.1054 9.29289 27.2929C9.10536 27.4804 9 27.7348 9 28C9.00238 30.121 9.846 32.1544 11.3458 33.6542C12.8456 35.154 14.879 35.9976 17 36H25C27.121 35.9976 29.1544 35.154 30.6542 33.6542C32.154 32.1544 32.9976 30.121 33 28C33 27.7348 32.8946 27.4804 32.7071 27.2929C32.5196 27.1054 32.2652 27 32 27H29.664L22.506 10H32C32.2652 10 32.5196 9.89464 32.7071 9.70711C32.8946 9.51957 33 9.26522 33 9C33 8.73478 32.8946 8.48043 32.7071 8.29289C32.5196 8.10536 32.2652 8 32 8H10C9.73478 8 9.48043 8.10536 9.29289 8.29289C9.10536 8.48043 9 8.73478 9 9C9 9.26522 9.10536 9.51957 9.29289 9.70711C9.48043 9.89464 9.73478 10 10 10H19.494L12.336 27H10ZM25 34H17C15.5825 33.9982 14.2112 33.4955 13.1284 32.5805C12.0457 31.6656 11.3212 30.3974 11.083 29H30.917C30.6788 30.3974 29.9543 31.6656 28.8716 32.5805C27.7888 33.4955 26.4175 33.9982 25 34V34ZM21 11.577L27.494 27H14.506L21 11.577Z" fill="#202020"/>
</svg>
