<svg width="64" height="64" viewBox="0 0 64 64" fill="none" xmlns="http://www.w3.org/2000/svg">
<path d="M50.1 21H37.9C37.7025 21.9602 37.2277 22.8414 36.5346 23.5346C35.8414 24.2277 34.9602 24.7025 34 24.9V37.1C34.9602 37.2975 35.8414 37.7723 36.5346 38.4654C37.2277 39.1586 37.7025 40.0398 37.9 41H50.1C50.2975 40.0398 50.7723 39.1586 51.4654 38.4654C52.1586 37.7723 53.0398 37.2975 54 37.1V24.9C53.0398 24.7025 52.1586 24.2277 51.4654 23.5346C50.7723 22.8414 50.2975 21.9602 50.1 21V21ZM51 36H37C36.7348 36 36.4804 35.8946 36.2929 35.7071C36.1054 35.5196 36 35.2652 36 35C36 34.7348 36.1054 34.4804 36.2929 34.2929C36.4804 34.1054 36.7348 34 37 34H51C51.2652 34 51.5196 34.1054 51.7071 34.2929C51.8946 34.4804 52 34.7348 52 35C52 35.2652 51.8946 35.5196 51.7071 35.7071C51.5196 35.8946 51.2652 36 51 36ZM51 32H37C36.7348 32 36.4804 31.8946 36.2929 31.7071C36.1054 31.5196 36 31.2652 36 31C36 30.7348 36.1054 30.4804 36.2929 30.2929C36.4804 30.1054 36.7348 30 37 30H51C51.2652 30 51.5196 30.1054 51.7071 30.2929C51.8946 30.4804 52 30.7348 52 31C52 31.2652 51.8946 31.5196 51.7071 31.7071C51.5196 31.8946 51.2652 32 51 32ZM52 27C52 27.2652 51.8946 27.5196 51.7071 27.7071C51.5196 27.8946 51.2652 28 51 28H37C36.7348 28 36.4804 27.8946 36.2929 27.7071C36.1054 27.5196 36 27.2652 36 27C36 26.7348 36.1054 26.4804 36.2929 26.2929C36.4804 26.1054 36.7348 26 37 26H51C51.2652 26 51.5196 26.1054 51.7071 26.2929C51.8946 26.4804 52 26.7348 52 27Z" fill="#ED954A"/>
<path d="M60 13H28C27.2044 13 26.4413 13.3161 25.8787 13.8787C25.3161 14.4413 25 15.2044 25 16V60C25 60.7956 25.3161 61.5587 25.8787 62.1213C26.4413 62.6839 27.2044 63 28 63H60C60.7956 63 61.5587 62.6839 62.1213 62.1213C62.6839 61.5587 63 60.7956 63 60V16C63 15.2044 62.6839 14.4413 62.1213 13.8787C61.5587 13.3161 60.7956 13 60 13ZM55 54H33C32.7348 54 32.4804 53.8946 32.2929 53.7071C32.1054 53.5196 32 53.2652 32 53C32 52.7348 32.1054 52.4804 32.2929 52.2929C32.4804 52.1054 32.7348 52 33 52H55C55.2652 52 55.5196 52.1054 55.7071 52.2929C55.8946 52.4804 56 52.7348 56 53C56 53.2652 55.8946 53.5196 55.7071 53.7071C55.5196 53.8946 55.2652 54 55 54ZM55 50H33C32.7348 50 32.4804 49.8946 32.2929 49.7071C32.1054 49.5196 32 49.2652 32 49C32 48.7348 32.1054 48.4804 32.2929 48.2929C32.4804 48.1054 32.7348 48 33 48H55C55.2652 48 55.5196 48.1054 55.7071 48.2929C55.8946 48.4804 56 48.7348 56 49C56 49.2652 55.8946 49.5196 55.7071 49.7071C55.5196 49.8946 55.2652 50 55 50ZM56 38C56 38.2652 55.8946 38.5196 55.7071 38.7071C55.5196 38.8946 55.2652 39 55 39C54.2044 39 53.4413 39.3161 52.8787 39.8787C52.3161 40.4413 52 41.2044 52 42C52 42.2652 51.8946 42.5196 51.7071 42.7071C51.5196 42.8946 51.2652 43 51 43H37C36.7348 43 36.4804 42.8946 36.2929 42.7071C36.1054 42.5196 36 42.2652 36 42C36 41.2044 35.6839 40.4413 35.1213 39.8787C34.5587 39.3161 33.7956 39 33 39C32.7348 39 32.4804 38.8946 32.2929 38.7071C32.1054 38.5196 32 38.2652 32 38V24C32 23.7348 32.1054 23.4804 32.2929 23.2929C32.4804 23.1054 32.7348 23 33 23C33.7956 23 34.5587 22.6839 35.1213 22.1213C35.6839 21.5587 36 20.7956 36 20C36 19.7348 36.1054 19.4804 36.2929 19.2929C36.4804 19.1054 36.7348 19 37 19H51C51.2652 19 51.5196 19.1054 51.7071 19.2929C51.8946 19.4804 52 19.7348 52 20C52 20.7956 52.3161 21.5587 52.8787 22.1213C53.4413 22.6839 54.2044 23 55 23C55.2652 23 55.5196 23.1054 55.7071 23.2929C55.8946 23.4804 56 23.7348 56 24V38Z" fill="#ED954A"/>
<path d="M44 1H4C3.20435 1 2.44129 1.31607 1.87868 1.87868C1.31607 2.44129 1 3.20435 1 4V47C1 47.7956 1.31607 48.5587 1.87868 49.1213C2.44129 49.6839 3.20435 50 4 50H44C44.7956 50 45.5587 49.6839 46.1213 49.1213C46.6839 48.5587 47 47.7956 47 47V4C47 3.20435 46.6839 2.44129 46.1213 1.87868C45.5587 1.31607 44.7956 1 44 1V1ZM45 47C45 47.2652 44.8946 47.5196 44.7071 47.7071C44.5196 47.8946 44.2652 48 44 48H4C3.73478 48 3.48043 47.8946 3.29289 47.7071C3.10536 47.5196 3 47.2652 3 47V4C3 3.73478 3.10536 3.48043 3.29289 3.29289C3.48043 3.10536 3.73478 3 4 3H44C44.2652 3 44.5196 3.10536 44.7071 3.29289C44.8946 3.48043 45 3.73478 45 4V47Z" fill="#202020"/>
<path d="M41 6H7C6.73478 6 6.48043 6.10536 6.29289 6.29289C6.10536 6.48043 6 6.73478 6 7V18C6 18.2652 6.10536 18.5196 6.29289 18.7071C6.48043 18.8946 6.73478 19 7 19H41C41.2652 19 41.5196 18.8946 41.7071 18.7071C41.8946 18.5196 42 18.2652 42 18V7C42 6.73478 41.8946 6.48043 41.7071 6.29289C41.5196 6.10536 41.2652 6 41 6ZM40 17H8V8H40V17Z" fill="#202020"/>
<path d="M15 22H7C6.73478 22 6.48043 22.1054 6.29289 22.2929C6.10536 22.4804 6 22.7348 6 23V31C6 31.2652 6.10536 31.5196 6.29289 31.7071C6.48043 31.8946 6.73478 32 7 32H15C15.2652 32 15.5196 31.8946 15.7071 31.7071C15.8946 31.5196 16 31.2652 16 31V23C16 22.7348 15.8946 22.4804 15.7071 22.2929C15.5196 22.1054 15.2652 22 15 22ZM14 30H8V24H14V30Z" fill="#202020"/>
<path d="M28 22H20C19.7348 22 19.4804 22.1054 19.2929 22.2929C19.1054 22.4804 19 22.7348 19 23V31C19 31.2652 19.1054 31.5196 19.2929 31.7071C19.4804 31.8946 19.7348 32 20 32H28C28.2652 32 28.5196 31.8946 28.7071 31.7071C28.8946 31.5196 29 31.2652 29 31V23C29 22.7348 28.8946 22.4804 28.7071 22.2929C28.5196 22.1054 28.2652 22 28 22ZM27 30H21V24H27V30Z" fill="#202020"/>
<path d="M15 35H7C6.73478 35 6.48043 35.1054 6.29289 35.2929C6.10536 35.4804 6 35.7348 6 36V44C6 44.2652 6.10536 44.5196 6.29289 44.7071C6.48043 44.8946 6.73478 45 7 45H15C15.2652 45 15.5196 44.8946 15.7071 44.7071C15.8946 44.5196 16 44.2652 16 44V36C16 35.7348 15.8946 35.4804 15.7071 35.2929C15.5196 35.1054 15.2652 35 15 35ZM14 43H8V37H14V43Z" fill="#202020"/>
<path d="M28 35H20C19.7348 35 19.4804 35.1054 19.2929 35.2929C19.1054 35.4804 19 35.7348 19 36V44C19 44.2652 19.1054 44.5196 19.2929 44.7071C19.4804 44.8946 19.7348 45 20 45H28C28.2652 45 28.5196 44.8946 28.7071 44.7071C28.8946 44.5196 29 44.2652 29 44V36C29 35.7348 28.8946 35.4804 28.7071 35.2929C28.5196 35.1054 28.2652 35 28 35ZM27 43H21V37H27V43Z" fill="#202020"/>
<path d="M41 23H33C32.7348 23 32.4804 23.1054 32.2929 23.2929C32.1054 23.4804 32 23.7348 32 24V44C32 44.2652 32.1054 44.5196 32.2929 44.7071C32.4804 44.8946 32.7348 45 33 45H41C41.2652 45 41.5196 44.8946 41.7071 44.7071C41.8946 44.5196 42 44.2652 42 44V24C42 23.7348 41.8946 23.4804 41.7071 23.2929C41.5196 23.1054 41.2652 23 41 23ZM40 43H34V25H40V43Z" fill="#202020"/>
</svg>
