<svg width="64" height="64" viewBox="0 0 64 64" fill="none" xmlns="http://www.w3.org/2000/svg">
<path d="M54 39C53.7348 39 53.4804 38.8946 53.2929 38.7071C53.1053 38.5196 53 38.2652 53 38C53 37.7348 53.1053 37.4804 53.2929 37.2929C53.4804 37.1054 53.7348 37 54 37H56.949C56.6982 32.321 54.7266 27.9 51.4133 24.5867C48.1 21.2734 43.6789 19.3018 39 19.051V22C39 22.2652 38.8946 22.5196 38.7071 22.7071C38.5196 22.8946 38.2652 23 38 23C37.7348 23 37.4804 22.8946 37.2929 22.7071C37.1054 22.5196 37 22.2652 37 22V19.051C32.321 19.3018 27.9 21.2734 24.5867 24.5867C21.2734 27.9 19.3018 32.321 19.051 37H22C22.2652 37 22.5196 37.1054 22.7071 37.2929C22.8946 37.4804 23 37.7348 23 38C23 38.2652 22.8946 38.5196 22.7071 38.7071C22.5196 38.8946 22.2652 39 22 39H19.051C19.3018 43.6789 21.2734 48.1 24.5867 51.4133C27.9 54.7266 32.321 56.6982 37 56.949V54C37 53.7348 37.1054 53.4804 37.2929 53.2929C37.4804 53.1053 37.7348 53 38 53C38.2652 53 38.5196 53.1053 38.7071 53.2929C38.8946 53.4804 39 53.7348 39 54V56.949C43.6789 56.6982 48.1 54.7266 51.4133 51.4133C54.7266 48.1 56.6982 43.6789 56.949 39H54ZM47.192 30.222L41.433 35.981C41.8006 36.5906 41.9965 37.2882 42 38C41.9967 38.8842 41.7005 39.7424 41.1577 40.4404C40.6149 41.1384 39.8561 41.6369 39 41.858V48C39 48.2652 38.8946 48.5196 38.7071 48.7071C38.5196 48.8946 38.2652 49 38 49C37.7348 49 37.4804 48.8946 37.2929 48.7071C37.1054 48.5196 37 48.2652 37 48V41.858C36.0584 41.6156 35.2376 41.0379 34.6916 40.2334C34.1457 39.4288 33.9122 38.4526 34.035 37.488C34.1577 36.5235 34.6283 35.6369 35.3583 34.9947C36.0883 34.3525 37.0277 33.9988 38 34C38.7118 34.0035 39.4094 34.1994 40.019 34.567L45.778 28.808C45.9666 28.6258 46.2192 28.525 46.4814 28.5273C46.7436 28.5296 46.9944 28.6348 47.1798 28.8202C47.3652 29.0056 47.4704 29.2564 47.4727 29.5186C47.4749 29.7808 47.3742 30.0334 47.192 30.222V30.222Z" fill="#ED954A"/>
<path d="M38 13C33.0555 13 28.222 14.4662 24.1108 17.2133C19.9995 19.9603 16.7952 23.8648 14.903 28.4329C13.0108 33.0011 12.5157 38.0277 13.4804 42.8773C14.445 47.7268 16.826 52.1814 20.3223 55.6777C23.8187 59.174 28.2732 61.555 33.1228 62.5196C37.9723 63.4843 42.9989 62.9892 47.5671 61.097C52.1352 59.2048 56.0397 56.0005 58.7868 51.8893C61.5338 47.778 63 42.9445 63 38C62.9926 31.3719 60.3563 25.0173 55.6695 20.3305C50.9827 15.6437 44.6281 13.0074 38 13V13ZM38 59C33.8466 59 29.7865 57.7684 26.333 55.4609C22.8796 53.1534 20.188 49.8736 18.5985 46.0364C17.0091 42.1991 16.5932 37.9767 17.4035 33.9031C18.2138 29.8295 20.2139 26.0877 23.1508 23.1508C26.0877 20.2139 29.8295 18.2138 33.9031 17.4035C37.9767 16.5932 42.1991 17.0091 46.0364 18.5985C49.8736 20.188 53.1534 22.8796 55.4609 26.333C57.7684 29.7865 59 33.8466 59 38C58.9939 43.5677 56.7795 48.9056 52.8425 52.8425C48.9056 56.7795 43.5677 58.9939 38 59V59Z" fill="#ED954A"/>
<path d="M38 40C39.1046 40 40 39.1046 40 38C40 36.8954 39.1046 36 38 36C36.8954 36 36 36.8954 36 38C36 39.1046 36.8954 40 38 40Z" fill="#ED954A"/>
<path d="M48 4H39V2C39 1.73478 38.8946 1.48043 38.7071 1.29289C38.5196 1.10536 38.2652 1 38 1C37.7348 1 37.4804 1.10536 37.2929 1.29289C37.1054 1.48043 37 1.73478 37 2V4H27V2C27 1.73478 26.8946 1.48043 26.7071 1.29289C26.5196 1.10536 26.2652 1 26 1C25.7348 1 25.4804 1.10536 25.2929 1.29289C25.1054 1.48043 25 1.73478 25 2V4H15V2C15 1.73478 14.8946 1.48043 14.7071 1.29289C14.5196 1.10536 14.2652 1 14 1C13.7348 1 13.4804 1.10536 13.2929 1.29289C13.1054 1.48043 13 1.73478 13 2V4H4C3.20435 4 2.44129 4.31607 1.87868 4.87868C1.31607 5.44129 1 6.20435 1 7V43C1 43.7956 1.31607 44.5587 1.87868 45.1213C2.44129 45.6839 3.20435 46 4 46H48C48.7956 46 49.5587 45.6839 50.1213 45.1213C50.6839 44.5587 51 43.7956 51 43V7C51 6.20435 50.6839 5.44129 50.1213 4.87868C49.5587 4.31607 48.7956 4 48 4V4ZM49 43C49 43.2652 48.8946 43.5196 48.7071 43.7071C48.5196 43.8946 48.2652 44 48 44H4C3.73478 44 3.48043 43.8946 3.29289 43.7071C3.10536 43.5196 3 43.2652 3 43V7C3 6.73478 3.10536 6.48043 3.29289 6.29289C3.48043 6.10536 3.73478 6 4 6H13V8C13 8.26522 13.1054 8.51957 13.2929 8.70711C13.4804 8.89464 13.7348 9 14 9C14.2652 9 14.5196 8.89464 14.7071 8.70711C14.8946 8.51957 15 8.26522 15 8V6H25V8C25 8.26522 25.1054 8.51957 25.2929 8.70711C25.4804 8.89464 25.7348 9 26 9C26.2652 9 26.5196 8.89464 26.7071 8.70711C26.8946 8.51957 27 8.26522 27 8V6H37V8C37 8.26522 37.1054 8.51957 37.2929 8.70711C37.4804 8.89464 37.7348 9 38 9C38.2652 9 38.5196 8.89464 38.7071 8.70711C38.8946 8.51957 39 8.26522 39 8V6H48C48.2652 6 48.5196 6.10536 48.7071 6.29289C48.8946 6.48043 49 6.73478 49 7V43Z" fill="#202020"/>
<path d="M45 12H7C6.73478 12 6.48043 12.1054 6.29289 12.2929C6.10536 12.4804 6 12.7348 6 13V40C6 40.2652 6.10536 40.5196 6.29289 40.7071C6.48043 40.8946 6.73478 41 7 41H45C45.2652 41 45.5196 40.8946 45.7071 40.7071C45.8946 40.5196 46 40.2652 46 40V13C46 12.7348 45.8946 12.4804 45.7071 12.2929C45.5196 12.1054 45.2652 12 45 12ZM25 39H8V32H25V39ZM25 30H8V23H25V30ZM25 21H8V14H25V21ZM44 39H27V32H44V39ZM44 30H27V23H44V30ZM44 21H27V14H44V21Z" fill="#202020"/>
</svg>
