<svg width="64" height="64" viewBox="0 0 64 64" fill="none" xmlns="http://www.w3.org/2000/svg">
<path d="M62.218 31.775C62.1523 31.5206 62.0372 31.2815 61.8792 31.0716C61.7212 30.8617 61.5233 30.6849 61.297 30.5514C61.0706 30.4179 60.8202 30.3303 60.56 30.2936C60.2998 30.2569 60.0349 30.2718 59.7805 30.3375C59.5261 30.4032 59.2871 30.5183 59.0771 30.6763C58.8672 30.8343 58.6904 31.0322 58.5569 31.2585C58.4235 31.4849 58.3359 31.7353 58.2992 31.9955C58.2624 32.2557 58.2773 32.5206 58.343 32.775C59.4918 37.2484 59.1339 41.9757 57.3246 46.2251C55.5153 50.4744 52.3557 54.0089 48.3348 56.2811C44.3139 58.5534 39.6561 59.4367 35.0824 58.7944C30.5088 58.1521 26.2745 56.0199 23.035 52.728H25.272C25.8024 52.728 26.3112 52.5173 26.6862 52.1422C27.0613 51.7671 27.272 51.2584 27.272 50.728C27.272 50.1976 27.0613 49.6889 26.6862 49.3138C26.3112 48.9387 25.8024 48.728 25.272 48.728H18.2C17.6696 48.728 17.1609 48.9387 16.7858 49.3138C16.4107 49.6889 16.2 50.1976 16.2 50.728V57.8C16.2 58.3304 16.4107 58.8391 16.7858 59.2142C17.1609 59.5893 17.6696 59.8 18.2 59.8C18.7304 59.8 19.2392 59.5893 19.6142 59.2142C19.9893 58.8391 20.2 58.3304 20.2 57.8V55.55C24.0606 59.4601 29.1016 61.9898 34.5438 62.7481C39.9861 63.5063 45.5266 62.4509 50.3089 59.7449C55.0912 57.0389 58.8491 52.8331 61.0017 47.7774C63.1543 42.7218 63.5818 37.0979 62.218 31.775V31.775Z" fill="#ED954A"/>
<path d="M17.657 43.23C16.5065 38.7562 16.8632 34.028 18.6719 29.7774C20.4805 25.5269 23.6402 21.9913 27.6615 19.7182C31.6829 17.4451 36.3415 16.5614 40.916 17.2039C45.4904 17.8463 49.7254 19.9791 52.965 23.272H50.728C50.1976 23.272 49.6889 23.4827 49.3138 23.8578C48.9387 24.2329 48.728 24.7416 48.728 25.272C48.728 25.8024 48.9387 26.3111 49.3138 26.6862C49.6889 27.0613 50.1976 27.272 50.728 27.272H57.8C58.3304 27.272 58.8391 27.0613 59.2142 26.6862C59.5893 26.3111 59.8 25.8024 59.8 25.272V18.2C59.8 17.6696 59.5893 17.1609 59.2142 16.7858C58.8391 16.4107 58.3304 16.2 57.8 16.2C57.2696 16.2 56.7609 16.4107 56.3858 16.7858C56.0107 17.1609 55.8 17.6696 55.8 18.2V20.45C51.9395 16.5399 46.8985 14.0101 41.4562 13.2519C36.0139 12.4937 30.4735 13.5491 25.6911 16.2551C20.9088 18.9611 17.1509 23.1669 14.9983 28.2226C12.8457 33.2782 12.4182 38.9021 13.782 44.225C13.8477 44.4794 13.9628 44.7185 14.1208 44.9284C14.2789 45.1383 14.4767 45.3151 14.703 45.4486C14.9294 45.5821 15.1798 45.6697 15.44 45.7064C15.7002 45.7431 15.9651 45.7282 16.2195 45.6625C16.4739 45.5968 16.713 45.4817 16.9229 45.3237C17.1328 45.1656 17.3096 44.9678 17.4431 44.7415C17.5766 44.5151 17.6642 44.2647 17.7009 44.0045C17.7376 43.7443 17.7227 43.4794 17.657 43.225V43.23Z" fill="#ED954A"/>
<path d="M38 24C35.2311 24 32.5243 24.8211 30.222 26.3594C27.9197 27.8978 26.1253 30.0843 25.0657 32.6424C24.0061 35.2006 23.7288 38.0155 24.269 40.7313C24.8092 43.447 26.1426 45.9416 28.1005 47.8995C30.0584 49.8574 32.553 51.1908 35.2687 51.731C37.9845 52.2712 40.7994 51.9939 43.3576 50.9343C45.9157 49.8747 48.1022 48.0803 49.6406 45.778C51.1789 43.4757 52 40.7689 52 38C51.996 34.2882 50.5198 30.7295 47.8951 28.1049C45.2705 25.4802 41.7118 24.004 38 24V24ZM38 48C35.3487 47.9971 32.8069 46.9426 30.9322 45.0679C29.0574 43.1931 28.0029 40.6513 28 38C28 37.7348 28.1054 37.4804 28.2929 37.2929C28.4804 37.1054 28.7348 37 29 37C29.2652 37 29.5196 37.1054 29.7071 37.2929C29.8946 37.4804 30 37.7348 30 38C30.0024 40.121 30.846 42.1544 32.3458 43.6542C33.8456 45.154 35.879 45.9976 38 46C38.2652 46 38.5196 46.1054 38.7071 46.2929C38.8946 46.4804 39 46.7348 39 47C39 47.2652 38.8946 47.5196 38.7071 47.7071C38.5196 47.8946 38.2652 48 38 48ZM47 39C46.7348 39 46.4804 38.8946 46.2929 38.7071C46.1054 38.5196 46 38.2652 46 38C45.9976 35.879 45.154 33.8456 43.6542 32.3458C42.1545 30.846 40.121 30.0024 38 30C37.7348 30 37.4804 29.8946 37.2929 29.7071C37.1054 29.5196 37 29.2652 37 29C37 28.7348 37.1054 28.4804 37.2929 28.2929C37.4804 28.1054 37.7348 28 38 28C40.6513 28.0029 43.1931 29.0574 45.0679 30.9321C46.9426 32.8069 47.9971 35.3487 48 38C48 38.2652 47.8946 38.5196 47.7071 38.7071C47.5196 38.8946 47.2652 39 47 39Z" fill="#ED954A"/>
<path d="M24 1C19.451 1 15.0042 2.34893 11.2219 4.8762C7.43956 7.40347 4.4916 10.9956 2.75078 15.1983C1.00997 19.401 0.554489 24.0255 1.44195 28.4871C2.32941 32.9486 4.51995 37.0468 7.73655 40.2635C10.9532 43.4801 15.0514 45.6706 19.5129 46.5581C23.9745 47.4455 28.599 46.99 32.8017 45.2492C37.0044 43.5084 40.5965 40.5604 43.1238 36.7781C45.6511 32.9958 47 28.549 47 24C46.9934 17.9021 44.5681 12.0558 40.2562 7.74385C35.9443 3.43195 30.098 1.00662 24 1V1ZM24 45C19.8466 45 15.7865 43.7684 12.333 41.4609C8.8796 39.1534 6.18798 35.8736 4.59854 32.0364C3.0091 28.1991 2.59323 23.9767 3.40352 19.9031C4.21381 15.8295 6.21387 12.0877 9.15077 9.15076C12.0877 6.21386 15.8295 4.2138 19.9031 3.40351C23.9767 2.59322 28.1991 3.00909 32.0364 4.59853C35.8736 6.18797 39.1534 8.87959 41.4609 12.333C43.7684 15.7865 45 19.8466 45 24C44.9937 29.5676 42.7791 34.9053 38.8422 38.8422C34.9054 42.7791 29.5676 44.9936 24 45V45Z" fill="#202020"/>
<path d="M24 6C20.4399 6 16.9598 7.05568 13.9997 9.03355C11.0397 11.0114 8.73255 13.8226 7.37018 17.1117C6.0078 20.4008 5.65134 24.02 6.34587 27.5116C7.04041 31.0033 8.75474 34.2106 11.2721 36.7279C13.7894 39.2453 16.9967 40.9596 20.4884 41.6541C23.98 42.3487 27.5992 41.9922 30.8883 40.6298C34.1774 39.2675 36.9886 36.9603 38.9665 34.0003C40.9443 31.0402 42 27.5601 42 24C41.9944 19.2278 40.0962 14.6527 36.7218 11.2782C33.3473 7.90377 28.7722 6.00556 24 6V6ZM24 40C20.8355 40 17.7421 39.0616 15.1109 37.3035C12.4797 35.5454 10.4289 33.0466 9.21794 30.1229C8.00693 27.1993 7.69008 23.9823 8.30744 20.8786C8.92481 17.7749 10.4487 14.9239 12.6863 12.6863C14.9239 10.4487 17.7749 8.9248 20.8786 8.30744C23.9823 7.69007 27.1993 8.00693 30.1229 9.21793C33.0466 10.4289 35.5454 12.4797 37.3035 15.1109C39.0616 17.7421 40 20.8355 40 24C39.995 28.2419 38.3077 32.3087 35.3082 35.3082C32.3087 38.3076 28.2419 39.995 24 40Z" fill="#202020"/>
<path d="M26.265 22.95C25.765 22.772 25.308 22.603 24.882 22.438V15.591C25.6691 15.7025 26.4134 16.0179 27.041 16.506C27.2366 16.6852 27.4953 16.7793 27.7603 16.7676C28.0253 16.756 28.2748 16.6396 28.454 16.444C28.6331 16.2484 28.7273 15.9896 28.7156 15.7247C28.704 15.4597 28.5876 15.2102 28.392 15.031C27.393 14.2054 26.1714 13.6948 24.882 13.564V12C24.882 11.7348 24.7766 11.4804 24.5891 11.2929C24.4016 11.1054 24.1472 11 23.882 11C23.6168 11 23.3624 11.1054 23.1749 11.2929C22.9873 11.4804 22.882 11.7348 22.882 12V13.645C22.6024 13.6958 22.3259 13.7625 22.054 13.845C21.1671 14.1252 20.3746 14.6443 19.7634 15.3454C19.1521 16.0464 18.7458 16.9022 18.589 17.819C18.4066 18.6074 18.4438 19.4307 18.6967 20.1994C18.9495 20.9681 19.4082 21.6528 20.023 22.179C20.9034 22.8354 21.8642 23.3765 22.882 23.789V32.265C21.6593 32.2538 20.4729 31.8476 19.5 31.107C19.278 30.9611 19.0072 30.9094 18.7471 30.9632C18.4869 31.0171 18.2589 31.172 18.113 31.394C17.9671 31.616 17.9154 31.8868 17.9692 32.1469C18.0231 32.4071 18.178 32.6351 18.4 32.781C19.6988 33.7382 21.2686 34.2573 22.882 34.263V36C22.882 36.2652 22.9873 36.5196 23.1749 36.7071C23.3624 36.8946 23.6168 37 23.882 37C24.1472 37 24.4016 36.8946 24.5891 36.7071C24.7766 36.5196 24.882 36.2652 24.882 36V34.187C26.1571 33.9816 27.335 33.3795 28.2482 32.4662C29.1615 31.553 29.7636 30.3751 29.969 29.1C30.218 27.7986 29.9776 26.4511 29.294 25.3161C28.6104 24.1811 27.5317 23.3385 26.265 22.95V22.95ZM22.882 21.579C22.3086 21.3094 21.7644 20.9817 21.258 20.601C20.9339 20.2996 20.6976 19.9158 20.5744 19.4907C20.4511 19.0656 20.4454 18.6151 20.558 18.187C20.6508 17.587 20.9222 17.0289 21.3367 16.5853C21.7512 16.1417 22.2897 15.8332 22.882 15.7V21.579ZM28 28.769C27.8673 29.5741 27.5017 30.3227 26.9483 30.9224C26.3949 31.522 25.6779 31.9463 24.886 32.143V24.575C25.119 24.661 25.351 24.746 25.603 24.835C26.4218 25.0727 27.122 25.6083 27.5656 26.3364C28.0093 27.0645 28.1642 27.9323 28 28.769V28.769Z" fill="#202020"/>
</svg>
