<svg width="64" height="64" viewBox="0 0 64 64" fill="none" xmlns="http://www.w3.org/2000/svg">
<path d="M44 37.999C47.866 37.999 51 34.865 51 30.999C51 27.133 47.866 23.999 44 23.999C40.134 23.999 37 27.133 37 30.999C37 34.865 40.134 37.999 44 37.999Z" fill="#ED954A"/>
<path d="M62.679 30.264L58.408 26.316L59.543 20.616C59.5699 20.4807 59.5685 20.3414 59.5389 20.2067C59.5094 20.072 59.4523 19.9449 59.3712 19.8333C59.2902 19.7217 59.187 19.6281 59.068 19.5584C58.949 19.4886 58.8169 19.4442 58.68 19.428L52.9 18.743L50.47 13.458C50.4123 13.3323 50.3292 13.2199 50.2258 13.128C50.1225 13.036 50.0012 12.9665 49.8696 12.9238C49.738 12.8812 49.599 12.8663 49.4614 12.8801C49.3238 12.8939 49.1905 12.9361 49.07 13.004L44 15.852L38.926 13C38.8055 12.9321 38.6722 12.8899 38.5346 12.8761C38.397 12.8623 38.258 12.8772 38.1264 12.9198C37.9948 12.9625 37.8735 13.032 37.7702 13.124C37.6668 13.2159 37.5837 13.3283 37.526 13.454L35.1 18.743L29.323 19.424C29.186 19.4401 29.0538 19.4844 28.9347 19.5541C28.8156 19.6238 28.7122 19.7174 28.6311 19.829C28.5499 19.9406 28.4928 20.0677 28.4631 20.2025C28.4335 20.3372 28.4321 20.4767 28.459 20.612L29.593 26.312L25.323 30.26C25.2216 30.3536 25.1408 30.4672 25.0855 30.5936C25.0302 30.72 25.0016 30.8565 25.0016 30.9945C25.0016 31.1325 25.0302 31.269 25.0855 31.3954C25.1408 31.5218 25.2216 31.6354 25.323 31.729L29.593 35.677L28.459 41.377C28.432 41.5123 28.4332 41.6518 28.4627 41.7866C28.4922 41.9214 28.5493 42.0487 28.6303 42.1603C28.7114 42.272 28.8147 42.3657 28.9337 42.4355C29.0528 42.5053 29.185 42.5498 29.322 42.566L35.1 43.247L37.53 48.532C37.5877 48.6577 37.6708 48.7701 37.7742 48.862C37.8775 48.954 37.9988 49.0235 38.1304 49.0661C38.262 49.1088 38.401 49.1237 38.5386 49.1099C38.6762 49.0961 38.8095 49.0539 38.93 48.986L44 46.145L49.074 48.994C49.1945 49.0619 49.3278 49.1041 49.4654 49.1179C49.603 49.1317 49.742 49.1168 49.8736 49.0741C50.0052 49.0315 50.1265 48.962 50.2298 48.87C50.3332 48.7781 50.4163 48.6657 50.474 48.54L52.904 43.255L58.682 42.574C58.819 42.5578 58.9512 42.5133 59.0703 42.4435C59.1893 42.3737 59.2926 42.28 59.3737 42.1683C59.4547 42.0567 59.5118 41.9294 59.5413 41.7946C59.5708 41.6598 59.572 41.5203 59.545 41.385L58.41 35.685L62.681 31.737C62.7829 31.6432 62.8641 31.5292 62.9196 31.4024C62.9752 31.2755 63.0037 31.1385 63.0036 31.0001C63.0034 30.8616 62.9744 30.7247 62.9186 30.5979C62.8627 30.4712 62.7811 30.3575 62.679 30.264ZM44 40C42.22 40 40.4799 39.4722 38.9999 38.4832C37.5198 37.4943 36.3663 36.0887 35.6851 34.4441C35.0039 32.7996 34.8257 30.99 35.1729 29.2442C35.5202 27.4984 36.3774 25.8947 37.636 24.636C38.8947 23.3774 40.4984 22.5202 42.2442 22.1729C43.99 21.8257 45.7996 22.0039 47.4441 22.6851C49.0887 23.3663 50.4943 24.5198 51.4832 25.9999C52.4722 27.4799 53 29.22 53 31C52.9973 33.3861 52.0483 35.6738 50.361 37.361C48.6738 39.0483 46.3861 39.9973 44 40V40Z" fill="#ED954A"/>
<path d="M47.333 50.31L44 48.439L40.667 50.311V58.956L44 57.137L47.333 58.956V50.31Z" fill="#ED954A"/>
<path d="M38.667 51.092C38.59 51.098 38.515 51.122 38.438 51.122C37.8634 51.1222 37.3009 50.9573 36.8173 50.6471C36.3337 50.3369 35.9494 49.8943 35.71 49.372L33.749 45.11L32 44.9V62C32 62.1735 32.0451 62.344 32.1309 62.4948C32.2167 62.6456 32.3403 62.7715 32.4895 62.8601C32.6387 62.9486 32.8084 62.9969 32.9819 63C33.1554 63.0032 33.3267 62.9611 33.479 62.878L38.667 60.048V51.092Z" fill="#ED954A"/>
<path d="M54.251 45.11L52.289 49.376C52.0492 49.8971 51.6651 50.3385 51.1821 50.648C50.6992 50.9574 50.1376 51.1219 49.564 51.122C49.486 51.122 49.411 51.098 49.333 51.092V60.047L54.522 62.877C54.6742 62.9598 54.8453 63.0017 55.0186 62.9985C55.1918 62.9952 55.3613 62.9471 55.5103 62.8586C55.6593 62.7702 55.7828 62.6446 55.8687 62.494C55.9545 62.3435 55.9998 62.1733 56 62V44.9L54.251 45.11Z" fill="#ED954A"/>
<path d="M36 1H4C3.20435 1 2.44129 1.31607 1.87868 1.87868C1.31607 2.44129 1 3.20435 1 4V48C1 48.7956 1.31607 49.5587 1.87868 50.1213C2.44129 50.6839 3.20435 51 4 51H36C36.7956 51 37.5587 50.6839 38.1213 50.1213C38.6839 49.5587 39 48.7956 39 48V4C39 3.20435 38.6839 2.44129 38.1213 1.87868C37.5587 1.31607 36.7956 1 36 1V1ZM37 48C37 48.2652 36.8946 48.5196 36.7071 48.7071C36.5196 48.8946 36.2652 49 36 49H4C3.73478 49 3.48043 48.8946 3.29289 48.7071C3.10536 48.5196 3 48.2652 3 48V4C3 3.73478 3.10536 3.48043 3.29289 3.29289C3.48043 3.10536 3.73478 3 4 3H36C36.2652 3 36.5196 3.10536 36.7071 3.29289C36.8946 3.48043 37 3.73478 37 4V48Z" fill="#202020"/>
<path d="M15 26C14.9999 26.1705 15.0434 26.3381 15.1264 26.4871C15.2093 26.636 15.329 26.7613 15.474 26.8509C15.619 26.9406 15.7845 26.9917 15.9548 26.9994C16.1251 27.0072 16.2945 26.9712 16.447 26.895L20 25.118L23.553 26.9C23.7059 26.9764 23.8758 27.0123 24.0465 27.0044C24.2172 26.9964 24.383 26.9449 24.5282 26.8546C24.6733 26.7644 24.7929 26.6384 24.8755 26.4888C24.9581 26.3392 25.0009 26.1709 25 26V17.889C25.9647 16.9044 26.6172 15.657 26.8758 14.3031C27.1343 12.9491 26.9874 11.549 26.4534 10.2783C25.9194 9.00752 25.0222 7.92269 23.8741 7.15983C22.7261 6.39697 21.3784 5.99002 20 5.99002C18.6216 5.99002 17.2739 6.39697 16.1259 7.15983C14.9778 7.92269 14.0806 9.00752 13.5466 10.2783C13.0126 11.549 12.8657 12.9491 13.1243 14.3031C13.3828 15.657 14.0353 16.9044 15 17.889V26ZM23 24.382L20.447 23.105C20.3082 23.0356 20.1552 22.9995 20 22.9995C19.8448 22.9995 19.6918 23.0356 19.553 23.105L17 24.382V19.315C17.9358 19.7659 18.9612 20 20 20C21.0388 20 22.0642 19.7659 23 19.315V24.382ZM20 8C20.9889 8 21.9556 8.29325 22.7779 8.84265C23.6001 9.39206 24.241 10.173 24.6194 11.0866C24.9978 12.0002 25.0969 13.0055 24.9039 13.9755C24.711 14.9454 24.2348 15.8363 23.5355 16.5355C22.8363 17.2348 21.9454 17.711 20.9755 17.9039C20.0056 18.0969 19.0002 17.9978 18.0866 17.6194C17.173 17.241 16.3921 16.6001 15.8427 15.7779C15.2932 14.9556 15 13.9889 15 13C15.0016 11.6744 15.5289 10.4036 16.4662 9.46622C17.4036 8.52888 18.6744 8.00159 20 8V8Z" fill="#202020"/>
<path d="M26 43H8C7.73478 43 7.48043 43.1054 7.29289 43.2929C7.10536 43.4804 7 43.7348 7 44C7 44.2652 7.10536 44.5196 7.29289 44.7071C7.48043 44.8946 7.73478 45 8 45H26C26.2652 45 26.5196 44.8946 26.7071 44.7071C26.8946 44.5196 27 44.2652 27 44C27 43.7348 26.8946 43.4804 26.7071 43.2929C26.5196 43.1054 26.2652 43 26 43Z" fill="#202020"/>
<path d="M32 37H8C7.73478 37 7.48043 37.1054 7.29289 37.2929C7.10536 37.4804 7 37.7348 7 38C7 38.2652 7.10536 38.5196 7.29289 38.7071C7.48043 38.8946 7.73478 39 8 39H32C32.2652 39 32.5196 38.8946 32.7071 38.7071C32.8946 38.5196 33 38.2652 33 38C33 37.7348 32.8946 37.4804 32.7071 37.2929C32.5196 37.1054 32.2652 37 32 37Z" fill="#202020"/>
<path d="M32 31H8C7.73478 31 7.48043 31.1054 7.29289 31.2929C7.10536 31.4804 7 31.7348 7 32C7 32.2652 7.10536 32.5196 7.29289 32.7071C7.48043 32.8946 7.73478 33 8 33H32C32.2652 33 32.5196 32.8946 32.7071 32.7071C32.8946 32.5196 33 32.2652 33 32C33 31.7348 32.8946 31.4804 32.7071 31.2929C32.5196 31.1054 32.2652 31 32 31Z" fill="#202020"/>
</svg>
