<svg width="64" height="64" viewBox="0 0 64 64" fill="none" xmlns="http://www.w3.org/2000/svg">
<path d="M44.777 50H37.623L42.571 62.371C42.6452 62.5567 42.7734 62.7159 42.939 62.8281C43.1046 62.9402 43.3 63.0001 43.5 63H48.5C48.6634 63.0001 48.8244 62.9601 48.9687 62.8835C49.1131 62.807 49.2365 62.6962 49.3282 62.561C49.4199 62.4257 49.477 62.27 49.4946 62.1075C49.5121 61.945 49.4896 61.7808 49.429 61.629L44.777 50Z" fill="#ED954A"/>
<path d="M25.571 61.629C25.5104 61.7808 25.4879 61.945 25.5054 62.1075C25.523 62.27 25.5801 62.4257 25.6718 62.561C25.7635 62.6962 25.8869 62.807 26.0313 62.8835C26.1756 62.9601 26.3366 63.0001 26.5 63H31.5C31.7 63.0001 31.8954 62.9402 32.061 62.8281C32.2266 62.7159 32.3548 62.5567 32.429 62.371L37.377 50H30.223L25.571 61.629Z" fill="#ED954A"/>
<path d="M59.5 15H46.5V17C46.5 17.2652 46.3946 17.5196 46.2071 17.7071C46.0196 17.8946 45.7652 18 45.5 18C45.2348 18 44.9804 17.8946 44.7929 17.7071C44.6054 17.5196 44.5 17.2652 44.5 17V14C44.5 13.7348 44.3946 13.4804 44.2071 13.2929C44.0196 13.1054 43.7652 13 43.5 13C43.2348 13 42.9804 13.1054 42.7929 13.2929C42.6054 13.4804 42.5 13.7348 42.5 14V15H34.5V17C34.5 17.2652 34.3946 17.5196 34.2071 17.7071C34.0196 17.8946 33.7652 18 33.5 18C33.2348 18 32.9804 17.8946 32.7929 17.7071C32.6054 17.5196 32.5 17.2652 32.5 17V14C32.5 13.7348 32.3946 13.4804 32.2071 13.2929C32.0196 13.1054 31.7652 13 31.5 13C31.2348 13 30.9804 13.1054 30.7929 13.2929C30.6054 13.4804 30.5 13.7348 30.5 14V15H15.5C14.7044 15 13.9413 15.3161 13.3787 15.8787C12.8161 16.4413 12.5 17.2044 12.5 18V45C12.5 45.7956 12.8161 46.5587 13.3787 47.1213C13.9413 47.6839 14.7044 48 15.5 48H59.5C60.2956 48 61.0587 47.6839 61.6213 47.1213C62.1839 46.5587 62.5 45.7956 62.5 45V18C62.5 17.2044 62.1839 16.4413 61.6213 15.8787C61.0587 15.3161 60.2956 15 59.5 15ZM26.207 38.707L21.207 43.707C21.0195 43.8945 20.7652 43.9998 20.5 43.9998C20.2348 43.9998 19.9805 43.8945 19.793 43.707L16.793 40.707C16.6108 40.5184 16.51 40.2658 16.5123 40.0036C16.5146 39.7414 16.6198 39.4906 16.8052 39.3052C16.9906 39.1198 17.2414 39.0146 17.5036 39.0123C17.7658 39.01 18.0184 39.1108 18.207 39.293L20.5 41.586L24.793 37.293C24.9816 37.1108 25.2342 37.01 25.4964 37.0123C25.7586 37.0146 26.0094 37.1198 26.1948 37.3052C26.3802 37.4906 26.4854 37.7414 26.4877 38.0036C26.49 38.2658 26.3892 38.5184 26.207 38.707V38.707ZM26.207 29.707L21.207 34.707C21.0195 34.8945 20.7652 34.9998 20.5 34.9998C20.2348 34.9998 19.9805 34.8945 19.793 34.707L16.793 31.707C16.6108 31.5184 16.51 31.2658 16.5123 31.0036C16.5146 30.7414 16.6198 30.4906 16.8052 30.3052C16.9906 30.1198 17.2414 30.0146 17.5036 30.0123C17.7658 30.01 18.0184 30.1108 18.207 30.293L20.5 32.586L24.793 28.293C24.9816 28.1108 25.2342 28.01 25.4964 28.0123C25.7586 28.0146 26.0094 28.1198 26.1948 28.3052C26.3802 28.4906 26.4854 28.7414 26.4877 29.0036C26.49 29.2658 26.3892 29.5184 26.207 29.707ZM26.207 20.707L21.207 25.707C21.0195 25.8945 20.7652 25.9998 20.5 25.9998C20.2348 25.9998 19.9805 25.8945 19.793 25.707L16.793 22.707C16.6108 22.5184 16.51 22.2658 16.5123 22.0036C16.5146 21.7414 16.6198 21.4906 16.8052 21.3052C16.9906 21.1198 17.2414 21.0146 17.5036 21.0123C17.7658 21.01 18.0184 21.1108 18.207 21.293L20.5 23.586L24.793 19.293C24.9816 19.1108 25.2342 19.01 25.4964 19.0123C25.7586 19.0146 26.0094 19.1198 26.1948 19.3052C26.3802 19.4906 26.4854 19.7414 26.4877 20.0036C26.49 20.2658 26.3892 20.5184 26.207 20.707ZM57.5 42H29.5C29.2348 42 28.9804 41.8946 28.7929 41.7071C28.6054 41.5196 28.5 41.2652 28.5 41C28.5 40.7348 28.6054 40.4804 28.7929 40.2929C28.9804 40.1054 29.2348 40 29.5 40H57.5C57.7652 40 58.0196 40.1054 58.2071 40.2929C58.3946 40.4804 58.5 40.7348 58.5 41C58.5 41.2652 58.3946 41.5196 58.2071 41.7071C58.0196 41.8946 57.7652 42 57.5 42ZM57.5 33H29.5C29.2348 33 28.9804 32.8946 28.7929 32.7071C28.6054 32.5196 28.5 32.2652 28.5 32C28.5 31.7348 28.6054 31.4804 28.7929 31.2929C28.9804 31.1054 29.2348 31 29.5 31H57.5C57.7652 31 58.0196 31.1054 58.2071 31.2929C58.3946 31.4804 58.5 31.7348 58.5 32C58.5 32.2652 58.3946 32.5196 58.2071 32.7071C58.0196 32.8946 57.7652 33 57.5 33ZM57.5 24H29.5C29.2348 24 28.9804 23.8946 28.7929 23.7071C28.6054 23.5196 28.5 23.2652 28.5 23C28.5 22.7348 28.6054 22.4804 28.7929 22.2929C28.9804 22.1054 29.2348 22 29.5 22H57.5C57.7652 22 58.0196 22.1054 58.2071 22.2929C58.3946 22.4804 58.5 22.7348 58.5 23C58.5 23.2652 58.3946 23.5196 58.2071 23.7071C58.0196 23.8946 57.7652 24 57.5 24Z" fill="#ED954A"/>
<path d="M36.5 7H27.42C27.1809 5.33514 26.3496 3.81228 25.0786 2.71074C23.8075 1.6092 22.1819 1.00282 20.5 1.00282C18.8181 1.00282 17.1925 1.6092 15.9214 2.71074C14.6504 3.81228 13.8191 5.33514 13.58 7H4.5C3.70435 7 2.94129 7.31607 2.37868 7.87868C1.81607 8.44129 1.5 9.20435 1.5 10V47C1.5 47.7956 1.81607 48.5587 2.37868 49.1213C2.94129 49.6839 3.70435 50 4.5 50H36.5C37.2956 50 38.0587 49.6839 38.6213 49.1213C39.1839 48.5587 39.5 47.7956 39.5 47V10C39.5 9.20435 39.1839 8.44129 38.6213 7.87868C38.0587 7.31607 37.2956 7 36.5 7ZM20.5 3C21.6522 3.00146 22.7687 3.40009 23.6613 4.12872C24.5538 4.85735 25.1679 5.87141 25.4 7H15.6C15.8321 5.87141 16.4462 4.85735 17.3387 4.12872C18.2313 3.40009 19.3478 3.00146 20.5 3V3ZM14.5 9H26.5V13H14.5V9ZM37.5 47C37.5 47.2652 37.3946 47.5196 37.2071 47.7071C37.0196 47.8946 36.7652 48 36.5 48H4.5C4.23478 48 3.98043 47.8946 3.79289 47.7071C3.60536 47.5196 3.5 47.2652 3.5 47V10C3.5 9.73479 3.60536 9.48043 3.79289 9.29289C3.98043 9.10536 4.23478 9 4.5 9H12.5V14C12.5 14.2652 12.6054 14.5196 12.7929 14.7071C12.9804 14.8946 13.2348 15 13.5 15H27.5C27.7652 15 28.0196 14.8946 28.2071 14.7071C28.3946 14.5196 28.5 14.2652 28.5 14V9H36.5C36.7652 9 37.0196 9.10536 37.2071 9.29289C37.3946 9.48043 37.5 9.73479 37.5 10V47Z" fill="#202020"/>
<path d="M29.5 25H11.5C11.2348 25 10.9804 25.1054 10.7929 25.2929C10.6054 25.4804 10.5 25.7348 10.5 26V37C10.5 37.2652 10.6054 37.5196 10.7929 37.7071C10.9804 37.8946 11.2348 38 11.5 38H29.5C29.7652 38 30.0196 37.8946 30.2071 37.7071C30.3946 37.5196 30.5 37.2652 30.5 37V26C30.5 25.7348 30.3946 25.4804 30.2071 25.2929C30.0196 25.1054 29.7652 25 29.5 25ZM28.5 36H12.5V27H28.5V36Z" fill="#202020"/>
</svg>
