<svg width="64" height="64" viewBox="0 0 64 64" fill="none" xmlns="http://www.w3.org/2000/svg">
<path d="M40 29H24C23.8022 29 23.6089 29.0587 23.4445 29.1686C23.2801 29.2785 23.152 29.4346 23.0763 29.6173C23.0007 29.8 22.9808 30.0011 23.0194 30.195C23.058 30.389 23.1532 30.5671 23.293 30.707L27.293 34.707C24.7088 37.6147 23.2001 41.3208 23.0185 45.2067C22.837 49.0926 23.9937 52.9232 26.2955 56.0592C28.5974 59.1952 31.9051 61.4469 35.6667 62.4384C39.4283 63.43 43.4162 63.1015 46.9649 61.5078C50.5135 59.914 53.4082 57.1514 55.1659 53.681C56.9235 50.2105 57.4377 46.2423 56.6228 42.4385C55.8078 38.6347 53.7129 35.2255 50.6877 32.7798C47.6626 30.3342 43.8901 29 40 29V29ZM32 49C31.4067 49 30.8266 48.8241 30.3333 48.4944C29.8399 48.1648 29.4554 47.6962 29.2284 47.148C29.0013 46.5999 28.9419 45.9967 29.0576 45.4147C29.1734 44.8328 29.4591 44.2982 29.8787 43.8787C30.2982 43.4591 30.8328 43.1734 31.4147 43.0576C31.9967 42.9419 32.5999 43.0013 33.148 43.2284C33.6962 43.4554 34.1648 43.8399 34.4944 44.3333C34.824 44.8266 35 45.4067 35 46C35 46.7956 34.6839 47.5587 34.1213 48.1213C33.5587 48.6839 32.7956 49 32 49ZM40 49C39.4067 49 38.8266 48.8241 38.3333 48.4944C37.8399 48.1648 37.4554 47.6962 37.2284 47.148C37.0013 46.5999 36.9419 45.9967 37.0576 45.4147C37.1734 44.8328 37.4591 44.2982 37.8787 43.8787C38.2982 43.4591 38.8328 43.1734 39.4147 43.0576C39.9967 42.9419 40.5999 43.0013 41.148 43.2284C41.6962 43.4554 42.1648 43.8399 42.4944 44.3333C42.824 44.8266 43 45.4067 43 46C43 46.7956 42.6839 47.5587 42.1213 48.1213C41.5587 48.6839 40.7956 49 40 49ZM48 49C47.4067 49 46.8266 48.8241 46.3333 48.4944C45.8399 48.1648 45.4554 47.6962 45.2284 47.148C45.0013 46.5999 44.9419 45.9967 45.0576 45.4147C45.1734 44.8328 45.4591 44.2982 45.8787 43.8787C46.2982 43.4591 46.8328 43.1734 47.4147 43.0576C47.9967 42.9419 48.5999 43.0013 49.148 43.2284C49.6962 43.4554 50.1648 43.8399 50.4944 44.3333C50.824 44.8266 51 45.4067 51 46C51 46.7956 50.6839 47.5587 50.1213 48.1213C49.5587 48.6839 48.7956 49 48 49Z" fill="#ED954A"/>
<path d="M28 51H12C11.7348 51 11.4804 50.8946 11.2929 50.7071C11.1054 50.5196 11 50.2652 11 50V38.472C10.997 35.6865 10.3483 32.9396 9.105 30.447C7.72414 27.6764 7.00366 24.6236 7 21.528V16C7 12.0218 8.58035 8.20644 11.3934 5.3934C14.2064 2.58035 18.0218 1 22 1C25.9782 1 29.7936 2.58035 32.6066 5.3934C35.4196 8.20644 37 12.0218 37 16V17.586L44.707 25.293C44.8468 25.4329 44.942 25.611 44.9806 25.805C45.0192 25.9989 44.9993 26.2 44.9237 26.3827C44.848 26.5654 44.7199 26.7215 44.5555 26.8314C44.391 26.9413 44.1978 27 44 27H37V38C36.9984 39.3256 36.4711 40.5964 35.5338 41.5338C34.5964 42.4711 33.3256 42.9984 32 43H29V50C29 50.2652 28.8946 50.5196 28.7071 50.7071C28.5196 50.8946 28.2652 51 28 51ZM13 49H27V43H26.485C25.5655 43.0025 24.6547 42.8225 23.8052 42.4707C22.9557 42.1188 22.1844 41.6019 21.536 40.95L19.293 38.707C19.1108 38.5184 19.01 38.2658 19.0123 38.0036C19.0146 37.7414 19.1198 37.4906 19.3052 37.3052C19.4906 37.1198 19.7414 37.0146 20.0036 37.0123C20.2658 37.01 20.5184 37.1108 20.707 37.293L22.95 39.536C23.4132 40.0016 23.9641 40.3707 24.5709 40.622C25.1777 40.8733 25.8282 41.0018 26.485 41H32C32.7956 41 33.5587 40.6839 34.1213 40.1213C34.6839 39.5587 35 38.7956 35 38V26C35 25.7348 35.1054 25.4804 35.2929 25.2929C35.4804 25.1054 35.7348 25 36 25H41.586L35.293 18.707C35.1054 18.5195 35.0001 18.2652 35 18V16C35 12.5522 33.6304 9.24558 31.1924 6.80761C28.7544 4.36964 25.4478 3 22 3C18.5522 3 15.2456 4.36964 12.8076 6.80761C10.3696 9.24558 9 12.5522 9 16V21.528C9.00459 24.3139 9.65495 27.0608 10.9 29.553C12.2791 32.324 12.9979 35.3768 13 38.472V49Z" fill="#202020"/>
<path d="M26 25C24.8477 24.9987 23.7312 24.6002 22.8386 23.8715C21.946 23.1428 21.3319 22.1287 21.1 21H18C16.6739 21 15.4021 20.4732 14.4645 19.5355C13.5268 18.5979 13 17.3261 13 16C13 14.6739 13.5268 13.4022 14.4645 12.4645C15.4021 11.5268 16.6739 11 18 11H26C27.24 10.9988 28.4361 11.4583 29.3563 12.2894C30.2765 13.1205 30.8551 14.2638 30.9797 15.4975C31.1043 16.7312 30.7661 17.9671 30.0307 18.9655C29.2953 19.9638 28.2152 20.6533 27 20.9V24C27 24.2652 26.8946 24.5196 26.7071 24.7071C26.5196 24.8946 26.2652 25 26 25ZM18 13C17.2044 13 16.4413 13.3161 15.8787 13.8787C15.3161 14.4413 15 15.2044 15 16C15 16.7957 15.3161 17.5587 15.8787 18.1213C16.4413 18.6839 17.2044 19 18 19H22C22.2652 19 22.5196 19.1054 22.7071 19.2929C22.8946 19.4804 23 19.7348 23 20C23.0008 20.6203 23.1934 21.2251 23.5514 21.7316C23.9095 22.2381 24.4155 22.6214 25 22.829V20C25 19.7348 25.1054 19.4804 25.2929 19.2929C25.4804 19.1054 25.7348 19 26 19C26.7956 19 27.5587 18.6839 28.1213 18.1213C28.6839 17.5587 29 16.7957 29 16C29 15.2044 28.6839 14.4413 28.1213 13.8787C27.5587 13.3161 26.7956 13 26 13H18Z" fill="#202020"/>
<path d="M18 15C17.8022 15 17.6089 15.0586 17.4444 15.1685C17.28 15.2784 17.1518 15.4346 17.0761 15.6173C17.0004 15.8 16.9806 16.0011 17.0192 16.1951C17.0578 16.3891 17.153 16.5673 17.2929 16.7071C17.4327 16.847 17.6109 16.9422 17.8049 16.9808C17.9989 17.0194 18.2 16.9996 18.3827 16.9239C18.5654 16.8482 18.7216 16.72 18.8315 16.5556C18.9414 16.3911 19 16.1978 19 16C19 15.7348 18.8946 15.4804 18.7071 15.2929C18.5196 15.1054 18.2652 15 18 15Z" fill="#202020"/>
<path d="M22 15C21.8022 15 21.6089 15.0586 21.4444 15.1685C21.28 15.2784 21.1518 15.4346 21.0761 15.6173C21.0004 15.8 20.9806 16.0011 21.0192 16.1951C21.0578 16.3891 21.153 16.5673 21.2929 16.7071C21.4327 16.847 21.6109 16.9422 21.8049 16.9808C21.9989 17.0194 22.2 16.9996 22.3827 16.9239C22.5654 16.8482 22.7216 16.72 22.8315 16.5556C22.9414 16.3911 23 16.1978 23 16C23 15.7348 22.8946 15.4804 22.7071 15.2929C22.5196 15.1054 22.2652 15 22 15Z" fill="#202020"/>
<path d="M26 15C25.8022 15 25.6089 15.0586 25.4444 15.1685C25.28 15.2784 25.1518 15.4346 25.0761 15.6173C25.0004 15.8 24.9806 16.0011 25.0192 16.1951C25.0578 16.3891 25.153 16.5673 25.2929 16.7071C25.4327 16.847 25.6109 16.9422 25.8049 16.9808C25.9989 17.0194 26.2 16.9996 26.3827 16.9239C26.5654 16.8482 26.7216 16.72 26.8315 16.5556C26.9414 16.3911 27 16.1978 27 16C27 15.7348 26.8946 15.4804 26.7071 15.2929C26.5196 15.1054 26.2652 15 26 15Z" fill="#202020"/>
</svg>
