<svg width="64" height="64" viewBox="0 0 64 64" fill="none" xmlns="http://www.w3.org/2000/svg">
<path d="M62 27H56C55.4477 27 55 27.4477 55 28V62C55 62.5523 55.4477 63 56 63H62C62.5523 63 63 62.5523 63 62V28C63 27.4477 62.5523 27 62 27Z" fill="#ED954A"/>
<path d="M21.293 44.364L15.293 50.364C15.1057 50.5513 15.0003 50.8052 15 51.07V62C15 62.2652 15.1054 62.5196 15.2929 62.7071C15.4804 62.8947 15.7348 63 16 63H22C22.2652 63 22.5196 62.8947 22.7071 62.7071C22.8946 62.5196 23 62.2652 23 62V45.071C23 44.8733 22.9413 44.68 22.8314 44.5156C22.7215 44.3511 22.5654 44.223 22.3827 44.1473C22.2 44.0717 21.9989 44.0519 21.805 44.0904C21.611 44.129 21.4329 44.2242 21.293 44.364V44.364Z" fill="#ED954A"/>
<path d="M31.293 34.364L25.293 40.364C25.1054 40.5515 25.0001 40.8058 25 41.071V62C25 62.2652 25.1054 62.5196 25.2929 62.7071C25.4804 62.8947 25.7348 63 26 63H32C32.2652 63 32.5196 62.8947 32.7071 62.7071C32.8946 62.5196 33 62.2652 33 62V35.071C33 34.8733 32.9413 34.68 32.8314 34.5156C32.7215 34.3511 32.5654 34.223 32.3827 34.1473C32.2 34.0717 31.9989 34.0519 31.805 34.0904C31.611 34.129 31.4329 34.2242 31.293 34.364V34.364Z" fill="#ED954A"/>
<path d="M38.707 28.364C38.5195 28.1765 38.2652 28.0712 38 28.0712C37.7348 28.0712 37.4805 28.1765 37.293 28.364L35.293 30.364C35.1054 30.5515 35.0001 30.8058 35 31.071V62C35 62.2652 35.1054 62.5196 35.2929 62.7071C35.4804 62.8946 35.7348 63 36 63H42C42.2652 63 42.5196 62.8946 42.7071 62.7071C42.8946 62.5196 43 62.2652 43 62V33.071C42.9999 32.8058 42.8946 32.5515 42.707 32.364L38.707 28.364Z" fill="#ED954A"/>
<path d="M61 13H53C52.4696 13 51.9609 13.2107 51.5858 13.5858C51.2107 13.9609 51 14.4696 51 15C51 15.5304 51.2107 16.0391 51.5858 16.4142C51.9609 16.7893 52.4696 17 53 17H56.172L46 27.171L39.414 20.586C39.0389 20.2111 38.5303 20.0004 38 20.0004C37.4697 20.0004 36.9611 20.2111 36.586 20.586L12.586 44.586C12.2217 44.9632 12.0201 45.4684 12.0246 45.9928C12.0292 46.5172 12.2395 47.0188 12.6104 47.3896C12.9812 47.7605 13.4828 47.9708 14.0072 47.9753C14.5316 47.9799 15.0368 47.7783 15.414 47.414L38 24.829L44.586 31.414C44.9611 31.7889 45.4697 31.9996 46 31.9996C46.5303 31.9996 47.0389 31.7889 47.414 31.414L59 19.828V23C59 23.5304 59.2107 24.0391 59.5858 24.4142C59.9609 24.7893 60.4696 25 61 25C61.5304 25 62.0391 24.7893 62.4142 24.4142C62.7893 24.0391 63 23.5304 63 23V15C62.9984 14.4701 62.7872 13.9623 62.4125 13.5875C62.0377 13.2128 61.5299 13.0016 61 13V13Z" fill="#ED954A"/>
<path d="M51.293 30.364L45.293 36.364C45.1054 36.5515 45.0001 36.8058 45 37.071V62C45 62.2652 45.1054 62.5196 45.2929 62.7071C45.4804 62.8946 45.7348 63 46 63H52C52.2652 63 52.5196 62.8946 52.7071 62.7071C52.8946 62.5196 53 62.2652 53 62V31.071C53 30.8732 52.9413 30.68 52.8314 30.5155C52.7215 30.3511 52.5654 30.223 52.3827 30.1473C52.2 30.0717 51.9989 30.0518 51.805 30.0904C51.611 30.129 51.4329 30.2242 51.293 30.364Z" fill="#ED954A"/>
<path d="M47 1H4C3.20435 1 2.44129 1.31607 1.87868 1.87868C1.31607 2.44129 1 3.20435 1 4V32C1 32.7956 1.31607 33.5587 1.87868 34.1213C2.44129 34.6839 3.20435 35 4 35H20V39H18C17.7348 39 17.4804 39.1054 17.2929 39.2929C17.1054 39.4804 17 39.7348 17 40C17 40.2652 17.1054 40.5196 17.2929 40.7071C17.4804 40.8946 17.7348 41 18 41H33C33.2652 41 33.5196 40.8946 33.7071 40.7071C33.8946 40.5196 34 40.2652 34 40C34 39.7348 33.8946 39.4804 33.7071 39.2929C33.5196 39.1054 33.2652 39 33 39H31V35H47C47.7956 35 48.5587 34.6839 49.1213 34.1213C49.6839 33.5587 50 32.7956 50 32V4C50 3.20435 49.6839 2.44129 49.1213 1.87868C48.5587 1.31607 47.7956 1 47 1V1ZM29 39H22V35H29V39ZM48 32C48 32.2652 47.8946 32.5196 47.7071 32.7071C47.5196 32.8946 47.2652 33 47 33H4C3.73478 33 3.48043 32.8946 3.29289 32.7071C3.10536 32.5196 3 32.2652 3 32V25H48V32ZM48 23H3V4C3 3.73478 3.10536 3.48043 3.29289 3.29289C3.48043 3.10536 3.73478 3 4 3H47C47.2652 3 47.5196 3.10536 47.7071 3.29289C47.8946 3.48043 48 3.73478 48 4V23Z" fill="#202020"/>
<path d="M22 30H29C29.2652 30 29.5196 29.8946 29.7071 29.7071C29.8946 29.5196 30 29.2652 30 29C30 28.7348 29.8946 28.4804 29.7071 28.2929C29.5196 28.1054 29.2652 28 29 28H22C21.7348 28 21.4804 28.1054 21.2929 28.2929C21.1054 28.4804 21 28.7348 21 29C21 29.2652 21.1054 29.5196 21.2929 29.7071C21.4804 29.8946 21.7348 30 22 30Z" fill="#202020"/>
<path d="M13 9H8C7.73478 9 7.48043 9.10536 7.29289 9.29289C7.10536 9.48043 7 9.73478 7 10V19C7 19.2652 7.10536 19.5196 7.29289 19.7071C7.48043 19.8946 7.73478 20 8 20H13C13.2652 20 13.5196 19.8946 13.7071 19.7071C13.8946 19.5196 14 19.2652 14 19V10C14 9.73478 13.8946 9.48043 13.7071 9.29289C13.5196 9.10536 13.2652 9 13 9ZM12 18H9V11H12V18Z" fill="#202020"/>
<path d="M23 13H18C17.7348 13 17.4804 13.1054 17.2929 13.2929C17.1054 13.4804 17 13.7348 17 14V19C17 19.2652 17.1054 19.5196 17.2929 19.7071C17.4804 19.8946 17.7348 20 18 20H23C23.2652 20 23.5196 19.8946 23.7071 19.7071C23.8946 19.5196 24 19.2652 24 19V14C24 13.7348 23.8946 13.4804 23.7071 13.2929C23.5196 13.1054 23.2652 13 23 13ZM22 18H19V15H22V18Z" fill="#202020"/>
<path d="M33 6H28C27.7348 6 27.4804 6.10536 27.2929 6.29289C27.1054 6.48043 27 6.73478 27 7V19C27 19.2652 27.1054 19.5196 27.2929 19.7071C27.4804 19.8946 27.7348 20 28 20H33C33.2652 20 33.5196 19.8946 33.7071 19.7071C33.8946 19.5196 34 19.2652 34 19V7C34 6.73478 33.8946 6.48043 33.7071 6.29289C33.5196 6.10536 33.2652 6 33 6ZM32 18H29V8H32V18Z" fill="#202020"/>
<path d="M43 9H38C37.7348 9 37.4804 9.10536 37.2929 9.29289C37.1054 9.48043 37 9.73478 37 10V19C37 19.2652 37.1054 19.5196 37.2929 19.7071C37.4804 19.8946 37.7348 20 38 20H43C43.2652 20 43.5196 19.8946 43.7071 19.7071C43.8946 19.5196 44 19.2652 44 19V10C44 9.73478 43.8946 9.48043 43.7071 9.29289C43.5196 9.10536 43.2652 9 43 9ZM42 18H39V11H42V18Z" fill="#202020"/>
</svg>
