<svg width="64" height="64" viewBox="0 0 64 64" fill="none" xmlns="http://www.w3.org/2000/svg">
<path d="M38 33C39.5823 33 41.129 32.5308 42.4446 31.6518C43.7602 30.7727 44.7855 29.5233 45.391 28.0615C45.9965 26.5997 46.155 24.9911 45.8463 23.4393C45.5376 21.8874 44.7757 20.462 43.6569 19.3431C42.538 18.2243 41.1126 17.4624 39.5607 17.1537C38.0089 16.845 36.4003 17.0035 34.9385 17.609C33.4767 18.2145 32.2273 19.2399 31.3482 20.5554C30.4692 21.871 30 23.4178 30 25C30.0024 27.121 30.846 29.1545 32.3458 30.6542C33.8456 32.154 35.879 32.9976 38 33ZM34.293 24.293C34.4805 24.1055 34.7348 24.0002 35 24.0002C35.2652 24.0002 35.5195 24.1055 35.707 24.293L37.726 26.312L40.1 21.553C40.2186 21.3156 40.4265 21.1351 40.6782 21.0511C40.9299 20.9671 41.2046 20.9865 41.442 21.105C41.6794 21.2236 41.8599 21.4315 41.9439 21.6832C42.028 21.9349 42.0086 22.2096 41.89 22.447L38.89 28.447C38.8191 28.5885 38.7156 28.7111 38.5881 28.8047C38.4606 28.8984 38.3126 28.9605 38.1564 28.9859C38.0003 29.0113 37.8403 28.9992 37.6897 28.9507C37.539 28.9023 37.4021 28.8187 37.29 28.707L34.29 25.707C34.1029 25.5191 33.9982 25.2645 33.9987 24.9994C33.9993 24.7342 34.1051 24.4801 34.293 24.293Z" fill="#ED954A"/>
<path d="M38.5 35.135C38.3 35.0203 38.0668 34.9775 37.8392 35.0139C37.6115 35.0503 37.4032 35.1636 37.249 35.335L30.62 42.69C30.081 43.2861 29.7934 44.0676 29.8175 44.871C29.8415 45.6743 30.1753 46.4372 30.749 47C31.3502 47.5883 32.1579 47.9178 32.999 47.9178C33.8401 47.9178 34.6478 47.5883 35.249 47L39 43.3L51.293 55.423C51.4811 55.6091 51.7354 55.713 52 55.712H53V41.905H50.271L38.5 35.135Z" fill="#ED954A"/>
<path d="M60 37.959H56C55.6588 37.9626 55.3206 38.0242 55 38.141V57.509C55.3209 57.6241 55.6591 57.6833 56 57.684H60C60.7898 57.6885 61.5491 57.3797 62.1115 56.8252C62.6739 56.2707 62.9934 55.5158 63 54.726V40.918C62.9934 40.1282 62.6739 39.3731 62.1115 38.8185C61.5492 38.2638 60.7899 37.9547 60 37.959Z" fill="#ED954A"/>
<path d="M16 37.959C15.2101 37.9547 14.4508 38.2638 13.8885 38.8185C13.3261 39.3731 13.0066 40.1282 13 40.918V54.726C13.0066 55.5158 13.3261 56.2707 13.8885 56.8252C14.4509 57.3797 15.2102 57.6885 16 57.684H20C20.3412 57.6807 20.6793 57.6195 21 57.503V38.141C20.6794 38.0242 20.3412 37.9626 20 37.959H16Z" fill="#ED954A"/>
<path d="M39.4 45.84L36.661 48.391C35.6825 49.351 34.3663 49.8888 32.9955 49.8888C31.6247 49.8888 30.3085 49.351 29.33 48.391C28.3977 47.4751 27.8554 46.2344 27.8164 44.928C27.7775 43.6216 28.2449 42.3508 29.121 41.381L31.831 38.374L31.703 38.248C31.5155 38.0634 31.2631 37.9597 31 37.959H30C29.7734 37.9594 29.5535 38.0354 29.375 38.175L24.649 41.905H23V53.956L26.535 54.656L34.508 61.734C35.1969 62.3456 36.0405 62.7565 36.9468 62.9219C37.8531 63.0873 38.7874 63.0008 39.648 62.672L47.487 59.7C47.9515 59.5283 48.365 59.2421 48.6894 58.868C49.0138 58.4939 49.2385 58.0439 49.3426 57.5598C49.4467 57.0757 49.4269 56.5732 49.285 56.0988C49.1432 55.6243 48.8838 55.1934 48.531 54.846L39.4 45.84Z" fill="#ED954A"/>
<path d="M39 1H11C9.93913 1 8.92172 1.42143 8.17157 2.17157C7.42143 2.92172 7 3.93913 7 5V36H4C3.20435 36 2.44129 36.3161 1.87868 36.8787C1.31607 37.4413 1 38.2044 1 39V42C1 43.0609 1.42143 44.0783 2.17157 44.8284C2.92172 45.5786 3.93913 46 5 46H35C36.0609 46 37.0783 45.5786 37.8284 44.8284C38.5786 44.0783 39 43.0609 39 42V10H40C40.7956 10 41.5587 9.68393 42.1213 9.12132C42.6839 8.55871 43 7.79565 43 7V5C43 3.93913 42.5786 2.92172 41.8284 2.17157C41.0783 1.42143 40.0609 1 39 1V1ZM3 42V39C3 38.7348 3.10536 38.4804 3.29289 38.2929C3.48043 38.1054 3.73478 38 4 38H7V42C7 42.5304 6.78929 43.0391 6.41421 43.4142C6.03914 43.7893 5.53043 44 5 44C4.46957 44 3.96086 43.7893 3.58579 43.4142C3.21071 43.0391 3 42.5304 3 42ZM37 42C37 42.5304 36.7893 43.0391 36.4142 43.4142C36.0391 43.7893 35.5304 44 35 44H8.444C8.80392 43.3947 8.99586 42.7043 9 42V5C9 4.46957 9.21071 3.96086 9.58579 3.58579C9.96086 3.21071 10.4696 3 11 3C11.5304 3 12.0391 3.21071 12.4142 3.58579C12.7893 3.96086 13 4.46957 13 5V7C13 7.79565 13.3161 8.55871 13.8787 9.12132C14.4413 9.68393 15.2044 10 16 10H37V42ZM41 7C41 7.26522 40.8946 7.51957 40.7071 7.70711C40.5196 7.89464 40.2652 8 40 8H16C15.7348 8 15.4804 7.89464 15.2929 7.70711C15.1054 7.51957 15 7.26522 15 7V5C14.9959 4.29575 14.8039 3.60535 14.444 3H39C39.5304 3 40.0391 3.21071 40.4142 3.58579C40.7893 3.96086 41 4.46957 41 5V7Z" fill="#202020"/>
<path d="M11 14C11 14.2652 11.1054 14.5196 11.2929 14.7071C11.4804 14.8946 11.7348 15 12 15H34C34.2652 15 34.5196 14.8946 34.7071 14.7071C34.8946 14.5196 35 14.2652 35 14C35 13.7348 34.8946 13.4804 34.7071 13.2929C34.5196 13.1054 34.2652 13 34 13H12C11.7348 13 11.4804 13.1054 11.2929 13.2929C11.1054 13.4804 11 13.7348 11 14Z" fill="#202020"/>
<path d="M34 20H12C11.7348 20 11.4804 20.1054 11.2929 20.2929C11.1054 20.4804 11 20.7348 11 21C11 21.2652 11.1054 21.5196 11.2929 21.7071C11.4804 21.8946 11.7348 22 12 22H34C34.2652 22 34.5196 21.8946 34.7071 21.7071C34.8946 21.5196 35 21.2652 35 21C35 20.7348 34.8946 20.4804 34.7071 20.2929C34.5196 20.1054 34.2652 20 34 20Z" fill="#202020"/>
<path d="M23 26C21.6744 26.0016 20.4036 26.5289 19.4662 27.4662C18.5289 28.4036 18.0016 29.6744 18 31C18.0032 32.0721 18.3541 33.1143 19 33.97V41C19 41.181 19.0491 41.3587 19.1421 41.514C19.2352 41.6693 19.3686 41.7965 19.5282 41.8819C19.6879 41.9673 19.8677 42.0078 20.0485 41.999C20.2293 41.9902 20.4044 41.9325 20.555 41.832L23 40.2L25.445 41.83C25.5955 41.9304 25.7703 41.9881 25.951 41.9969C26.1316 42.0058 26.3113 41.9655 26.4709 41.8803C26.6305 41.7952 26.7639 41.6683 26.8571 41.5133C26.9503 41.3583 26.9997 41.1809 27 41V33.97C27.6459 33.1143 27.9968 32.0721 28 31C27.9984 29.6744 27.4711 28.4036 26.5338 27.4662C25.5964 26.5289 24.3256 26.0016 23 26V26ZM23 28C23.5933 28 24.1734 28.1759 24.6667 28.5056C25.1601 28.8352 25.5446 29.3038 25.7716 29.8519C25.9987 30.4001 26.0581 31.0033 25.9424 31.5853C25.8266 32.1672 25.5409 32.7018 25.1213 33.1213C24.7018 33.5409 24.1672 33.8266 23.5853 33.9424C23.0033 34.0581 22.4001 33.9987 21.8519 33.7716C21.3038 33.5446 20.8352 33.1601 20.5056 32.6667C20.1759 32.1734 20 31.5933 20 31C20 30.2044 20.3161 29.4413 20.8787 28.8787C21.4413 28.3161 22.2044 28 23 28V28ZM23.555 38.169C23.3907 38.0594 23.1975 38.0009 23 38.0009C22.8025 38.0009 22.6093 38.0594 22.445 38.169L21 39.133V35.577C21.6297 35.8566 22.311 36.001 23 36.001C23.689 36.001 24.3703 35.8566 25 35.577V39.133L23.555 38.169Z" fill="#202020"/>
</svg>
