<svg width="64" height="64" viewBox="0 0 64 64" fill="none" xmlns="http://www.w3.org/2000/svg">
<path d="M40.544 40.038C38.9704 40.038 37.4322 40.5046 36.1238 41.3789C34.8154 42.2532 33.7957 43.4958 33.1935 44.9496C32.5914 46.4034 32.4339 48.0032 32.7409 49.5465C33.048 51.0898 33.8058 52.5075 34.9186 53.6201C36.0314 54.7327 37.4491 55.4904 38.9925 55.7972C40.5359 56.1041 42.1356 55.9464 43.5893 55.3441C45.0431 54.7418 46.2856 53.7219 47.1597 52.4134C48.0338 51.1049 48.5002 49.5666 48.5 47.993C48.4979 45.8837 47.659 43.8614 46.1673 42.3699C44.6757 40.8785 42.6533 40.0398 40.544 40.038V40.038ZM44.271 51.538C43.8649 52.0211 43.3557 52.4071 42.7808 52.6676C42.206 52.928 41.58 53.0563 40.949 53.043C40.1588 53.0434 39.3794 52.8585 38.6736 52.5031C37.9678 52.1477 37.3552 51.6317 36.885 50.9965C36.4148 50.3614 36.1002 49.6248 35.9663 48.846C35.8324 48.0672 35.8831 47.2678 36.1142 46.5121C36.3453 45.7565 36.7505 45.0655 37.2971 44.4948C37.8437 43.9241 38.5165 43.4896 39.2616 43.2261C40.0066 42.9626 40.803 42.8776 41.5869 42.9778C42.3707 43.078 43.1202 43.3606 43.775 43.803C43.886 43.8756 43.9815 43.9696 44.0559 44.0794C44.1302 44.1893 44.182 44.3129 44.2081 44.4429C44.2343 44.573 44.2343 44.707 44.2081 44.837C44.182 44.9671 44.1302 45.0907 44.0558 45.2005C43.9815 45.3104 43.886 45.4044 43.7749 45.477C43.6639 45.5496 43.5395 45.5993 43.4091 45.6234C43.2786 45.6474 43.1446 45.6453 43.015 45.6171C42.8854 45.5889 42.7627 45.5351 42.654 45.459C42.1509 45.1179 41.5568 44.9364 40.949 44.938C40.1635 44.9728 39.4217 45.3094 38.8782 45.8776C38.3347 46.4458 38.0313 47.2017 38.0313 47.988C38.0313 48.7743 38.3347 49.5302 38.8782 50.0984C39.4217 50.6666 40.1635 51.0031 40.949 51.038C41.2863 51.0511 41.6222 50.9873 41.9313 50.8515C42.2404 50.7157 42.5145 50.5113 42.733 50.254C42.9026 50.05 43.1463 49.9218 43.4104 49.8975C43.6746 49.8733 43.9375 49.9549 44.1415 50.1245C44.3454 50.2941 44.4737 50.5378 44.498 50.8019C44.5222 51.0661 44.4406 51.329 44.271 51.533V51.538Z" fill="#ED954A"/>
<path d="M54.5 33H53.5V26C53.5 22.5522 52.1304 19.2456 49.6924 16.8076C47.2544 14.3696 43.9478 13 40.5 13C37.0522 13 33.7456 14.3696 31.3076 16.8076C28.8696 19.2456 27.5 22.5522 27.5 26V33H26.5C25.7051 33.0024 24.9434 33.3192 24.3813 33.8813C23.8192 34.4434 23.5024 35.2051 23.5 36V60C23.5024 60.7949 23.8192 61.5566 24.3813 62.1187C24.9434 62.6808 25.7051 62.9976 26.5 63H54.5C55.2949 62.9976 56.0566 62.6808 56.6187 62.1187C57.1808 61.5566 57.4976 60.7949 57.5 60V36C57.4976 35.2051 57.1808 34.4434 56.6187 33.8813C56.0566 33.3192 55.2949 33.0024 54.5 33V33ZM49.5 33H31.5V26C31.5 23.6131 32.4482 21.3239 34.136 19.636C35.8239 17.9482 38.1131 17 40.5 17C42.8869 17 45.1761 17.9482 46.864 19.636C48.5518 21.3239 49.5 23.6131 49.5 26V33ZM40.54 57.95C38.5715 57.949 36.6475 57.3644 35.0112 56.2702C33.3749 55.1759 32.0997 53.6211 31.3468 51.8023C30.594 49.9835 30.3973 47.9823 30.7815 46.0517C31.1658 44.121 32.1138 42.3477 33.5058 40.9558C34.8977 39.5638 36.671 38.6158 38.6017 38.2315C40.5323 37.8473 42.5335 38.044 44.3523 38.7968C46.1711 39.5497 47.7259 40.8249 48.8202 42.4612C49.9144 44.0975 50.499 46.0215 50.5 47.99C50.4987 50.6312 49.4489 53.1637 47.5813 55.0313C45.7137 56.8989 43.1812 57.9487 40.54 57.95V57.95Z" fill="#ED954A"/>
<path d="M42.164 9.252L33.164 1.252C32.9787 1.09328 32.7439 1.00416 32.5 1H9.5C8.70435 1 7.94129 1.31607 7.37868 1.87868C6.81607 2.44129 6.5 3.20435 6.5 4V48C6.5 48.7956 6.81607 49.5587 7.37868 50.1213C7.94129 50.6839 8.70435 51 9.5 51H39.5C40.2956 51 41.0587 50.6839 41.6213 50.1213C42.1839 49.5587 42.5 48.7956 42.5 48V10C42.4876 9.71692 42.3674 9.44931 42.164 9.252V9.252ZM33.5 4.227L38.87 9H33.5V4.227ZM39.5 49H9.5C9.23478 49 8.98043 48.8946 8.79289 48.7071C8.60536 48.5196 8.5 48.2652 8.5 48V4C8.5 3.73478 8.60536 3.48043 8.79289 3.29289C8.98043 3.10536 9.23478 3 9.5 3H31.5V10C31.5 10.2652 31.6054 10.5196 31.7929 10.7071C31.9804 10.8946 32.2348 11 32.5 11H40.5V48C40.5 48.2652 40.3946 48.5196 40.2071 48.7071C40.0196 48.8946 39.7652 49 39.5 49Z" fill="#202020"/>
<path d="M16.5 11H24.5C24.7652 11 25.0196 10.8946 25.2071 10.7071C25.3946 10.5196 25.5 10.2652 25.5 10C25.5 9.73478 25.3946 9.48043 25.2071 9.29289C25.0196 9.10536 24.7652 9 24.5 9H16.5C16.2348 9 15.9804 9.10536 15.7929 9.29289C15.6054 9.48043 15.5 9.73478 15.5 10C15.5 10.2652 15.6054 10.5196 15.7929 10.7071C15.9804 10.8946 16.2348 11 16.5 11Z" fill="#202020"/>
<path d="M32.5 17H16.5C16.2348 17 15.9804 17.1054 15.7929 17.2929C15.6054 17.4804 15.5 17.7348 15.5 18C15.5 18.2652 15.6054 18.5196 15.7929 18.7071C15.9804 18.8946 16.2348 19 16.5 19H32.5C32.7652 19 33.0196 18.8946 33.2071 18.7071C33.3946 18.5196 33.5 18.2652 33.5 18C33.5 17.7348 33.3946 17.4804 33.2071 17.2929C33.0196 17.1054 32.7652 17 32.5 17Z" fill="#202020"/>
<path d="M32.5 25H16.5C16.2348 25 15.9804 25.1054 15.7929 25.2929C15.6054 25.4804 15.5 25.7348 15.5 26C15.5 26.2652 15.6054 26.5196 15.7929 26.7071C15.9804 26.8946 16.2348 27 16.5 27H32.5C32.7652 27 33.0196 26.8946 33.2071 26.7071C33.3946 26.5196 33.5 26.2652 33.5 26C33.5 25.7348 33.3946 25.4804 33.2071 25.2929C33.0196 25.1054 32.7652 25 32.5 25Z" fill="#202020"/>
<path d="M32.5 33H16.5C16.2348 33 15.9804 33.1054 15.7929 33.2929C15.6054 33.4804 15.5 33.7348 15.5 34C15.5 34.2652 15.6054 34.5196 15.7929 34.7071C15.9804 34.8946 16.2348 35 16.5 35H32.5C32.7652 35 33.0196 34.8946 33.2071 34.7071C33.3946 34.5196 33.5 34.2652 33.5 34C33.5 33.7348 33.3946 33.4804 33.2071 33.2929C33.0196 33.1054 32.7652 33 32.5 33Z" fill="#202020"/>
<path d="M32.5 41H16.5C16.2348 41 15.9804 41.1054 15.7929 41.2929C15.6054 41.4804 15.5 41.7348 15.5 42C15.5 42.2652 15.6054 42.5196 15.7929 42.7071C15.9804 42.8946 16.2348 43 16.5 43H32.5C32.7652 43 33.0196 42.8946 33.2071 42.7071C33.3946 42.5196 33.5 42.2652 33.5 42C33.5 41.7348 33.3946 41.4804 33.2071 41.2929C33.0196 41.1054 32.7652 41 32.5 41Z" fill="#202020"/>
</svg>
