<svg width="64" height="64" viewBox="0 0 64 64" fill="none" xmlns="http://www.w3.org/2000/svg">
<path d="M38 33C41.0376 33 43.5 30.5376 43.5 27.5C43.5 24.4624 41.0376 22 38 22C34.9624 22 32.5 24.4624 32.5 27.5C32.5 30.5376 34.9624 33 38 33Z" fill="#ED954A"/>
<path d="M52 33C55.0376 33 57.5 30.5376 57.5 27.5C57.5 24.4624 55.0376 22 52 22C48.9624 22 46.5 24.4624 46.5 27.5C46.5 30.5376 48.9624 33 52 33Z" fill="#ED954A"/>
<path d="M24 33C27.0376 33 29.5 30.5376 29.5 27.5C29.5 24.4624 27.0376 22 24 22C20.9624 22 18.5 24.4624 18.5 27.5C18.5 30.5376 20.9624 33 24 33Z" fill="#ED954A"/>
<path d="M54 57H44V63H54V57Z" fill="#ED954A"/>
<path d="M60 38C60.0001 36.9717 59.7733 35.956 59.3356 35.0255C58.8979 34.095 58.2602 33.2726 57.468 32.617C56.7703 33.3677 55.9254 33.9667 54.9861 34.3767C54.0468 34.7866 53.0332 34.9989 52.0083 35.0001C50.9835 35.0013 49.9693 34.7915 49.029 34.3837C48.0888 33.976 47.2425 33.379 46.543 32.63C45.9327 33.134 45.4111 33.7366 45 34.413C44.5889 33.7366 44.0673 33.134 43.457 32.63C42.7584 33.378 41.9135 33.9743 40.9748 34.3821C40.036 34.7898 39.0235 35.0002 38 35.0002C36.9765 35.0002 35.964 34.7898 35.0252 34.3821C34.0865 33.9743 33.2416 33.378 32.543 32.63C31.9327 33.134 31.4111 33.7366 31 34.413C30.5889 33.7366 30.0673 33.134 29.457 32.63C28.7575 33.379 27.9112 33.976 26.971 34.3837C26.0307 34.7915 25.0165 35.0013 23.9917 35.0001C22.9668 34.9989 21.9532 34.7866 21.0139 34.3767C20.0746 33.9667 19.2297 33.3677 18.532 32.617C17.7398 33.2726 17.1021 34.095 16.6644 35.0255C16.2267 35.956 15.9999 36.9717 16 38V39H60V38Z" fill="#ED954A"/>
<path d="M60 41H16C15.2044 41 14.4413 41.3161 13.8787 41.8787C13.3161 42.4413 13 43.2044 13 44V60C13 60.7956 13.3161 61.5587 13.8787 62.1213C14.4413 62.6839 15.2044 63 16 63H20V56C20 55.7348 20.1054 55.4804 20.2929 55.2929C20.4804 55.1054 20.7348 55 21 55H33C33.2652 55 33.5196 55.1054 33.7071 55.2929C33.8946 55.4804 34 55.7348 34 56V63H42V56C42 55.7348 42.1054 55.4804 42.2929 55.2929C42.4804 55.1054 42.7348 55 43 55H55C55.2652 55 55.5196 55.1054 55.7071 55.2929C55.8946 55.4804 56 55.7348 56 56V63H60C60.7956 63 61.5587 62.6839 62.1213 62.1213C62.6839 61.5587 63 60.7956 63 60V44C63 43.2044 62.6839 42.4413 62.1213 41.8787C61.5587 41.3161 60.7956 41 60 41ZM54 49H22C21.7348 49 21.4804 48.8946 21.2929 48.7071C21.1054 48.5196 21 48.2652 21 48C21 47.7348 21.1054 47.4804 21.2929 47.2929C21.4804 47.1054 21.7348 47 22 47H54C54.2652 47 54.5196 47.1054 54.7071 47.2929C54.8946 47.4804 55 47.7348 55 48C55 48.2652 54.8946 48.5196 54.7071 48.7071C54.5196 48.8946 54.2652 49 54 49Z" fill="#ED954A"/>
<path d="M32 57H22V63H32V57Z" fill="#ED954A"/>
<path d="M48 39H40V27C39.9955 24.6069 39.1337 22.2947 37.5709 20.4825C36.008 18.6703 33.8474 17.478 31.481 17.122C32.9724 15.9769 34.0676 14.3935 34.6131 12.5941C35.1585 10.7947 35.1266 8.86962 34.5219 7.08924C33.9173 5.30885 32.7702 3.76256 31.2417 2.66746C29.7133 1.57237 27.8803 0.983475 26 0.983475C24.1197 0.983475 22.2867 1.57237 20.7583 2.66746C19.2298 3.76256 18.0827 5.30885 17.4781 7.08924C16.8734 8.86962 16.8415 10.7947 17.3869 12.5941C17.9324 14.3935 19.0276 15.9769 20.519 17.122C18.1526 17.478 15.992 18.6703 14.4291 20.4825C12.8663 22.2947 12.0045 24.6069 12 27V39H5V18.618L9.923 16.156C10.4214 16.6334 11.0695 16.924 11.7575 16.9785C12.4455 17.033 13.1312 16.8481 13.6986 16.4552C14.266 16.0622 14.6802 15.4853 14.8712 14.8221C15.0621 14.1588 15.018 13.45 14.7464 12.8155C14.4748 12.181 13.9923 11.6599 13.3806 11.3403C12.7689 11.0206 12.0655 10.9221 11.3896 11.0615C10.7136 11.2008 10.1065 11.5694 9.67108 12.1049C9.23564 12.6404 8.99858 13.3098 9 14C9.0047 14.1217 9.01706 14.2429 9.037 14.363L3.553 17.105C3.38677 17.1881 3.24697 17.3158 3.14929 17.4739C3.05161 17.632 2.99991 17.8142 3 18V39.184C2.41709 39.3901 1.91209 39.7712 1.55409 40.2753C1.19608 40.7794 1.00256 41.3817 1 42V48C1 48.7957 1.31607 49.5587 1.87868 50.1213C2.44129 50.6839 3.20435 51 4 51H48C48.7956 51 49.5587 50.6839 50.1213 50.1213C50.6839 49.5587 51 48.7957 51 48V42C51 41.2044 50.6839 40.4413 50.1213 39.8787C49.5587 39.3161 48.7956 39 48 39ZM12 13C12.1978 13 12.3911 13.0587 12.5556 13.1685C12.72 13.2784 12.8482 13.4346 12.9239 13.6173C12.9996 13.8 13.0194 14.0011 12.9808 14.1951C12.9422 14.3891 12.847 14.5673 12.7071 14.7071C12.5673 14.847 12.3891 14.9422 12.1951 14.9808C12.0011 15.0194 11.8 14.9996 11.6173 14.9239C11.4346 14.8482 11.2784 14.72 11.1685 14.5556C11.0586 14.3911 11 14.1978 11 14C11 13.7348 11.1054 13.4804 11.2929 13.2929C11.4804 13.1054 11.7348 13 12 13V13ZM38 27V39H27V27H30C30.1646 27 30.3266 26.9594 30.4718 26.8818C30.6169 26.8042 30.7407 26.6919 30.832 26.555L34.794 20.611C35.7881 21.3536 36.5955 22.3176 37.152 23.4267C37.7085 24.5357 37.9988 25.7592 38 27ZM19 10C19 8.61554 19.4105 7.26216 20.1797 6.11101C20.9489 4.95987 22.0421 4.06266 23.3212 3.53285C24.6003 3.00304 26.0078 2.86441 27.3656 3.13451C28.7235 3.40461 29.9708 4.07129 30.9497 5.05026C31.9287 6.02923 32.5954 7.27651 32.8655 8.63437C33.1356 9.99224 32.997 11.3997 32.4672 12.6788C31.9373 13.9579 31.0401 15.0511 29.889 15.8203C28.7378 16.5895 27.3845 17 26 17C24.1442 16.9976 22.3651 16.2594 21.0529 14.9471C19.7406 13.6349 19.0024 11.8558 19 10V10ZM30 19C31.0496 18.9999 32.0888 19.2072 33.058 19.61L29.465 25H22.535L18.942 19.61C19.9112 19.2072 20.9504 18.9999 22 19H30ZM14 27C14.0012 25.7592 14.2915 24.5357 14.848 23.4267C15.4045 22.3176 16.2119 21.3536 17.206 20.611L21.168 26.555C21.2593 26.6919 21.3831 26.8042 21.5282 26.8818C21.6734 26.9594 21.8354 27 22 27H25V39H14V27ZM11 49V47H21V49H11ZM31 49V47H41V49H31ZM49 48C49 48.2652 48.8946 48.5196 48.7071 48.7071C48.5196 48.8947 48.2652 49 48 49H43V46C43 45.7348 42.8946 45.4804 42.7071 45.2929C42.5196 45.1054 42.2652 45 42 45H30C29.7348 45 29.4804 45.1054 29.2929 45.2929C29.1054 45.4804 29 45.7348 29 46V49H23V46C23 45.7348 22.8946 45.4804 22.7071 45.2929C22.5196 45.1054 22.2652 45 22 45H10C9.73478 45 9.48043 45.1054 9.29289 45.2929C9.10536 45.4804 9 45.7348 9 46V49H4C3.73478 49 3.48043 48.8947 3.29289 48.7071C3.10536 48.5196 3 48.2652 3 48V42C3 41.7348 3.10536 41.4804 3.29289 41.2929C3.48043 41.1054 3.73478 41 4 41H48C48.2652 41 48.5196 41.1054 48.7071 41.2929C48.8946 41.4804 49 41.7348 49 42V48Z" fill="#202020"/>
</svg>
