<svg width="64" height="64" viewBox="0 0 64 64" fill="none" xmlns="http://www.w3.org/2000/svg">
<path d="M46 27V28.931C44.0685 28.6859 42.2924 27.7456 41.0041 26.2858C39.7157 24.8261 39.0032 22.947 39 21V19.069C40.9315 19.3141 42.7076 20.2544 43.9959 21.7142C45.2843 23.1739 45.9968 25.053 46 27V27Z" fill="#ED954A"/>
<path d="M38 41C35.879 40.9976 33.8456 40.154 32.3458 38.6542C30.846 37.1545 30.0024 35.121 30 33V30.949C31.7026 30.7744 33.332 30.1662 34.7325 29.1824C36.1331 28.1987 37.2581 26.8723 38 25.33C38.7419 26.8723 39.8669 28.1987 41.2675 29.1824C42.668 30.1662 44.2974 30.7744 46 30.949V33C45.9976 35.121 45.154 37.1545 43.6542 38.6542C42.1544 40.154 40.121 40.9976 38 41V41Z" fill="#ED954A"/>
<path d="M30 28.931V27C30.0032 25.053 30.7157 23.1739 32.0041 21.7142C33.2924 20.2544 35.0685 19.3141 37 19.069V21C36.9968 22.947 36.2843 24.8261 34.9959 26.2858C33.7076 27.7456 31.9315 28.6859 30 28.931Z" fill="#ED954A"/>
<path d="M18 13H58C59.3256 13.0016 60.5964 13.5289 61.5338 14.4662C62.4711 15.4036 62.9984 16.6744 63 18V58C62.9985 59.1522 62.5999 60.2687 61.8713 61.1613C61.1427 62.0538 60.1286 62.6679 59 62.9V55.882C59.0062 53.9625 58.3958 52.0918 57.2588 50.5453C56.1217 48.9988 54.518 47.8584 52.684 47.292L43 44.265V41.647C44.5182 40.7704 45.7794 39.5101 46.6569 37.9925C47.5345 36.4748 47.9977 34.7531 48 33V27C48 24.3478 46.9464 21.8043 45.0711 19.9289C43.1957 18.0536 40.6522 17 38 17C35.3478 17 32.8043 18.0536 30.9289 19.9289C29.0536 21.8043 28 24.3478 28 27V33C28.0023 34.7531 28.4655 36.4748 29.3431 37.9925C30.2206 39.5101 31.4818 40.7704 33 41.647V44.265L23.316 47.292C21.482 47.8584 19.8783 48.9988 18.7412 50.5453C17.6042 52.0918 16.9938 53.9625 17 55.882V62.9C15.8714 62.6679 14.8573 62.0538 14.1287 61.1613C13.4001 60.2687 13.0015 59.1522 13 58V18C13.0016 16.6744 13.5289 15.4036 14.4662 14.4662C15.4036 13.5289 16.6744 13.0016 18 13V13Z" fill="#ED954A"/>
<path d="M38 47.586L35 44.586V42.539C36.9528 43.1537 39.0472 43.1537 41 42.539V44.586L38 47.586Z" fill="#ED954A"/>
<path d="M19 55.882V63H57V55.882C57.0049 54.389 56.5302 52.9339 55.6459 51.731C54.7616 50.528 53.5144 49.6408 52.088 49.2L42.279 46.135L38.707 49.707C38.5195 49.8945 38.2652 49.9998 38 49.9998C37.7348 49.9998 37.4805 49.8945 37.293 49.707L33.721 46.135L23.912 49.2C22.4856 49.6408 21.2384 50.528 20.3541 51.731C19.4698 52.9339 18.9951 54.389 19 55.882V55.882ZM21 60C21 59.7348 21.1054 59.4804 21.2929 59.2929C21.4804 59.1054 21.7348 59 22 59H54C54.2652 59 54.5196 59.1054 54.7071 59.2929C54.8946 59.4804 55 59.7348 55 60C55 60.2652 54.8946 60.5196 54.7071 60.7071C54.5196 60.8947 54.2652 61 54 61H22C21.7348 61 21.4804 60.8947 21.2929 60.7071C21.1054 60.5196 21 60.2652 21 60Z" fill="#ED954A"/>
<path d="M36 1H4C3.20435 1 2.44129 1.31607 1.87868 1.87868C1.31607 2.44129 1 3.20435 1 4V48C1 48.7956 1.31607 49.5587 1.87868 50.1213C2.44129 50.6839 3.20435 51 4 51H36C36.7956 51 37.5587 50.6839 38.1213 50.1213C38.6839 49.5587 39 48.7956 39 48V4C39 3.20435 38.6839 2.44129 38.1213 1.87868C37.5587 1.31607 36.7956 1 36 1V1ZM37 48C37 48.2652 36.8946 48.5196 36.7071 48.7071C36.5196 48.8946 36.2652 49 36 49H4C3.73478 49 3.48043 48.8946 3.29289 48.7071C3.10536 48.5196 3 48.2652 3 48V4C3 3.73478 3.10536 3.48043 3.29289 3.29289C3.48043 3.10536 3.73478 3 4 3H36C36.2652 3 36.5196 3.10536 36.7071 3.29289C36.8946 3.48043 37 3.73478 37 4V48Z" fill="#202020"/>
<path d="M8 27H19C19.2652 27 19.5196 26.8946 19.7071 26.7071C19.8946 26.5196 20 26.2652 20 26V10C20 9.73478 19.8946 9.48043 19.7071 9.29289C19.5196 9.10536 19.2652 9 19 9H8C7.73478 9 7.48043 9.10536 7.29289 9.29289C7.10536 9.48043 7 9.73478 7 10V26C7 26.2652 7.10536 26.5196 7.29289 26.7071C7.48043 26.8946 7.73478 27 8 27ZM9 11H18V25H9V11Z" fill="#202020"/>
<path d="M32 9H24C23.7348 9 23.4804 9.10536 23.2929 9.29289C23.1054 9.48043 23 9.73478 23 10C23 10.2652 23.1054 10.5196 23.2929 10.7071C23.4804 10.8946 23.7348 11 24 11H32C32.2652 11 32.5196 10.8946 32.7071 10.7071C32.8946 10.5196 33 10.2652 33 10C33 9.73478 32.8946 9.48043 32.7071 9.29289C32.5196 9.10536 32.2652 9 32 9Z" fill="#202020"/>
<path d="M32 17H24C23.7348 17 23.4804 17.1054 23.2929 17.2929C23.1054 17.4804 23 17.7348 23 18C23 18.2652 23.1054 18.5196 23.2929 18.7071C23.4804 18.8946 23.7348 19 24 19H32C32.2652 19 32.5196 18.8946 32.7071 18.7071C32.8946 18.5196 33 18.2652 33 18C33 17.7348 32.8946 17.4804 32.7071 17.2929C32.5196 17.1054 32.2652 17 32 17Z" fill="#202020"/>
<path d="M32 25H24C23.7348 25 23.4804 25.1054 23.2929 25.2929C23.1054 25.4804 23 25.7348 23 26C23 26.2652 23.1054 26.5196 23.2929 26.7071C23.4804 26.8946 23.7348 27 24 27H32C32.2652 27 32.5196 26.8946 32.7071 26.7071C32.8946 26.5196 33 26.2652 33 26C33 25.7348 32.8946 25.4804 32.7071 25.2929C32.5196 25.1054 32.2652 25 32 25Z" fill="#202020"/>
<path d="M32 33H8C7.73478 33 7.48043 33.1054 7.29289 33.2929C7.10536 33.4804 7 33.7348 7 34C7 34.2652 7.10536 34.5196 7.29289 34.7071C7.48043 34.8946 7.73478 35 8 35H32C32.2652 35 32.5196 34.8946 32.7071 34.7071C32.8946 34.5196 33 34.2652 33 34C33 33.7348 32.8946 33.4804 32.7071 33.2929C32.5196 33.1054 32.2652 33 32 33Z" fill="#202020"/>
<path d="M32 41H8C7.73478 41 7.48043 41.1054 7.29289 41.2929C7.10536 41.4804 7 41.7348 7 42C7 42.2652 7.10536 42.5196 7.29289 42.7071C7.48043 42.8946 7.73478 43 8 43H32C32.2652 43 32.5196 42.8946 32.7071 42.7071C32.8946 42.5196 33 42.2652 33 42C33 41.7348 32.8946 41.4804 32.7071 41.2929C32.5196 41.1054 32.2652 41 32 41Z" fill="#202020"/>
</svg>
