<svg width="64" height="64" viewBox="0 0 64 64" fill="none" xmlns="http://www.w3.org/2000/svg">
<path d="M43.9996 34.9142L37.4136 41.5002L43.9996 48.0862L50.5856 41.5002L43.9996 34.9142Z" fill="#ED954A"/>
<path d="M60 20.5H30C29.2044 20.5 28.4413 20.1839 27.8787 19.6213C27.3161 19.0587 27 18.2956 27 17.5C27 16.7044 27.3161 15.9413 27.8787 15.3787C28.4413 14.8161 29.2044 14.5 30 14.5H62C62.2652 14.5 62.5196 14.3946 62.7071 14.2071C62.8946 14.0196 63 13.7652 63 13.5C63 13.2348 62.8946 12.9804 62.7071 12.7929C62.5196 12.6054 62.2652 12.5 62 12.5H30C28.6744 12.5016 27.4036 13.0289 26.4662 13.9662C25.5289 14.9036 25.0016 16.1744 25 17.5V59.5C25 60.2956 25.3161 61.0587 25.8787 61.6213C26.4413 62.1839 27.2044 62.5 28 62.5H60C60.7956 62.5 61.5587 62.1839 62.1213 61.6213C62.6839 61.0587 63 60.2956 63 59.5V23.5C63 22.7044 62.6839 21.9413 62.1213 21.3787C61.5587 20.8161 60.7956 20.5 60 20.5ZM52 56.5H36C35.7348 56.5 35.4804 56.3946 35.2929 56.2071C35.1054 56.0196 35 55.7652 35 55.5C35 55.2348 35.1054 54.9804 35.2929 54.7929C35.4804 54.6054 35.7348 54.5 36 54.5H52C52.2652 54.5 52.5196 54.6054 52.7071 54.7929C52.8946 54.9804 53 55.2348 53 55.5C53 55.7652 52.8946 56.0196 52.7071 56.2071C52.5196 56.3946 52.2652 56.5 52 56.5ZM52.707 42.207L44.707 50.207C44.5195 50.3945 44.2652 50.4998 44 50.4998C43.7348 50.4998 43.4805 50.3945 43.293 50.207L35.293 42.207C35.1055 42.0195 35.0002 41.7652 35.0002 41.5C35.0002 41.2348 35.1055 40.9805 35.293 40.793L43.293 32.793C43.4805 32.6055 43.7348 32.5002 44 32.5002C44.2652 32.5002 44.5195 32.6055 44.707 32.793L52.707 40.793C52.8945 40.9805 52.9998 41.2348 52.9998 41.5C52.9998 41.7652 52.8945 42.0195 52.707 42.207V42.207ZM52 28.5H36C35.7348 28.5 35.4804 28.3946 35.2929 28.2071C35.1054 28.0196 35 27.7652 35 27.5C35 27.2348 35.1054 26.9804 35.2929 26.7929C35.4804 26.6054 35.7348 26.5 36 26.5H52C52.2652 26.5 52.5196 26.6054 52.7071 26.7929C52.8946 26.9804 53 27.2348 53 27.5C53 27.7652 52.8946 28.0196 52.7071 28.2071C52.5196 28.3946 52.2652 28.5 52 28.5Z" fill="#ED954A"/>
<path d="M50.555 17.668L26.555 1.668C26.3907 1.55836 26.1976 1.49985 26 1.49985C25.8025 1.49985 25.6093 1.55836 25.445 1.668L1.445 17.668C1.30805 17.7593 1.19575 17.883 1.11808 18.0282C1.04042 18.1733 0.999779 18.3354 0.999779 18.5C0.999779 18.6646 1.04042 18.8267 1.11808 18.9718C1.19575 19.117 1.30805 19.2407 1.445 19.332L4 21.035V33.684C3.52026 33.8515 3.09125 34.1388 2.75363 34.5186C2.41602 34.8984 2.18099 35.3581 2.07082 35.8542C1.96065 36.3503 1.97898 36.8663 2.12409 37.3533C2.2692 37.8403 2.53628 38.2821 2.9 38.637L1.051 44.184C0.992396 44.3602 0.983992 44.5492 1.02673 44.7299C1.06948 44.9105 1.16167 45.0758 1.293 45.207L4.293 48.207C4.48053 48.3945 4.73484 48.4998 5 48.4998C5.26517 48.4998 5.51947 48.3945 5.707 48.207L8.707 45.207C8.83816 45.0756 8.93017 44.9104 8.97273 44.7297C9.0153 44.549 9.00673 44.3601 8.948 44.184L7.1 38.637C7.46373 38.2821 7.7308 37.8403 7.87591 37.3533C8.02102 36.8663 8.03936 36.3503 7.92919 35.8542C7.81902 35.3581 7.58399 34.8984 7.24637 34.5186C6.90876 34.1388 6.47975 33.8515 6 33.684V22.368L10 25.035V37.5C9.99988 37.6426 10.0303 37.7836 10.0891 37.9136C10.148 38.0435 10.234 38.1593 10.3413 38.2533C10.4486 38.3472 10.5747 38.4171 10.7113 38.4583C10.8479 38.4995 10.9916 38.511 11.133 38.492C21.0007 37.176 30.9994 37.176 40.867 38.492C41.0084 38.511 41.1522 38.4995 41.2887 38.4583C41.4253 38.4171 41.5514 38.3472 41.6587 38.2533C41.7661 38.1593 41.852 38.0435 41.9109 37.9136C41.9697 37.7836 42.0001 37.6426 42 37.5V25.035L50.555 19.335C50.6926 19.2438 50.8055 19.1199 50.8835 18.9745C50.9616 18.8291 51.0025 18.6666 51.0025 18.5015C51.0025 18.3364 50.9616 18.1739 50.8835 18.0285C50.8055 17.883 50.6926 17.7592 50.555 17.668ZM5 35.5C5.19778 35.5 5.39112 35.5586 5.55557 35.6685C5.72002 35.7784 5.84819 35.9346 5.92388 36.1173C5.99957 36.3 6.01937 36.5011 5.98079 36.6951C5.9422 36.8891 5.84696 37.0673 5.70711 37.2071C5.56726 37.347 5.38907 37.4422 5.19509 37.4808C5.00111 37.5194 4.80005 37.4996 4.61732 37.4239C4.43459 37.3482 4.27841 37.22 4.16853 37.0556C4.05865 36.8911 4 36.6978 4 36.5C4 36.2348 4.10536 35.9804 4.2929 35.7929C4.48043 35.6054 4.73479 35.5 5 35.5ZM6.855 44.23L5 46.086L3.144 44.23L4.73 39.473C4.82 39.481 4.908 39.5 5 39.5C5.092 39.5 5.18 39.481 5.27 39.473L6.855 44.23ZM40 36.363C30.7021 35.2123 21.2979 35.2123 12 36.363V22.27C21.1855 19.921 30.8145 19.921 40 22.27V36.363ZM42 22.631V21.5C42 21.2804 41.9277 21.067 41.7943 20.8926C41.661 20.7182 41.4739 20.5925 41.262 20.535C31.2666 17.8338 20.7334 17.8338 10.738 20.535C10.5261 20.5925 10.339 20.7182 10.2057 20.8926C10.0723 21.067 10 21.2804 10 21.5V22.631L3.8 18.5L26 3.7L48.2 18.5L42 22.631Z" fill="#202020"/>
</svg>
