<svg width="64" height="64" viewBox="0 0 64 64" fill="none" xmlns="http://www.w3.org/2000/svg">
<path d="M47 47.573L49 45.907V45.207C47.6957 45.6003 46.3043 45.6003 45 45.207V45.907L47 47.573Z" fill="#ED954A"/>
<path d="M47 43.5C48.3256 43.4984 49.5964 42.9711 50.5338 42.0338C51.4711 41.0964 51.9984 39.8256 52 38.5V35.5C52 34.1739 51.4732 32.9021 50.5355 31.9645C49.5979 31.0268 48.3261 30.5 47 30.5C45.6739 30.5 44.4021 31.0268 43.4645 31.9645C42.5268 32.9021 42 34.1739 42 35.5V38.5C42.0016 39.8256 42.5289 41.0964 43.4662 42.0338C44.4036 42.9711 45.6744 43.4984 47 43.5V43.5Z" fill="#ED954A"/>
<path d="M55.69 49.716L50.044 47.64L47.644 49.64C47.4643 49.7897 47.2379 49.8716 47.004 49.8716C46.7701 49.8716 46.5437 49.7897 46.364 49.64L43.964 47.64L38.31 49.716C37.9263 49.858 37.5952 50.1138 37.361 50.4493C37.1269 50.7848 37.0009 51.1839 37 51.593V54.5H57V51.593C56.9991 51.1839 56.8731 50.7848 56.639 50.4493C56.4048 50.1138 56.0737 49.858 55.69 49.716V49.716Z" fill="#ED954A"/>
<path d="M60 20.5H40.141C39.3176 20.4992 38.5067 20.7022 37.7807 21.0907C37.0547 21.4793 36.4361 22.0414 35.98 22.727L34.355 25.164C34.0811 25.5759 33.7095 25.9136 33.2732 26.1467C32.8369 26.3799 32.3497 26.5012 31.855 26.5H16C15.2044 26.5 14.4413 26.8161 13.8787 27.3787C13.3161 27.9413 13 28.7044 13 29.5V59.5C13 60.2957 13.3161 61.0587 13.8787 61.6213C14.4413 62.1839 15.2044 62.5 16 62.5H60C60.7956 62.5 61.5587 62.1839 62.1213 61.6213C62.6839 61.0587 63 60.2957 63 59.5V23.5C63 22.7044 62.6839 21.9413 62.1213 21.3787C61.5587 20.8161 60.7956 20.5 60 20.5ZM32 56.5H18C17.7348 56.5 17.4804 56.3946 17.2929 56.2071C17.1054 56.0196 17 55.7652 17 55.5C17 55.2348 17.1054 54.9804 17.2929 54.7929C17.4804 54.6054 17.7348 54.5 18 54.5H32C32.2652 54.5 32.5196 54.6054 32.7071 54.7929C32.8946 54.9804 33 55.2348 33 55.5C33 55.7652 32.8946 56.0196 32.7071 56.2071C32.5196 56.3946 32.2652 56.5 32 56.5ZM32 50.5H18C17.7348 50.5 17.4804 50.3946 17.2929 50.2071C17.1054 50.0196 17 49.7652 17 49.5C17 49.2348 17.1054 48.9804 17.2929 48.7929C17.4804 48.6054 17.7348 48.5 18 48.5H32C32.2652 48.5 32.5196 48.6054 32.7071 48.7929C32.8946 48.9804 33 49.2348 33 49.5C33 49.7652 32.8946 50.0196 32.7071 50.2071C32.5196 50.3946 32.2652 50.5 32 50.5ZM32 44.5H19C18.7348 44.5 18.4804 44.3946 18.2929 44.2071C18.1054 44.0196 18 43.7652 18 43.5C18 43.2348 18.1054 42.9804 18.2929 42.7929C18.4804 42.6054 18.7348 42.5 19 42.5H32C32.2652 42.5 32.5196 42.6054 32.7071 42.7929C32.8946 42.9804 33 43.2348 33 43.5C33 43.7652 32.8946 44.0196 32.7071 44.2071C32.5196 44.3946 32.2652 44.5 32 44.5ZM32 38.5H18C17.7348 38.5 17.4804 38.3946 17.2929 38.2071C17.1054 38.0196 17 37.7652 17 37.5C17 37.2348 17.1054 36.9804 17.2929 36.7929C17.4804 36.6054 17.7348 36.5 18 36.5H32C32.2652 36.5 32.5196 36.6054 32.7071 36.7929C32.8946 36.9804 33 37.2348 33 37.5C33 37.7652 32.8946 38.0196 32.7071 38.2071C32.5196 38.3946 32.2652 38.5 32 38.5ZM59 55.5C59 55.7652 58.8946 56.0196 58.7071 56.2071C58.5196 56.3946 58.2652 56.5 58 56.5H36C35.7348 56.5 35.4804 56.3946 35.2929 56.2071C35.1054 56.0196 35 55.7652 35 55.5V51.593C35.0021 50.7748 35.2541 49.9768 35.7224 49.3059C36.1906 48.635 36.8527 48.1231 37.62 47.839L43 45.861V44.236C42.0746 43.5926 41.3185 42.7349 40.7961 41.7361C40.2738 40.7374 40.0006 39.6271 40 38.5V35.5C40 33.6435 40.7375 31.863 42.0503 30.5503C43.363 29.2375 45.1435 28.5 47 28.5C48.8565 28.5 50.637 29.2375 51.9497 30.5503C53.2625 31.863 54 33.6435 54 35.5V38.5C53.9994 39.6271 53.7262 40.7374 53.2039 41.7361C52.6815 42.7349 51.9254 43.5926 51 44.236V45.861L56.38 47.839C57.1473 48.1231 57.8094 48.635 58.2776 49.3059C58.7459 49.9768 58.9979 50.7748 59 51.593V55.5Z" fill="#ED954A"/>
<path d="M36.685 31.791L27 28.765V26.147C28.5182 25.2704 29.7794 24.0101 30.6569 22.4925C31.5345 20.9748 31.9977 19.2531 32 17.5V11.5C32 8.84784 30.9464 6.3043 29.0711 4.42893C27.1957 2.55357 24.6522 1.5 22 1.5C19.3478 1.5 16.8043 2.55357 14.9289 4.42893C13.0536 6.3043 12 8.84784 12 11.5V17.5C12.0023 19.2531 12.4655 20.9748 13.3431 22.4925C14.2206 24.0101 15.4818 25.2704 17 26.147V28.765L7.315 31.791C5.48133 32.3579 3.87808 33.4984 2.74124 35.0448C1.60441 36.5912 0.994044 38.4617 1 40.381V45.5C1 46.2956 1.31607 47.0587 1.87868 47.6213C2.44129 48.1839 3.20435 48.5 4 48.5H40C40.7956 48.5 41.5587 48.1839 42.1213 47.6213C42.6839 47.0587 43 46.2956 43 45.5V40.381C43.006 38.4617 42.3956 36.5912 41.2588 35.0448C40.1219 33.4984 38.5187 32.3579 36.685 31.791V31.791ZM30.585 31.982L24.639 37.928L23.151 33.759L26.275 30.635L30.585 31.982ZM21.996 32.082L18.996 29.082V27.039C20.9488 27.6537 23.0432 27.6537 24.996 27.039V29.086L21.996 32.082ZM14 11.5C14 9.37827 14.8429 7.34344 16.3431 5.84315C17.8434 4.34285 19.8783 3.5 22 3.5C24.1217 3.5 26.1566 4.34285 27.6569 5.84315C29.1571 7.34344 30 9.37827 30 11.5V12.426C28.6702 11.6564 27.5902 10.5201 26.889 9.153C26.8049 8.98971 26.6774 8.85274 26.5206 8.75712C26.3638 8.66149 26.1837 8.61091 26 8.61091C25.8163 8.61091 25.6362 8.66149 25.4794 8.75712C25.3226 8.85274 25.1951 8.98971 25.111 9.153C24.4419 10.4629 23.4235 11.5622 22.1685 12.3293C20.9136 13.0965 19.4709 13.5017 18 13.5H14V11.5ZM14 17.5V15.5H18C19.5537 15.5028 21.0864 15.1418 22.4756 14.446C23.8648 13.7502 25.0718 12.7389 26 11.493C27.0382 12.8698 28.4167 13.953 30 14.636V17.5C30 19.6217 29.1571 21.6566 27.6569 23.1569C26.1566 24.6571 24.1217 25.5 22 25.5C19.8783 25.5 17.8434 24.6571 16.3431 23.1569C14.8429 21.6566 14 19.6217 14 17.5ZM17.721 30.635L20.845 33.759L19.357 37.928L13.411 31.982L17.721 30.635ZM4 46.5C3.73478 46.5 3.48043 46.3946 3.29289 46.2071C3.10536 46.0196 3 45.7652 3 45.5V40.381C2.99946 39.3382 3.23349 38.3086 3.68476 37.3685C4.13604 36.4284 4.793 35.6018 5.607 34.95L11.382 46.5H4ZM16.3 46.5H13.618L7.335 33.933C7.526 33.854 7.711 33.763 7.912 33.7L11.266 32.652C11.277 32.664 11.281 32.68 11.293 32.692L18.612 40.012L16.3 46.5ZM18.424 46.5L22 36.474L25.581 46.5H18.424ZM27.71 46.5L25.393 40.012L32.712 32.692C32.724 32.68 32.728 32.664 32.739 32.652L36.088 33.7C36.288 33.763 36.474 33.854 36.665 33.933L30.382 46.5H27.71ZM41.01 45.5C41.01 45.7652 40.9046 46.0196 40.7171 46.2071C40.5296 46.3946 40.2752 46.5 40.01 46.5H32.618L38.393 34.95C39.207 35.6018 39.864 36.4284 40.3152 37.3685C40.7665 38.3086 41.0005 39.3382 41 40.381L41.01 45.5Z" fill="#202020"/>
</svg>
