<svg width="64" height="64" viewBox="0 0 64 64" fill="none" xmlns="http://www.w3.org/2000/svg">
<path d="M40.839 28.74C44.2891 25.6802 48.0268 22.9609 52 20.62C52.1143 20.5543 52.2403 20.5118 52.371 20.4949C52.5017 20.4779 52.6344 20.4869 52.7616 20.5213C52.8888 20.5556 53.008 20.6147 53.1124 20.6951C53.2168 20.7756 53.3043 20.8758 53.37 20.99C53.4357 21.1043 53.4782 21.2303 53.4951 21.361C53.5121 21.4917 53.5031 21.6244 53.4687 21.7516C53.4344 21.8788 53.3753 21.9981 53.2949 22.1024C53.2145 22.2068 53.1143 22.2943 53 22.36C49.1402 24.6302 45.5096 27.2692 42.159 30.24C34.6234 36.8385 28.0046 44.4158 22.479 52.77C22.069 53.37 21.659 53.95 21.259 54.52C21.759 54.54 22.489 54.56 23.369 54.56C28.649 54.56 39.659 53.96 45.15 49.25C45.3172 49.1086 45.4334 48.9162 45.4807 48.7024C45.528 48.4885 45.5038 48.2651 45.4118 48.0664C45.3198 47.8676 45.1651 47.7046 44.9715 47.6023C44.7779 47.4999 44.556 47.464 44.34 47.5C42.2478 47.8001 40.124 47.8068 38.03 47.52C43.7261 45.5936 48.9147 42.408 53.21 38.2C53.3583 38.0493 53.4554 37.8558 53.4874 37.6469C53.5195 37.4379 53.4849 37.2242 53.3886 37.036C53.2923 36.8478 53.1392 36.6947 52.9509 36.5985C52.7627 36.5023 52.5489 36.4678 52.34 36.5C52.3 36.51 50.08 36.88 47.7 37.16C51.0679 35.0282 53.9972 32.272 56.33 29.04C58.89 25.21 61.37 14.18 61.48 13.71C61.5131 13.5633 61.5127 13.411 61.4787 13.2645C61.4448 13.118 61.3783 12.981 61.2841 12.8637C61.1899 12.7465 61.0705 12.652 60.9348 12.5873C60.799 12.5226 60.6504 12.4893 60.5 12.49C60.16 12.49 52.12 12.56 40.05 18.6C36.7126 20.2703 33.7503 22.6026 31.3434 25.4548C28.9365 28.307 27.1354 31.6193 26.05 35.19C25.6873 33.9901 25.5021 32.7435 25.5 31.49C25.4983 31.2926 25.4386 31.1001 25.3283 30.9365C25.2181 30.7728 25.0621 30.6452 24.8798 30.5695C24.6975 30.4938 24.497 30.4734 24.3032 30.5108C24.1095 30.5483 23.931 30.6419 23.79 30.78C16.77 37.81 19.19 51.95 19.49 53.56C19.93 52.93 20.38 52.29 20.84 51.63C26.4491 43.1373 33.1758 35.4381 40.839 28.74V28.74Z" fill="#ED954A"/>
<path d="M60.5 57.49C50.365 57.49 55 60.49 44.5 60.49C33.976 60.49 38.7 57.49 28.5 57.49C24.9868 57.432 21.4837 57.8834 18.1 58.83C19.16 57.47 20.19 56.04 21.26 54.52C20.8 54.51 20.52 54.49 20.44 54.49C20.2204 54.4751 20.0117 54.3889 19.8457 54.2445C19.6796 54.1001 19.5652 53.9054 19.52 53.69C19.5155 53.6456 19.5054 53.6019 19.49 53.56C17.7687 56.1142 15.8566 58.5344 13.77 60.8C13.6009 60.982 13.5055 61.2204 13.5025 61.4689C13.4996 61.7173 13.5892 61.9579 13.754 62.1439C13.9187 62.3299 14.1468 62.4479 14.3938 62.4749C14.6408 62.5019 14.8889 62.436 15.09 62.29C15.13 62.27 19.04 59.49 28.5 59.49C38.046 59.49 33.326 62.49 44.5 62.49C55.674 62.49 50.938 59.49 60.5 59.49C60.7652 59.49 61.0196 59.3846 61.2071 59.1971C61.3946 59.0096 61.5 58.7552 61.5 58.49C61.5 58.2248 61.3946 57.9704 61.2071 57.7829C61.0196 57.5954 60.7652 57.49 60.5 57.49V57.49Z" fill="#ED954A"/>
<path d="M49.5 41.5H44.5V6.5C44.4984 5.1744 43.9711 3.90356 43.0338 2.96622C42.0964 2.02888 40.8256 1.50159 39.5 1.5H7.5C6.1744 1.50159 4.90356 2.02888 3.96622 2.96622C3.02888 3.90356 2.50159 5.1744 2.5 6.5V8.5C2.5 9.29565 2.81607 10.0587 3.37868 10.6213C3.94129 11.1839 4.70435 11.5 5.5 11.5H10.5V46.5C10.5016 47.8256 11.0289 49.0964 11.9662 50.0338C12.9036 50.9711 14.1744 51.4984 15.5 51.5H47.5C48.8256 51.4984 50.0964 50.9711 51.0338 50.0338C51.9711 49.0964 52.4984 47.8256 52.5 46.5V44.5C52.5 43.7044 52.1839 42.9413 51.6213 42.3787C51.0587 41.8161 50.2956 41.5 49.5 41.5ZM10.5 9.5H5.5C5.23478 9.5 4.98043 9.39464 4.79289 9.20711C4.60536 9.01957 4.5 8.76522 4.5 8.5V6.5C4.5 5.70435 4.81607 4.94129 5.37868 4.37868C5.94129 3.81607 6.70435 3.5 7.5 3.5C8.29565 3.5 9.05871 3.81607 9.62132 4.37868C10.1839 4.94129 10.5 5.70435 10.5 6.5V9.5ZM12.5 46.5V6.5C12.4963 5.41453 12.1358 4.36039 11.474 3.5H39.5C40.2956 3.5 41.0587 3.81607 41.6213 4.37868C42.1839 4.94129 42.5 5.70435 42.5 6.5V41.5H21.5C20.7044 41.5 19.9413 41.8161 19.3787 42.3787C18.8161 42.9413 18.5 43.7044 18.5 44.5V46.5C18.5 47.2956 18.1839 48.0587 17.6213 48.6213C17.0587 49.1839 16.2956 49.5 15.5 49.5C14.7044 49.5 13.9413 49.1839 13.3787 48.6213C12.8161 48.0587 12.5 47.2956 12.5 46.5V46.5ZM50.5 46.5C50.5 47.2956 50.1839 48.0587 49.6213 48.6213C49.0587 49.1839 48.2956 49.5 47.5 49.5H19.474C20.1358 48.6396 20.4963 47.5855 20.5 46.5V44.5C20.5 44.2348 20.6054 43.9804 20.7929 43.7929C20.9804 43.6054 21.2348 43.5 21.5 43.5H49.5C49.7652 43.5 50.0196 43.6054 50.2071 43.7929C50.3946 43.9804 50.5 44.2348 50.5 44.5V46.5Z" fill="#202020"/>
<path d="M19.5 11.5H35.5C35.7652 11.5 36.0196 11.3946 36.2071 11.2071C36.3946 11.0196 36.5 10.7652 36.5 10.5C36.5 10.2348 36.3946 9.98043 36.2071 9.79289C36.0196 9.60536 35.7652 9.5 35.5 9.5H19.5C19.2348 9.5 18.9804 9.60536 18.7929 9.79289C18.6054 9.98043 18.5 10.2348 18.5 10.5C18.5 10.7652 18.6054 11.0196 18.7929 11.2071C18.9804 11.3946 19.2348 11.5 19.5 11.5Z" fill="#202020"/>
<path d="M19.5 19.5H35.5C35.7652 19.5 36.0196 19.3946 36.2071 19.2071C36.3946 19.0196 36.5 18.7652 36.5 18.5C36.5 18.2348 36.3946 17.9804 36.2071 17.7929C36.0196 17.6054 35.7652 17.5 35.5 17.5H19.5C19.2348 17.5 18.9804 17.6054 18.7929 17.7929C18.6054 17.9804 18.5 18.2348 18.5 18.5C18.5 18.7652 18.6054 19.0196 18.7929 19.2071C18.9804 19.3946 19.2348 19.5 19.5 19.5Z" fill="#202020"/>
<path d="M19.5 27.5H35.5C35.7652 27.5 36.0196 27.3946 36.2071 27.2071C36.3946 27.0196 36.5 26.7652 36.5 26.5C36.5 26.2348 36.3946 25.9804 36.2071 25.7929C36.0196 25.6054 35.7652 25.5 35.5 25.5H19.5C19.2348 25.5 18.9804 25.6054 18.7929 25.7929C18.6054 25.9804 18.5 26.2348 18.5 26.5C18.5 26.7652 18.6054 27.0196 18.7929 27.2071C18.9804 27.3946 19.2348 27.5 19.5 27.5Z" fill="#202020"/>
<path d="M19.5 35.5H35.5C35.7652 35.5 36.0196 35.3946 36.2071 35.2071C36.3946 35.0196 36.5 34.7652 36.5 34.5C36.5 34.2348 36.3946 33.9804 36.2071 33.7929C36.0196 33.6054 35.7652 33.5 35.5 33.5H19.5C19.2348 33.5 18.9804 33.6054 18.7929 33.7929C18.6054 33.9804 18.5 34.2348 18.5 34.5C18.5 34.7652 18.6054 35.0196 18.7929 35.2071C18.9804 35.3946 19.2348 35.5 19.5 35.5Z" fill="#202020"/>
</svg>
