<svg width="64" height="64" viewBox="0 0 64 64" fill="none" xmlns="http://www.w3.org/2000/svg">
<path d="M21 39.5H44C44.5304 39.5 45.0391 39.2893 45.4142 38.9142C45.7893 38.5391 46 38.0304 46 37.5V27.5C46 26.9696 45.7893 26.4609 45.4142 26.0858C45.0391 25.7107 44.5304 25.5 44 25.5H21C20.7348 25.5 20.4804 25.6054 20.2929 25.7929C20.1054 25.9804 20 26.2348 20 26.5V38.5C20 38.7652 20.1054 39.0196 20.2929 39.2071C20.4804 39.3946 20.7348 39.5 21 39.5ZM26 31.5H40C40.2652 31.5 40.5196 31.6054 40.7071 31.7929C40.8946 31.9804 41 32.2348 41 32.5C41 32.7652 40.8946 33.0196 40.7071 33.2071C40.5196 33.3946 40.2652 33.5 40 33.5H26C25.7348 33.5 25.4804 33.3946 25.2929 33.2071C25.1054 33.0196 25 32.7652 25 32.5C25 32.2348 25.1054 31.9804 25.2929 31.7929C25.4804 31.6054 25.7348 31.5 26 31.5Z" fill="#ED954A"/>
<path d="M42 53.5V43.5C42 42.9696 41.7893 42.4609 41.4142 42.0858C41.0391 41.7107 40.5304 41.5 40 41.5H21C20.7348 41.5 20.4804 41.6054 20.2929 41.7929C20.1054 41.9804 20 42.2348 20 42.5V54.5C20 54.7652 20.1054 55.0196 20.2929 55.2071C20.4804 55.3946 20.7348 55.5 21 55.5H40C40.5304 55.5 41.0391 55.2893 41.4142 54.9142C41.7893 54.5391 42 54.0304 42 53.5ZM36 49.5H26C25.7348 49.5 25.4804 49.3946 25.2929 49.2071C25.1054 49.0196 25 48.7652 25 48.5C25 48.2348 25.1054 47.9804 25.2929 47.7929C25.4804 47.6054 25.7348 47.5 26 47.5H36C36.2652 47.5 36.5196 47.6054 36.7071 47.7929C36.8946 47.9804 37 48.2348 37 48.5C37 48.7652 36.8946 49.0196 36.7071 49.2071C36.5196 49.3946 36.2652 49.5 36 49.5Z" fill="#ED954A"/>
<path d="M18 38.5V26.5C18 26.482 18 26.465 18 26.447L15.311 25.547C15.1606 25.4978 15.0008 25.485 14.8445 25.5096C14.6882 25.5342 14.54 25.5955 14.412 25.6885C14.284 25.7816 14.18 25.9036 14.1083 26.0447C14.0367 26.1857 13.9996 26.3418 14 26.5V38.5C14.0001 38.6584 14.0379 38.8144 14.1101 38.9554C14.1823 39.0963 14.287 39.2181 14.4155 39.3106C14.544 39.4032 14.6926 39.4639 14.8492 39.4878C15.0058 39.5117 15.1658 39.498 15.316 39.448L18.005 38.548C18.006 38.533 18 38.517 18 38.5Z" fill="#ED954A"/>
<path d="M18 54.5V42.5C18 42.482 18 42.465 18 42.447L15.311 41.547C15.1606 41.4978 15.0008 41.485 14.8445 41.5096C14.6882 41.5342 14.54 41.5955 14.412 41.6885C14.284 41.7816 14.18 41.9036 14.1083 42.0447C14.0367 42.1857 13.9996 42.3418 14 42.5V54.5C14.0001 54.6584 14.0379 54.8144 14.1101 54.9554C14.1823 55.0963 14.287 55.2181 14.4155 55.3106C14.544 55.4032 14.6926 55.4639 14.8492 55.4878C15.0058 55.5117 15.1658 55.498 15.316 55.448L18.005 54.548C18.006 54.533 18 54.517 18 54.5Z" fill="#ED954A"/>
<path d="M62.448 31.605L54.448 27.605C54.3089 27.5354 54.1555 27.4994 54 27.5H48V37.5H54C54.1551 37.5002 54.3082 37.4642 54.447 37.395L62.447 33.395C62.6135 33.3122 62.7535 33.1846 62.8515 33.0265C62.9494 32.8685 63.0013 32.6862 63.0014 32.5003C63.0015 32.3144 62.9498 32.1321 62.852 31.974C62.7543 31.8158 62.6144 31.688 62.448 31.605V31.605Z" fill="#ED954A"/>
<path d="M59.449 47.6L51.449 43.6C51.3091 43.5322 51.1554 43.498 51 43.5H44V53.5H51C51.1552 53.5001 51.3083 53.4638 51.447 53.394L59.447 49.394C59.6146 49.3117 59.7557 49.1841 59.8545 49.0256C59.9533 48.8672 60.0058 48.6843 60.006 48.4976C60.0062 48.3109 59.9541 48.1279 59.8557 47.9693C59.7573 47.8106 59.6164 47.6827 59.449 47.6Z" fill="#ED954A"/>
<path d="M50 8.5H8C7.84476 8.5 7.69164 8.53614 7.55279 8.60557C7.41393 8.675 7.29315 8.7758 7.2 8.9L1.2 16.9C1.08857 17.0486 1.02072 17.2252 1.00404 17.4102C0.987363 17.5952 1.02252 17.7811 1.10557 17.9472C1.18863 18.1133 1.31629 18.253 1.47427 18.3507C1.63225 18.4483 1.81429 18.5 2 18.5C3.08426 18.495 4.15219 18.7641 5.10452 19.2825C6.05684 19.8009 6.86264 20.5517 7.447 21.465C8.02634 22.3522 8.40079 23.3572 8.54315 24.4072C8.6855 25.4571 8.5922 26.5256 8.27 27.535L1.076 45.121C1.01385 45.2728 0.989969 45.4375 1.00647 45.6006C1.02298 45.7638 1.07936 45.9204 1.17065 46.0566C1.26193 46.1929 1.38533 46.3046 1.52995 46.3819C1.67458 46.4592 1.836 46.4998 2 46.5H17C17.2034 46.5 17.402 46.438 17.5692 46.3222C17.7364 46.2064 17.8644 46.0424 17.936 45.852L23.694 30.5H24C26.2127 30.4968 28.3468 29.6797 29.9958 28.2044C31.6449 26.7291 32.6935 24.6987 32.942 22.5H50C50.2652 22.5 50.5196 22.3946 50.7071 22.2071C50.8946 22.0196 51 21.7652 51 21.5V9.5C51 9.23478 50.8946 8.98043 50.7071 8.79289C50.5196 8.60536 50.2652 8.5 50 8.5ZM49 14.5H21.473C20.9931 14.5023 20.5197 14.3883 20.0934 14.1677C19.6672 13.947 19.3008 13.6264 19.0255 13.2332C18.7503 12.84 18.5745 12.386 18.5131 11.91C18.4517 11.434 18.5065 10.9502 18.673 10.5H49V14.5ZM24.453 28.479L26.7 22.5H30.927C30.6964 24.0876 29.9275 25.5477 28.749 26.6361C27.5704 27.7245 26.0538 28.3751 24.453 28.479V28.479ZM26 20.5C25.7964 20.4998 25.5976 20.5617 25.4302 20.6775C25.2628 20.7933 25.1347 20.9575 25.063 21.148L16.309 44.5H3.491L10.145 28.23C10.5732 26.9267 10.7035 25.544 10.5262 24.1836C10.349 22.8233 9.8688 21.5201 9.121 20.37C7.91505 18.5028 6.02329 17.1847 3.854 16.7L8.5 10.5H16.572C16.4237 11.2265 16.4388 11.977 16.6164 12.6969C16.7939 13.4169 17.1293 14.0883 17.5983 14.6627C18.0674 15.237 18.6583 15.6998 19.3282 16.0176C19.9982 16.3354 20.7305 16.5002 21.472 16.5H49V20.5H26Z" fill="#202020"/>
<path d="M19 28.5H13C12.8026 28.5 12.6097 28.5584 12.4454 28.6678C12.2812 28.7772 12.153 28.9328 12.077 29.115L7.07699 41.115C7.01359 41.267 6.98871 41.4323 7.00454 41.5962C7.02038 41.7601 7.07645 41.9175 7.16777 42.0546C7.25909 42.1916 7.38283 42.3039 7.52801 42.3817C7.6732 42.4594 7.83532 42.5 7.99999 42.5H14C14.1974 42.5 14.3903 42.4416 14.5546 42.3322C14.7188 42.2227 14.847 42.0672 14.923 41.885L19.923 29.885C19.9864 29.733 20.0113 29.5677 19.9954 29.4038C19.9796 29.2399 19.9235 29.0825 19.8322 28.9454C19.7409 28.8084 19.6172 28.6961 19.472 28.6183C19.3268 28.5406 19.1647 28.5 19 28.5ZM13.334 40.5H9.49999L13.667 30.5H17.5L13.334 40.5Z" fill="#202020"/>
</svg>
