<svg width="64" height="64" viewBox="0 0 64 64" fill="none" xmlns="http://www.w3.org/2000/svg">
<path d="M51.361 38.5L46.758 29.5H32.239L27.637 38.5H51.361Z" fill="#ED954A"/>
<path d="M52.383 40.5H26.614L22.012 49.5H56.986L52.383 40.5Z" fill="#ED954A"/>
<path d="M58.008 51.5H20.989L16.109 61.045C16.0311 61.1975 15.9937 61.3674 16.0003 61.5385C16.0069 61.7096 16.0573 61.8762 16.1467 62.0222C16.2361 62.1683 16.3616 62.2889 16.511 62.3725C16.6604 62.4562 16.8288 62.5001 17 62.5H62C62.1712 62.4999 62.3394 62.4559 62.4887 62.3722C62.638 62.2885 62.7633 62.1678 62.8526 62.0218C62.9419 61.8758 62.9922 61.7093 62.9988 61.5383C63.0053 61.3673 62.9679 61.1974 62.89 61.045L58.008 51.5Z" fill="#ED954A"/>
<path d="M45.736 27.5L40.389 17.045C40.2963 16.8918 40.1656 16.7652 40.0096 16.6772C39.8536 16.5893 39.6776 16.5432 39.4985 16.5432C39.3195 16.5432 39.1434 16.5893 38.9874 16.6772C38.8314 16.7652 38.7008 16.8918 38.608 17.045L33.262 27.5H45.736Z" fill="#ED954A"/>
<path d="M49 42.5H47V39.5C47 38.7044 46.6839 37.9413 46.1213 37.3787C45.5587 36.8161 44.7956 36.5 44 36.5H27V33.5H38.5C39.4283 33.5 40.3185 33.1312 40.9749 32.4749C41.6312 31.8185 42 30.9283 42 30V5C42 4.07174 41.6312 3.1815 40.9749 2.52513C40.3185 1.86875 39.4283 1.5 38.5 1.5H13.5C12.5717 1.5 11.6815 1.86875 11.0251 2.52513C10.3687 3.1815 10 4.07174 10 5V30C10 30.9283 10.3687 31.8185 11.0251 32.4749C11.6815 33.1312 12.5717 33.5 13.5 33.5H25V36.5H8C7.20435 36.5 6.44129 36.8161 5.87868 37.3787C5.31607 37.9413 5 38.7044 5 39.5V42.5H3C2.46957 42.5 1.96086 42.7107 1.58579 43.0858C1.21071 43.4609 1 43.9696 1 44.5V49.5C1 50.0304 1.21071 50.5391 1.58579 50.9142C1.96086 51.2893 2.46957 51.5 3 51.5H9C9.53043 51.5 10.0391 51.2893 10.4142 50.9142C10.7893 50.5391 11 50.0304 11 49.5V44.5C11 43.9696 10.7893 43.4609 10.4142 43.0858C10.0391 42.7107 9.53043 42.5 9 42.5H7V39.5C7 39.2348 7.10536 38.9804 7.29289 38.7929C7.48043 38.6054 7.73478 38.5 8 38.5H18V42.5H16C15.4696 42.5 14.9609 42.7107 14.5858 43.0858C14.2107 43.4609 14 43.9696 14 44.5V49.5C14 50.0304 14.2107 50.5391 14.5858 50.9142C14.9609 51.2893 15.4696 51.5 16 51.5H22C22.5304 51.5 23.0391 51.2893 23.4142 50.9142C23.7893 50.5391 24 50.0304 24 49.5V44.5C24 43.9696 23.7893 43.4609 23.4142 43.0858C23.0391 42.7107 22.5304 42.5 22 42.5H20V38.5H32V42.5H30C29.4696 42.5 28.9609 42.7107 28.5858 43.0858C28.2107 43.4609 28 43.9696 28 44.5V49.5C28 50.0304 28.2107 50.5391 28.5858 50.9142C28.9609 51.2893 29.4696 51.5 30 51.5H36C36.5304 51.5 37.0391 51.2893 37.4142 50.9142C37.7893 50.5391 38 50.0304 38 49.5V44.5C38 43.9696 37.7893 43.4609 37.4142 43.0858C37.0391 42.7107 36.5304 42.5 36 42.5H34V38.5H44C44.2652 38.5 44.5196 38.6054 44.7071 38.7929C44.8946 38.9804 45 39.2348 45 39.5V42.5H43C42.4696 42.5 41.9609 42.7107 41.5858 43.0858C41.2107 43.4609 41 43.9696 41 44.5V49.5C41 50.0304 41.2107 50.5391 41.5858 50.9142C41.9609 51.2893 42.4696 51.5 43 51.5H49C49.5304 51.5 50.0391 51.2893 50.4142 50.9142C50.7893 50.5391 51 50.0304 51 49.5V44.5C51 43.9696 50.7893 43.4609 50.4142 43.0858C50.0391 42.7107 49.5304 42.5 49 42.5ZM9 44.5V49.5H3V44.5H9ZM22 44.5V49.5H16V44.5H22ZM14 28.593V31.5H13.5C13.1022 31.5 12.7206 31.342 12.4393 31.0607C12.158 30.7794 12 30.3978 12 30V5C12 4.60218 12.158 4.22064 12.4393 3.93934C12.7206 3.65804 13.1022 3.5 13.5 3.5H38.5C38.8978 3.5 39.2794 3.65804 39.5607 3.93934C39.842 4.22064 40 4.60218 40 5V30C40 30.3978 39.842 30.7794 39.5607 31.0607C39.2794 31.342 38.8978 31.5 38.5 31.5H38V28.593C37.9979 27.7748 37.7459 26.9768 37.2776 26.3059C36.8094 25.635 36.1473 25.1231 35.38 24.839L30 22.861V21.236C30.9254 20.5926 31.6815 19.7349 32.2039 18.7361C32.7262 17.7374 32.9994 16.6271 33 15.5V12.5C33 10.6435 32.2625 8.86301 30.9497 7.55025C29.637 6.2375 27.8565 5.5 26 5.5C24.1435 5.5 22.363 6.2375 21.0503 7.55025C19.7375 8.86301 19 10.6435 19 12.5V15.5C19.0006 16.6271 19.2738 17.7374 19.7961 18.7361C20.3185 19.7349 21.0746 20.5926 22 21.236V22.861L16.62 24.839C15.8527 25.1231 15.1906 25.635 14.7224 26.3059C14.2541 26.9768 14.0021 27.7748 14 28.593V28.593ZM26 20.5C24.6744 20.4984 23.4036 19.9711 22.4662 19.0338C21.5289 18.0964 21.0016 16.8256 21 15.5V12.5H25.492C26.5702 12.4999 27.6329 12.7578 28.5911 13.2522C29.5493 13.7466 30.3753 14.4632 31 15.342V15.5C30.9984 16.8256 30.4711 18.0964 29.5338 19.0338C28.5964 19.9711 27.3256 20.4984 26 20.5ZM28 22.2V22.9L26 24.566L24 22.9V22.2C25.3043 22.5933 26.6957 22.5933 28 22.2V22.2ZM21.424 10.5C21.8789 9.44779 22.682 8.58414 23.6984 8.0541C24.7148 7.52406 25.8827 7.3599 27.0058 7.5892C28.129 7.8185 29.139 8.42729 29.8664 9.31333C30.5937 10.1994 30.994 11.3087 31 12.455C29.4446 11.1928 27.5031 10.5027 25.5 10.5H21.424ZM16 31.5V28.593C16.0009 28.1839 16.1269 27.7848 16.361 27.4493C16.5952 27.1138 16.9263 26.8579 17.31 26.716L22.956 24.64L25.356 26.64C25.5357 26.7897 25.7621 26.8716 25.996 26.8716C26.2299 26.8716 26.4563 26.7897 26.636 26.64L29.036 24.64L34.682 26.716C35.0672 26.8566 35.4001 27.112 35.6357 27.4476C35.8714 27.7832 35.9985 28.1829 36 28.593V31.5H16ZM36 44.5V49.5H30V44.5H36ZM49 49.5H43V44.5H49V49.5Z" fill="#202020"/>
</svg>
