<svg width="64" height="64" viewBox="0 0 64 64" fill="none" xmlns="http://www.w3.org/2000/svg">
<path d="M60 16.5H51.414L53.707 14.207C53.8892 14.0184 53.99 13.7658 53.9877 13.5036C53.9854 13.2414 53.8802 12.9906 53.6948 12.8052C53.5094 12.6198 53.2586 12.5146 52.9964 12.5123C52.7342 12.5101 52.4816 12.6109 52.293 12.793L48.586 16.5H43.414L39.707 12.793C39.5184 12.6109 39.2658 12.5101 39.0036 12.5123C38.7414 12.5146 38.4906 12.6198 38.3052 12.8052C38.1198 12.9906 38.0146 13.2414 38.0123 13.5036C38.01 13.7658 38.1108 14.0184 38.293 14.207L40.586 16.5H32C31.2044 16.5 30.4413 16.8161 29.8787 17.3787C29.3161 17.9413 29 18.7044 29 19.5V48.5H34V46.094C34.0022 45.2759 34.2542 44.4779 34.7222 43.8069C35.1902 43.1359 35.852 42.6237 36.619 42.339L42 40.361V38.736C41.0747 38.0924 40.3187 37.2348 39.7963 36.236C39.274 35.2373 39.0008 34.1271 39 33V30C39 28.1435 39.7375 26.363 41.0503 25.0503C42.363 23.7375 44.1435 23 46 23C47.8565 23 49.637 23.7375 50.9497 25.0503C52.2625 26.363 53 28.1435 53 30V33C52.9992 34.1271 52.726 35.2373 52.2037 36.236C51.6813 37.2348 50.9253 38.0924 50 38.736V40.361L55.38 42.339C56.1472 42.6236 56.8092 43.1356 57.2774 43.8067C57.7456 44.4777 57.9977 45.2758 58 46.094V48.5H63V19.5C63 18.7044 62.6839 17.9413 62.1213 17.3787C61.5587 16.8161 60.7956 16.5 60 16.5Z" fill="#ED954A"/>
<path d="M36 46.094V48.5H56V46.094C55.9991 45.6846 55.873 45.2853 55.6387 44.9496C55.4044 44.614 55.073 44.358 54.689 44.216L49.045 42.14L46.645 44.14C46.4652 44.2902 46.2383 44.3725 46.004 44.3725C45.7697 44.3725 45.5428 44.2902 45.363 44.14L42.963 42.14L37.31 44.216C36.9262 44.3581 36.595 44.6142 36.3609 44.9499C36.1268 45.2855 36.0008 45.6848 36 46.094V46.094Z" fill="#ED954A"/>
<path d="M44 39.705V40.405L46 42.072L48 40.405V39.705C46.6957 40.0984 45.3043 40.0984 44 39.705V39.705Z" fill="#ED954A"/>
<path d="M51 33V30C51 28.6739 50.4732 27.4021 49.5355 26.4645C48.5979 25.5268 47.3261 25 46 25C44.6739 25 43.4021 25.5268 42.4645 26.4645C41.5268 27.4021 41 28.6739 41 30V33C41 34.3261 41.5268 35.5979 42.4645 36.5355C43.4021 37.4732 44.6739 38 46 38C47.3261 38 48.5979 37.4732 49.5355 36.5355C50.4732 35.5979 51 34.3261 51 33V33Z" fill="#ED954A"/>
<path d="M29 59.5C29 60.2956 29.3161 61.0587 29.8787 61.6213C30.4413 62.1839 31.2044 62.5 32 62.5H60C60.7956 62.5 61.5587 62.1839 62.1213 61.6213C62.6839 61.0587 63 60.2956 63 59.5V50.5H29V59.5ZM34 53.167H58C58.2652 53.167 58.5196 53.2724 58.7071 53.4599C58.8946 53.6474 59 53.9018 59 54.167C59 54.4322 58.8946 54.6866 58.7071 54.8741C58.5196 55.0616 58.2652 55.167 58 55.167H34C33.7348 55.167 33.4804 55.0616 33.2929 54.8741C33.1054 54.6866 33 54.4322 33 54.167C33 53.9018 33.1054 53.6474 33.2929 53.4599C33.4804 53.2724 33.7348 53.167 34 53.167ZM34 57.833H58C58.2652 57.833 58.5196 57.9384 58.7071 58.1259C58.8946 58.3134 59 58.5678 59 58.833C59 59.0982 58.8946 59.3526 58.7071 59.5401C58.5196 59.7276 58.2652 59.833 58 59.833H34C33.7348 59.833 33.4804 59.7276 33.2929 59.5401C33.1054 59.3526 33 59.0982 33 58.833C33 58.5678 33.1054 58.3134 33.2929 58.1259C33.4804 57.9384 33.7348 57.833 34 57.833Z" fill="#ED954A"/>
<path d="M48 6.5H38.414L41.707 3.207C41.8468 3.06715 41.942 2.88898 41.9806 2.69503C42.0192 2.50108 41.9993 2.30005 41.9237 2.11735C41.848 1.93465 41.7199 1.77848 41.5555 1.6686C41.391 1.55871 41.1978 1.50004 41 1.5H32C31.7348 1.50006 31.4805 1.60545 31.293 1.793L26.586 6.5H25.414L20.707 1.793C20.5195 1.60545 20.2652 1.50006 20 1.5H11C10.8022 1.50004 10.609 1.55871 10.4445 1.6686C10.2801 1.77848 10.152 1.93465 10.0763 2.11735C10.0007 2.30005 9.98085 2.50108 10.0194 2.69503C10.058 2.88898 10.1532 3.06715 10.293 3.207L13.586 6.5H4C3.20435 6.5 2.44129 6.81607 1.87868 7.37868C1.31607 7.94129 1 8.70435 1 9.5V40.5C1 41.2956 1.31607 42.0587 1.87868 42.6213C2.44129 43.1839 3.20435 43.5 4 43.5H48C48.7956 43.5 49.5587 43.1839 50.1213 42.6213C50.6839 42.0587 51 41.2956 51 40.5V9.5C51 8.70435 50.6839 7.94129 50.1213 7.37868C49.5587 6.81607 48.7956 6.5 48 6.5ZM32.414 3.5H38.586L35.586 6.5H29.414L32.414 3.5ZM13.414 3.5H19.586L24.292 8.206L27.586 11.5H21.414L16.708 6.794L13.414 3.5ZM49 40.5C49 40.7652 48.8946 41.0196 48.7071 41.2071C48.5196 41.3946 48.2652 41.5 48 41.5H4C3.73478 41.5 3.48043 41.3946 3.29289 41.2071C3.10536 41.0196 3 40.7652 3 40.5V9.5C3 9.23478 3.10536 8.98043 3.29289 8.79289C3.48043 8.60536 3.73478 8.5 4 8.5H15.586L18.586 11.5H15C14.7348 11.5 14.4804 11.6054 14.2929 11.7929C14.1054 11.9804 14 12.2348 14 12.5C14 12.7652 14.1054 13.0196 14.2929 13.2071C14.4804 13.3946 14.7348 13.5 15 13.5H34C34.2652 13.5 34.5196 13.3946 34.7071 13.2071C34.8946 13.0196 35 12.7652 35 12.5C35 12.2348 34.8946 11.9804 34.7071 11.7929C34.5196 11.6054 34.2652 11.5 34 11.5H30.414L27.414 8.5H48C48.2652 8.5 48.5196 8.60536 48.7071 8.79289C48.8946 8.98043 49 9.23478 49 9.5V40.5Z" fill="#202020"/>
<path d="M39 22.5C39 22.2348 38.8946 21.9804 38.7071 21.7929C38.5196 21.6054 38.2652 21.5 38 21.5H7C6.73478 21.5 6.48043 21.6054 6.29289 21.7929C6.10536 21.9804 6 22.2348 6 22.5C6 22.7652 6.10536 23.0196 6.29289 23.2071C6.48043 23.3946 6.73478 23.5 7 23.5H38C38.2652 23.5 38.5196 23.3946 38.7071 23.2071C38.8946 23.0196 39 22.7652 39 22.5Z" fill="#202020"/>
<path d="M45 31.5H14C13.7348 31.5 13.4804 31.6054 13.2929 31.7929C13.1054 31.9804 13 32.2348 13 32.5C13 32.7652 13.1054 33.0196 13.2929 33.2071C13.4804 33.3946 13.7348 33.5 14 33.5H45C45.2652 33.5 45.5196 33.3946 45.7071 33.2071C45.8946 33.0196 46 32.7652 46 32.5C46 32.2348 45.8946 31.9804 45.7071 31.7929C45.5196 31.6054 45.2652 31.5 45 31.5Z" fill="#202020"/>
</svg>
