<svg width="64" height="64" viewBox="0 0 64 64" fill="none" xmlns="http://www.w3.org/2000/svg">
<path d="M53 57H15C14.8023 57 14.609 57.0587 14.4445 57.1686C14.2801 57.2785 14.152 57.4346 14.0763 57.6173C14.0007 57.8 13.9808 58.0011 14.0194 58.195C14.058 58.389 14.1532 58.5671 14.293 58.707L18.293 62.707C18.4805 62.8946 18.7348 62.9999 19 63H49C49.2652 62.9999 49.5195 62.8946 49.707 62.707L53.707 58.707C53.8468 58.5671 53.942 58.389 53.9806 58.195C54.0192 58.0011 53.9993 57.8 53.9237 57.6173C53.848 57.4346 53.7199 57.2785 53.5555 57.1686C53.391 57.0587 53.1978 57 53 57Z" fill="#ED954A"/>
<path d="M53 22H15C13.8954 22 13 22.8954 13 24V26C13 27.1046 13.8954 28 15 28H53C54.1046 28 55 27.1046 55 26V24C55 22.8954 54.1046 22 53 22Z" fill="#ED954A"/>
<path d="M60 33H54V31C54 30.7348 53.8946 30.4804 53.7071 30.2929C53.5196 30.1054 53.2652 30 53 30H15C14.7348 30 14.4804 30.1054 14.2929 30.2929C14.1054 30.4804 14 30.7348 14 31V54C14 54.2652 14.1054 54.5196 14.2929 54.7071C14.4804 54.8946 14.7348 55 15 55H53C53.2652 55 53.5196 54.8946 53.7071 54.7071C53.8946 54.5196 54 54.2652 54 54V51.949C56.4653 51.6983 58.7501 50.5423 60.4126 48.7046C62.075 46.8669 62.9969 44.4781 63 42V36C63 35.2044 62.6839 34.4413 62.1213 33.8787C61.5587 33.3161 60.7956 33 60 33ZM49 47H19C18.7348 47 18.4804 46.8946 18.2929 46.7071C18.1054 46.5196 18 46.2652 18 46C18 45.7348 18.1054 45.4804 18.2929 45.2929C18.4804 45.1054 18.7348 45 19 45H49C49.2652 45 49.5196 45.1054 49.7071 45.2929C49.8946 45.4804 50 45.7348 50 46C50 46.2652 49.8946 46.5196 49.7071 46.7071C49.5196 46.8946 49.2652 47 49 47ZM49 40H19C18.7348 40 18.4804 39.8946 18.2929 39.7071C18.1054 39.5196 18 39.2652 18 39C18 38.7348 18.1054 38.4804 18.2929 38.2929C18.4804 38.1054 18.7348 38 19 38H49C49.2652 38 49.5196 38.1054 49.7071 38.2929C49.8946 38.4804 50 38.7348 50 39C50 39.2652 49.8946 39.5196 49.7071 39.7071C49.5196 39.8946 49.2652 40 49 40ZM61 42C60.9972 43.9478 60.2851 45.828 58.9968 47.2889C57.7085 48.7498 55.9322 49.6915 54 49.938V35H60C60.2652 35 60.5196 35.1054 60.7071 35.2929C60.8946 35.4804 61 35.7348 61 36V42Z" fill="#ED954A"/>
<path d="M22 20C22.2652 20 22.5196 19.8946 22.7071 19.7071C22.8947 19.5196 23 19.2652 23 19C22.9967 18.6509 23.0642 18.3048 23.1985 17.9825C23.3327 17.6602 23.5309 17.3685 23.781 17.125C24.5725 16.2779 25.0088 15.1593 25 14C25 13.7348 24.8947 13.4804 24.7071 13.2929C24.5196 13.1054 24.2652 13 24 13C23.7348 13 23.4804 13.1054 23.2929 13.2929C23.1054 13.4804 23 13.7348 23 14C23.0033 14.3491 22.9358 14.6952 22.8015 15.0175C22.6673 15.3398 22.4691 15.6315 22.219 15.875C21.4275 16.7221 20.9912 17.8407 21 19C21 19.2652 21.1054 19.5196 21.2929 19.7071C21.4804 19.8946 21.7348 20 22 20Z" fill="#ED954A"/>
<path d="M33 20C33.2652 20 33.5196 19.8946 33.7071 19.7071C33.8947 19.5196 34 19.2652 34 19C33.9967 18.6509 34.0642 18.3048 34.1985 17.9825C34.3327 17.6602 34.5309 17.3685 34.781 17.125C35.5725 16.2779 36.0088 15.1593 36 14C36 13.7348 35.8947 13.4804 35.7071 13.2929C35.5196 13.1054 35.2652 13 35 13C34.7348 13 34.4804 13.1054 34.2929 13.2929C34.1054 13.4804 34 13.7348 34 14C34.0033 14.3491 33.9358 14.6952 33.8015 15.0175C33.6673 15.3398 33.4691 15.6315 33.219 15.875C32.4275 16.7221 31.9912 17.8407 32 19C32 19.2652 32.1054 19.5196 32.2929 19.7071C32.4804 19.8946 32.7348 20 33 20Z" fill="#ED954A"/>
<path d="M44 20C44.2652 20 44.5196 19.8946 44.7071 19.7071C44.8947 19.5196 45 19.2652 45 19C44.9967 18.6509 45.0642 18.3048 45.1985 17.9825C45.3327 17.6602 45.5309 17.3685 45.781 17.125C46.5725 16.2779 47.0088 15.1593 47 14C47 13.7348 46.8947 13.4804 46.7071 13.2929C46.5196 13.1054 46.2652 13 46 13C45.7348 13 45.4804 13.1054 45.2929 13.2929C45.1054 13.4804 45 13.7348 45 14C45.0033 14.3491 44.9358 14.6952 44.8015 15.0175C44.6673 15.3398 44.4691 15.6315 44.219 15.875C43.4275 16.7221 42.9912 17.8407 43 19C43 19.2652 43.1054 19.5196 43.2929 19.7071C43.4804 19.8946 43.7348 20 44 20Z" fill="#ED954A"/>
<path d="M37 19C37.0031 15.7448 36.1234 12.5497 34.4546 9.75488C32.7858 6.96002 30.3903 4.67002 27.5231 3.12867C24.656 1.58732 21.4246 0.85231 18.1728 1.0019C14.9211 1.15149 11.7708 2.18007 9.05727 3.97815C6.34377 5.77623 4.16864 8.27649 2.76347 11.2128C1.35829 14.149 0.775667 17.4114 1.07761 20.6525C1.37956 23.8937 2.55477 26.9923 4.47815 29.6185C6.40152 32.2446 9.00105 34.3001 12 35.566V38H11C10.4696 38 9.96086 38.2107 9.58579 38.5858C9.21071 38.9609 9 39.4696 9 40V43C9 43.5304 9.21071 44.0391 9.58579 44.4142C9.96086 44.7893 10.4696 45 11 45H12.08C12.3191 46.6649 13.1504 48.1877 14.4214 49.2893C15.6925 50.3908 17.3181 50.9972 19 50.9972C20.6819 50.9972 22.3075 50.3908 23.5786 49.2893C24.8496 48.1877 25.6809 46.6649 25.92 45H27C27.5304 45 28.0391 44.7893 28.4142 44.4142C28.7893 44.0391 29 43.5304 29 43V40C29 39.4696 28.7893 38.9609 28.4142 38.5858C28.0391 38.2107 27.5304 38 27 38H26V35.566C29.2513 34.1811 32.0257 31.8742 33.9806 28.9301C35.9354 25.9861 36.9851 22.5339 37 19V19ZM19 49C17.8478 48.9985 16.7313 48.5999 15.8387 47.8713C14.9462 47.1427 14.3321 46.1286 14.1 45H23.9C23.6679 46.1286 23.0538 47.1427 22.1613 47.8713C21.2687 48.5999 20.1522 48.9985 19 49V49ZM27 40V43H11V40H27ZM24.646 33.954C24.456 34.0259 24.2924 34.154 24.177 34.3212C24.0616 34.4884 23.9998 34.6868 24 34.89V38H20V19C20 18.7348 19.8946 18.4804 19.7071 18.2929C19.5196 18.1054 19.2652 18 19 18C18.7348 18 18.4804 18.1054 18.2929 18.2929C18.1054 18.4804 18 18.7348 18 19V38H14V34.89C14.0002 34.6868 13.9384 34.4884 13.823 34.3212C13.7076 34.154 13.544 34.0259 13.354 33.954C9.84923 32.6322 6.91929 30.1227 5.07466 26.8627C3.23003 23.6026 2.58764 19.7987 3.25942 16.1138C3.9312 12.4288 5.87456 9.09625 8.75091 6.69685C11.6273 4.29746 15.2543 2.98328 19 2.98328C22.7457 2.98328 26.3727 4.29746 29.2491 6.69685C32.1254 9.09625 34.0688 12.4288 34.7406 16.1138C35.4124 19.7987 34.77 23.6026 32.9253 26.8627C31.0807 30.1227 28.1508 32.6322 24.646 33.954V33.954Z" fill="#202020"/>
<path d="M19 6C15.5534 6.00397 12.2491 7.37488 9.812 9.812C7.37488 12.2491 6.00397 15.5534 6 19C6 19.2652 6.10536 19.5196 6.29289 19.7071C6.48043 19.8946 6.73478 20 7 20C7.26522 20 7.51957 19.8946 7.70711 19.7071C7.89464 19.5196 8 19.2652 8 19C8.00344 16.0837 9.16347 13.2878 11.2256 11.2256C13.2878 9.16347 16.0837 8.00344 19 8C19.2652 8 19.5196 7.89464 19.7071 7.70711C19.8946 7.51957 20 7.26522 20 7C20 6.73478 19.8946 6.48043 19.7071 6.29289C19.5196 6.10536 19.2652 6 19 6Z" fill="#202020"/>
</svg>
