<svg width="64" height="64" viewBox="0 0 64 64" fill="none" xmlns="http://www.w3.org/2000/svg">
<path d="M61.361 39.221C60.2015 37.1558 58.501 35.4457 56.4423 34.2745C54.3837 33.1033 52.0448 32.5154 49.677 32.574L47.5 28.666C47.4373 28.5506 47.3523 28.4489 47.25 28.3666C47.1476 28.2844 47.0299 28.2234 46.9037 28.1871C46.7775 28.1508 46.6453 28.1399 46.5149 28.1552C46.3845 28.1705 46.2584 28.2115 46.144 28.276L37.431 33.144C37.201 33.2744 37.032 33.4906 36.961 33.7453C36.89 34 36.9227 34.2724 37.052 34.503L39.225 38.411C38.1902 39.994 37.5128 41.7836 37.24 43.655C36.0094 41.4577 34.1685 39.6641 31.94 38.491V34.014C31.94 33.7488 31.8347 33.4944 31.6471 33.3069C31.4596 33.1194 31.2052 33.014 30.94 33.014H20.97C20.7048 33.014 20.4504 33.1194 20.2629 33.3069C20.0754 33.4944 19.97 33.7488 19.97 34.014V38.491C17.9964 39.5111 16.3177 41.0208 15.0947 42.8756C13.8718 44.7305 13.1456 46.8682 12.9856 49.0841C12.8257 51.3 13.2373 53.5199 14.1812 55.5311C15.1251 57.5423 16.5695 59.2775 18.3762 60.5705C20.1829 61.8635 22.2913 62.6709 24.4994 62.9155C26.7076 63.1601 28.9416 62.8336 30.9874 61.9673C33.0333 61.1011 34.8225 59.724 36.1836 57.9681C37.5447 56.2122 38.4322 54.1362 38.761 51.939C40.4475 54.936 43.2555 57.1402 46.5672 58.0668C49.8789 58.9934 53.4231 58.5665 56.42 56.88C59.417 55.1935 61.6212 52.3855 62.5478 49.0738C63.4744 45.7621 63.0475 42.218 61.361 39.221V39.221ZM24.961 36.013H26.955C27.2202 36.013 27.4746 36.1184 27.6621 36.3059C27.8497 36.4934 27.955 36.7478 27.955 37.013C27.955 37.2782 27.8497 37.5326 27.6621 37.7201C27.4746 37.9077 27.2202 38.013 26.955 38.013H24.963C24.6978 38.013 24.4434 37.9077 24.2559 37.7201C24.0684 37.5326 23.963 37.2782 23.963 37.013C23.963 36.7478 24.0684 36.4934 24.2559 36.3059C24.4434 36.1184 24.6978 36.013 24.963 36.013H24.961ZM25.961 56.003C24.7736 56.0066 23.6118 55.6577 22.6227 55.0006C21.6336 54.3435 20.8618 53.4077 20.4049 52.3116C19.948 51.2156 19.8266 50.0086 20.0561 48.8435C20.2856 47.6785 20.8556 46.6077 21.694 45.7668C22.5324 44.9259 23.6015 44.3526 24.7658 44.1197C25.9302 43.8867 27.1375 44.0044 28.2349 44.458C29.3323 44.9116 30.2705 45.6806 30.9306 46.6677C31.5906 47.6548 31.943 48.8156 31.943 50.003C31.9441 51.5914 31.3145 53.1153 30.1926 54.2398C29.0708 55.3642 27.5484 55.9974 25.96 56L25.961 56.003ZM41.992 35.173C41.8635 34.9412 41.8323 34.6678 41.9052 34.413C41.9782 34.1582 42.1493 33.9427 42.381 33.814L44.125 32.844C44.2393 32.7782 44.3656 32.7357 44.4965 32.7192C44.6273 32.7026 44.7602 32.7122 44.8873 32.7474C45.0145 32.7827 45.1333 32.8428 45.237 32.9244C45.3406 33.006 45.427 33.1074 45.4911 33.2227C45.5553 33.338 45.5958 33.4649 45.6104 33.596C45.625 33.7271 45.6134 33.8598 45.5763 33.9864C45.5392 34.113 45.4772 34.2309 45.3941 34.3333C45.3109 34.4358 45.2082 34.5206 45.092 34.583L43.348 35.563C43.1156 35.6879 42.8437 35.717 42.5901 35.6441C42.3366 35.5713 42.1216 35.4022 41.991 35.173H41.992ZM52.957 50.786C51.9221 51.363 50.7394 51.6203 49.5583 51.5252C48.3772 51.4301 47.2509 50.9871 46.3216 50.2519C45.3923 49.5168 44.7018 48.5227 44.3374 47.3953C43.973 46.2678 43.9511 45.0576 44.2744 43.9177C44.5976 42.7778 45.2516 41.7593 46.1537 40.9909C47.0557 40.2226 48.1652 39.739 49.3421 39.6012C50.5189 39.4634 51.7102 39.6776 52.7654 40.2167C53.8205 40.7558 54.6921 41.5956 55.27 42.63C55.6557 43.3169 55.9019 44.0733 55.9944 44.8556C56.0869 45.638 56.0239 46.4309 55.8089 47.1888C55.594 47.9467 55.2314 48.6547 54.7419 49.272C54.2525 49.8894 53.6459 50.4039 52.957 50.786Z" fill="#ED954A"/>
<path d="M28.951 26.355C28.9463 25.6041 29.1957 24.8737 29.6589 24.2827C30.122 23.6916 30.7715 23.2747 31.5017 23.0996C32.2319 22.9246 32.9999 23.0018 33.6806 23.3187C34.3613 23.6356 34.9148 24.1736 35.251 24.845L38.1 30.483L43.328 27.562L40.566 22.1C39.7943 20.5633 38.6097 19.2721 37.145 18.3713C35.6803 17.4704 33.9935 16.9955 32.274 17H32.247C29.7821 17.0137 27.4227 18.0024 25.6843 19.7499C23.9459 21.4975 22.9697 23.862 22.969 26.327V31.015H28.951V26.355Z" fill="#ED954A"/>
<path d="M48 7C48.2652 7 48.5196 6.89464 48.7071 6.70711C48.8946 6.51957 49 6.26522 49 6V2C49 1.73478 48.8946 1.48043 48.7071 1.29289C48.5196 1.10536 48.2652 1 48 1H2C1.73478 1 1.48043 1.10536 1.29289 1.29289C1.10536 1.48043 1 1.73478 1 2V6C1 6.26522 1.10536 6.51957 1.29289 6.70711C1.48043 6.89464 1.73478 7 2 7H6V20H2C1.73478 20 1.48043 20.1054 1.29289 20.2929C1.10536 20.4804 1 20.7348 1 21V25C1 25.2652 1.10536 25.5196 1.29289 25.7071C1.48043 25.8946 1.73478 26 2 26H6V39H2C1.73478 39 1.48043 39.1054 1.29289 39.2929C1.10536 39.4804 1 39.7348 1 40V44C1 44.2652 1.10536 44.5196 1.29289 44.7071C1.48043 44.8946 1.73478 45 2 45H48C48.2652 45 48.5196 44.8946 48.7071 44.7071C48.8946 44.5196 49 44.2652 49 44V40C49 39.7348 48.8946 39.4804 48.7071 39.2929C48.5196 39.1054 48.2652 39 48 39H44V26H48C48.2652 26 48.5196 25.8946 48.7071 25.7071C48.8946 25.5196 49 25.2652 49 25V21C49 20.7348 48.8946 20.4804 48.7071 20.2929C48.5196 20.1054 48.2652 20 48 20H44V7H48ZM3 3H47V5H3V3ZM20 20V7H30V20H20ZM20 39V26H30V39H20ZM8 16H18V30H8V16ZM18 7V14H8V7H18ZM3 24V22H6V24H3ZM8 32H18V39H8V32ZM47 43H3V41H47V43ZM42 39H32V26H42V39ZM47 24H20V22H47V24ZM42 20H32V7H42V20Z" fill="#202020"/>
<path d="M13 18C12.2932 17.9987 11.6087 18.2475 11.0677 18.7025C10.5268 19.1575 10.1644 19.7892 10.0446 20.4858C9.92483 21.1824 10.0555 21.899 10.4134 22.5085C10.7712 23.118 11.3333 23.5812 12 23.816V27C12 27.2652 12.1053 27.5196 12.2929 27.7071C12.4804 27.8946 12.7348 28 13 28C13.2652 28 13.5196 27.8946 13.7071 27.7071C13.8946 27.5196 14 27.2652 14 27V23.816C14.6667 23.5812 15.2287 23.118 15.5866 22.5085C15.9445 21.899 16.0752 21.1824 15.9554 20.4858C15.8356 19.7892 15.4732 19.1575 14.9322 18.7025C14.3913 18.2475 13.7068 17.9987 13 18V18ZM13 22C12.8022 22 12.6089 21.9414 12.4444 21.8315C12.28 21.7216 12.1518 21.5654 12.0761 21.3827C12.0004 21.2 11.9806 20.9989 12.0192 20.8049C12.0578 20.6109 12.153 20.4328 12.2929 20.2929C12.4327 20.153 12.6109 20.0578 12.8049 20.0192C12.9989 19.9806 13.1999 20.0004 13.3827 20.0761C13.5654 20.1518 13.7216 20.28 13.8315 20.4444C13.9413 20.6089 14 20.8022 14 21C14 21.2652 13.8946 21.5196 13.7071 21.7071C13.5196 21.8946 13.2652 22 13 22Z" fill="#202020"/>
</svg>
