<svg width="64" height="64" viewBox="0 0 64 64" fill="none" xmlns="http://www.w3.org/2000/svg">
<path d="M59.682 38.7C59.1985 38.2196 58.5561 37.9326 57.8757 37.893C57.1953 37.8534 56.5239 38.064 55.988 38.485C53.6051 34.6495 50.7926 31.0982 47.605 27.9C44.4048 24.7114 40.8512 21.8986 37.013 19.516C37.4509 18.9562 37.6587 18.2504 37.5941 17.5425C37.5295 16.8347 37.1972 16.1783 36.6651 15.707C36.133 15.2358 35.4412 14.9853 34.7308 15.0067C34.0203 15.028 33.3448 15.3196 32.842 15.822L18.857 29.8C18.3328 30.325 18.0383 31.0366 18.0383 31.7785C18.0383 32.5204 18.3328 33.232 18.857 33.757C19.3381 34.2415 19.9812 34.5314 20.6629 34.5711C21.3446 34.6108 22.0169 34.3974 22.551 33.972C24.9334 37.8097 27.7459 41.363 30.934 44.563C34.1346 47.7516 37.6878 50.5654 41.525 52.95C41.0812 53.5097 40.8688 54.2182 40.9316 54.9297C40.9944 55.6412 41.3276 56.3015 41.8626 56.7748C42.3976 57.248 43.0937 57.4981 43.8076 57.4736C44.5214 57.4491 45.1987 57.1518 45.7 56.643L59.682 42.659C60.2069 42.1339 60.5017 41.4219 60.5017 40.6795C60.5017 39.9371 60.2069 39.2251 59.682 38.7V38.7ZM35.616 26.042L28.021 33.637C27.8324 33.8192 27.5798 33.92 27.3176 33.9177C27.0554 33.9154 26.8046 33.8102 26.6192 33.6248C26.4338 33.4394 26.3286 33.1886 26.3263 32.9264C26.324 32.6642 26.4248 32.4116 26.607 32.223L34.202 24.623C34.6646 24.1555 35.2777 23.8668 35.9328 23.8081C36.5879 23.7493 37.2426 23.9243 37.781 24.302C43.4036 28.2699 48.2436 33.2435 52.057 38.972C52.1326 39.0812 52.1856 39.2044 52.2131 39.3343C52.2405 39.4642 52.2419 39.5983 52.2169 39.7287C52.192 39.8592 52.1414 39.9833 52.0679 40.094C51.9945 40.2046 51.8998 40.2995 51.7893 40.3732C51.6788 40.4468 51.5547 40.4977 51.4243 40.5229C51.294 40.5481 51.1599 40.5471 51.0299 40.5199C50.8999 40.4927 50.7766 40.4398 50.6673 40.3645C50.5579 40.2891 50.4647 40.1928 50.393 40.081C48.4207 37.1216 46.1615 34.364 43.648 31.848C41.4796 29.6815 39.1308 27.7033 36.627 25.935C36.4722 25.8329 36.2867 25.7877 36.1023 25.8073C35.9179 25.8268 35.746 25.9098 35.616 26.042V26.042Z" fill="#ED954A"/>
<path d="M26.314 42.483C21.2466 46.3457 16.8333 50.9981 13.243 56.262C12.6833 57.093 12.4299 58.0928 12.5262 59.0902C12.6226 60.0875 13.0627 61.0203 13.7712 61.7288C14.4797 62.4373 15.4125 62.8774 16.4098 62.9738C17.4072 63.0701 18.407 62.8167 19.238 62.257C24.5026 58.6676 29.1551 54.2541 33.017 49.186C31.817 48.157 30.639 47.098 29.517 45.98C28.395 44.862 27.343 43.685 26.314 42.483Z" fill="#ED954A"/>
<path d="M30.5 41H14.5C12.1139 41.0029 9.82645 41.9521 8.13925 43.6393C6.45206 45.3265 5.50291 47.6139 5.5 50C5.5 50.2652 5.60536 50.5196 5.79289 50.7071C5.98043 50.8946 6.23478 51 6.5 51H38.5C38.7652 51 39.0196 50.8946 39.2071 50.7071C39.3946 50.5196 39.5 50.2652 39.5 50C39.4974 47.6139 38.5483 45.3262 36.861 43.639C35.1738 41.9517 32.8861 41.0026 30.5 41V41ZM14.5 43H17.719L19.219 49H7.571C7.81366 47.3348 8.64714 45.8125 9.91925 44.7109C11.1914 43.6094 12.8172 43.0021 14.5 43V43ZM21.281 49L19.781 43H25.219L23.719 49H21.281ZM25.781 49L27.281 43H30.5C32.1828 43.0021 33.8086 43.6094 35.0808 44.7109C36.3529 45.8125 37.1863 47.3348 37.429 49H25.781Z" fill="#202020"/>
<path d="M40.05 20.5C40.7177 19.8287 41.1804 18.981 41.3839 18.0562C41.5873 17.1315 41.5231 16.1679 41.1988 15.2783C40.8745 14.3887 40.3035 13.6099 39.5527 13.033C38.8018 12.4561 37.9021 12.1051 36.959 12.021C36.0854 8.85686 34.198 6.06665 31.5862 4.07828C28.9744 2.08991 25.7825 1.01315 22.5 1.01315C19.2175 1.01315 16.0256 2.08991 13.4138 4.07828C10.802 6.06665 8.91462 8.85686 8.041 12.021C7.09787 12.1051 6.19821 12.4561 5.44734 13.033C4.69647 13.6099 4.12546 14.3887 3.80116 15.2783C3.47685 16.1679 3.41267 17.1315 3.61613 18.0562C3.81959 18.981 4.28227 19.8287 4.95 20.5C4.49017 20.9595 4.12539 21.5051 3.87651 22.1057C3.62763 22.7062 3.49953 23.3499 3.49953 24C3.49953 24.6501 3.62763 25.2938 3.87651 25.8943C4.12539 26.4949 4.49017 27.0405 4.95 27.5C4.44349 28.008 4.05261 28.6194 3.80408 29.2923C3.55554 29.9652 3.45521 30.6839 3.50993 31.3992C3.56465 32.1145 3.77313 32.8095 4.12114 33.4368C4.46914 34.0641 4.94847 34.6089 5.52635 35.034C6.10424 35.459 6.76708 35.7543 7.46957 35.8996C8.17206 36.045 8.89765 36.037 9.59676 35.8762C10.2959 35.7153 10.952 35.4055 11.5204 34.9678C12.0888 34.5301 12.5559 33.9748 12.89 33.34C13.8409 35.055 15.2334 36.4843 16.9231 37.4795C18.6128 38.4747 20.538 38.9996 22.499 38.9996C24.46 38.9996 26.3852 38.4747 28.0749 37.4795C29.7646 36.4843 31.1572 35.055 32.108 33.34C32.4425 33.9741 32.9098 34.5286 33.4781 34.9656C34.0464 35.4027 34.7023 35.7119 35.401 35.8724C36.0998 36.0328 36.8249 36.0406 37.5269 35.8952C38.2289 35.7499 38.8913 35.4548 39.4689 35.0301C40.0465 34.6053 40.5256 34.061 40.8737 33.4343C41.2217 32.8075 41.4304 32.113 41.4856 31.3982C41.5407 30.6834 41.441 29.9652 41.1933 29.2924C40.9455 28.6197 40.5556 28.0083 40.05 27.5C40.5097 27.0404 40.8744 26.4948 41.1232 25.8942C41.372 25.2937 41.5001 24.65 41.5001 24C41.5001 23.35 41.372 22.7063 41.1232 22.1058C40.8744 21.5052 40.5097 20.9596 40.05 20.5V20.5ZM22.5 37C20.1139 36.9971 17.8265 36.0479 16.1393 34.3607C14.4521 32.6735 13.5029 30.3861 13.5 28V16C13.5 15.7348 13.6054 15.4804 13.7929 15.2929C13.9804 15.1054 14.2348 15 14.5 15H30.5C30.7652 15 31.0196 15.1054 31.2071 15.2929C31.3946 15.4804 31.5 15.7348 31.5 16V28C31.4971 30.3861 30.5479 32.6735 28.8607 34.3607C27.1736 36.0479 24.8861 36.9971 22.5 37ZM37.921 21.378C38.3978 21.6301 38.7968 22.0075 39.0751 22.4695C39.3535 22.9315 39.5005 23.4606 39.5005 24C39.5005 24.5394 39.3535 25.0685 39.0751 25.5305C38.7968 25.9925 38.3978 26.3699 37.921 26.622C37.7632 26.708 37.6316 26.8349 37.5398 26.9894C37.4481 27.1439 37.3997 27.3203 37.3997 27.5C37.3997 27.6797 37.4481 27.8561 37.5398 28.0106C37.6316 28.1651 37.7632 28.292 37.921 28.378C38.3855 28.6305 38.7749 29.0017 39.0493 29.4536C39.3238 29.9055 39.4736 30.4221 39.4835 30.9508C39.4934 31.4794 39.363 32.0012 39.1056 32.4631C38.8482 32.925 38.473 33.3104 38.0182 33.5801C37.5635 33.8498 37.0453 33.9942 36.5166 33.9986C35.9879 34.0029 35.4674 33.8671 35.0083 33.6049C34.5491 33.3427 34.1677 32.9635 33.9027 32.5059C33.6378 32.0484 33.4988 31.5287 33.5 31V16C33.5 15.2043 33.1839 14.4413 32.6213 13.8787C32.0587 13.3161 31.2957 13 30.5 13H14.5C13.7044 13 12.9413 13.3161 12.3787 13.8787C11.8161 14.4413 11.5 15.2043 11.5 16V31C11.5036 31.5313 11.366 32.054 11.1013 32.5146C10.8366 32.9753 10.4543 33.3574 9.99354 33.6219C9.53276 33.8864 9.01001 34.0238 8.47873 34.02C7.94745 34.0162 7.4267 33.8714 6.96973 33.6004C6.51276 33.3294 6.13597 32.9419 5.87786 32.4775C5.61976 32.0131 5.48961 31.4885 5.50073 30.9573C5.51184 30.4261 5.66382 29.9074 5.94112 29.4543C6.21842 29.0011 6.6111 28.6297 7.079 28.378C7.23677 28.292 7.36844 28.1651 7.46018 28.0106C7.55193 27.8561 7.60034 27.6797 7.60034 27.5C7.60034 27.3203 7.55193 27.1439 7.46018 26.9894C7.36844 26.8349 7.23677 26.708 7.079 26.622C6.6022 26.3699 6.20317 25.9925 5.92485 25.5305C5.64653 25.0685 5.49946 24.5394 5.49946 24C5.49946 23.4606 5.64653 22.9315 5.92485 22.4695C6.20317 22.0075 6.6022 21.6301 7.079 21.378C7.23677 21.292 7.36844 21.1651 7.46018 21.0106C7.55193 20.8561 7.60034 20.6797 7.60034 20.5C7.60034 20.3203 7.55193 20.1439 7.46018 19.9894C7.36844 19.8349 7.23677 19.708 7.079 19.622C6.48762 19.3063 6.01979 18.8007 5.75097 18.1866C5.48215 17.5725 5.428 16.8858 5.59726 16.2372C5.76652 15.5886 6.14933 15.0158 6.68394 14.6114C7.21854 14.207 7.87379 13.9944 8.544 14.008C8.644 13.984 9.586 14.23 9.799 13.244C10.4324 10.347 12.0372 7.75358 14.3472 5.89406C16.6572 4.03455 19.5336 3.02068 22.499 3.02068C25.4645 3.02068 28.3408 4.03455 30.6508 5.89406C32.9608 7.75358 34.5656 10.347 35.199 13.244C35.2305 13.3815 35.29 13.5111 35.3737 13.6247C35.4573 13.7383 35.5635 13.8334 35.6854 13.9043C35.8074 13.9752 35.9427 14.0203 36.0828 14.0367C36.2229 14.0532 36.3649 14.0407 36.5 14C37.1673 13.9968 37.8164 14.2171 38.3438 14.6258C38.8713 15.0345 39.2467 15.6081 39.4102 16.255C39.5738 16.9019 39.5159 17.585 39.246 18.1952C38.9761 18.8055 38.5096 19.3078 37.921 19.622C37.7632 19.708 37.6316 19.8349 37.5398 19.9894C37.4481 20.1439 37.3997 20.3203 37.3997 20.5C37.3997 20.6797 37.4481 20.8561 37.5398 21.0106C37.6316 21.1651 37.7632 21.292 37.921 21.378Z" fill="#202020"/>
</svg>
