<svg width="64" height="64" viewBox="0 0 64 64" fill="none" xmlns="http://www.w3.org/2000/svg">
<path d="M15.5 54.995H39.5C40.2957 54.995 41.0587 55.3111 41.6213 55.8737C42.1839 56.4363 42.5 57.1993 42.5 57.995V59.995C42.5 60.7906 42.1839 61.5537 41.6213 62.1163C41.0587 62.6789 40.2957 62.995 39.5 62.995H15.5C14.7044 62.995 13.9413 62.6789 13.3787 62.1163C12.8161 61.5537 12.5 60.7906 12.5 59.995V58C12.4993 57.6056 12.5765 57.215 12.7269 56.8504C12.8774 56.4859 13.0983 56.1545 13.3769 55.8754C13.6556 55.5963 13.9865 55.3749 14.3508 55.2238C14.7151 55.0728 15.1056 54.995 15.5 54.995V54.995Z" fill="#ED954A"/>
<path d="M39.5 49.992C39.5 49.1964 39.1839 48.4333 38.6213 47.8707C38.0587 47.3081 37.2956 46.992 36.5 46.992H18.5C17.7044 46.992 16.9413 47.3081 16.3787 47.8707C15.8161 48.4333 15.5 49.1964 15.5 49.992V52.992H39.5V49.992Z" fill="#ED954A"/>
<path d="M61.537 53.391L39.679 31.518C38.833 32.218 38.01 32.94 37.235 33.718C36.46 34.496 35.735 35.318 35.035 36.165L56.9 58.036C57.516 58.6514 58.3512 58.997 59.2219 58.9966C60.0926 58.9962 60.9276 58.65 61.543 58.034C62.1584 57.418 62.504 56.5828 62.5036 55.7121C62.5032 54.8414 62.157 54.0064 61.541 53.391H61.537Z" fill="#ED954A"/>
<path d="M41.668 26.649C42.2838 27.2646 43.119 27.6103 43.9897 27.6101C44.8604 27.6099 45.6954 27.2638 46.311 26.648C46.9266 26.0322 47.2723 25.197 47.2721 24.3263C47.2719 23.4556 46.9258 22.6206 46.31 22.005L38.24 13.93C37.615 13.3328 36.7839 12.9996 35.9195 12.9996C35.0551 12.9996 34.224 13.3328 33.599 13.93C32.9846 14.5468 32.6397 15.3819 32.6397 16.2525C32.6397 17.1231 32.9846 17.9582 33.599 18.575L41.668 26.649Z" fill="#ED954A"/>
<path d="M31.842 37.053C34.2142 33.6522 37.1678 30.6965 40.567 28.322C40.056 27.882 32.548 20.399 31.929 19.676C30.7414 21.3709 29.4102 22.9604 27.95 24.427C26.4841 25.8881 24.8949 27.2201 23.2 28.408C23.681 28.814 31.193 36.293 31.842 37.053Z" fill="#ED954A"/>
<path d="M25.53 42.8C26.146 43.4156 26.9812 43.7612 27.8521 43.761C28.7229 43.7607 29.5579 43.4145 30.1735 42.7985C30.7891 42.1825 31.1347 41.3473 31.1344 40.4765C31.1342 39.6056 30.788 38.7706 30.172 38.155V38.155L22.1 30.079C21.4749 29.4818 20.6436 29.1485 19.779 29.1485C18.9144 29.1485 18.0831 29.4818 17.458 30.079C17.1528 30.3839 16.9107 30.746 16.7456 31.1445C16.5804 31.543 16.4954 31.9701 16.4954 32.4015C16.4954 32.8329 16.5804 33.26 16.7456 33.6586C16.9107 34.0571 17.1528 34.4191 17.458 34.724L25.53 42.8Z" fill="#ED954A"/>
<path d="M46.5 1H2.5C2.23478 1 1.98043 1.10536 1.79289 1.29289C1.60536 1.48043 1.5 1.73478 1.5 2C1.5 2.26522 1.60536 2.51957 1.79289 2.70711C1.98043 2.89464 2.23478 3 2.5 3H46.5C46.7652 3 47.0196 2.89464 47.2071 2.70711C47.3946 2.51957 47.5 2.26522 47.5 2C47.5 1.73478 47.3946 1.48043 47.2071 1.29289C47.0196 1.10536 46.7652 1 46.5 1Z" fill="#202020"/>
<path d="M42.5 49H40.035L36.5 43.7V19C37.6939 19.003 38.8493 18.5774 39.756 17.8007C40.6628 17.0239 41.2607 15.9476 41.4411 14.7674C41.6215 13.5872 41.3724 12.3814 40.7391 11.3692C40.1058 10.3571 39.1303 9.60583 37.99 9.252L39.118 7H41.5C41.7652 7 42.0196 6.89464 42.2071 6.70711C42.3946 6.51957 42.5 6.26522 42.5 6C42.5 5.73478 42.3946 5.48043 42.2071 5.29289C42.0196 5.10536 41.7652 5 41.5 5H7.5C7.23478 5 6.98043 5.10536 6.79289 5.29289C6.60536 5.48043 6.5 5.73478 6.5 6C6.5 6.26522 6.60536 6.51957 6.79289 6.70711C6.98043 6.89464 7.23478 7 7.5 7H9.882L11.008 9.253C9.86697 9.60623 8.89071 10.3574 8.2569 11.3698C7.62309 12.3823 7.37387 13.5886 7.5546 14.7693C7.73533 15.95 8.334 17.0266 9.24164 17.803C10.1493 18.5795 11.3056 19.0043 12.5 19V43.7L8.965 49H6.5C6.23478 49 5.98043 49.1054 5.79289 49.2929C5.60536 49.4804 5.5 49.7348 5.5 50C5.5 50.2652 5.60536 50.5196 5.79289 50.7071C5.98043 50.8946 6.23478 51 6.5 51H42.5C42.7652 51 43.0196 50.8946 43.2071 50.7071C43.3946 50.5196 43.5 50.2652 43.5 50C43.5 49.7348 43.3946 49.4804 43.2071 49.2929C43.0196 49.1054 42.7652 49 42.5 49ZM36.882 7L35.882 9H13.118L12.118 7H36.882ZM9.5 14C9.5 13.2044 9.81607 12.4413 10.3787 11.8787C10.9413 11.3161 11.7044 11 12.5 11H36.5C37.2956 11 38.0587 11.3161 38.6213 11.8787C39.1839 12.4413 39.5 13.2044 39.5 14C39.5 14.7956 39.1839 15.5587 38.6213 16.1213C38.0587 16.6839 37.2956 17 36.5 17H35.5C35.2348 17 34.9804 16.8946 34.7929 16.7071C34.6054 16.5196 34.5 16.2652 34.5 16C34.5 15.7348 34.6054 15.4804 34.7929 15.2929C34.9804 15.1054 35.2348 15 35.5 15H36.5C36.7652 15 37.0196 14.8946 37.2071 14.7071C37.3946 14.5196 37.5 14.2652 37.5 14C37.5 13.7348 37.3946 13.4804 37.2071 13.2929C37.0196 13.1054 36.7652 13 36.5 13H35.5C34.7937 12.9993 34.1099 13.2485 33.5695 13.7034C33.0292 14.1583 32.6672 14.7896 32.5475 15.4857C32.4278 16.1818 32.5581 16.8979 32.9154 17.5071C33.2727 18.1164 33.834 18.5797 34.5 18.815V43H14.5V18.815C15.1672 18.5807 15.7298 18.1177 16.0881 17.5082C16.4464 16.8986 16.5773 16.1818 16.4574 15.4849C16.3376 14.788 15.9748 14.1561 15.4334 13.7013C14.8921 13.2464 14.2071 12.9979 13.5 13H12.5C12.2348 13 11.9804 13.1054 11.7929 13.2929C11.6054 13.4804 11.5 13.7348 11.5 14C11.5 14.2652 11.6054 14.5196 11.7929 14.7071C11.9804 14.8946 12.2348 15 12.5 15H13.5C13.7652 15 14.0196 15.1054 14.2071 15.2929C14.3946 15.4804 14.5 15.7348 14.5 16C14.5 16.2652 14.3946 16.5196 14.2071 16.7071C14.0196 16.8946 13.7652 17 13.5 17H12.5C11.7044 17 10.9413 16.6839 10.3787 16.1213C9.81607 15.5587 9.5 14.7956 9.5 14V14ZM11.368 49L14.035 45H34.965L37.632 49H11.368Z" fill="#202020"/>
<path d="M19.5 17H29.5C29.7652 17 30.0196 16.8946 30.2071 16.7071C30.3946 16.5196 30.5 16.2652 30.5 16C30.5 15.7348 30.3946 15.4804 30.2071 15.2929C30.0196 15.1054 29.7652 15 29.5 15H19.5C19.2348 15 18.9804 15.1054 18.7929 15.2929C18.6054 15.4804 18.5 15.7348 18.5 16C18.5 16.2652 18.6054 16.5196 18.7929 16.7071C18.9804 16.8946 19.2348 17 19.5 17Z" fill="#202020"/>
<path d="M24.5 22C24.2348 22 23.9804 22.1054 23.7929 22.2929C23.6054 22.4804 23.5 22.7348 23.5 23V39C23.5 39.2652 23.6054 39.5196 23.7929 39.7071C23.9804 39.8946 24.2348 40 24.5 40C24.7652 40 25.0196 39.8946 25.2071 39.7071C25.3946 39.5196 25.5 39.2652 25.5 39V23C25.5 22.7348 25.3946 22.4804 25.2071 22.2929C25.0196 22.1054 24.7652 22 24.5 22Z" fill="#202020"/>
<path d="M29 39C29 39.2652 29.1054 39.5196 29.2929 39.7071C29.4804 39.8946 29.7348 40 30 40C30.2652 40 30.5196 39.8946 30.7071 39.7071C30.8946 39.5196 31 39.2652 31 39V23C31 22.7348 30.8946 22.4804 30.7071 22.2929C30.5196 22.1054 30.2652 22 30 22C29.7348 22 29.4804 22.1054 29.2929 22.2929C29.1054 22.4804 29 22.7348 29 23V39Z" fill="#202020"/>
<path d="M19 40C19.2652 40 19.5196 39.8946 19.7071 39.7071C19.8946 39.5196 20 39.2652 20 39V23C20 22.7348 19.8946 22.4804 19.7071 22.2929C19.5196 22.1054 19.2652 22 19 22C18.7348 22 18.4804 22.1054 18.2929 22.2929C18.1054 22.4804 18 22.7348 18 23V39C18 39.2652 18.1054 39.5196 18.2929 39.7071C18.4804 39.8946 18.7348 40 19 40Z" fill="#202020"/>
</svg>
