<svg width="64" height="64" viewBox="0 0 64 64" fill="none" xmlns="http://www.w3.org/2000/svg">
<path d="M57.5 21H22.5C20.567 21 19 22.567 19 24.5C19 26.433 20.567 28 22.5 28H57.5C59.433 28 61 26.433 61 24.5C61 22.567 59.433 21 57.5 21Z" fill="#ED954A"/>
<path d="M58 30H22C20.6744 30.0016 19.4036 30.5289 18.4662 31.4662C17.5289 32.4036 17.0016 33.6744 17 35C17 35.2652 17.1054 35.5196 17.2929 35.7071C17.4804 35.8946 17.7348 36 18 36C18.2652 36 18.5196 35.8946 18.7071 35.7071C18.8946 35.5196 19 35.2652 19 35C19 34.2044 19.3161 33.4413 19.8787 32.8787C20.4413 32.3161 21.2044 32 22 32H23V62C23 62.2652 23.1054 62.5196 23.2929 62.7071C23.4804 62.8946 23.7348 63 24 63H56C56.2652 63 56.5196 62.8946 56.7071 62.7071C56.8946 62.5196 57 62.2652 57 62V32H58C58.7956 32 59.5587 32.3161 60.1213 32.8787C60.6839 33.4413 61 34.2044 61 35C61 35.2652 61.1054 35.5196 61.2929 35.7071C61.4804 35.8946 61.7348 36 62 36C62.2652 36 62.5196 35.8946 62.7071 35.7071C62.8946 35.5196 63 35.2652 63 35C62.9984 33.6744 62.4711 32.4036 61.5338 31.4662C60.5964 30.5289 59.3256 30.0016 58 30V30ZM33 58C33 58.2652 32.8946 58.5196 32.7071 58.7071C32.5196 58.8946 32.2652 59 32 59C31.7348 59 31.4804 58.8946 31.2929 58.7071C31.1054 58.5196 31 58.2652 31 58V39C31 38.7348 31.1054 38.4804 31.2929 38.2929C31.4804 38.1054 31.7348 38 32 38C32.2652 38 32.5196 38.1054 32.7071 38.2929C32.8946 38.4804 33 38.7348 33 39V58ZM41 58C41 58.2652 40.8946 58.5196 40.7071 58.7071C40.5196 58.8946 40.2652 59 40 59C39.7348 59 39.4804 58.8946 39.2929 58.7071C39.1054 58.5196 39 58.2652 39 58V39C39 38.7348 39.1054 38.4804 39.2929 38.2929C39.4804 38.1054 39.7348 38 40 38C40.2652 38 40.5196 38.1054 40.7071 38.2929C40.8946 38.4804 41 38.7348 41 39V58ZM49 58C49 58.2652 48.8946 58.5196 48.7071 58.7071C48.5196 58.8946 48.2652 59 48 59C47.7348 59 47.4804 58.8946 47.2929 58.7071C47.1054 58.5196 47 58.2652 47 58V39C47 38.7348 47.1054 38.4804 47.2929 38.2929C47.4804 38.1054 47.7348 38 48 38C48.2652 38 48.5196 38.1054 48.7071 38.2929C48.8946 38.4804 49 38.7348 49 39V58ZM52 36H28C27.7348 36 27.4804 35.8946 27.2929 35.7071C27.1054 35.5196 27 35.2652 27 35C27 34.7348 27.1054 34.4804 27.2929 34.2929C27.4804 34.1054 27.7348 34 28 34H52C52.2652 34 52.5196 34.1054 52.7071 34.2929C52.8946 34.4804 53 34.7348 53 35C53 35.2652 52.8946 35.5196 52.7071 35.7071C52.5196 35.8946 52.2652 36 52 36Z" fill="#ED954A"/>
<path d="M51 23.983C50.979 23.8517 50.9499 23.7218 50.913 23.594C50.9134 23.5883 50.9134 23.5827 50.913 23.577L44.57 10H46C46.2652 10 46.5196 9.89464 46.7071 9.70711C46.8946 9.51957 47 9.26522 47 9V5C47 4.20435 46.6839 3.44129 46.1213 2.87868C45.5587 2.31607 44.7956 2 44 2H28.969C28.1152 1.35116 27.0724 0.999878 26 0.999878C24.9276 0.999878 23.8848 1.35116 23.031 2H8C7.20435 2 6.44129 2.31607 5.87868 2.87868C5.31607 3.44129 5 4.20435 5 5V9C5 9.26522 5.10536 9.51957 5.29289 9.70711C5.48043 9.89464 5.73478 10 6 10H7.43L1.094 23.577C1.09353 23.583 1.09353 23.589 1.094 23.595C1.05451 23.7222 1.02312 23.8518 1 23.983C1 23.989 1 23.994 1 24C1 26.1217 1.84285 28.1566 3.34315 29.6569C4.84344 31.1571 6.87827 32 9 32C11.1217 32 13.1566 31.1571 14.6569 29.6569C16.1571 28.1566 17 26.1217 17 24C17 23.994 17 23.989 17 23.983C16.9792 23.852 16.9501 23.7224 16.913 23.595C16.9135 23.589 16.9135 23.583 16.913 23.577L10.57 10H21V41H18C17.7348 41 17.4804 41.1054 17.2929 41.2929C17.1054 41.4804 17 41.7348 17 42C17 42.2652 17.1054 42.5196 17.2929 42.7071C17.4804 42.8946 17.7348 43 18 43H34C34.2652 43 34.5196 42.8946 34.7071 42.7071C34.8946 42.5196 35 42.2652 35 42C35 41.7348 34.8946 41.4804 34.7071 41.2929C34.5196 41.1054 34.2652 41 34 41H31V10H41.43L35.094 23.577C35.0936 23.5827 35.0936 23.5883 35.094 23.594C35.057 23.7217 35.0279 23.8517 35.007 23.983C35.007 23.989 35.007 23.994 35.007 24C35.007 26.1217 35.8499 28.1566 37.3501 29.6569C38.8504 31.1571 40.8853 32 43.007 32C45.1287 32 47.1636 31.1571 48.6639 29.6569C50.1641 28.1566 51.007 26.1217 51.007 24C51 23.994 51 23.989 51 23.983ZM9 30C7.58246 29.9982 6.21117 29.4954 5.12844 28.5805C4.04571 27.6656 3.32122 26.3974 3.083 25H14.917C14.6788 26.3974 13.9543 27.6656 12.8716 28.5805C11.7888 29.4954 10.4175 29.9982 9 30V30ZM14.43 23H3.57L9 11.365L14.43 23ZM21.424 8H7V5C7 4.73478 7.10536 4.48043 7.29289 4.29289C7.48043 4.10536 7.73478 4 8 4H21.424C21.1444 4.62971 21 5.31103 21 6C21 6.68897 21.1444 7.37029 21.424 8ZM29 41H23V10H23.031C23.8848 10.6488 24.9276 11.0001 26 11.0001C27.0724 11.0001 28.1152 10.6488 28.969 10H29V41ZM26 9C25.4067 9 24.8266 8.82405 24.3333 8.49441C23.8399 8.16477 23.4554 7.69623 23.2284 7.14805C23.0013 6.59987 22.9419 5.99667 23.0576 5.41473C23.1734 4.83279 23.4591 4.29824 23.8787 3.87868C24.2982 3.45912 24.8328 3.1734 25.4147 3.05765C25.9967 2.94189 26.5999 3.0013 27.1481 3.22836C27.6962 3.45543 28.1648 3.83994 28.4944 4.33329C28.8241 4.82664 29 5.40666 29 6C29 6.79565 28.6839 7.55871 28.1213 8.12132C27.5587 8.68393 26.7956 9 26 9ZM30.576 8C30.8556 7.37029 31 6.68897 31 6C31 5.31103 30.8556 4.62971 30.576 4H44C44.2652 4 44.5196 4.10536 44.7071 4.29289C44.8946 4.48043 45 4.73478 45 5V8H30.576ZM43 11.365L48.43 23H37.57L43 11.365ZM43 30C41.5825 29.9982 40.2112 29.4954 39.1284 28.5805C38.0457 27.6656 37.3212 26.3974 37.083 25H48.917C48.6788 26.3974 47.9543 27.6656 46.8716 28.5805C45.7888 29.4954 44.4175 29.9982 43 30V30Z" fill="#202020"/>
</svg>
