<svg width="64" height="64" viewBox="0 0 64 64" fill="none" xmlns="http://www.w3.org/2000/svg">
<path d="M26.867 35.995C27.1273 36.4537 27.2642 36.9721 27.2642 37.4995C27.2642 38.0269 27.1273 38.5453 26.867 39.004C26.4298 39.7612 26.1988 40.6199 26.1971 41.4943C26.1953 42.3686 26.4229 43.2282 26.8572 43.9872C27.2914 44.7461 27.917 45.3779 28.6717 45.8195C29.4264 46.2612 30.2837 46.4972 31.158 46.504C31.6774 46.5064 32.1869 46.6459 32.635 46.9084C33.0831 47.171 33.454 47.5472 33.71 47.999C34.1391 48.7594 34.7625 49.3921 35.5165 49.8324C36.2705 50.2727 37.1279 50.5047 38.001 50.5047C38.8741 50.5047 39.7316 50.2727 40.4855 49.8324C41.2395 49.3921 41.8629 48.7594 42.292 47.999C42.5475 47.5466 42.9179 47.1696 43.3659 46.9064C43.8139 46.6432 44.3234 46.503 44.843 46.5C45.7173 46.493 46.5745 46.2569 47.329 45.8152C48.0835 45.3735 48.709 44.7416 49.1431 43.9827C49.5772 43.2238 49.8047 42.3643 49.803 41.49C49.8012 40.6157 49.5702 39.7572 49.133 39C48.8722 38.5413 48.7351 38.0227 48.7351 37.495C48.7351 36.9673 48.8722 36.4487 49.133 35.99C49.5702 35.2328 49.8012 34.3741 49.803 33.4997C49.8047 32.6254 49.5771 31.7658 49.1429 31.0068C48.7087 30.2479 48.083 29.6161 47.3283 29.1745C46.5737 28.7328 45.7164 28.4968 44.842 28.49C44.3233 28.4881 43.8142 28.3494 43.3663 28.0877C42.9184 27.8261 42.5475 27.4509 42.291 27C41.8619 26.2396 41.2385 25.6069 40.4845 25.1666C39.7306 24.7263 38.8731 24.4943 38 24.4943C37.1269 24.4943 36.2695 24.7263 35.5155 25.1666C34.7615 25.6069 34.1381 26.2396 33.709 27C33.4538 27.4529 33.0832 27.8302 32.635 28.0937C32.1868 28.3571 31.6769 28.4973 31.157 28.5C30.2835 28.5075 29.4271 28.7437 28.6733 29.1852C27.9195 29.6266 27.2944 30.2578 26.8605 31.016C26.4265 31.7742 26.1988 32.6328 26.1999 33.5064C26.2011 34.38 26.4311 35.238 26.867 35.995V35.995ZM38 31.5C39.1867 31.5 40.3467 31.8519 41.3334 32.5112C42.3201 33.1705 43.0892 34.1075 43.5433 35.2039C43.9974 36.3003 44.1162 37.5067 43.8847 38.6705C43.6532 39.8344 43.0818 40.9035 42.2427 41.7426C41.4035 42.5818 40.3344 43.1532 39.1706 43.3847C38.0067 43.6162 36.8003 43.4974 35.7039 43.0433C34.6076 42.5892 33.6705 41.8201 33.0112 40.8334C32.3519 39.8467 32 38.6867 32 37.5C32.0019 35.9093 32.6346 34.3842 33.7594 33.2594C34.8842 32.1346 36.4093 31.5019 38 31.5Z" fill="#ED954A"/>
<path d="M38 41.499C40.2091 41.499 42 39.7081 42 37.499C42 35.2899 40.2091 33.499 38 33.499C35.7909 33.499 34 35.2899 34 37.499C34 39.7081 35.7909 41.499 38 41.499Z" fill="#ED954A"/>
<path d="M62.093 38.789L59.047 38.505C57.5868 38.3973 56.1279 38.7292 54.858 39.458C54.9587 38.5681 54.9852 37.6713 54.937 36.777C54.937 36.522 54.912 36.258 54.896 35.997L56.958 35.727C57.7788 35.6358 58.569 35.3633 59.2715 34.9292C59.974 34.4951 60.5713 33.9102 61.02 33.217C62.797 30.245 61.143 27.627 61.038 27.092C60.9908 26.9654 60.9185 26.8497 60.8253 26.7519C60.7322 26.654 60.6201 26.5761 60.496 26.5227C60.3719 26.4693 60.2383 26.4417 60.1032 26.4414C59.9681 26.4411 59.8343 26.4682 59.71 26.521L56.894 27.721C55.5474 28.3215 54.4126 29.3131 53.637 30.567C53.2087 29.4942 52.6726 28.4676 52.037 27.503L53.731 26.274C54.4097 25.8028 54.9752 25.1866 55.3866 24.4701C55.798 23.7536 56.0451 22.9547 56.11 22.131C56.1295 21.0425 55.8652 19.9676 55.3433 19.0122C54.8213 18.0568 54.0595 17.2537 53.133 16.682C52.924 16.5364 52.6673 16.476 52.4154 16.5131C52.1634 16.5503 51.935 16.6822 51.777 16.882L49.865 19.274C48.9728 20.4481 48.4468 21.8593 48.353 23.331C48.103 23.125 47.853 22.917 47.591 22.722C47.4854 22.644 47.3654 22.5876 47.2379 22.5559C47.1105 22.5243 46.978 22.5181 46.8482 22.5376C46.7183 22.5572 46.5936 22.6021 46.4811 22.6698C46.3686 22.7376 46.2705 22.8268 46.1925 22.9325C46.1145 23.0381 46.0581 23.1581 46.0264 23.2856C45.9948 23.413 45.9886 23.5455 46.0081 23.6753C46.0277 23.8052 46.0726 23.9299 46.1404 24.0424C46.2081 24.1549 46.2974 24.253 46.403 24.331C48.3285 25.7758 49.9114 27.6279 51.0387 29.7549C52.166 31.882 52.81 34.2316 52.9246 36.6362C53.0392 39.0408 52.6217 41.4411 51.7018 43.6657C50.7819 45.8904 49.3824 47.8845 47.603 49.506H47V48.146C46.3041 48.3767 45.5761 48.4958 44.843 48.499C44.6766 48.5009 44.5137 48.5468 44.3708 48.632C44.2278 48.7171 44.1099 48.8386 44.029 48.984C43.425 50.051 42.5486 50.9386 41.4894 51.5561C40.4302 52.1736 39.2261 52.499 38 52.499C36.7739 52.499 35.5698 52.1736 34.5106 51.5561C33.4514 50.9386 32.575 50.051 31.971 48.984C31.8901 48.8386 31.7722 48.7171 31.6293 48.632C31.4863 48.5468 31.3234 48.5009 31.157 48.499C30.4239 48.4958 29.6959 48.3767 29 48.146V49.5H28.389C26.6096 47.8784 25.2101 45.884 24.2905 43.6591C23.3708 41.4342 22.9536 39.0337 23.0687 36.629C23.1838 34.2243 23.8284 31.8746 24.9563 29.7478C26.0843 27.6209 27.6679 25.7692 29.594 24.325C29.6997 24.247 29.7889 24.1489 29.8567 24.0364C29.9244 23.9239 29.9694 23.7992 29.9889 23.6693C30.0084 23.5395 30.0022 23.407 29.9706 23.2796C29.9389 23.1521 29.8825 23.0321 29.8045 22.9265C29.7265 22.8208 29.6285 22.7316 29.516 22.6638C29.4035 22.5961 29.2787 22.5511 29.1489 22.5316C29.019 22.5121 28.8866 22.5183 28.7591 22.5499C28.6316 22.5816 28.5117 22.638 28.406 22.716C28.142 22.916 27.894 23.116 27.644 23.325C27.5502 21.8533 27.0242 20.4421 26.132 19.268L24.22 16.875C24.062 16.6752 23.8337 16.5433 23.5817 16.5061C23.3297 16.469 23.073 16.5294 22.864 16.675C21.9373 17.2465 21.1754 18.0495 20.6534 19.005C20.1314 19.9604 19.8672 21.0354 19.887 22.124C19.9517 22.9477 20.1987 23.7468 20.6101 24.4633C21.0216 25.1798 21.5872 25.7959 22.266 26.267L23.959 27.5C23.3234 28.4646 22.7873 29.4912 22.359 30.564C21.5833 29.3098 20.4481 28.3181 19.101 27.718L16.286 26.518C16.1617 26.4652 16.0279 26.4381 15.8928 26.4384C15.7577 26.4387 15.6241 26.4663 15.5 26.5197C15.3759 26.5731 15.2639 26.651 15.1707 26.7489C15.0776 26.8467 15.0052 26.9624 14.958 27.089C14.853 27.624 13.198 30.242 14.975 33.214C15.4241 33.9072 16.0215 34.4919 16.7242 34.926C17.4268 35.3601 18.2172 35.6326 19.038 35.724L21.1 36C21.083 36.261 21.06 36.525 21.058 36.78C21.0107 37.6743 21.0375 38.5711 21.138 39.461C19.8682 38.7322 18.4092 38.4003 16.949 38.508L13.903 38.792C13.6426 38.8174 13.4024 38.9439 13.2342 39.1443C13.0659 39.3447 12.9829 39.6031 13.003 39.864C13.184 42.202 13.835 44.122 15.93 45.317C16.6474 45.7171 17.4459 45.9497 18.2659 45.9975C19.0859 46.0453 19.906 45.907 20.665 45.593L22.608 44.852C23.0829 45.9101 23.6568 46.9209 24.322 47.871C22.8475 47.8236 21.3935 48.2269 20.154 49.027L17.611 50.727C17.501 50.8009 17.4067 50.896 17.3338 51.0067C17.2608 51.1174 17.2106 51.2415 17.186 51.3717C17.1614 51.502 17.163 51.6359 17.1907 51.7655C17.2183 51.8952 17.2715 52.0181 17.347 52.127C18.688 54.101 20.116 55.497 22.559 55.497C23.368 55.4935 24.1663 55.3115 24.897 54.9641C25.6276 54.6166 26.2726 54.1123 26.786 53.487L28.5 51.5H29V61.5C29 61.6857 29.0517 61.8677 29.1494 62.0257C29.247 62.1837 29.3867 62.3114 29.5528 62.3944C29.7189 62.4775 29.9049 62.5126 30.0898 62.496C30.2748 62.4793 30.4514 62.4114 30.6 62.3L38 56.75L45.4 62.3C45.5486 62.4114 45.7252 62.4793 45.9102 62.496C46.0952 62.5126 46.2811 62.4775 46.4472 62.3944C46.6133 62.3114 46.753 62.1837 46.8507 62.0257C46.9483 61.8677 47 61.6857 47 61.5V51.5H47.5L49.217 53.49C49.7304 54.1153 50.3754 54.6196 51.106 54.9671C51.8367 55.3145 52.635 55.4965 53.444 55.5C55.887 55.5 57.315 54.1 58.656 52.13C58.7316 52.0211 58.7847 51.8982 58.8124 51.7685C58.84 51.6389 58.8416 51.505 58.817 51.3747C58.7924 51.2445 58.7422 51.1204 58.6693 51.0097C58.5963 50.899 58.5021 50.8039 58.392 50.73L55.849 49.03C54.6094 48.2301 53.1555 47.8268 51.681 47.874C52.3462 46.9239 52.9201 45.9131 53.395 44.855L55.338 45.596C56.097 45.91 56.9172 46.0483 57.7371 46.0005C58.5571 45.9527 59.3557 45.7201 60.073 45.32C62.168 44.12 62.819 42.205 63 39.867C63.0217 39.604 62.9385 39.3431 62.7686 39.1412C62.5987 38.9392 62.3558 38.8126 62.093 38.789V38.789Z" fill="#ED954A"/>
<path d="M39 4.5C39 3.70435 38.6839 2.94129 38.1213 2.37868C37.5587 1.81607 36.7956 1.5 36 1.5H4C3.20435 1.5 2.44129 1.81607 1.87868 2.37868C1.31607 2.94129 1 3.70435 1 4.5V48.5C1 49.2956 1.31607 50.0587 1.87868 50.6213C2.44129 51.1839 3.20435 51.5 4 51.5H30C30.2655 51.4991 30.5199 51.3934 30.708 51.206L38.708 43.206C38.8949 43.0186 38.9999 42.7647 39 42.5V4.5ZM3 48.5V4.5C3 4.23478 3.10536 3.98043 3.29289 3.79289C3.48043 3.60536 3.73478 3.5 4 3.5H36C36.2652 3.5 36.5196 3.60536 36.7071 3.79289C36.8946 3.98043 37 4.23478 37 4.5V41.5H30C29.7348 41.5 29.4804 41.6054 29.2929 41.7929C29.1054 41.9804 29 42.2348 29 42.5V49.5H4C3.73478 49.5 3.48043 49.3946 3.29289 49.2071C3.10536 49.0196 3 48.7652 3 48.5ZM35.586 43.5L31 48.086V43.5H35.586Z" fill="#202020"/>
<path d="M10 11.5H30C30.2652 11.5 30.5196 11.3946 30.7071 11.2071C30.8946 11.0196 31 10.7652 31 10.5C31 10.2348 30.8946 9.98043 30.7071 9.79289C30.5196 9.60536 30.2652 9.5 30 9.5H10C9.73478 9.5 9.48043 9.60536 9.29289 9.79289C9.10536 9.98043 9 10.2348 9 10.5C9 10.7652 9.10536 11.0196 9.29289 11.2071C9.48043 11.3946 9.73478 11.5 10 11.5V11.5Z" fill="#202020"/>
<path d="M10 19.5H30C30.2652 19.5 30.5196 19.3946 30.7071 19.2071C30.8946 19.0196 31 18.7652 31 18.5C31 18.2348 30.8946 17.9804 30.7071 17.7929C30.5196 17.6054 30.2652 17.5 30 17.5H10C9.73478 17.5 9.48043 17.6054 9.29289 17.7929C9.10536 17.9804 9 18.2348 9 18.5C9 18.7652 9.10536 19.0196 9.29289 19.2071C9.48043 19.3946 9.73478 19.5 10 19.5V19.5Z" fill="#202020"/>
<path d="M10 27.5H30C30.2652 27.5 30.5196 27.3946 30.7071 27.2071C30.8946 27.0196 31 26.7652 31 26.5C31 26.2348 30.8946 25.9804 30.7071 25.7929C30.5196 25.6054 30.2652 25.5 30 25.5H10C9.73478 25.5 9.48043 25.6054 9.29289 25.7929C9.10536 25.9804 9 26.2348 9 26.5C9 26.7652 9.10536 27.0196 9.29289 27.2071C9.48043 27.3946 9.73478 27.5 10 27.5V27.5Z" fill="#202020"/>
<path d="M10 35.5H30C30.2652 35.5 30.5196 35.3946 30.7071 35.2071C30.8946 35.0196 31 34.7652 31 34.5C31 34.2348 30.8946 33.9804 30.7071 33.7929C30.5196 33.6054 30.2652 33.5 30 33.5H10C9.73478 33.5 9.48043 33.6054 9.29289 33.7929C9.10536 33.9804 9 34.2348 9 34.5C9 34.7652 9.10536 35.0196 9.29289 35.2071C9.48043 35.3946 9.73478 35.5 10 35.5V35.5Z" fill="#202020"/>
<path d="M20 41.5H10C9.73478 41.5 9.48043 41.6054 9.29289 41.7929C9.10536 41.9804 9 42.2348 9 42.5C9 42.7652 9.10536 43.0196 9.29289 43.2071C9.48043 43.3946 9.73478 43.5 10 43.5H20C20.2652 43.5 20.5196 43.3946 20.7071 43.2071C20.8946 43.0196 21 42.7652 21 42.5C21 42.2348 20.8946 41.9804 20.7071 41.7929C20.5196 41.6054 20.2652 41.5 20 41.5Z" fill="#202020"/>
</svg>
