<svg width="64" height="64" viewBox="0 0 64 64" fill="none" xmlns="http://www.w3.org/2000/svg">
<path d="M27 42V41C26.9985 40.4081 27.1725 39.829 27.5 39.336L33.06 31H21.069C20.5743 30.9988 20.0871 31.1201 19.6508 31.3533C19.2145 31.5864 18.8429 31.9241 18.569 32.336L13.162 40.445C13.0612 40.596 13.0035 40.7716 12.9949 40.953C12.9864 41.1343 13.0274 41.3146 13.1135 41.4744C13.1997 41.6342 13.3277 41.7676 13.4838 41.8602C13.64 41.9528 13.8184 42.0011 14 42H27Z" fill="#ED954A"/>
<path d="M46.831 40.445L38.831 28.445C38.7397 28.3078 38.616 28.1953 38.4707 28.1175C38.3255 28.0397 38.1633 27.999 37.9985 27.999C37.8337 27.999 37.6715 28.0397 37.5263 28.1175C37.381 28.1953 37.2573 28.3078 37.166 28.445L29.166 40.445C29.0575 40.6097 28.9998 40.8027 29 41V62H33V51C33 50.7348 33.1054 50.4804 33.2929 50.2929C33.4804 50.1054 33.7348 50 34 50H42C42.2652 50 42.5196 50.1054 42.7071 50.2929C42.8946 50.4804 43 50.7348 43 51V62H47V41C46.9993 40.8024 46.9405 40.6094 46.831 40.445V40.445ZM38 44C37.4067 44 36.8266 43.824 36.3333 43.4944C35.8399 43.1648 35.4554 42.6962 35.2284 42.148C35.0013 41.5999 34.9419 40.9967 35.0576 40.4147C35.1734 39.8328 35.4591 39.2982 35.8787 38.8787C36.2982 38.4591 36.8328 38.1734 37.4147 38.0576C37.9967 37.9419 38.5999 38.0013 39.148 38.2284C39.6962 38.4554 40.1648 38.8399 40.4944 39.3333C40.8241 39.8266 41 40.4067 41 41C41 41.7956 40.6839 42.5587 40.1213 43.1213C39.5587 43.6839 38.7957 44 38 44Z" fill="#ED954A"/>
<path d="M49 44V62H60C60.7956 62 61.5587 61.6839 62.1213 61.1213C62.6839 60.5587 63 59.7956 63 59V44H49ZM59 52C59 52.2652 58.8946 52.5196 58.7071 52.7071C58.5196 52.8946 58.2652 53 58 53H54C53.7348 53 53.4804 52.8946 53.2929 52.7071C53.1054 52.5196 53 52.2652 53 52V48C53 47.7348 53.1054 47.4804 53.2929 47.2929C53.4804 47.1054 53.7348 47 54 47H58C58.2652 47 58.5196 47.1054 58.7071 47.2929C58.8946 47.4804 59 47.7348 59 48V52Z" fill="#ED954A"/>
<path d="M13 44V59C13 59.7956 13.3161 60.5587 13.8787 61.1213C14.4413 61.6839 15.2044 62 16 62H27V44H13ZM17 48C17 47.7348 17.1054 47.4804 17.2929 47.2929C17.4804 47.1054 17.7348 47 18 47H22C22.2652 47 22.5196 47.1054 22.7071 47.2929C22.8946 47.4804 23 47.7348 23 48V52C23 52.2652 22.8946 52.5196 22.7071 52.7071C22.5196 52.8946 22.2652 53 22 53H18C17.7348 53 17.4804 52.8946 17.2929 52.7071C17.1054 52.5196 17 52.2652 17 52V48Z" fill="#ED954A"/>
<path d="M62.831 40.445L57.424 32.336C57.1505 31.9246 56.7795 31.5873 56.344 31.3542C55.9084 31.1211 55.422 30.9994 54.928 31H42.937L48.5 39.336C48.8272 39.8292 49.0011 40.4082 49 41V42H62C62.181 41.9998 62.3585 41.9506 62.5137 41.8575C62.6688 41.7644 62.7958 41.6309 62.8811 41.4713C62.9664 41.3117 63.0068 41.132 62.998 40.9512C62.9891 40.7705 62.9314 40.5955 62.831 40.445Z" fill="#ED954A"/>
<path d="M40.999 52H34.999V62H40.999V52Z" fill="#ED954A"/>
<path d="M52.616 27.214L38.616 16.214C38.4399 16.0757 38.2224 16.0006 37.9985 16.0006C37.7746 16.0006 37.5571 16.0757 37.381 16.214L23.381 27.214C23.2167 27.3408 23.0966 27.5161 23.0375 27.715C22.9785 27.9139 22.9836 28.1264 23.0521 28.3223C23.1206 28.5181 23.249 28.6875 23.4191 28.8062C23.5893 28.925 23.7925 28.9872 24 28.984V29H34.393L35.5 27.336C35.7793 26.9323 36.1524 26.6024 36.5872 26.3746C37.022 26.1467 37.5056 26.0276 37.9965 26.0276C38.4874 26.0276 38.971 26.1467 39.4058 26.3746C39.8406 26.6024 40.2136 26.9323 40.493 27.336L41.6 29H52C52.2077 28.9995 52.4101 28.9344 52.5792 28.8136C52.7482 28.6928 52.8754 28.5224 52.9431 28.3261C53.0108 28.1297 53.0157 27.9171 52.9571 27.7178C52.8985 27.5185 52.7793 27.3424 52.616 27.214Z" fill="#ED954A"/>
<path d="M32.6 30.619C32.9063 30.9267 33.2747 31.1654 33.6806 31.3193C34.0866 31.4731 34.5207 31.5385 34.954 31.511L37.011 33.569L36.987 33.593C36.4114 34.1682 36.0878 34.9486 36.0875 35.7624C36.0872 36.5762 36.4102 37.3568 36.9855 37.9325C37.5608 38.5081 38.3411 38.8317 39.1549 38.832C39.9688 38.8323 40.7494 38.5092 41.325 37.934L50.1 29.155C50.6755 28.5793 50.9989 27.7986 50.9989 26.9845C50.9989 26.1704 50.6755 25.3897 50.1 24.814C49.5157 24.2561 48.7389 23.9448 47.931 23.9448C47.1231 23.9448 46.3463 24.2561 45.762 24.814L45.738 24.839L43.681 22.781C43.7078 22.3476 43.6422 21.9135 43.4884 21.5075C43.3346 21.1015 43.0962 20.7328 42.789 20.426L32.555 10.185C32.2482 9.87772 31.8795 9.6392 31.4735 9.48524C31.0675 9.33128 30.6334 9.26541 30.2 9.29199L28.144 7.23499L28.169 7.20999C28.4541 6.925 28.6803 6.58662 28.8346 6.2142C28.9889 5.84178 29.0683 5.44261 29.0683 5.03949C29.0683 4.63637 28.9889 4.2372 28.8346 3.86478C28.6803 3.49236 28.4541 3.15399 28.169 2.86899C27.5847 2.31112 26.8079 1.99985 26 1.99985C25.1921 1.99985 24.4153 2.31112 23.831 2.86899L15.057 11.647C14.4827 12.2234 14.1602 13.0038 14.1602 13.8175C14.1602 14.6311 14.4827 15.4116 15.057 15.988C15.6413 16.5464 16.4183 16.858 17.2265 16.858C18.0347 16.858 18.8117 16.5464 19.396 15.988V15.988L19.42 15.964L21.477 18.022C21.4502 18.4555 21.5159 18.8897 21.6697 19.2959C21.8235 19.7021 22.0618 20.0709 22.369 20.378L25.317 23.328L7.176 41.477C6.74283 41.4536 6.30954 41.521 5.90397 41.675C5.4984 41.8289 5.12952 42.066 4.821 42.371L1.9 45.3C1.32568 45.8763 1.0032 46.6568 1.0032 47.4705C1.0032 48.2841 1.32568 49.0646 1.9 49.641L3.359 51.1C3.9345 51.6752 4.71485 51.9983 5.5285 51.9983C6.34215 51.9983 7.1225 51.6752 7.698 51.1L10.622 48.173C10.9292 47.8664 11.1676 47.4979 11.3214 47.092C11.4752 46.6861 11.5408 46.2522 11.514 45.819L29.655 27.669L32.6 30.619ZM46.445 26.959L47.174 26.229C47.3744 26.0288 47.6461 25.9163 47.9294 25.9164C48.2126 25.9165 48.4843 26.0291 48.6845 26.2295C48.8847 26.4299 48.9972 26.7016 48.9971 26.9848C48.997 27.2681 48.8844 27.5398 48.684 27.74L39.911 36.519C39.7105 36.7192 39.4387 36.8316 39.1553 36.8314C38.8719 36.8312 38.6002 36.7185 38.4 36.518C38.1998 36.3175 38.0874 36.0457 38.0876 35.7623C38.0878 35.4789 38.2005 35.2072 38.401 35.007C38.501 34.907 39.232 34.176 39.132 34.277L46.445 26.959ZM42.811 24.743L44.322 26.254L38.422 32.154L36.912 30.643L42.811 24.743ZM17.981 14.573C17.7779 14.7674 17.5076 14.876 17.2265 14.876C16.9454 14.876 16.6751 14.7674 16.472 14.573C16.2723 14.3723 16.1601 14.1007 16.1601 13.8175C16.1601 13.5343 16.2723 13.2627 16.472 13.062L25.245 4.28399C25.3445 4.18485 25.4626 4.10627 25.5925 4.05277C25.7225 3.99926 25.8616 3.97186 26.0021 3.97214C26.1426 3.97242 26.2817 4.00037 26.4114 4.05439C26.5411 4.10841 26.6589 4.18745 26.758 4.28699C26.8572 4.38654 26.9357 4.50463 26.9892 4.63454C27.0427 4.76445 27.0701 4.90362 27.0699 5.04411C27.0696 5.18461 27.0416 5.32367 26.9876 5.45337C26.9336 5.58306 26.8545 5.70085 26.755 5.79999L17.981 14.573ZM22.344 16.061L20.834 14.549L26.734 8.64899L28.245 10.161L22.344 16.061ZM23.782 18.961C23.5818 18.7606 23.4693 18.4888 23.4693 18.2055C23.4693 17.9222 23.5818 17.6504 23.782 17.45L29.631 11.6C29.8344 11.4057 30.1048 11.2973 30.386 11.2973C30.6672 11.2973 30.9376 11.4057 31.141 11.6L41.376 21.84C41.4754 21.9392 41.5543 22.057 41.6081 22.1868C41.6619 22.3165 41.6896 22.4556 41.6896 22.596C41.6896 22.7364 41.6619 22.8755 41.6081 23.0052C41.5543 23.135 41.4754 23.2528 41.376 23.352L35.527 29.2C35.3265 29.3997 35.055 29.5118 34.772 29.5118C34.489 29.5118 34.2175 29.3997 34.017 29.2L23.782 18.961ZM9.208 46.76L6.284 49.686C6.07979 49.879 5.80947 49.9865 5.5285 49.9865C5.24754 49.9865 4.97722 49.879 4.773 49.686L3.312 48.223C3.11202 48.0224 2.99971 47.7507 2.99971 47.4675C2.99971 47.1843 3.11202 46.9126 3.312 46.712L6.236 43.786C6.43645 43.5858 6.70818 43.4733 6.9915 43.4733C7.27483 43.4733 7.54656 43.5858 7.747 43.786L9.209 45.249C9.40862 45.4498 9.52057 45.7215 9.52039 46.0047C9.5202 46.2879 9.40788 46.5594 9.208 46.76V46.76ZM10.646 43.86L9.136 42.35L26.73 24.75L28.241 26.261L10.646 43.86Z" fill="#202020"/>
<path d="M50 46H47V43C47 42.7348 46.8946 42.4804 46.7071 42.2929C46.5196 42.1054 46.2652 42 46 42H30C29.7348 42 29.4804 42.1054 29.2929 42.2929C29.1054 42.4804 29 42.7348 29 43V46H26C25.7348 46 25.4804 46.1054 25.2929 46.2929C25.1054 46.4804 25 46.7348 25 47V51C25 51.2652 25.1054 51.5196 25.2929 51.7071C25.4804 51.8946 25.7348 52 26 52H50C50.2652 52 50.5196 51.8946 50.7071 51.7071C50.8946 51.5196 51 51.2652 51 51V47C51 46.7348 50.8946 46.4804 50.7071 46.2929C50.5196 46.1054 50.2652 46 50 46ZM31 44H45V46H31V44ZM49 50H27V48H49V50Z" fill="#202020"/>
</svg>
