<svg width="500" height="400" viewBox="0 0 500 400" fill="none" xmlns="http://www.w3.org/2000/svg">
<g opacity="0.5">
<path opacity="0.5" d="M14.0269 188.196L14.1921 187.893L14.3161 187.673L14.4401 187.453C15.7939 184.854 17.941 182.756 20.5693 181.461L21.2579 181.158L105.827 144.287L190.396 107.401L191.099 107.098C192.14 106.583 193.298 106.353 194.457 106.43C195.616 106.508 196.733 106.89 197.696 107.539L197.848 107.649L197.999 107.745L207.792 115.032L201.456 116.905L209.858 230.44C210.004 233.5 209.263 236.537 207.723 239.186L207.586 239.42L207.475 239.627C206.122 242.225 203.975 244.324 201.346 245.618L32.6762 319.113L33.3373 326.262L24.0677 319.375L23.9162 319.265C22.9267 318.513 22.1193 317.549 21.5542 316.442C20.989 315.336 20.6806 314.116 20.6519 312.874L12.0159 196.64C11.8834 193.692 12.5801 190.767 14.0269 188.196V188.196Z" fill="white"/>
<path opacity="0.5" d="M40.431 327.047L210.974 252.67C216.126 250.425 219.913 243.249 219.417 236.665L210.947 122.07C210.451 115.486 205.878 111.96 200.727 114.205L30.1836 188.582C25.0323 190.786 21.2446 198.003 21.7404 204.559L30.2111 319.141C30.7069 325.766 35.2797 329.306 40.431 327.047Z" fill="url(#paint0_linear_10_548)"/>
<path opacity="0.5" d="M30.8856 188.279L115.455 151.407L125.427 286.098L41.133 326.744C35.6236 329.168 30.734 326.152 30.2795 320.009L21.6573 203.774C21.5502 200.579 22.3629 197.42 23.9988 194.673C25.6348 191.926 28.0251 189.707 30.8856 188.279V188.279Z" fill="#F2B580"/>
<path opacity="0.5" d="M200.024 114.522L115.455 151.407L125.358 285.258L210.271 252.987C213.129 251.561 215.517 249.343 217.151 246.598C218.785 243.854 219.595 240.698 219.486 237.505L210.878 121.257C210.423 115.128 205.561 112.112 200.024 114.522Z" fill="#F2B580"/>
<path opacity="0.5" d="M217.503 245.949C215.935 249.028 213.392 251.503 210.272 252.987L41.1332 326.744C39.9117 327.376 38.5415 327.665 37.1687 327.581C35.7958 327.496 34.4717 327.04 33.3374 326.262L119.298 203.182L217.503 245.949Z" fill="#F2B580"/>
<path opacity="0.5" d="M23.6545 195.317C25.2307 192.244 27.7707 189.772 30.8856 188.279L200.024 114.522C201.246 113.89 202.617 113.603 203.991 113.69C205.364 113.777 206.687 114.236 207.82 115.018L121.873 238.043L23.6545 195.317Z" fill="#F2B580"/>
<path opacity="0.5" d="M59.9891 210.303C59.9891 210.193 60.0855 210.082 60.1406 209.959C60.1829 209.883 60.2198 209.805 60.2508 209.724L60.3748 209.463C61.6265 206.578 63.7634 204.166 66.4764 202.576L67.1926 202.19L155.178 155.622L243.163 109.054L243.893 108.682C244.975 108.049 246.206 107.715 247.46 107.715C248.714 107.715 249.945 108.049 251.027 108.682L251.193 108.779L251.358 108.875L262.487 115.858L255.807 118.268L274.098 239.737C274.513 243.038 273.957 246.388 272.5 249.378C272.458 249.458 272.421 249.541 272.39 249.626L272.266 249.874C271.023 252.764 268.884 255.178 266.164 256.761L90.7177 349.635L92.0125 357.266L81.4757 350.627L81.3105 350.531C80.1802 349.807 79.2294 348.836 78.5302 347.69C77.831 346.545 77.4017 345.255 77.2748 343.919L58.5429 219.559C58.1506 216.399 58.6516 213.192 59.9891 210.303V210.303Z" fill="white"/>
<path opacity="0.5" d="M99.7119 357.541L277.128 263.634C282.5 260.796 285.984 252.78 284.924 245.728L266.467 123.144C265.407 116.092 260.187 112.676 254.829 115.514L77.4126 209.408C72.0409 212.245 68.5563 220.261 69.6168 227.313L88.0733 349.897C89.1476 356.963 94.354 360.379 99.7119 357.541Z" fill="url(#paint1_linear_10_548)"/>
<path opacity="0.5" d="M78.1289 209.022L166.114 162.454L187.821 306.566L100.442 357.156C94.6709 360.213 89.2028 357.362 88.2111 350.792L69.4792 226.432C69.1034 223.006 69.7187 219.545 71.252 216.459C72.7853 213.373 75.1721 210.792 78.1289 209.022V209.022Z" fill="#F2B580"/>
<path opacity="0.5" d="M254.099 115.886L166.114 162.454L187.683 305.698L276.467 264.019C279.424 262.25 281.811 259.669 283.344 256.582C284.877 253.496 285.492 250.035 285.117 246.61L266.385 122.249C265.338 115.679 259.939 112.828 254.099 115.886Z" fill="url(#paint2_linear_10_548)"/>
<path opacity="0.5" d="M283.615 255.852C282.176 259.291 279.645 262.161 276.412 264.019L100.442 357.156C99.1791 357.937 97.7274 358.361 96.2424 358.38C94.7574 358.399 93.2952 358.014 92.0125 357.266L174.543 217.906L283.615 255.852Z" fill="#F2B580"/>
<path opacity="0.5" d="M70.9253 217.19C72.3612 213.748 74.8935 210.877 78.1288 209.022L254.099 115.886C255.362 115.104 256.813 114.681 258.298 114.661C259.783 114.642 261.245 115.027 262.528 115.776L180.053 255.136L70.9253 217.19Z" fill="#F2B580"/>
</g>
<path d="M108.637 209.779C108.637 209.656 108.734 209.532 108.789 209.408C108.82 209.318 108.856 209.231 108.899 209.146L109.009 208.87C110.217 205.724 112.398 203.046 115.235 201.226L115.992 200.799L207.889 147.716L299.786 94.6469L300.543 94.2062C301.667 93.4818 302.963 93.0682 304.298 93.0077C305.634 92.9473 306.962 93.242 308.146 93.8618L308.325 93.9582L308.504 94.0547L320.639 101.052L313.656 104.013L337.924 232.685C338.473 236.175 337.995 239.75 336.547 242.974L336.423 243.249C336.392 243.334 336.355 243.417 336.313 243.497C335.118 246.651 332.934 249.333 330.087 251.141L146.859 357.004L148.539 365.075L137.052 358.423L136.873 358.326C135.642 357.598 134.592 356.6 133.802 355.407C133.013 354.214 132.504 352.858 132.314 351.44L107.466 219.71C106.913 216.356 107.318 212.913 108.637 209.779V209.779Z" fill="white"/>
<path d="M156.761 365.075L342.07 258.042C347.676 254.805 351.064 246.128 349.659 238.649L325.17 108.778C323.792 101.299 318.063 97.8699 312.471 101.107L127.162 208.127C121.556 211.363 118.154 220.054 119.559 227.52L144.062 357.445C145.467 364.869 151.128 368.312 156.761 365.075Z" fill="url(#paint3_linear_10_548)"/>
<path d="M127.92 207.686L219.816 154.617L248.603 307.282L157.519 364.635C151.486 368.106 145.55 365.296 144.241 358.34L119.449 226.597C118.072 219.627 121.887 211.17 127.92 207.686Z" fill="url(#paint4_linear_10_548)"/>
<path d="M311.713 101.534L219.817 154.617L248.424 306.331L341.313 258.482C347.332 254.998 351.147 246.541 349.838 239.585L325.046 107.828C323.682 100.872 317.787 98.0626 311.713 101.534Z" fill="url(#paint5_linear_10_548)"/>
<path d="M348.668 249.488C347.269 253.212 344.685 256.373 341.312 258.483L157.519 364.635C156.202 365.513 154.671 366.018 153.09 366.095C151.509 366.173 149.936 365.82 148.539 365.076L230.89 213.361L348.668 249.488Z" fill="url(#paint6_linear_10_548)"/>
<path d="M120.551 216.68C121.949 212.952 124.54 209.79 127.92 207.686L311.713 101.534C313.028 100.655 314.556 100.151 316.136 100.073C317.715 99.9953 319.285 100.348 320.68 101.093L238.328 252.767L120.551 216.68Z" fill="url(#paint7_linear_10_548)"/>
<defs>
<linearGradient id="paint0_linear_10_548" x1="226.904" y1="180.529" x2="31.8314" y2="195.251" gradientUnits="userSpaceOnUse">
<stop stop-color="#7BDAFF"/>
<stop offset="1" stop-color="#59BDEF"/>
</linearGradient>
<linearGradient id="paint1_linear_10_548" x1="286.595" y1="191.426" x2="78.0648" y2="223.202" gradientUnits="userSpaceOnUse">
<stop stop-color="#7BDAFF"/>
<stop offset="1" stop-color="#59BDEF"/>
</linearGradient>
<linearGradient id="paint2_linear_10_548" x1="322.069" y1="283.895" x2="177.674" y2="216.032" gradientUnits="userSpaceOnUse">
<stop offset="0.77" stop-color="#59BDEF"/>
<stop offset="0.85" stop-color="#55B8EB"/>
<stop offset="0.93" stop-color="#49ABE1"/>
<stop offset="1" stop-color="#3A9BD5"/>
</linearGradient>
<linearGradient id="paint3_linear_10_548" x1="331.667" y1="179.117" x2="111.684" y2="221.421" gradientUnits="userSpaceOnUse">
<stop stop-color="#7BDAFF"/>
<stop offset="1" stop-color="#59BDEF"/>
</linearGradient>
<linearGradient id="paint4_linear_10_548" x1="106.41" y1="470.612" x2="217.341" y2="260.454" gradientUnits="userSpaceOnUse">
<stop stop-color="#E89852"/>
<stop offset="1" stop-color="#BA7A42"/>
</linearGradient>
<linearGradient id="paint5_linear_10_548" x1="418.586" y1="284.547" x2="262.542" y2="218.594" gradientUnits="userSpaceOnUse">
<stop stop-color="#F2B580"/>
<stop offset="1" stop-color="#ED954A"/>
</linearGradient>
<linearGradient id="paint6_linear_10_548" x1="273.975" y1="472.255" x2="162.991" y2="279.883" gradientUnits="userSpaceOnUse">
<stop stop-color="#E89852"/>
<stop offset="1" stop-color="#ED954A"/>
</linearGradient>
<linearGradient id="paint7_linear_10_548" x1="276.183" y1="87.4621" x2="70.5448" y2="244.855" gradientUnits="userSpaceOnUse">
<stop stop-color="#F2B580"/>
<stop offset="1" stop-color="#ED954A"/>
</linearGradient>
</defs>
</svg>
