<svg width="64" height="64" viewBox="0 0 64 64" fill="none" xmlns="http://www.w3.org/2000/svg">
<path d="M39.318 30.2L38.918 32.562L41.039 31.447C41.1824 31.3717 41.342 31.3323 41.504 31.3323C41.666 31.3323 41.8256 31.3717 41.969 31.447L44.09 32.562L43.69 30.2C43.6625 30.0403 43.6743 29.8763 43.7243 29.7221C43.7743 29.5679 43.861 29.4282 43.977 29.315L45.693 27.643L43.313 27.3C43.1527 27.2766 43.0006 27.2145 42.8696 27.1192C42.7386 27.0239 42.6327 26.8983 42.561 26.753L41.5 24.6L40.439 26.748C40.3673 26.8933 40.2614 27.0189 40.1305 27.1142C39.9995 27.2095 39.8473 27.2716 39.687 27.295L37.315 27.64L39.031 29.312C39.1474 29.4255 39.2344 29.5657 39.2844 29.7205C39.3345 29.8752 39.346 30.0398 39.318 30.2V30.2Z" fill="#ED954A"/>
<path d="M40.86 48.562L28.5 38.262V44.662L41.5 55.495L54.5 44.662V38.262L42.141 48.562C41.9612 48.7119 41.7346 48.794 41.5005 48.794C41.2664 48.794 41.0398 48.7119 40.86 48.562Z" fill="#ED954A"/>
<path d="M59.862 21.068C52.428 18.179 47.107 17 41.5 17C34.973 17 27.912 19.212 23.138 21.068C22.9501 21.141 22.7887 21.269 22.6748 21.4353C22.561 21.6016 22.5 21.7985 22.5 22V47C22.4998 47.1467 22.5318 47.2916 22.5939 47.4245C22.6559 47.5574 22.7464 47.675 22.859 47.769L40.859 62.769C41.0388 62.9192 41.2657 63.0015 41.5 63.0015C41.7343 63.0015 41.9612 62.9192 42.141 62.769L60.141 47.769C60.2536 47.675 60.3441 47.5574 60.4061 47.4245C60.4682 47.2916 60.5002 47.1467 60.5 47V22C60.5 21.7985 60.439 21.6016 60.3252 21.4353C60.2113 21.269 60.0499 21.141 59.862 21.068ZM35.023 25.953L38.879 25.393L40.6 21.9C40.6919 21.7441 40.8229 21.6148 40.98 21.525C41.1372 21.4352 41.315 21.388 41.496 21.388C41.677 21.388 41.8548 21.4352 42.012 21.525C42.1691 21.6148 42.3001 21.7441 42.392 21.9L44.117 25.4L47.973 25.96C48.1575 25.987 48.3308 26.065 48.4733 26.1852C48.6158 26.3055 48.7218 26.4631 48.7795 26.6405C48.8371 26.8178 48.844 27.0077 48.7994 27.1887C48.7547 27.3698 48.6604 27.5347 48.527 27.665L45.737 30.385L46.395 34.226C46.4262 34.4097 46.4054 34.5984 46.335 34.7709C46.2646 34.9435 46.1474 35.0929 45.9967 35.2024C45.8459 35.3118 45.6676 35.377 45.4818 35.3906C45.2959 35.4041 45.11 35.3655 44.945 35.279L41.5 33.46L38.051 35.272C37.886 35.3585 37.7001 35.3971 37.5142 35.3836C37.3284 35.37 37.1501 35.3048 36.9993 35.1954C36.8486 35.0859 36.7314 34.9365 36.661 34.7639C36.5906 34.5914 36.5698 34.4027 36.601 34.219L37.259 30.378L34.469 27.658C34.3356 27.5277 34.2413 27.3628 34.1966 27.1817C34.152 27.0007 34.1589 26.8108 34.2165 26.6335C34.2742 26.4561 34.3802 26.2985 34.5227 26.1782C34.6652 26.058 34.8385 25.98 35.023 25.953V25.953ZM56.5 45.128C56.5001 45.2745 56.4679 45.4192 56.4059 45.5519C56.3439 45.6846 56.2534 45.8021 56.141 45.896L42.141 57.562C41.9612 57.7122 41.7343 57.7945 41.5 57.7945C41.2657 57.7945 41.0388 57.7122 40.859 57.562L26.86 45.9C26.7476 45.8061 26.6571 45.6886 26.5951 45.5559C26.5331 45.4232 26.5009 45.2785 26.501 45.132V36.132C26.5007 35.9417 26.5547 35.7553 26.6567 35.5947C26.7587 35.434 26.9044 35.3058 27.0767 35.225C27.249 35.1443 27.4407 35.1144 27.6294 35.1388C27.8181 35.1633 27.996 35.241 28.142 35.363L41.5 46.491L54.86 35.358C55.006 35.236 55.1839 35.1583 55.3726 35.1338C55.5613 35.1094 55.753 35.1393 55.9253 35.22C56.0976 35.3008 56.2433 35.429 56.3453 35.5897C56.4473 35.7503 56.5013 35.9367 56.501 36.127L56.5 45.128Z" fill="#ED954A"/>
<path d="M41.7 40.8C40.95 40.0485 40.1104 39.3922 39.2 38.846L39.4 38.446C39.4588 38.3285 39.4938 38.2005 39.5031 38.0695C39.5123 37.9384 39.4957 37.8068 39.4541 37.6822C39.4125 37.5575 39.3467 37.4423 39.2606 37.3431C39.1744 37.2439 39.0696 37.1627 38.952 37.104L34.952 35.104C34.8345 35.0452 34.7065 35.0102 34.5755 35.0009C34.4444 34.9917 34.3128 35.0083 34.1882 35.0499C34.0635 35.0915 33.9483 35.1573 33.8491 35.2434C33.7499 35.3296 33.6687 35.4344 33.61 35.552L32.879 37.015C31.893 36.989 16.894 36.995 16.131 37.015L15.4 35.553C15.3413 35.4354 15.2601 35.3306 15.1609 35.2444C15.0617 35.1583 14.9465 35.0925 14.8218 35.0509C14.6972 35.0093 14.5656 34.9927 14.4345 35.0019C14.3035 35.0112 14.1755 35.0462 14.058 35.105L10.058 37.105C9.94043 37.1637 9.83557 37.2449 9.74942 37.3441C9.66327 37.4433 9.59751 37.5585 9.5559 37.6832C9.5143 37.8078 9.49766 37.9394 9.50694 38.0705C9.51623 38.2015 9.55125 38.3295 9.61 38.447L9.81 38.847C7.87991 39.9976 6.28294 41.6313 5.17646 43.587C4.06997 45.5427 3.49218 47.753 3.5 50C3.5 50.2652 3.60536 50.5196 3.7929 50.7071C3.98043 50.8946 4.23479 51 4.5 51H44.5C44.7652 51 45.0196 50.8946 45.2071 50.7071C45.3946 50.5196 45.5 50.2652 45.5 50C45.5065 48.2914 45.174 46.5985 44.5217 45.0193C43.8694 43.4401 42.9104 42.006 41.7 40.8V40.8ZM31.882 39L30.882 41H18.118L17.118 39H31.882ZM10.712 40.659L11.44 42.116L9.72 49H5.545C5.69628 47.3031 6.2423 45.6651 7.13946 44.2168C8.03662 42.7686 9.26004 41.5502 10.712 40.659ZM11.781 49L13.47 42.242C13.5279 42.0107 13.5013 41.7664 13.395 41.553L11.842 38.447L14.053 37.342L14.639 38.515L16.603 42.444C16.6858 42.6111 16.8137 42.7517 16.9722 42.85C17.1307 42.9482 17.3135 43.0002 17.5 43H31.5C31.6867 43.001 31.8699 42.9498 32.029 42.852C32.188 42.7543 32.3166 42.614 32.4 42.447L34.376 38.495L34.951 37.344L37.162 38.449L35.6 41.553C35.4937 41.7664 35.4671 42.0107 35.525 42.242L37.219 49H11.781ZM39.281 49L37.561 42.116L38.296 40.646C39.7465 41.5413 40.9681 42.7626 41.8639 44.2128C42.7596 45.663 43.3048 47.3022 43.456 49H39.281Z" fill="#202020"/>
<path d="M13.5 15V24C13.5 26.9174 14.6589 29.7153 16.7218 31.7782C18.7847 33.8411 21.5826 35 24.5 35C27.4174 35 30.2153 33.8411 32.2782 31.7782C34.3411 29.7153 35.5 26.9174 35.5 24V15H35.518C36.3057 14.9949 37.0603 14.6823 37.6207 14.1287C38.1812 13.5752 38.5031 12.8246 38.518 12.037L38.535 11.016C38.639 5.188 38.763 1 32.5 1C22.93 1 14.1 7.571 11.625 9.586C11.138 9.97988 10.7843 10.5143 10.6121 11.1165C10.4398 11.7186 10.4573 12.3593 10.6623 12.9511C10.8673 13.5429 11.2497 14.0572 11.7575 14.4238C12.2653 14.7905 12.8737 14.9917 13.5 15V15ZM20.627 32.117L22.035 30H26.965L28.373 32.112C27.1655 32.6964 25.8415 33 24.5 33C23.1585 33 21.8345 32.6964 20.627 32.112V32.117ZM33.5 24C33.4993 25.3586 33.1905 26.6994 32.5967 27.9214C32.0029 29.1434 31.1397 30.2148 30.072 31.055L28.332 28.445C28.2406 28.3081 28.1169 28.1958 27.9718 28.1182C27.8266 28.0406 27.6646 28 27.5 28H21.5C21.3354 28 21.1734 28.0406 21.0282 28.1182C20.8831 28.1958 20.7593 28.3081 20.668 28.445L18.928 31.055C17.8603 30.2148 16.9971 29.1434 16.4033 27.9214C15.8095 26.6994 15.5007 25.3586 15.5 24V15H33.5V24ZM12.888 11.138C15.235 9.229 23.589 3 32.5 3C36.688 3 36.643 4.908 36.535 10.979L36.518 12.006C36.5138 12.2694 36.407 12.5207 36.2201 12.7064C36.0333 12.8921 35.7814 12.9974 35.518 13H13.548C13.3314 13 13.1202 12.9329 12.9433 12.8079C12.7665 12.6829 12.6326 12.5062 12.5603 12.3021C12.4879 12.098 12.4806 11.8765 12.5393 11.668C12.598 11.4596 12.7198 11.2744 12.888 11.138V11.138Z" fill="#202020"/>
<path d="M28.5 45H20.5C20.2348 45 19.9804 45.1054 19.7929 45.2929C19.6054 45.4804 19.5 45.7348 19.5 46C19.5 46.2652 19.6054 46.5196 19.7929 46.7071C19.9804 46.8946 20.2348 47 20.5 47H28.5C28.7652 47 29.0196 46.8946 29.2071 46.7071C29.3946 46.5196 29.5 46.2652 29.5 46C29.5 45.7348 29.3946 45.4804 29.2071 45.2929C29.0196 45.1054 28.7652 45 28.5 45Z" fill="#202020"/>
<path d="M29.793 10.707C29.8943 10.8083 30.0162 10.8866 30.1504 10.9367C30.2846 10.9868 30.428 11.0075 30.5709 10.9974C30.7138 10.9872 30.8529 10.9465 30.9787 10.8779C31.1044 10.8094 31.214 10.7146 31.3 10.6L34.3 6.6C34.4591 6.38783 34.5275 6.12113 34.49 5.85858C34.4524 5.59603 34.3122 5.35913 34.1 5.2C33.8878 5.04087 33.6211 4.97255 33.3586 5.01005C33.096 5.04756 32.8591 5.18783 32.7 5.4L30.392 8.478L29.207 7.293C29.1148 7.19749 29.0044 7.12131 28.8824 7.0689C28.7604 7.01649 28.6292 6.98891 28.4964 6.98775C28.3636 6.9866 28.2319 7.0119 28.1091 7.06218C27.9862 7.11246 27.8745 7.18672 27.7806 7.28061C27.6867 7.3745 27.6125 7.48615 27.5622 7.60905C27.5119 7.73195 27.4866 7.86363 27.4878 7.99641C27.4889 8.12918 27.5165 8.2604 27.5689 8.38241C27.6213 8.50441 27.6975 8.61476 27.793 8.707L29.793 10.707Z" fill="#202020"/>
</svg>
