<svg width="64" height="64" viewBox="0 0 64 64" fill="none" xmlns="http://www.w3.org/2000/svg">
<path d="M37.5 32C36.1155 32 34.7622 32.4105 33.611 33.1797C32.4599 33.9489 31.5627 35.0421 31.0328 36.3212C30.503 37.6003 30.3644 39.0078 30.6345 40.3656C30.9046 41.7235 31.5713 42.9708 32.5503 43.9497C33.5292 44.9287 34.7765 45.5954 36.1344 45.8655C37.4922 46.1356 38.8997 45.997 40.1788 45.4672C41.4579 44.9373 42.5511 44.0401 43.3203 42.889C44.0895 41.7378 44.5 40.3845 44.5 39C44.4976 37.1442 43.7594 35.3651 42.4471 34.0529C41.1349 32.7406 39.3558 32.0024 37.5 32V32ZM41.5 40C41.2348 40 40.9804 39.8946 40.7929 39.7071C40.6054 39.5196 40.5 39.2652 40.5 39C40.5 38.2044 40.1839 37.4413 39.6213 36.8787C39.0587 36.3161 38.2957 36 37.5 36C37.2348 36 36.9804 35.8946 36.7929 35.7071C36.6054 35.5196 36.5 35.2652 36.5 35C36.5 34.7348 36.6054 34.4804 36.7929 34.2929C36.9804 34.1054 37.2348 34 37.5 34C38.8256 34.0016 40.0964 34.5289 41.0338 35.4662C41.9711 36.4036 42.4984 37.6744 42.5 39C42.5 39.2652 42.3946 39.5196 42.2071 39.7071C42.0196 39.8946 41.7652 40 41.5 40Z" fill="#ED954A"/>
<path d="M59.5 23H15.5C14.7044 23 13.9413 23.3161 13.3787 23.8787C12.8161 24.4413 12.5 25.2044 12.5 26V52C12.5 52.7956 12.8161 53.5587 13.3787 54.1213C13.9413 54.6839 14.7044 55 15.5 55H59.5C60.2956 55 61.0587 54.6839 61.6213 54.1213C62.1839 53.5587 62.5 52.7956 62.5 52V26C62.5 25.2044 62.1839 24.4413 61.6213 23.8787C61.0587 23.3161 60.2956 23 59.5 23ZM25.5 51H21.5C21.2348 51 20.9804 50.8946 20.7929 50.7071C20.6054 50.5196 20.5 50.2652 20.5 50C20.5 49.2044 20.1839 48.4413 19.6213 47.8787C19.0587 47.3161 18.2956 47 17.5 47C17.2348 47 16.9804 46.8946 16.7929 46.7071C16.6054 46.5196 16.5 46.2652 16.5 46V42C16.5 41.7348 16.6054 41.4804 16.7929 41.2929C16.9804 41.1054 17.2348 41 17.5 41C17.7652 41 18.0196 41.1054 18.2071 41.2929C18.3946 41.4804 18.5 41.7348 18.5 42V45.1C19.4602 45.2975 20.3414 45.7723 21.0346 46.4654C21.7277 47.1586 22.2025 48.0398 22.4 49H25.5C25.7652 49 26.0196 49.1054 26.2071 49.2929C26.3946 49.4804 26.5 49.7348 26.5 50C26.5 50.2652 26.3946 50.5196 26.2071 50.7071C26.0196 50.8946 25.7652 51 25.5 51ZM25.5 29H22.4C22.2025 29.9602 21.7277 30.8414 21.0346 31.5346C20.3414 32.2277 19.4602 32.7025 18.5 32.9V36C18.5 36.2652 18.3946 36.5196 18.2071 36.7071C18.0196 36.8946 17.7652 37 17.5 37C17.2348 37 16.9804 36.8946 16.7929 36.7071C16.6054 36.5196 16.5 36.2652 16.5 36V32C16.5 31.7348 16.6054 31.4804 16.7929 31.2929C16.9804 31.1054 17.2348 31 17.5 31C18.2956 31 19.0587 30.6839 19.6213 30.1213C20.1839 29.5587 20.5 28.7956 20.5 28C20.5 27.7348 20.6054 27.4804 20.7929 27.2929C20.9804 27.1054 21.2348 27 21.5 27H25.5C25.7652 27 26.0196 27.1054 26.2071 27.2929C26.3946 27.4804 26.5 27.7348 26.5 28C26.5 28.2652 26.3946 28.5196 26.2071 28.7071C26.0196 28.8946 25.7652 29 25.5 29ZM37.5 48C35.72 48 33.9799 47.4722 32.4999 46.4832C31.0198 45.4943 29.8663 44.0887 29.1851 42.4441C28.5039 40.7996 28.3257 38.99 28.6729 37.2442C29.0202 35.4984 29.8774 33.8947 31.136 32.636C32.3947 31.3774 33.9984 30.5202 35.7442 30.1729C37.49 29.8257 39.2996 30.0039 40.9441 30.6851C42.5887 31.3663 43.9943 32.5198 44.9832 33.9999C45.9722 35.4799 46.5 37.22 46.5 39C46.4974 41.3861 45.5483 43.6738 43.861 45.361C42.1738 47.0483 39.8861 47.9974 37.5 48ZM58.5 46C58.5 46.2652 58.3946 46.5196 58.2071 46.7071C58.0196 46.8946 57.7652 47 57.5 47C56.7044 47 55.9413 47.3161 55.3787 47.8787C54.8161 48.4413 54.5 49.2044 54.5 50C54.5 50.2652 54.3946 50.5196 54.2071 50.7071C54.0196 50.8946 53.7652 51 53.5 51H49.5C49.2348 51 48.9804 50.8946 48.7929 50.7071C48.6054 50.5196 48.5 50.2652 48.5 50C48.5 49.7348 48.6054 49.4804 48.7929 49.2929C48.9804 49.1054 49.2348 49 49.5 49H52.6C52.7975 48.0398 53.2723 47.1586 53.9654 46.4654C54.6586 45.7723 55.5398 45.2975 56.5 45.1V42C56.5 41.7348 56.6054 41.4804 56.7929 41.2929C56.9804 41.1054 57.2348 41 57.5 41C57.7652 41 58.0196 41.1054 58.2071 41.2929C58.3946 41.4804 58.5 41.7348 58.5 42V46ZM58.5 36C58.5 36.2652 58.3946 36.5196 58.2071 36.7071C58.0196 36.8946 57.7652 37 57.5 37C57.2348 37 56.9804 36.8946 56.7929 36.7071C56.6054 36.5196 56.5 36.2652 56.5 36V32.9C55.5398 32.7025 54.6586 32.2277 53.9654 31.5346C53.2723 30.8414 52.7975 29.9602 52.6 29H49.5C49.2348 29 48.9804 28.8946 48.7929 28.7071C48.6054 28.5196 48.5 28.2652 48.5 28C48.5 27.7348 48.6054 27.4804 48.7929 27.2929C48.9804 27.1054 49.2348 27 49.5 27H53.5C53.7652 27 54.0196 27.1054 54.2071 27.2929C54.3946 27.4804 54.5 27.7348 54.5 28C54.5 28.7956 54.8161 29.5587 55.3787 30.1213C55.9413 30.6839 56.7044 31 57.5 31C57.7652 31 58.0196 31.1054 58.2071 31.2929C58.3946 31.4804 58.5 31.7348 58.5 32V36Z" fill="#ED954A"/>
<path d="M58.5 57H16.5C16.2348 57 15.9804 57.1054 15.7929 57.2929C15.6054 57.4804 15.5 57.7348 15.5 58C15.5 58.2652 15.6054 58.5196 15.7929 58.7071C15.9804 58.8946 16.2348 59 16.5 59H58.5C58.7652 59 59.0196 58.8946 59.2071 58.7071C59.3946 58.5196 59.5 58.2652 59.5 58C59.5 57.7348 59.3946 57.4804 59.2071 57.2929C59.0196 57.1054 58.7652 57 58.5 57Z" fill="#ED954A"/>
<path d="M55.5 61H19.5C19.2348 61 18.9804 61.1054 18.7929 61.2929C18.6054 61.4804 18.5 61.7348 18.5 62C18.5 62.2652 18.6054 62.5196 18.7929 62.7071C18.9804 62.8946 19.2348 63 19.5 63H55.5C55.7652 63 56.0196 62.8946 56.2071 62.7071C56.3946 62.5196 56.5 62.2652 56.5 62C56.5 61.7348 56.3946 61.4804 56.2071 61.2929C56.0196 61.1054 55.7652 61 55.5 61Z" fill="#ED954A"/>
<path d="M51.452 24.693L46.868 10.478C46.8034 10.2775 46.677 10.1025 46.507 9.978L34.507 1.192C34.3354 1.06686 34.1284 0.999616 33.916 1H19.084C18.8715 0.999906 18.6645 1.06751 18.493 1.193L6.493 9.979C6.323 10.1035 6.19666 10.2785 6.132 10.479L1.548 24.693C1.48402 24.8927 1.48402 25.1073 1.548 25.307L6.132 39.521C6.19628 39.7217 6.3227 39.8968 6.493 40.021L18.493 48.807C18.6645 48.9325 18.8715 49.0001 19.084 49H33.916C34.1285 49.0001 34.3355 48.9325 34.507 48.807L46.507 40.021C46.6773 39.8968 46.8037 39.7217 46.868 39.521L51.452 25.307C51.516 25.1073 51.516 24.8927 51.452 24.693V24.693ZM45.064 38.6L33.589 47H19.411L7.936 38.6L3.551 25L7.936 11.4L19.411 3H33.589L45.064 11.4L49.449 25L45.064 38.6Z" fill="#202020"/>
<path d="M43.1 12.44L33.2 5.193C33.0282 5.0673 32.8209 4.99969 32.608 5H20.392C20.1795 4.99991 19.9725 5.06751 19.801 5.193L9.90001 12.44C9.73 12.5645 9.60366 12.7395 9.53901 12.94L5.75101 24.693C5.68702 24.8927 5.68702 25.1073 5.75101 25.307L9.54101 37.06C9.60566 37.2605 9.732 37.4355 9.90201 37.56L19.802 44.807C19.9735 44.9325 20.1805 45.0001 20.393 45H32.608C32.8205 45.0001 33.0275 44.9325 33.199 44.807L43.099 37.56C43.269 37.4355 43.3954 37.2605 43.46 37.06L47.25 25.307C47.314 25.1073 47.314 24.8927 47.25 24.693L43.46 12.939C43.3954 12.739 43.2695 12.5644 43.1 12.44V12.44ZM41.656 36.14L32.281 43H20.719L11.346 36.138L7.75401 25L11.346 13.862L20.719 7H32.281L41.654 13.862L45.246 25L41.656 36.14Z" fill="#202020"/>
<path d="M28.965 23.938C28.378 23.731 27.857 23.538 27.365 23.348V15.581C28.3011 15.6896 29.1875 16.0605 29.922 16.651C30.1186 16.823 30.3747 16.9113 30.6355 16.8969C30.8964 16.8825 31.1412 16.7667 31.3177 16.5741C31.4942 16.3815 31.5884 16.1275 31.58 15.8664C31.5717 15.6054 31.4615 15.3579 31.273 15.177C30.163 14.2593 28.7999 13.7013 27.365 13.577V11.754C27.365 11.4888 27.2597 11.2344 27.0721 11.0469C26.8846 10.8594 26.6302 10.754 26.365 10.754C26.0998 10.754 25.8454 10.8594 25.6579 11.0469C25.4704 11.2344 25.365 11.4888 25.365 11.754V13.654C25.0318 13.7099 24.7022 13.7857 24.378 13.881C23.4173 14.1849 22.5589 14.7476 21.897 15.5074C21.2351 16.2672 20.7954 17.1947 20.626 18.188C20.428 19.04 20.4677 19.9299 20.7409 20.7608C21.014 21.5918 21.5101 22.3317 22.175 22.9C23.1581 23.6321 24.2316 24.2341 25.369 24.691V34.222C23.9635 34.2243 22.5951 33.771 21.469 32.93C21.3593 32.853 21.2351 32.7989 21.104 32.7708C20.973 32.7428 20.8376 32.7414 20.7059 32.7667C20.5743 32.792 20.4491 32.8435 20.3377 32.9182C20.2264 32.9929 20.1312 33.0892 20.0578 33.2014C19.9845 33.3136 19.9344 33.4394 19.9106 33.5713C19.8869 33.7033 19.8898 33.8386 19.9194 33.9694C19.949 34.1002 20.0046 34.2236 20.0829 34.3325C20.1611 34.4413 20.2605 34.5333 20.375 34.603C21.822 35.6656 23.5728 36.2336 25.368 36.223V38.243C25.368 38.5082 25.4734 38.7626 25.6609 38.9501C25.8484 39.1376 26.1028 39.243 26.368 39.243C26.6332 39.243 26.8876 39.1376 27.0751 38.9501C27.2627 38.7626 27.368 38.5082 27.368 38.243V36.155C28.772 35.9484 30.0736 35.2996 31.0837 34.3028C32.0938 33.306 32.7598 32.0131 32.985 30.612C33.255 29.1997 32.994 27.7375 32.2521 26.5058C31.5102 25.2741 30.3397 24.3597 28.965 23.938V23.938ZM23.409 21.33C23.035 20.986 22.7617 20.5468 22.6183 20.0594C22.4749 19.5719 22.4669 19.0547 22.595 18.563C22.7085 17.8591 23.0355 17.2071 23.5316 16.6951C24.0277 16.1831 24.6691 15.8357 25.369 15.7V22.5C24.6754 22.1818 24.0182 21.7895 23.409 21.33V21.33ZM31.015 30.28C30.8637 31.2132 30.435 32.0793 29.7847 32.7656C29.1345 33.4519 28.2927 33.9266 27.369 34.128V25.487C27.669 25.597 27.969 25.709 28.299 25.824C29.2264 26.0935 30.0193 26.7002 30.522 27.5248C31.0246 28.3494 31.2005 29.3323 31.015 30.28V30.28Z" fill="#202020"/>
</svg>
