<svg width="500" height="400" viewBox="0 0 500 400" fill="none" xmlns="http://www.w3.org/2000/svg">
<path d="M296.424 273.319L80.0212 301.354V306.491L296.424 278.457V273.319Z" fill="#3C3C3B"/>
<path d="M295.784 279.368L165.52 354.592C165.041 354.831 164.514 354.955 163.979 354.955C163.444 354.955 162.916 354.831 162.437 354.592L80.661 307.383C79.808 306.879 79.808 306.084 80.661 305.6L210.867 230.415C211.346 230.176 211.874 230.052 212.409 230.052C212.944 230.052 213.471 230.176 213.95 230.415L295.784 277.585C296.637 278.089 296.637 278.884 295.784 279.368Z" fill="#3C3C3B"/>
<path d="M295.784 274.231L165.52 349.454C165.041 349.693 164.514 349.817 163.979 349.817C163.444 349.817 162.916 349.693 162.437 349.454L80.661 302.246C79.808 301.761 79.808 300.966 80.661 300.462L210.867 225.258C211.343 225.01 211.872 224.88 212.409 224.88C212.945 224.88 213.474 225.01 213.95 225.258L295.784 272.466C295.969 272.529 296.13 272.647 296.244 272.805C296.357 272.964 296.419 273.154 296.419 273.349C296.419 273.544 296.357 273.734 296.244 273.892C296.13 274.05 295.969 274.169 295.784 274.231V274.231Z" fill="#878787"/>
<path d="M192.779 241.427L190.452 242.765L183.686 246.681L181.36 248.019L174.613 251.916L172.286 253.254L165.52 257.17L163.194 258.508L156.427 262.404L154.12 263.742L147.354 267.658L145.027 268.996L138.261 272.893L135.954 274.25L129.188 278.147L126.861 279.485L120.095 283.401L117.788 284.739L111.022 288.636L108.695 289.973L101.929 293.87L99.622 295.227L90.5293 300.462L99.3312 305.542L101.638 306.879L108.114 310.621L110.44 311.959L116.916 315.701L119.223 317.038L125.698 320.78L128.025 322.118L134.5 325.84L136.827 327.197L145.609 332.258L154.702 327.023L157.009 325.685L172.868 316.534L175.175 315.197L227.366 285.068L229.693 283.731L236.459 279.814L238.766 278.477L245.532 274.58L247.859 273.242L254.625 269.326L256.932 267.988L266.025 262.753L257.223 257.674L254.916 256.336L248.44 252.594L246.114 251.257L230.856 242.435L228.529 241.098L222.054 237.356L219.727 236.018L210.945 230.939L192.779 241.427Z" fill="#3C3C3B"/>
<path d="M101.929 295.887L94.0188 300.462L101.638 304.863L109.568 300.307L101.929 295.887Z" fill="#706F6F"/>
<path d="M111.022 290.652L103.092 295.227L110.731 299.628L118.66 295.053L111.022 290.652Z" fill="#DADADA"/>
<path d="M119.804 294.374L127.734 289.799L120.095 285.398L112.166 289.973L119.804 294.374Z" fill="#DADADA"/>
<path d="M129.188 280.163L121.258 284.739L128.897 289.14L136.826 284.564L129.188 280.163Z" fill="#DADADA"/>
<path d="M138.261 274.909L130.351 279.485L137.971 283.885L145.9 279.31L138.261 274.909Z" fill="#DADADA"/>
<path d="M147.354 269.675L139.425 274.25L147.063 278.651L154.993 274.076L147.354 269.675Z" fill="#DADADA"/>
<path d="M156.427 264.421L148.517 268.996L156.136 273.397L164.066 268.822L156.427 264.421Z" fill="#DADADA"/>
<path d="M165.52 259.167L157.59 263.742L165.229 268.162L173.158 263.587L165.52 259.167Z" fill="#DADADA"/>
<path d="M174.322 262.908L182.232 258.333L174.613 253.932L166.683 258.507L174.322 262.908Z" fill="#DADADA"/>
<path d="M183.395 257.674L191.325 253.098L183.686 248.678L175.757 253.254L183.395 257.674Z" fill="#DADADA"/>
<path d="M192.488 252.42L200.398 247.844L192.779 243.443L184.849 248.019L192.488 252.42Z" fill="#DADADA"/>
<path d="M193.942 242.765L201.561 247.185L218.564 237.356L210.945 232.955L193.942 242.765Z" fill="#706F6F"/>
<path d="M110.731 300.966L102.801 305.542L110.44 309.942L118.369 305.367L110.731 300.966Z" fill="#DADADA"/>
<path d="M119.804 295.712L111.894 300.307L119.514 304.708L127.443 300.132L119.804 295.712Z" fill="#DADADA"/>
<path d="M128.606 299.454L136.536 294.878L128.897 290.477L120.968 295.053L128.606 299.454Z" fill="#DADADA"/>
<path d="M137.97 285.223L130.06 289.799L137.699 294.219L145.609 289.644L137.97 285.223Z" fill="#DADADA"/>
<path d="M147.063 279.989L139.133 284.564L146.772 288.965L154.701 284.39L147.063 279.989Z" fill="#DADADA"/>
<path d="M156.136 274.735L148.226 279.31L155.865 283.731L163.775 279.155L156.136 274.735Z" fill="#DADADA"/>
<path d="M165.229 269.5L157.3 274.076L164.938 278.477L172.868 273.901L165.229 269.5Z" fill="#DADADA"/>
<path d="M174.322 264.246L166.392 268.821L174.031 273.242L181.941 268.666L174.322 264.246Z" fill="#DADADA"/>
<path d="M183.104 267.988L191.034 263.412L183.395 259.011L175.466 263.587L183.104 267.988Z" fill="#DADADA"/>
<path d="M192.198 262.753L200.108 258.178L192.488 253.758L184.559 258.333L192.198 262.753Z" fill="#DADADA"/>
<path d="M201.271 257.499L209.2 252.924L201.562 248.523L193.632 253.098L201.271 257.499Z" fill="#DADADA"/>
<path d="M210.654 243.269L202.724 247.844L210.363 252.265L218.293 247.689L210.654 243.269Z" fill="#DADADA"/>
<path d="M219.436 247.01L227.366 242.435L219.727 238.034L211.817 242.609L219.436 247.01Z" fill="#DADADA"/>
<path d="M119.514 306.045L111.604 310.621L119.223 315.022L127.152 310.446L119.514 306.045Z" fill="#DADADA"/>
<path d="M128.606 300.792L120.676 305.367L128.315 309.787L136.244 305.212L128.606 300.792Z" fill="#DADADA"/>
<path d="M137.389 304.533L145.318 299.958L137.699 295.557L129.77 300.132L137.389 304.533Z" fill="#DADADA"/>
<path d="M146.772 290.303L138.843 294.878L146.482 299.299L154.411 294.723L146.772 290.303Z" fill="#DADADA"/>
<path d="M155.865 285.068L147.936 289.644L155.574 294.045L163.484 289.469L155.865 285.068Z" fill="#DADADA"/>
<path d="M164.938 279.814L157.009 284.39L164.647 288.81L172.577 284.235L164.938 279.814Z" fill="#DADADA"/>
<path d="M174.031 274.58L166.102 279.155L173.74 283.556L181.65 278.981L174.031 274.58Z" fill="#DADADA"/>
<path d="M183.104 269.326L175.175 273.901L182.813 278.321L190.743 273.746L183.104 269.326Z" fill="#DADADA"/>
<path d="M191.906 273.067L199.836 268.492L192.197 264.091L184.268 268.667L191.906 273.067Z" fill="#DADADA"/>
<path d="M200.98 267.833L208.909 263.258L201.271 258.837L193.361 263.413L200.98 267.833Z" fill="#DADADA"/>
<path d="M210.073 262.579L218.002 258.003L210.364 253.602L202.434 258.178L210.073 262.579Z" fill="#DADADA"/>
<path d="M219.437 248.348L211.527 252.924L219.146 257.344L227.075 252.769L219.437 248.348Z" fill="#DADADA"/>
<path d="M229.402 252.749L220.309 258.003L227.948 262.404L244.951 252.594L228.53 243.114L220.561 247.689L229.402 252.749Z" fill="#706F6F"/>
<path d="M137.389 305.871L120.386 315.701L128.024 320.102L145.027 310.292L137.389 305.871Z" fill="#706F6F"/>
<path d="M146.191 309.613L154.12 305.037L146.481 300.636L138.552 305.212L146.191 309.613Z" fill="#DADADA"/>
<path d="M155.574 295.382L147.645 299.958L155.283 304.359L163.194 299.803L155.574 295.382Z" fill="#DADADA"/>
<path d="M164.647 290.148L156.718 294.723L164.357 299.124L172.286 294.549L164.647 290.148Z" fill="#DADADA"/>
<path d="M173.74 284.894L165.811 289.469L173.449 293.87L181.36 289.314L173.74 284.894Z" fill="#DADADA"/>
<path d="M182.814 279.659L174.884 284.234L182.523 288.635L190.452 284.06L182.814 279.659Z" fill="#DADADA"/>
<path d="M191.906 274.405L183.977 278.98L191.615 283.401L199.545 278.825L191.906 274.405Z" fill="#DADADA"/>
<path d="M200.688 278.147L208.618 273.571L200.979 269.17L193.069 273.746L200.688 278.147Z" fill="#DADADA"/>
<path d="M209.781 272.893L217.711 268.318L210.072 263.917L202.143 268.492L209.781 272.893Z" fill="#DADADA"/>
<path d="M218.874 267.658L226.784 263.083L219.146 258.682L211.236 263.257L218.874 267.658Z" fill="#DADADA"/>
<path d="M149.002 318.143L153.829 315.352L146.191 310.951L129.188 320.78L136.827 325.181L145.9 319.927L149.002 318.143Z" fill="#706F6F"/>
<path d="M154.992 314.692L162.903 310.117L155.283 305.716L147.354 310.291L154.992 314.692Z" fill="#DADADA"/>
<path d="M164.357 300.462L156.427 305.037L164.066 309.438L171.996 304.863L164.357 300.462Z" fill="#DADADA"/>
<path d="M173.449 295.227L165.52 299.803L173.158 304.204L181.088 299.628L173.449 295.227Z" fill="#DADADA"/>
<path d="M182.522 289.973L174.612 294.549L182.232 298.95L190.161 294.374L182.522 289.973Z" fill="#DADADA"/>
<path d="M191.615 284.739L183.686 289.314L191.324 293.715L199.254 289.14L191.615 284.739Z" fill="#DADADA"/>
<path d="M200.689 279.484L192.779 284.06L200.398 288.461L208.328 283.885L200.689 279.484Z" fill="#DADADA"/>
<path d="M209.491 283.227L217.42 278.651L209.782 274.25L201.852 278.826L209.491 283.227Z" fill="#DADADA"/>
<path d="M218.564 277.972L226.494 273.397L218.874 268.996L210.945 273.571L218.564 277.972Z" fill="#DADADA"/>
<path d="M227.657 272.738L235.586 268.162L227.948 263.742L220.018 268.318L227.657 272.738Z" fill="#DADADA"/>
<path d="M236.749 267.484L253.752 257.674L246.114 253.254L229.111 263.083L236.749 267.484Z" fill="#706F6F"/>
<path d="M145.609 330.26L153.539 325.685L145.9 321.284L137.97 325.84L145.609 330.26Z" fill="#DADADA"/>
<path d="M156.136 315.352L147.063 320.606L154.702 325.007L163.775 319.772L166.683 318.085L171.704 315.196L164.066 310.776L159.044 313.684L156.136 315.352Z" fill="#DADADA"/>
<path d="M172.868 314.518L226.203 283.731L218.622 279.31L165.229 310.117L172.868 314.518Z" fill="#706F6F"/>
<path d="M227.366 283.052L235.295 278.477L227.657 274.076L219.727 278.651L227.366 283.052Z" fill="#DADADA"/>
<path d="M236.458 277.817L244.369 273.242L236.749 268.821L228.82 273.397L236.458 277.817Z" fill="#DADADA"/>
<path d="M245.532 272.563L253.462 267.988L245.823 263.587L237.894 268.162L245.532 272.563Z" fill="#DADADA"/>
<path d="M254.625 267.329L262.554 262.753L254.916 258.333L246.986 262.908L254.625 267.329Z" fill="#DADADA"/>
<path d="M233.338 296.992L224.148 291.699C223.672 291.451 223.143 291.321 222.607 291.321C222.07 291.321 221.541 291.451 221.065 291.699L195.745 306.317C194.892 306.802 194.892 307.597 195.745 308.101L204.916 313.393L233.338 296.992Z" fill="#706F6F"/>
<path d="M205.69 313.781L209.258 315.836C209.734 316.084 210.262 316.214 210.799 316.214C211.336 316.214 211.864 316.084 212.34 315.836L224.574 308.779L219.456 305.832L205.69 313.781Z" fill="#DADADA"/>
<path d="M220.328 305.386L225.447 308.333L237.68 301.276C237.863 301.209 238.02 301.088 238.132 300.928C238.243 300.769 238.303 300.579 238.303 300.384C238.303 300.19 238.243 300 238.132 299.84C238.02 299.681 237.863 299.559 237.68 299.492L234.132 297.437L220.328 305.386Z" fill="#DADADA"/>
<path d="M183.512 116.669L181.786 116.029C181.377 115.95 180.953 116.034 180.603 116.262L48.8461 192.396C48.0125 192.861 47.7992 194.044 48.187 195.517L74.5927 296.856C75.2325 299.279 78.4702 301.431 80.5447 300.733L81.3396 300.249L61.099 214.44L186.458 141.969L184.869 133.167L207.513 220.043C207.727 221.007 208.182 221.901 208.837 222.64C209.492 223.38 210.324 223.94 211.255 224.269L212.011 222.951L183.512 116.669Z" fill="#3C3C3B"/>
<path d="M184.636 117.968L212.011 222.951C212.126 223.388 212.093 223.852 211.918 224.269C211.743 224.686 211.435 225.034 211.042 225.258L80.5447 300.675C80.4202 300.745 80.2813 300.785 80.1388 300.793C79.9963 300.801 79.8539 300.775 79.7227 300.719C79.5915 300.663 79.475 300.577 79.3822 300.469C79.2894 300.36 79.2228 300.232 79.1875 300.094L51.541 194.064C51.4378 193.601 51.4835 193.117 51.6715 192.682C51.8595 192.247 52.1803 191.882 52.5879 191.64L181.902 116.824C182.153 116.695 182.43 116.623 182.712 116.612C182.994 116.601 183.275 116.652 183.535 116.761C183.795 116.87 184.029 117.034 184.219 117.243C184.409 117.451 184.551 117.698 184.636 117.968Z" fill="#3C3C3B"/>
<path d="M206.195 221.846L82.9098 293.153L82.5608 291.854L57.3184 195.013L179.537 124.346L180.603 123.726L206.195 221.846Z" fill="white"/>
<path d="M204.779 221.167L82.5608 291.854L57.3184 195.013L179.537 124.346L204.779 221.167Z" fill="#7F8C8D"/>
<path d="M72.8479 195.285L69.6877 197.107L70.2888 199.453L73.4489 197.631L72.8479 195.285Z" fill="white"/>
<path d="M76.8418 192.978L77.4428 195.324L154.043 151.198L153.442 148.833L76.8418 192.978Z" fill="white"/>
<path d="M74.3796 201.295L71.2195 203.117L71.8205 205.463L74.9807 203.641L74.3796 201.295Z" fill="white"/>
<path d="M78.3735 198.988L78.9745 201.334L138.746 166.882L138.145 164.536L78.3735 198.988Z" fill="white"/>
<path d="M75.9111 207.286L72.751 209.127L73.352 211.473L76.5315 209.632L75.9111 207.286Z" fill="white"/>
<path d="M79.9053 204.998L80.5063 207.344L157.106 163.199L156.505 160.853L79.9053 204.998Z" fill="white"/>
<path d="M81.4558 211.008L82.0374 213.354L109.955 197.262L109.354 194.916L81.4558 211.008Z" fill="white"/>
<path d="M77.4618 213.296L74.2822 215.118L74.8832 217.484L78.0628 215.642L77.4618 213.296Z" fill="white"/>
<path d="M78.9937 219.306L75.8335 221.128L76.4345 223.474L79.5947 221.652L78.9937 219.306Z" fill="white"/>
<path d="M82.9875 216.999L83.5886 219.364L112.553 202.652L111.952 200.306L82.9875 216.999Z" fill="white"/>
<path d="M82.076 231.326L78.8965 233.149L79.4975 235.494L82.677 233.672L82.076 231.326Z" fill="white"/>
<path d="M86.0508 229.019L86.6518 231.365L155.923 191.446L155.322 189.1L86.0508 229.019Z" fill="white"/>
<path d="M83.6074 237.317L80.4473 239.158L81.0483 241.504L84.2084 239.682L83.6074 237.317Z" fill="white"/>
<path d="M87.5825 235.029L88.2029 237.375L152.918 200.074L152.317 197.728L87.5825 235.029Z" fill="white"/>
<path d="M85.1394 243.327L81.9792 245.149L82.5803 247.495L85.7404 245.673L85.1394 243.327Z" fill="white"/>
<path d="M89.1335 241.039L89.7346 243.385L166.334 199.24L165.733 196.894L89.1335 241.039Z" fill="white"/>
<path d="M90.6648 247.03L91.2658 249.395L167.866 205.25L167.265 202.904L90.6648 247.03Z" fill="white"/>
<path d="M86.6709 249.337L83.5107 251.16L84.1118 253.506L87.2719 251.683L86.6709 249.337Z" fill="white"/>
<path d="M88.2223 255.347L85.0427 257.17L85.6437 259.516L88.8233 257.693L88.2223 255.347Z" fill="white"/>
<path d="M92.1963 253.04L92.7973 255.405L139.793 228.321L139.172 225.975L92.1963 253.04Z" fill="white"/>
<path d="M95.2793 265.06L95.8803 267.406L159.471 230.764L158.87 228.418L95.2793 265.06Z" fill="white"/>
<path d="M91.2854 267.348L88.1252 269.19L88.7263 271.536L91.8864 269.713L91.2854 267.348Z" fill="white"/>
<path d="M92.8167 273.358L89.6565 275.181L90.2575 277.546L93.4177 275.704L92.8167 273.358Z" fill="white"/>
<path d="M96.8113 271.071L97.4123 273.416L141.751 247.864L141.15 245.518L96.8113 271.071Z" fill="white"/>
<path d="M231.748 369.132L221.376 363.103C198.111 349.532 191.771 317.213 192.295 266.301L202.667 272.331C202.143 323.242 208.425 355.58 231.748 369.132Z" fill="#B88325"/>
<path d="M202.744 272.331L192.372 266.301C236.827 251.916 273.121 231.694 299.546 204.436L309.918 210.465C282 239.256 245.571 259.128 202.744 272.331Z" fill="#E89852"/>
<path d="M309.918 210.465C311.062 275.084 300.612 322.04 256.719 376.189C212.651 372.835 201.969 338.073 202.744 272.331C246.56 257.855 282.284 237.233 309.918 210.465Z" fill="#ED954A"/>
<path d="M297.413 234.952C296.676 288.946 285.276 321.265 256.699 359.031C247.952 357.937 239.793 354.047 233.434 347.942C221.414 336.077 215.986 314.44 215.385 279.174C248.343 268.686 274.536 254.96 294.66 237.394C295.552 236.638 296.502 235.805 297.413 234.952Z" fill="#B88325"/>
<path d="M294.602 237.433C293.225 288.481 281.69 319.985 253.888 356.628C246.388 355.613 239.29 352.629 233.318 347.981C221.298 336.116 215.869 314.479 215.268 279.213C248.188 268.725 274.477 254.998 294.602 237.433Z" fill="#E89852"/>
<path opacity="0.4" d="M292.508 241.776C287.714 245.72 282.712 249.402 277.522 252.807C269.573 279.678 251.756 310.718 231.438 342.804C232.415 344.088 233.477 345.306 234.617 346.449C237.618 348.883 240.997 350.808 244.621 352.149C264.183 322.311 280.662 292.455 290.938 262.598C291.694 256.006 292.295 249.124 292.508 241.776Z" fill="white"/>
<path d="M209.51 301.703C211.216 300.733 212.573 301.528 212.573 303.447C212.521 304.502 212.218 305.529 211.688 306.443C211.159 307.357 210.419 308.131 209.529 308.701C207.862 309.671 206.486 308.895 206.486 306.957C206.545 305.906 206.849 304.883 207.374 303.971C207.9 303.058 208.631 302.282 209.51 301.703V301.703Z" fill="#F2B580"/>
<path d="M214.066 326.364C215.733 325.394 217.11 326.15 217.129 328.089C217.069 329.142 216.762 330.166 216.234 331.079C215.705 331.992 214.969 332.767 214.085 333.343C212.399 334.332 211.042 333.537 211.042 331.618C211.088 330.564 211.388 329.537 211.914 328.622C212.44 327.708 213.178 326.933 214.066 326.364V326.364Z" fill="#F2B580"/>
<path d="M237.195 358.12C238.882 357.151 240.259 357.927 240.259 359.865C240.2 360.919 239.894 361.944 239.365 362.856C238.836 363.769 238.1 364.545 237.215 365.119C235.528 366.108 234.171 365.313 234.171 363.374C234.226 362.322 234.528 361.298 235.054 360.385C235.579 359.472 236.313 358.696 237.195 358.12V358.12Z" fill="#F2B580"/>
<path d="M223.139 345.499C224.807 344.53 226.183 345.286 226.202 347.244C226.148 348.306 225.845 349.341 225.316 350.264C224.787 351.187 224.048 351.972 223.159 352.556C221.472 353.526 220.115 352.731 220.115 350.811C220.154 349.748 220.45 348.709 220.976 347.785C221.503 346.86 222.245 346.076 223.139 345.499Z" fill="#F2B580"/>
<path d="M256.68 363.258C258.347 362.288 259.724 363.045 259.743 365.003C259.685 366.056 259.379 367.081 258.85 367.994C258.321 368.907 257.584 369.682 256.699 370.257C255.013 371.226 253.656 370.431 253.656 368.512C253.704 367.458 254.004 366.432 254.53 365.518C255.056 364.604 255.793 363.829 256.68 363.258V363.258Z" fill="#F2B580"/>
<path d="M209.083 273.436C210.75 272.466 212.127 273.222 212.127 275.181C212.072 276.233 211.77 277.257 211.244 278.17C210.719 279.083 209.985 279.859 209.103 280.435C207.416 281.404 206.039 280.609 206.039 278.69C206.092 277.635 206.395 276.608 206.924 275.694C207.454 274.78 208.194 274.006 209.083 273.436V273.436Z" fill="#F2B580"/>
<path d="M232.698 263.723C234.404 262.753 235.761 263.529 235.761 265.468C235.705 266.522 235.401 267.548 234.871 268.461C234.342 269.375 233.604 270.149 232.717 270.722C231.05 271.691 229.673 270.916 229.673 268.996C229.728 267.941 230.03 266.914 230.556 265.998C231.081 265.082 231.815 264.303 232.698 263.723V263.723Z" fill="#F2B580"/>
<path d="M256.35 252.245C258.017 251.276 259.394 252.032 259.413 253.971C259.353 255.024 259.047 256.048 258.518 256.961C257.989 257.874 257.253 258.649 256.369 259.225C254.683 260.214 253.326 259.419 253.306 257.499C253.36 256.445 253.664 255.418 254.193 254.505C254.723 253.591 255.462 252.817 256.35 252.245V252.245Z" fill="#F2B580"/>
<path d="M279.984 237.976C281.67 237.007 283.027 237.782 283.027 239.721C282.973 240.773 282.67 241.797 282.145 242.71C281.619 243.623 280.885 244.399 280.003 244.975C278.316 245.944 276.94 245.149 276.94 243.23C276.997 242.176 277.302 241.151 277.831 240.238C278.36 239.324 279.098 238.549 279.984 237.976Z" fill="#F2B580"/>
<path d="M303.597 221.109C305.284 220.14 306.66 220.896 306.68 222.834C306.619 223.892 306.31 224.921 305.778 225.837C305.246 226.753 304.505 227.531 303.617 228.108C301.949 229.077 300.573 228.302 300.573 226.363C300.626 225.311 300.928 224.286 301.453 223.372C301.979 222.459 302.714 221.684 303.597 221.109Z" fill="#F2B580"/>
<path d="M303.326 247.534C305.013 246.565 306.37 247.36 306.389 249.279C306.336 250.334 306.031 251.36 305.502 252.274C304.973 253.188 304.234 253.962 303.346 254.533C301.678 255.503 300.302 254.746 300.302 252.808C300.354 251.752 300.655 250.724 301.18 249.808C301.706 248.891 302.441 248.112 303.326 247.534V247.534Z" fill="#F2B580"/>
<path d="M298.945 277.352C300.632 276.383 302.008 277.139 302.008 279.097C301.95 280.15 301.644 281.175 301.115 282.088C300.586 283.001 299.849 283.776 298.964 284.351C297.278 285.32 295.92 284.525 295.92 282.606C295.969 281.553 296.269 280.526 296.795 279.612C297.321 278.698 298.058 277.923 298.945 277.352V277.352Z" fill="#F2B580"/>
<path d="M290.007 306.879C291.694 305.929 293.07 306.685 293.07 308.624C293.013 309.678 292.708 310.703 292.179 311.616C291.65 312.529 290.912 313.304 290.026 313.878C288.34 314.867 286.982 314.072 286.982 312.153C287.034 311.097 287.335 310.069 287.861 309.152C288.387 308.236 289.122 307.457 290.007 306.879V306.879Z" fill="#F2B580"/>
<path d="M276.067 335.689C277.754 334.72 279.131 335.476 279.131 337.434C279.072 338.487 278.766 339.512 278.237 340.425C277.708 341.338 276.972 342.113 276.087 342.688C274.4 343.657 273.043 342.862 273.043 340.943C273.091 339.889 273.391 338.863 273.917 337.949C274.444 337.035 275.181 336.26 276.067 335.689V335.689Z" fill="#F2B580"/>
</svg>
