<svg width="64" height="64" viewBox="0 0 64 64" fill="none" xmlns="http://www.w3.org/2000/svg">
<path d="M39.322 57H15.322C14.2175 57 13.322 57.8954 13.322 59V61C13.322 62.1046 14.2175 63 15.322 63H39.322C40.4266 63 41.322 62.1046 41.322 61V59C41.322 57.8954 40.4266 57 39.322 57Z" fill="#ED954A"/>
<path d="M30.322 21C32.5312 21 34.322 19.2091 34.322 17C34.322 14.7909 32.5312 13 30.322 13C28.1129 13 26.322 14.7909 26.322 17C26.322 19.2091 28.1129 21 30.322 21Z" fill="#ED954A"/>
<path d="M62.707 26.172L60.586 24.05L39.372 45.264L41.493 47.385C41.6805 47.5725 41.9348 47.6778 42.2 47.6778C42.4652 47.6778 42.7195 47.5725 42.907 47.385L62.707 27.585C62.8942 27.3975 62.9993 27.1434 62.9993 26.8785C62.9993 26.6136 62.8942 26.3595 62.707 26.172V26.172Z" fill="#ED954A"/>
<path d="M22.322 42C24.5312 42 26.322 40.2091 26.322 38C26.322 35.7909 24.5312 34 22.322 34C20.1129 34 18.322 35.7909 18.322 38C18.322 40.2091 20.1129 42 22.322 42Z" fill="#ED954A"/>
<path d="M22.7 43.981L30.05 55H37.261L27.7 40.653C27.2325 41.5982 26.5242 42.4034 25.6464 42.9877C24.7686 43.5719 23.7524 43.9146 22.7 43.981V43.981Z" fill="#ED954A"/>
<path d="M36.709 25.768C34.9331 28.5069 34.0979 31.7497 34.3298 35.0057C34.5617 38.2616 35.848 41.3534 37.994 43.813L59.136 22.672C56.6554 20.5077 53.5326 19.2181 50.2477 19.0013C46.9627 18.7845 43.6975 19.6525 40.954 21.472L36.26 17.822C36.1153 18.865 35.699 19.8517 35.053 20.6832C34.407 21.5147 33.5538 22.1619 32.579 22.56L36.709 25.768Z" fill="#ED954A"/>
<path d="M26.974 34.217L31.279 22.917C30.2388 23.0944 29.1701 22.9901 28.1837 22.6151C27.1974 22.24 26.3295 21.6077 25.67 20.784L21.37 32.084C21.6845 32.0303 22.0029 32.0023 22.322 32C23.2135 32.0001 24.0938 32.1992 24.8985 32.5828C25.7033 32.9663 26.4124 33.5246 26.974 34.217V34.217Z" fill="#ED954A"/>
<path d="M36 17H32V7.142C32.8561 7.36305 33.6149 7.86155 34.1577 8.55957C34.7005 9.25759 34.9967 10.1158 35 11C35 11.2652 35.1054 11.5196 35.2929 11.7071C35.4804 11.8946 35.7348 12 36 12C36.2652 12 36.5196 11.8946 36.7071 11.7071C36.8946 11.5196 37 11.2652 37 11C36.9984 9.40919 36.3658 7.88399 35.2409 6.75911C34.116 5.63424 32.5908 5.00159 31 5H28V2C28 1.73478 27.8946 1.48043 27.7071 1.29289C27.5196 1.10536 27.2652 1 27 1C26.7348 1 26.4804 1.10536 26.2929 1.29289C26.1054 1.48043 26 1.73478 26 2V5H23C22.7348 5 22.4804 5.10536 22.2929 5.29289C22.1054 5.48043 22 5.73478 22 6V17H18V10C17.988 9.84652 17.9526 9.69578 17.895 9.553L13.895 1.553C13.8026 1.39802 13.6715 1.2697 13.5147 1.18058C13.3578 1.09146 13.1804 1.04461 13 1.04461C12.8196 1.04461 12.6422 1.09146 12.4853 1.18058C12.3285 1.2697 12.1974 1.39802 12.105 1.553L8.105 9.553C8.04717 9.6957 8.01176 9.84648 8 10V17H4C3.20435 17 2.44129 17.3161 1.87868 17.8787C1.31607 18.4413 1 19.2044 1 20V25C1 25.5304 1.21071 26.0391 1.58579 26.4142C1.96086 26.7893 2.46957 27 3 27H3.153L6.82 49H5C4.73478 49 4.48043 49.1054 4.29289 49.2929C4.10536 49.4804 4 49.7348 4 50C4 50.2652 4.10536 50.5196 4.29289 50.7071C4.48043 50.8946 4.73478 51 5 51H35C35.2652 51 35.5196 50.8946 35.7071 50.7071C35.8946 50.5196 36 50.2652 36 50C36 49.7348 35.8946 49.4804 35.7071 49.2929C35.5196 49.1054 35.2652 49 35 49H33.18L36.847 27H37C37.5304 27 38.0391 26.7893 38.4142 26.4142C38.7893 26.0391 39 25.5304 39 25V20C39 19.2044 38.6839 18.4413 38.1213 17.8787C37.5587 17.3161 36.7956 17 36 17ZM24 7H30V17H24V7ZM13 4.236L15.382 9H10.618L13 4.236ZM10 11H16V17H10V11ZM31.153 49H8.847L5.181 27H34.819L31.153 49ZM3 25V20C3 19.7348 3.10536 19.4804 3.29289 19.2929C3.48043 19.1054 3.73478 19 4 19H36C36.2652 19 36.5196 19.1054 36.7071 19.2929C36.8946 19.4804 37 19.7348 37 20V25H3Z" fill="#202020"/>
<path d="M16 43C16.2652 43 16.5196 42.8946 16.7071 42.7071C16.8946 42.5196 17 42.2652 17 42V34C17 33.7348 16.8946 33.4804 16.7071 33.2929C16.5196 33.1054 16.2652 33 16 33C15.7348 33 15.4804 33.1054 15.2929 33.2929C15.1054 33.4804 15 33.7348 15 34V42C15 42.2652 15.1054 42.5196 15.2929 42.7071C15.4804 42.8946 15.7348 43 16 43Z" fill="#202020"/>
<path d="M24 43C24.2652 43 24.5196 42.8946 24.7071 42.7071C24.8946 42.5196 25 42.2652 25 42V34C25 33.7348 24.8946 33.4804 24.7071 33.2929C24.5196 33.1054 24.2652 33 24 33C23.7348 33 23.4804 33.1054 23.2929 33.2929C23.1054 33.4804 23 33.7348 23 34V42C23 42.2652 23.1054 42.5196 23.2929 42.7071C23.4804 42.8946 23.7348 43 24 43Z" fill="#202020"/>
</svg>
