<svg width="64" height="64" viewBox="0 0 64 64" fill="none" xmlns="http://www.w3.org/2000/svg">
<path d="M32.121 60.121C31.8432 60.4006 31.5127 60.6222 31.1486 60.7731C30.7845 60.924 30.3941 61.0011 30 61H18C17.2044 61 16.4413 60.6839 15.8787 60.1213C15.3161 59.5587 15 58.7956 15 58V46C14.9989 45.6059 15.076 45.2155 15.2269 44.8514C15.3778 44.4873 15.5994 44.1568 15.879 43.879L42.758 17H18C16.6744 17.0016 15.4036 17.5289 14.4662 18.4662C13.5289 19.4036 13.0016 20.6744 13 22V58C13.0016 59.3256 13.5289 60.5964 14.4662 61.5338C15.4036 62.4711 16.6744 62.9984 18 63H54C55.3256 62.9984 56.5964 62.4711 57.5338 61.5338C58.4711 60.5964 58.9984 59.3256 59 58V33.243L32.121 60.121Z" fill="#ED954A"/>
<path d="M17 48.414V58C17 58.2652 17.1054 58.5196 17.2929 58.7071C17.4804 58.8946 17.7348 59 18 59H27.586L17 48.414Z" fill="#ED954A"/>
<path d="M60.405 28.991C62.1447 27.2064 63.1113 24.8082 63.0954 22.316C63.0796 19.8238 62.0825 17.4381 60.3202 15.6758C58.5579 13.9135 56.1722 12.9164 53.68 12.9006C51.1878 12.8847 48.7896 13.8513 47.005 15.591L60.405 28.991Z" fill="#ED954A"/>
<path d="M45.586 17L17.293 45.293C17.1928 45.3958 17.1163 45.5194 17.069 45.655L30.345 58.931C30.4806 58.8837 30.6042 58.8072 30.707 58.707L59 30.414L45.586 17ZM27.57 49.845C27.4771 49.9378 27.3668 50.0115 27.2454 50.0617C27.1241 50.1119 26.994 50.1377 26.8626 50.1377C26.7313 50.1377 26.6012 50.1117 26.4799 50.0614C26.3586 50.0111 26.2483 49.9374 26.1555 49.8445C26.0627 49.7516 25.989 49.6413 25.9388 49.5199C25.8886 49.3986 25.8628 49.2685 25.8628 49.1371C25.8628 49.0058 25.8888 48.8757 25.9391 48.7544C25.9894 48.6331 26.0631 48.5228 26.156 48.43L48.5 26.087C48.5913 25.9878 48.7017 25.9081 48.8246 25.8527C48.9475 25.7972 49.0803 25.7672 49.2151 25.7644C49.3499 25.7616 49.4838 25.7861 49.6089 25.8364C49.734 25.8867 49.8476 25.9618 49.9429 26.0571C50.0382 26.1524 50.1133 26.266 50.1636 26.3911C50.2139 26.5162 50.2384 26.6501 50.2356 26.7849C50.2328 26.9197 50.2028 27.0525 50.1473 27.1754C50.0919 27.2983 50.0122 27.4087 49.913 27.5L27.57 49.845Z" fill="#ED954A"/>
<path d="M44 1H6C4.6744 1.00159 3.40356 1.52888 2.46622 2.46622C1.52888 3.40356 1.00159 4.6744 1 6V44C1.00159 45.3256 1.52888 46.5964 2.46622 47.5338C3.40356 48.4711 4.6744 48.9984 6 49H44C45.3256 48.9984 46.5964 48.4711 47.5338 47.5338C48.4711 46.5964 48.9984 45.3256 49 44V6C48.9984 4.6744 48.4711 3.40356 47.5338 2.46622C46.5964 1.52888 45.3256 1.00159 44 1V1ZM47 44C47 44.7956 46.6839 45.5587 46.1213 46.1213C45.5587 46.6839 44.7956 47 44 47H6C5.20435 47 4.44129 46.6839 3.87868 46.1213C3.31607 45.5587 3 44.7956 3 44V6C3 5.20435 3.31607 4.44129 3.87868 3.87868C4.44129 3.31607 5.20435 3 6 3H44C44.7956 3 45.5587 3.31607 46.1213 3.87868C46.6839 4.44129 47 5.20435 47 6V44Z" fill="#202020"/>
<path d="M41.707 28.293C41.5195 28.1055 41.2652 28.0002 41 28.0002C40.7348 28.0002 40.4805 28.1055 40.293 28.293L35 33.586L29.707 28.293C29.5184 28.1108 29.2658 28.01 29.0036 28.0123C28.7414 28.0146 28.4906 28.1198 28.3052 28.3052C28.1198 28.4906 28.0146 28.7414 28.0123 29.0036C28.0101 29.2658 28.1109 29.5184 28.293 29.707L33.586 35L28.293 40.293C28.1109 40.4816 28.0101 40.7342 28.0123 40.9964C28.0146 41.2586 28.1198 41.5094 28.3052 41.6948C28.4906 41.8802 28.7414 41.9854 29.0036 41.9877C29.2658 41.99 29.5184 41.8892 29.707 41.707L35 36.414L40.293 41.707C40.4816 41.8892 40.7342 41.99 40.9964 41.9877C41.2586 41.9854 41.5094 41.8802 41.6948 41.6948C41.8802 41.5094 41.9854 41.2586 41.9877 40.9964C41.99 40.7342 41.8892 40.4816 41.707 40.293L36.414 35L41.707 29.707C41.8945 29.5195 41.9998 29.2652 41.9998 29C41.9998 28.7348 41.8945 28.4805 41.707 28.293V28.293Z" fill="#202020"/>
<path d="M8.29303 21.707C8.48056 21.8945 8.73487 21.9998 9.00003 21.9998C9.26519 21.9998 9.5195 21.8945 9.70703 21.707L15 16.414L20.293 21.707C20.4816 21.8892 20.7342 21.9899 20.9964 21.9877C21.2586 21.9854 21.5094 21.8802 21.6948 21.6948C21.8803 21.5094 21.9854 21.2586 21.9877 20.9964C21.99 20.7342 21.8892 20.4816 21.707 20.293L16.414 15L21.707 9.70699C21.8892 9.51839 21.99 9.26579 21.9877 9.00359C21.9854 8.7414 21.8803 8.49058 21.6948 8.30518C21.5094 8.11977 21.2586 8.0146 20.9964 8.01232C20.7342 8.01004 20.4816 8.11084 20.293 8.293L15 13.586L9.70703 8.293C9.51843 8.11084 9.26583 8.01004 9.00363 8.01232C8.74143 8.0146 8.49062 8.11977 8.30521 8.30518C8.1198 8.49058 8.01464 8.7414 8.01236 9.00359C8.01008 9.26579 8.11087 9.51839 8.29303 9.70699L13.586 15L8.29303 20.293C8.10556 20.4805 8.00024 20.7348 8.00024 21C8.00024 21.2652 8.10556 21.5195 8.29303 21.707Z" fill="#202020"/>
<path d="M43 6H38C37.7348 6 37.4804 6.10536 37.2929 6.29289C37.1053 6.48043 37 6.73478 37 7C37 7.26522 37.1053 7.51957 37.2929 7.70711C37.4804 7.89464 37.7348 8 38 8H40.586L17.186 31.4C15.7636 30.3329 13.9898 29.8443 12.2216 30.0325C10.4535 30.2208 8.82228 31.0719 7.65643 32.4145C6.49058 33.7571 5.87665 35.4915 5.93824 37.2686C5.99984 39.0457 6.73238 40.7335 7.98838 41.9921C9.24439 43.2508 10.9306 43.9869 12.7076 44.0523C14.4845 44.1176 16.2202 43.5074 17.5653 42.3444C18.9104 41.1814 19.7649 39.552 19.9569 37.7842C20.1489 36.0165 19.6641 34.2416 18.6 32.817L42 9.414V12C42 12.2652 42.1053 12.5196 42.2929 12.7071C42.4804 12.8946 42.7348 13 43 13C43.2652 13 43.5196 12.8946 43.7071 12.7071C43.8946 12.5196 44 12.2652 44 12V7C44 6.73478 43.8946 6.48043 43.7071 6.29289C43.5196 6.10536 43.2652 6 43 6ZM13 42C12.0111 42 11.0444 41.7068 10.2221 41.1573C9.39989 40.6079 8.75903 39.827 8.38059 38.9134C8.00215 37.9998 7.90313 36.9945 8.09606 36.0245C8.28898 35.0546 8.76519 34.1637 9.46445 33.4645C10.1637 32.7652 11.0546 32.289 12.0245 32.0961C12.9944 31.9031 13.9998 32.0022 14.9134 32.3806C15.827 32.759 16.6079 33.3999 17.1573 34.2221C17.7067 35.0444 18 36.0111 18 37C17.9984 38.3256 17.4711 39.5964 16.5338 40.5338C15.5964 41.4711 14.3256 41.9984 13 42V42Z" fill="#202020"/>
</svg>
