<svg width="64" height="64" viewBox="0 0 64 64" fill="none" xmlns="http://www.w3.org/2000/svg">
<path d="M52.476 36.332C52.5136 33.7308 53.5687 31.2477 55.415 29.415L53.674 26.392C52.5511 26.7133 51.389 26.8768 50.221 26.878C47.6489 26.8643 45.1377 26.0944 43 24.664C40.8616 26.0937 38.3503 26.8635 35.778 26.878C34.61 26.8768 33.4479 26.7133 32.325 26.392L30.585 29.415C32.4313 31.2477 33.4864 33.7308 33.524 36.332C33.4948 38.6274 32.7036 40.8481 31.275 42.645C30.45 43.828 29.904 44.609 29.904 47.333C29.904 50.312 36.639 54.489 43.004 56.733C49.364 54.486 56.104 50.308 56.104 47.333C56.104 44.609 55.56 43.833 54.734 42.646C53.3019 40.85 52.5076 38.6288 52.476 36.332V36.332ZM48 40C47.8727 39.9993 47.7458 39.9862 47.621 39.961L46.573 40.982L46.921 43.009C46.947 43.009 46.973 43.001 47 43.001C47.3956 43.001 47.7822 43.1183 48.1111 43.3381C48.44 43.5578 48.6964 43.8702 48.8478 44.2356C48.9991 44.6011 49.0387 45.0032 48.9616 45.3912C48.8844 45.7791 48.6939 46.1355 48.4142 46.4152C48.1345 46.6949 47.7781 46.8854 47.3902 46.9626C47.0022 47.0397 46.6001 47.0001 46.2346 46.8488C45.8692 46.6974 45.5568 46.441 45.3371 46.1121C45.1173 45.7832 45 45.3966 45 45.001C45.0014 44.8832 45.0132 44.7658 45.035 44.65L43 43.579L40.963 44.649C40.9855 44.7647 40.9979 44.8821 41 45C41 45.3956 40.8827 45.7822 40.6629 46.1111C40.4432 46.44 40.1308 46.6964 39.7654 46.8478C39.3999 46.9991 38.9978 47.0387 38.6098 46.9616C38.2219 46.8844 37.8655 46.6939 37.5858 46.4142C37.3061 46.1345 37.1156 45.7781 37.0384 45.3902C36.9613 45.0022 37.0009 44.6001 37.1522 44.2346C37.3036 43.8692 37.56 43.5568 37.8889 43.3371C38.2178 43.1173 38.6044 43 39 43C39.027 43 39.053 43.007 39.079 43.008L39.427 40.981L38.378 39.96C38.2536 39.9855 38.127 39.9989 38 40C37.6515 40.0013 37.3088 39.9116 37.0056 39.7396C36.7025 39.5677 36.4496 39.3196 36.2719 39.0198C36.0942 38.72 35.9979 38.379 35.9926 38.0306C35.9873 37.6822 36.0731 37.3384 36.2415 37.0333C36.41 36.7282 36.6552 36.4725 36.9529 36.2914C37.2506 36.1102 37.5905 36.0101 37.9389 36.0007C38.2872 35.9914 38.632 36.0733 38.9389 36.2382C39.2459 36.4031 39.5045 36.6454 39.689 36.941L40.789 36.781L41.509 35.322C41.1823 34.9591 41.001 34.4883 41 34C40.9979 33.6752 41.0749 33.3547 41.2244 33.0663C41.3739 32.7779 41.5914 32.5302 41.8582 32.3448C42.1249 32.1593 42.4327 32.0416 42.7552 32.0018C43.0776 31.9621 43.4048 32.0015 43.7086 32.1166C44.0124 32.2317 44.2836 32.419 44.4987 32.6625C44.7138 32.9059 44.8664 33.1981 44.9432 33.5137C45.02 33.8293 45.0188 34.1589 44.9397 34.474C44.8606 34.7891 44.7059 35.0801 44.489 35.322L45.209 36.781L46.309 36.941C46.4935 36.6455 46.752 36.4032 47.0588 36.2383C47.3657 36.0734 47.7104 35.9915 48.0586 36.0007C48.4069 36.0099 48.7467 36.11 49.0444 36.291C49.3421 36.4719 49.5874 36.7275 49.756 37.0324C49.9245 37.3373 50.0105 37.681 50.0054 38.0293C50.0003 38.3777 49.9043 38.7187 49.7269 39.0185C49.5494 39.3183 49.2968 39.5666 48.9939 39.7388C48.691 39.9109 48.3484 40.001 48 40Z" fill="#ED954A"/>
<path d="M43.649 38.136L43 36.822L42.35 38.136C42.2782 38.2814 42.1722 38.4071 42.041 38.5024C41.9098 38.5977 41.7575 38.6597 41.597 38.683L40.149 38.894L41.2 39.917C41.3158 40.0301 41.4025 40.1696 41.4524 40.3236C41.5024 40.4776 41.5143 40.6414 41.487 40.801L41.239 42.246L42.539 41.564C42.6826 41.4885 42.8423 41.449 43.0045 41.449C43.1667 41.449 43.3265 41.4885 43.47 41.564L44.77 42.246L44.514 40.8C44.4867 40.6404 44.4986 40.4766 44.5486 40.3226C44.5986 40.1686 44.6852 40.0291 44.801 39.916L45.85 38.893L44.4 38.683C44.2399 38.6594 44.0879 38.5973 43.9571 38.502C43.8263 38.4067 43.7206 38.2811 43.649 38.136V38.136Z" fill="#ED954A"/>
<path d="M62.866 30.333L56.533 19.333C56.4624 19.2096 56.3662 19.1027 56.251 19.0194C56.1358 18.9361 56.0042 18.8784 55.8649 18.85C55.7256 18.8216 55.5818 18.8232 55.4432 18.8548C55.3046 18.8864 55.1743 18.9471 55.061 19.033C54.2773 19.7024 53.3656 20.2054 52.3814 20.5114C51.3972 20.8174 50.3611 20.92 49.336 20.813C47.1468 20.3615 45.1867 19.1531 43.8 17.4C43.707 17.2746 43.5859 17.1728 43.4465 17.1027C43.307 17.0325 43.1531 16.996 42.997 16.996C42.8409 16.996 42.687 17.0325 42.5475 17.1027C42.4081 17.1728 42.287 17.2746 42.194 17.4C40.8086 19.1533 38.8495 20.3622 36.661 20.814C35.6358 20.9204 34.5996 20.8175 33.6153 20.5116C32.6311 20.2056 31.7192 19.7029 30.935 19.034C30.8217 18.9481 30.6914 18.8874 30.5528 18.8558C30.4142 18.8242 30.2704 18.8226 30.1311 18.851C29.9918 18.8794 29.8602 18.9371 29.745 19.0204C29.6298 19.1037 29.5336 19.2106 29.463 19.334L23.13 30.334C23.0588 30.4577 23.0149 30.5952 23.0012 30.7372C22.9875 30.8793 23.0044 31.0226 23.0507 31.1576C23.097 31.2926 23.1717 31.4161 23.2697 31.5198C23.3678 31.6236 23.4868 31.7051 23.619 31.759C23.657 31.776 27.519 33.395 27.519 36.333C27.4779 37.3996 27.0647 38.4182 26.351 39.212C25.259 40.777 23.9 42.723 23.9 47.334C23.9 57.134 41.937 62.725 42.705 62.958C42.8948 63.015 43.0972 63.015 43.287 62.958C44.054 62.725 62.092 57.13 62.092 47.334C62.092 42.723 60.733 40.777 59.641 39.212C58.9267 38.4186 58.513 37.3998 58.472 36.333C58.472 33.395 62.335 31.776 62.372 31.76C62.5049 31.7066 62.6247 31.6254 62.7235 31.5217C62.8222 31.4181 62.8975 31.2944 62.9444 31.1591C62.9912 31.0238 63.0084 30.8801 62.9949 30.7375C62.9814 30.595 62.9374 30.4571 62.866 30.333ZM43.325 58.74C43.1141 58.8126 42.8849 58.8126 42.674 58.74C37.566 56.985 27.904 52.34 27.904 47.333C27.904 43.98 28.704 42.833 29.635 41.502C30.8278 40.04 31.4929 38.2186 31.523 36.332C31.4892 35.1856 31.2166 34.0589 30.7226 33.0239C30.2286 31.9888 29.524 31.0682 28.654 30.321C28.4874 30.1671 28.378 29.9612 28.3438 29.7369C28.3097 29.5127 28.3527 29.2835 28.466 29.087L30.994 24.7C31.1107 24.4976 31.2947 24.3425 31.5139 24.2615C31.7331 24.1806 31.9737 24.179 32.194 24.257C33.8988 24.853 35.7246 25.0177 37.5085 24.7367C39.2924 24.4556 40.9791 23.7373 42.418 22.646C42.5875 22.5252 42.7904 22.4603 42.9985 22.4603C43.2066 22.4603 43.4095 22.5252 43.579 22.646C45.0182 23.7357 46.7045 24.4525 48.4878 24.7327C50.2711 25.0129 52.096 24.8478 53.8 24.252C54.0203 24.174 54.2609 24.1756 54.4801 24.2565C54.6993 24.3375 54.8832 24.4926 55 24.695L57.528 29.087C57.6413 29.2835 57.6843 29.5127 57.6502 29.7369C57.616 29.9612 57.5066 30.1671 57.34 30.321C56.47 31.0683 55.7655 31.9889 55.2715 33.0239C54.7775 34.0589 54.5049 35.1856 54.471 36.332C54.5023 38.2188 55.1697 40.0398 56.365 41.5C57.294 42.831 58.095 43.979 58.095 47.332C58.1 52.343 48.433 56.985 43.325 58.74Z" fill="#ED954A"/>
<path d="M11 14.3V24C11 26.9174 12.1589 29.7153 14.2218 31.7782C16.2847 33.8411 19.0826 35 22 35C24.9174 35 27.7153 33.8411 29.7782 31.7782C31.8411 29.7153 33 26.9174 33 24V14.3L36.832 8.552C36.9414 8.38778 36.9998 8.19485 36.9998 7.9975C36.9998 7.80016 36.9414 7.60723 36.832 7.443L34.832 4.443C34.6938 4.23609 34.4834 4.08812 34.242 4.028L22.242 1.028C22.0826 0.987024 21.9154 0.987024 21.756 1.028L9.756 4.028C9.51467 4.08781 9.30452 4.23588 9.167 4.443L7.167 7.443C7.05757 7.60723 6.99918 7.80016 6.99918 7.9975C6.99918 8.19485 7.05757 8.38778 7.167 8.552L11 14.3ZM31 16.546C25.1746 14.499 18.8254 14.499 13 16.546V14.685C18.794 12.4615 25.206 12.4615 31 14.685V16.546ZM29.179 18.046L22 20.923L14.821 18.052C19.505 16.6545 24.495 16.6545 29.179 18.052V18.046ZM22 33C19.6139 32.9974 17.3262 32.0483 15.639 30.361C13.9517 28.6738 13.0026 26.3861 13 24V19.478L21.628 22.929C21.8669 23.024 22.1331 23.024 22.372 22.929L31 19.478V24C30.9974 26.3861 30.0483 28.6738 28.361 30.361C26.6738 32.0483 24.3861 32.9974 22 33V33ZM10.618 5.876L22 3.032L33.383 5.876L34.8 8L31.62 12.771C25.4254 10.4094 18.5786 10.4094 12.384 12.771L9.2 8L10.618 5.876Z" fill="#202020"/>
<path d="M20 8H24C24.2652 8 24.5196 7.89464 24.7071 7.70711C24.8946 7.51957 25 7.26522 25 7C25 6.73478 24.8946 6.48043 24.7071 6.29289C24.5196 6.10536 24.2652 6 24 6H20C19.7348 6 19.4804 6.10536 19.2929 6.29289C19.1054 6.48043 19 6.73478 19 7C19 7.26522 19.1054 7.51957 19.2929 7.70711C19.4804 7.89464 19.7348 8 20 8Z" fill="#202020"/>
<path d="M30 37H14C10.5533 37.0037 7.24887 38.3745 4.8117 40.8117C2.37453 43.2489 1.00371 46.5533 1 50C1 50.2652 1.10536 50.5196 1.29289 50.7071C1.48043 50.8946 1.73478 51 2 51H42C42.2652 51 42.5196 50.8946 42.7071 50.7071C42.8946 50.5196 43 50.2652 43 50C42.996 46.5534 41.6251 43.2491 39.188 40.812C36.7509 38.3749 33.4466 37.004 30 37V37ZM22 41.4L20.081 39H23.919L22 41.4ZM17.519 39L20.319 42.505L16.671 43.721L15.326 39H17.519ZM26.481 39H28.674L27.325 43.721L23.677 42.505L26.481 39ZM13.256 39.036L15.039 45.274C15.0761 45.4037 15.139 45.5246 15.224 45.6293C15.3091 45.734 15.4144 45.8205 15.5337 45.8835C15.653 45.9464 15.7838 45.9846 15.9183 45.9957C16.0527 46.0068 16.188 45.9906 16.316 45.948L21 44.387V49H3.045C3.28723 46.3974 4.4475 43.9659 6.31827 42.1403C8.18903 40.3148 10.6482 39.2144 13.256 39.036V39.036ZM23 49V44.387L27.684 45.948C27.812 45.9906 27.9473 46.0068 28.0817 45.9957C28.2162 45.9846 28.347 45.9464 28.4663 45.8835C28.5856 45.8205 28.6909 45.734 28.776 45.6293C28.861 45.5246 28.9239 45.4037 28.961 45.274L30.744 39.036C33.3517 39.2146 35.8108 40.3151 37.6815 42.1406C39.5522 43.966 40.7126 46.3975 40.955 49H23Z" fill="#202020"/>
</svg>
