<svg width="64" height="64" viewBox="0 0 64 64" fill="none" xmlns="http://www.w3.org/2000/svg">
<path d="M51 35C49.1441 35.0021 47.3649 35.7403 46.0526 37.0526C44.7403 38.3649 44.0021 40.1441 44 42V45C44 46.8565 44.7375 48.637 46.0503 49.9497C47.363 51.2625 49.1435 52 51 52C52.8565 52 54.637 51.2625 55.9497 49.9497C57.2625 48.637 58 46.8565 58 45V42C57.9979 40.1441 57.2597 38.3649 55.9474 37.0526C54.6351 35.7403 52.8559 35.0021 51 35V35Z" fill="#ED954A"/>
<path d="M60.38 54.339L55.743 52.639C54.322 53.5316 52.678 54.0051 51 54.0051C49.322 54.0051 47.678 53.5316 46.257 52.639L41.62 54.339C40.8528 54.6236 40.1908 55.1356 39.7226 55.8067C39.2544 56.4777 39.0023 57.2758 39 58.094V62C39 62.2652 39.1054 62.5196 39.2929 62.7071C39.4804 62.8947 39.7348 63 40 63H62C62.2652 63 62.5196 62.8947 62.7071 62.7071C62.8946 62.5196 63 62.2652 63 62V58.094C62.9977 57.2758 62.7456 56.4777 62.2774 55.8067C61.8092 55.1356 61.1472 54.6236 60.38 54.339V54.339Z" fill="#ED954A"/>
<path d="M38 13C36.1441 13.0021 34.3649 13.7403 33.0526 15.0526C31.7403 16.3649 31.0021 18.1441 31 20V23C31 24.8565 31.7375 26.637 33.0503 27.9497C34.363 29.2625 36.1435 30 38 30C39.8565 30 41.637 29.2625 42.9497 27.9497C44.2625 26.637 45 24.8565 45 23V20C44.9979 18.1441 44.2597 16.3649 42.9474 15.0526C41.6351 13.7403 39.8559 13.0021 38 13V13Z" fill="#ED954A"/>
<path d="M25 35C23.1441 35.0021 21.3649 35.7403 20.0526 37.0526C18.7403 38.3649 18.0021 40.1441 18 42V45C18 46.8565 18.7375 48.637 20.0503 49.9497C21.363 51.2625 23.1435 52 25 52C26.8565 52 28.637 51.2625 29.9497 49.9497C31.2625 48.637 32 46.8565 32 45V42C31.9979 40.1441 31.2597 38.3649 29.9474 37.0526C28.6351 35.7403 26.8559 35.0021 25 35V35Z" fill="#ED954A"/>
<path d="M34.38 54.339L29.743 52.639C28.322 53.5316 26.678 54.0051 25 54.0051C23.322 54.0051 21.678 53.5316 20.257 52.639L15.62 54.339C14.8528 54.6236 14.1908 55.1356 13.7226 55.8067C13.2544 56.4777 13.0023 57.2758 13 58.094V62C13 62.2652 13.1054 62.5196 13.2929 62.7071C13.4804 62.8947 13.7348 63 14 63H36C36.2652 63 36.5196 62.8947 36.7071 62.7071C36.8946 62.5196 37 62.2652 37 62V58.094C36.9977 57.2758 36.7456 56.4777 36.2774 55.8067C35.8092 55.1356 35.1472 54.6236 34.38 54.339V54.339Z" fill="#ED954A"/>
<path d="M33.941 41H42.059C42.2666 39.1766 43.0259 37.4601 44.2353 36.0798C45.4447 34.6995 47.0467 33.7213 48.827 33.276C48.4188 32.8618 47.9249 32.542 47.38 32.339L42.743 30.639C41.322 31.5316 39.678 32.0051 38 32.0051C36.322 32.0051 34.678 31.5316 33.257 30.639L28.62 32.339C28.0751 32.542 27.5812 32.8618 27.173 33.276C28.9533 33.7213 30.5553 34.6995 31.7647 36.0798C32.9741 37.4601 33.7334 39.1766 33.941 41V41Z" fill="#ED954A"/>
<path d="M48 6H31V2C31 1.73478 30.8946 1.48043 30.7071 1.29289C30.5196 1.10536 30.2652 1 30 1H22C21.7348 1 21.4804 1.10536 21.2929 1.29289C21.1054 1.48043 21 1.73478 21 2V6H4C3.20435 6 2.44129 6.31607 1.87868 6.87868C1.31607 7.44129 1 8.20435 1 9V36C1 36.7956 1.31607 37.5587 1.87868 38.1213C2.44129 38.6839 3.20435 39 4 39H18.382L13.105 49.553C13.0288 49.7055 12.9928 49.8749 13.0006 50.0452C13.0083 50.2155 13.0594 50.381 13.1491 50.526C13.2387 50.671 13.364 50.7907 13.5129 50.8736C13.6619 50.9566 13.8295 51.0001 14 51H20C20.1858 51.0001 20.368 50.9484 20.5261 50.8507C20.6842 50.753 20.8119 50.6132 20.895 50.447L26 40.236L31.105 50.447C31.1881 50.6132 31.3158 50.753 31.4739 50.8507C31.632 50.9484 31.8142 51.0001 32 51H38C38.1709 51.0009 38.3392 50.9581 38.4888 50.8755C38.6384 50.7929 38.7644 50.6733 38.8546 50.5282C38.9449 50.383 38.9965 50.2172 39.0044 50.0465C39.0123 49.8758 38.9764 49.7059 38.9 49.553L33.618 39H48C48.7956 39 49.5587 38.6839 50.1213 38.1213C50.6839 37.5587 51 36.7956 51 36V9C51 8.20435 50.6839 7.44129 50.1213 6.87868C49.5587 6.31607 48.7956 6 48 6ZM23 3H29V6H23V3ZM19.382 49H15.618L20.618 39H24.382L19.382 49ZM36.382 49H32.618L27.618 39H31.382L36.382 49ZM49 36C49 36.2652 48.8946 36.5196 48.7071 36.7071C48.5196 36.8946 48.2652 37 48 37H4C3.73478 37 3.48043 36.8946 3.29289 36.7071C3.10536 36.5196 3 36.2652 3 36V9C3 8.73478 3.10536 8.48043 3.29289 8.29289C3.48043 8.10536 3.73478 8 4 8H48C48.2652 8 48.5196 8.10536 48.7071 8.29289C48.8946 8.48043 49 8.73478 49 9V36Z" fill="#202020"/>
<path d="M37 32H15C14.7348 32 14.4804 32.1054 14.2929 32.2929C14.1054 32.4804 14 32.7348 14 33C14 33.2652 14.1054 33.5196 14.2929 33.7071C14.4804 33.8946 14.7348 34 15 34H37C37.2652 34 37.5196 33.8946 37.7071 33.7071C37.8946 33.5196 38 33.2652 38 33C38 32.7348 37.8946 32.4804 37.7071 32.2929C37.5196 32.1054 37.2652 32 37 32V32Z" fill="#202020"/>
<path d="M26 29C27.78 29 29.5201 28.4722 31.0001 27.4832C32.4802 26.4943 33.6337 25.0887 34.3149 23.4442C34.9961 21.7996 35.1743 19.99 34.8271 18.2442C34.4798 16.4984 33.6226 14.8947 32.364 13.636C31.1053 12.3774 29.5016 11.5202 27.7558 11.1729C26.01 10.8257 24.2004 11.0039 22.5558 11.6851C20.9113 12.3663 19.5057 13.5198 18.5168 14.9999C17.5278 16.4799 17 18.22 17 20C17.0026 22.3861 17.9517 24.6738 19.639 26.361C21.3262 28.0483 23.6139 28.9974 26 29V29ZM27 13.08C28.4929 13.2971 29.8758 13.9907 30.9426 15.0574C32.0094 16.1242 32.7029 17.5071 32.92 19H27V13.08ZM25 13.08V20C25 20.2652 25.1054 20.5196 25.2929 20.7071C25.4804 20.8946 25.7348 21 26 21H32.92C32.7361 22.2869 32.1974 23.4971 31.3645 24.4951C30.5315 25.4931 29.437 26.2394 28.2038 26.6504C26.9705 27.0615 25.6472 27.121 24.382 26.8223C23.1169 26.5236 21.9599 25.8785 21.0407 24.9593C20.1215 24.0401 19.4764 22.8831 19.1777 21.618C18.879 20.3528 18.9385 19.0295 19.3496 17.7962C19.7606 16.563 20.5069 15.4685 21.5049 14.6355C22.5029 13.8026 23.7131 13.2639 25 13.08Z" fill="#202020"/>
</svg>
