<svg width="64" height="64" viewBox="0 0 64 64" fill="none" xmlns="http://www.w3.org/2000/svg">
<path d="M60 13H28C27.2044 13 26.4413 13.3161 25.8787 13.8787C25.3161 14.4413 25 15.2044 25 16V19H52C53.3256 19.0016 54.5964 19.5289 55.5338 20.4662C56.4711 21.4036 56.9984 22.6744 57 24V55H60C60.7956 55 61.5587 54.6839 62.1213 54.1213C62.6839 53.5587 63 52.7956 63 52V16C63 15.2044 62.6839 14.4413 62.1213 13.8787C61.5587 13.3161 60.7956 13 60 13Z" fill="#ED954A"/>
<path d="M52 21H20C19.2044 21 18.4413 21.3161 17.8787 21.8787C17.3161 22.4413 17 23.2044 17 24V60C17 60.7956 17.3161 61.5587 17.8787 62.1213C18.4413 62.6839 19.2044 63 20 63H52C52.7956 63 53.5587 62.6839 54.1213 62.1213C54.6839 61.5587 55 60.7956 55 60V24C55 23.2044 54.6839 22.4413 54.1213 21.8787C53.5587 21.3161 52.7956 21 52 21ZM46 55H26C25.7348 55 25.4804 54.8946 25.2929 54.7071C25.1054 54.5196 25 54.2652 25 54C25 53.7348 25.1054 53.4804 25.2929 53.2929C25.4804 53.1054 25.7348 53 26 53H46C46.2652 53 46.5196 53.1054 46.7071 53.2929C46.8946 53.4804 47 53.7348 47 54C47 54.2652 46.8946 54.5196 46.7071 54.7071C46.5196 54.8946 46.2652 55 46 55ZM46 47H26C25.7348 47 25.4804 46.8946 25.2929 46.7071C25.1054 46.5196 25 46.2652 25 46C25 45.7348 25.1054 45.4804 25.2929 45.2929C25.4804 45.1054 25.7348 45 26 45H46C46.2652 45 46.5196 45.1054 46.7071 45.2929C46.8946 45.4804 47 45.7348 47 46C47 46.2652 46.8946 46.5196 46.7071 46.7071C46.5196 46.8946 46.2652 47 46 47ZM46 39H26C25.7348 39 25.4804 38.8946 25.2929 38.7071C25.1054 38.5196 25 38.2652 25 38C25 37.7348 25.1054 37.4804 25.2929 37.2929C25.4804 37.1054 25.7348 37 26 37H46C46.2652 37 46.5196 37.1054 46.7071 37.2929C46.8946 37.4804 47 37.7348 47 38C47 38.2652 46.8946 38.5196 46.7071 38.7071C46.5196 38.8946 46.2652 39 46 39ZM46 31H26C25.7348 31 25.4804 30.8946 25.2929 30.7071C25.1054 30.5196 25 30.2652 25 30C25 29.7348 25.1054 29.4804 25.2929 29.2929C25.4804 29.1054 25.7348 29 26 29H46C46.2652 29 46.5196 29.1054 46.7071 29.2929C46.8946 29.4804 47 29.7348 47 30C47 30.2652 46.8946 30.5196 46.7071 30.7071C46.5196 30.8946 46.2652 31 46 31Z" fill="#ED954A"/>
<path d="M48 17H45V4C45 3.20435 44.6839 2.44129 44.1213 1.87868C43.5587 1.31607 42.7956 1 42 1H19.938C19.7748 1.00531 19.6146 1.04519 19.468 1.117L7.53 7.465C7.37241 7.55327 7.2406 7.68118 7.14764 7.83606C7.05468 7.99093 7.00379 8.16741 7 8.348V17H4C3.20435 17 2.44129 17.3161 1.87868 17.8787C1.31607 18.4413 1 19.2044 1 20V36C1 36.7956 1.31607 37.5587 1.87868 38.1213C2.44129 38.6839 3.20435 39 4 39H7V44C7 44.7956 7.31607 45.5587 7.87868 46.1213C8.44129 46.6839 9.20435 47 10 47H42C42.7956 47 43.5587 46.6839 44.1213 46.1213C44.6839 45.5587 45 44.7956 45 44V39H48C48.7956 39 49.5587 38.6839 50.1213 38.1213C50.6839 37.5587 51 36.7956 51 36V20C51 19.2044 50.6839 18.4413 50.1213 17.8787C49.5587 17.3161 48.7956 17 48 17ZM16.865 4.766L12.992 10.509L9.939 8.449L16.865 4.766ZM9 10.228L12.7 12.728C12.9199 12.8762 13.1896 12.931 13.4499 12.8804C13.7102 12.8298 13.9397 12.6778 14.088 12.458L20.47 3H42C42.2652 3 42.5196 3.10536 42.7071 3.29289C42.8946 3.48043 43 3.73478 43 4V17H9V10.228ZM43 44C43 44.2652 42.8946 44.5196 42.7071 44.7071C42.5196 44.8946 42.2652 45 42 45H10C9.73478 45 9.48043 44.8946 9.29289 44.7071C9.10536 44.5196 9 44.2652 9 44V35H43V44ZM49 36C49 36.2652 48.8946 36.5196 48.7071 36.7071C48.5196 36.8946 48.2652 37 48 37H45V34C45 33.7348 44.8946 33.4804 44.7071 33.2929C44.5196 33.1054 44.2652 33 44 33H8C7.73478 33 7.48043 33.1054 7.29289 33.2929C7.10536 33.4804 7 33.7348 7 34V37H4C3.73478 37 3.48043 36.8946 3.29289 36.7071C3.10536 36.5196 3 36.2652 3 36V20C3 19.7348 3.10536 19.4804 3.29289 19.2929C3.48043 19.1054 3.73478 19 4 19H48C48.2652 19 48.5196 19.1054 48.7071 19.2929C48.8946 19.4804 49 19.7348 49 20V36Z" fill="#202020"/>
<path d="M14 41H38C38.2652 41 38.5196 40.8946 38.7071 40.7071C38.8946 40.5196 39 40.2652 39 40C39 39.7348 38.8946 39.4804 38.7071 39.2929C38.5196 39.1054 38.2652 39 38 39H14C13.7348 39 13.4804 39.1054 13.2929 39.2929C13.1054 39.4804 13 39.7348 13 40C13 40.2652 13.1054 40.5196 13.2929 40.7071C13.4804 40.8946 13.7348 41 14 41V41Z" fill="#202020"/>
<path d="M10 22H7C6.73478 22 6.48043 22.1054 6.29289 22.2929C6.10536 22.4804 6 22.7348 6 23C6 23.2652 6.10536 23.5196 6.29289 23.7071C6.48043 23.8946 6.73478 24 7 24H10C10.2652 24 10.5196 23.8946 10.7071 23.7071C10.8946 23.5196 11 23.2652 11 23C11 22.7348 10.8946 22.4804 10.7071 22.2929C10.5196 22.1054 10.2652 22 10 22Z" fill="#202020"/>
</svg>
