<svg width="64" height="64" viewBox="0 0 64 64" fill="none" xmlns="http://www.w3.org/2000/svg">
<path d="M37.268 43.035L32.268 38.035C32.0858 37.8464 31.985 37.5938 31.9873 37.3316C31.9896 37.0694 32.0948 36.8186 32.2802 36.6332C32.4656 36.4478 32.7164 36.3426 32.9786 36.3403C33.2408 36.3381 33.4934 36.4388 33.682 36.621L37.94 40.88L46 32.019C44.4597 29.9663 42.1903 28.583 39.6599 28.1545C37.1296 27.7259 34.5313 28.2848 32.4009 29.7159C30.2706 31.1469 28.7707 33.341 28.2106 35.8455C27.6505 38.35 28.073 40.974 29.3908 43.1761C30.7087 45.3783 32.8214 46.9907 35.2933 47.6808C37.7651 48.3709 40.4076 48.086 42.6756 46.885C44.9435 45.6839 46.6641 43.6582 47.4823 41.2258C48.3005 38.7933 48.154 36.1396 47.073 33.812L38.715 43C38.624 43.1002 38.5136 43.1808 38.3906 43.2371C38.2675 43.2933 38.1343 43.324 37.999 43.3273C37.8637 43.3306 37.7292 43.3064 37.6035 43.2561C37.4779 43.2059 37.3637 43.1307 37.268 43.035Z" fill="#ED954A"/>
<path d="M62 25C51.649 25 48.284 18.067 47.317 15.087C47.1235 14.4814 46.7426 13.9529 46.2293 13.5778C45.716 13.2027 45.0968 13.0004 44.461 13H31.539C30.9034 13.0003 30.2842 13.2025 29.7709 13.5774C29.2576 13.9523 28.8767 14.4806 28.683 15.086C27.716 18.067 24.351 25 14 25C13.7348 25 13.4804 25.1054 13.2929 25.2929C13.1054 25.4804 13 25.7348 13 26C13 26.3 13.282 55.832 37.72 62.96C37.9029 63.013 38.0971 63.013 38.28 62.96C62.718 55.832 63 26.3 63 26C63 25.7348 62.8946 25.4804 62.7071 25.2929C62.5196 25.1054 62.2652 25 62 25ZM51.74 28.673L48.512 32.223C50.0245 34.9484 50.4258 38.1528 49.6321 41.167C48.8385 44.1813 46.9113 46.7725 44.2528 48.3998C41.5943 50.027 38.41 50.5646 35.3647 49.9002C32.3193 49.2357 29.6483 47.4207 27.9092 44.834C26.1701 42.2473 25.4973 39.0888 26.0313 36.0179C26.5653 32.947 28.2648 30.201 30.7751 28.3532C33.2853 26.5054 36.4122 25.6986 39.5031 26.1013C42.594 26.5039 45.4099 28.0848 47.363 30.514L50.263 27.327C50.3514 27.2298 50.458 27.151 50.5769 27.095C50.6957 27.0391 50.8244 27.0071 50.9556 27.0009C51.0868 26.9946 51.218 27.0143 51.3416 27.0588C51.4652 27.1032 51.5788 27.1716 51.676 27.26C51.7732 27.3484 51.852 27.455 51.908 27.5739C51.9639 27.6927 51.9959 27.8214 52.0021 27.9526C52.0084 28.0838 51.9887 28.215 51.9442 28.3386C51.8998 28.4622 51.8314 28.5758 51.743 28.673H51.74Z" fill="#ED954A"/>
<path d="M43.683 8.322C40.2128 4.8483 35.7965 2.47341 30.9851 1.49363C26.1738 0.513853 21.1804 0.972578 16.6281 2.81257C12.0758 4.65256 8.16612 7.79234 5.38687 11.8402C2.60762 15.888 1.08187 20.6646 0.999999 25.574C0.991247 25.8392 1.08821 26.097 1.26956 26.2908C1.45091 26.4845 1.70178 26.5982 1.967 26.607C2.23222 26.6157 2.49005 26.5188 2.68377 26.3374C2.8775 26.1561 2.99125 25.9052 3 25.64C3.04774 23.7835 3.83102 22.022 5.17753 20.743C5.84426 20.1097 6.62919 19.6139 7.48751 19.284C8.34584 18.954 9.26075 18.7964 10.18 18.82C11.0993 18.8436 12.0048 19.0481 12.8451 19.4217C13.6853 19.7953 14.4437 20.3308 15.077 20.9975C15.7103 21.6643 16.2061 22.4492 16.536 23.3075C16.866 24.1658 17.0236 25.0807 17 26C17 26.2652 17.1054 26.5196 17.2929 26.7071C17.4804 26.8946 17.7348 27 18 27C18.2652 27 18.5196 26.8946 18.7071 26.7071C18.8946 26.5196 19 26.2652 19 26C19.0032 24.3185 19.6111 22.6942 20.7126 21.4238C21.8142 20.1533 23.3359 19.3214 25 19.08V46C25 46.7956 24.6839 47.5587 24.1213 48.1213C23.5587 48.6839 22.7956 49 22 49C21.2044 49 20.4413 48.6839 19.8787 48.1213C19.3161 47.5587 19 46.7956 19 46V42C19 41.7348 18.8946 41.4804 18.7071 41.2929C18.5196 41.1054 18.2652 41 18 41C17.7348 41 17.4804 41.1054 17.2929 41.2929C17.1054 41.4804 17 41.7348 17 42V46C17 47.3261 17.5268 48.5978 18.4645 49.5355C19.4021 50.4732 20.6739 51 22 51C23.3261 51 24.5979 50.4732 25.5355 49.5355C26.4732 48.5978 27 47.3261 27 46V19.08C28.6641 19.3214 30.1858 20.1533 31.2874 21.4238C32.3889 22.6942 32.9968 24.3185 33 26C33 26.2652 33.1054 26.5196 33.2929 26.7071C33.4804 26.8946 33.7348 27 34 27C34.2652 27 34.5196 26.8946 34.7071 26.7071C34.8946 26.5196 35 26.2652 35 26C34.9523 24.1435 35.644 22.344 36.923 20.9975C38.202 19.651 39.9635 18.8677 41.82 18.82C43.6765 18.7723 45.476 19.464 46.8225 20.743C48.169 22.022 48.9523 23.7835 49 25.64C49.0088 25.9052 49.1225 26.1561 49.3162 26.3374C49.51 26.5188 49.7678 26.6157 50.033 26.607C50.2982 26.5982 50.5491 26.4845 50.7304 26.2908C50.9118 26.097 51.0088 25.8392 51 25.574C50.9046 19.0891 48.2789 12.8982 43.683 8.322ZM9.994 17C7.77805 16.9959 5.63873 17.8108 3.987 19.288C5.27221 15.0794 7.73936 11.3286 11.0949 8.48184C14.4505 5.63506 18.5532 3.81216 22.915 3.23C21.0453 5.00299 19.5565 7.13841 18.5396 9.50591C17.5226 11.8734 16.9987 14.4233 17 17V20.381C16.1606 19.328 15.0951 18.4774 13.8823 17.8921C12.6695 17.3068 11.3406 17.0019 9.994 17V17ZM26 17C24.6544 17.0028 23.3267 17.3082 22.115 17.8934C20.9033 18.4786 19.8387 19.3288 19 20.381V17C18.9993 14.3198 19.6332 11.6775 20.8499 9.28932C22.0666 6.90117 23.8314 4.83503 26 3.26C28.1686 4.83503 29.9334 6.90117 31.1501 9.28932C32.3668 11.6775 33.0007 14.3198 33 17V20.381C32.1613 19.3288 31.0967 18.4786 29.885 17.8934C28.6733 17.3082 27.3456 17.0028 26 17V17ZM42.006 17C40.6604 17.0028 39.3327 17.3082 38.121 17.8934C36.9093 18.4786 35.8447 19.3288 35.006 20.381V17C35.0065 14.4229 34.4817 11.8727 33.4637 9.50518C32.4457 7.13766 30.9558 5.00248 29.085 3.23C33.4468 3.81216 37.5495 5.63506 40.9051 8.48184C44.2606 11.3286 46.7278 15.0794 48.013 19.288C46.3613 17.8108 44.222 16.9959 42.006 17V17Z" fill="#202020"/>
</svg>
