<svg width="64" height="64" viewBox="0 0 64 64" fill="none" xmlns="http://www.w3.org/2000/svg">
<path d="M62.958 44.713L56.958 24.713C56.8889 24.5114 56.7605 24.3353 56.5895 24.2081C56.4185 24.0808 56.213 24.0083 56 24H42.93L43.848 22.53C43.9426 22.3786 43.995 22.2047 43.9997 22.0262C44.0043 21.8478 43.9612 21.6714 43.8746 21.5152C43.7881 21.3591 43.6614 21.229 43.5076 21.1384C43.3538 21.0478 43.1785 21 43 21H33C32.8215 21 32.6462 21.0478 32.4924 21.1384C32.3386 21.229 32.2119 21.3591 32.1254 21.5152C32.0388 21.6714 31.9957 21.8478 32.0003 22.0262C32.005 22.2047 32.0574 22.3786 32.152 22.53L33.07 24H20C19.7872 24.0088 19.5819 24.0816 19.411 24.2088C19.2402 24.3359 19.1116 24.5117 19.042 24.713L13.042 44.713C13.0146 44.8062 13.0005 44.9028 13 45V47C13 48.8565 13.7375 50.637 15.0503 51.9497C16.363 53.2625 18.1435 54 20 54C21.8565 54 23.637 53.2625 24.9497 51.9497C26.2625 50.637 27 48.8565 27 47V45C26.9995 44.9028 26.9854 44.8062 26.958 44.713L21.344 26H34.32L36.2 29H32C31.7348 29 31.4804 29.1054 31.2929 29.2929C31.1054 29.4804 31 29.7348 31 30C31 30.2652 31.1054 30.5196 31.2929 30.7071C31.4804 30.8946 31.7348 31 32 31H34V55H33C31.6744 55.0016 30.4036 55.5289 29.4662 56.4662C28.5289 57.4036 28.0016 58.6744 28 60V62C28 62.2652 28.1054 62.5196 28.2929 62.7071C28.4804 62.8946 28.7348 63 29 63H47C47.2652 63 47.5196 62.8946 47.7071 62.7071C47.8946 62.5196 48 62.2652 48 62V60C47.9984 58.6744 47.4711 57.4036 46.5338 56.4662C45.5964 55.5289 44.3256 55.0016 43 55H42V31H44C44.2652 31 44.5196 30.8946 44.7071 30.7071C44.8946 30.5196 45 30.2652 45 30C45 29.7348 44.8946 29.4804 44.7071 29.2929C44.5196 29.1054 44.2652 29 44 29H39.805L41.68 26H54.656L49.042 44.713C49.0146 44.8062 49.0005 44.9028 49 45V47C49 48.8565 49.7375 50.637 51.0503 51.9497C52.363 53.2625 54.1435 54 56 54C57.8565 54 59.637 53.2625 60.9497 51.9497C62.2625 50.637 63 48.8565 63 47V45C62.9995 44.9028 62.9854 44.8062 62.958 44.713V44.713ZM24.656 44H15.344L20 28.48L24.656 44ZM51.344 44L56 28.48L60.656 44H51.344Z" fill="#ED954A"/>
<path d="M44 9H35V4C35 3.20435 34.6839 2.44129 34.1213 1.87868C33.5587 1.31607 32.7956 1 32 1H8C7.20435 1 6.44129 1.31607 5.87868 1.87868C5.31607 2.44129 5 3.20435 5 4V37H4C3.20435 37 2.44129 37.3161 1.87868 37.8787C1.31607 38.4413 1 39.2044 1 40V48C1 48.7956 1.31607 49.5587 1.87868 50.1213C2.44129 50.6839 3.20435 51 4 51H44C44.7956 51 45.5587 50.6839 46.1213 50.1213C46.6839 49.5587 47 48.7956 47 48V12C47 11.2044 46.6839 10.4413 46.1213 9.87868C45.5587 9.31607 44.7956 9 44 9ZM7 4C7 3.73478 7.10536 3.48043 7.29289 3.29289C7.48043 3.10536 7.73478 3 8 3H32C32.2652 3 32.5196 3.10536 32.7071 3.29289C32.8946 3.48043 33 3.73478 33 4V9H20C19.2044 9 18.4413 9.31607 17.8787 9.87868C17.3161 10.4413 17 11.2044 17 12V13H11C10.7348 13 10.4804 13.1054 10.2929 13.2929C10.1054 13.4804 10 13.7348 10 14C10 14.2652 10.1054 14.5196 10.2929 14.7071C10.4804 14.8946 10.7348 15 11 15H17V22H11C10.7348 22 10.4804 22.1054 10.2929 22.2929C10.1054 22.4804 10 22.7348 10 23C10 23.2652 10.1054 23.5196 10.2929 23.7071C10.4804 23.8946 10.7348 24 11 24H17V31H11C10.7348 31 10.4804 31.1054 10.2929 31.2929C10.1054 31.4804 10 31.7348 10 32C10 32.2652 10.1054 32.5196 10.2929 32.7071C10.4804 32.8946 10.7348 33 11 33H17V36C17 36.2652 16.8946 36.5196 16.7071 36.7071C16.5196 36.8946 16.2652 37 16 37H7V4ZM7 49V45H15V49H7ZM26 49V39H38V49H26ZM45 48C45 48.2652 44.8946 48.5196 44.7071 48.7071C44.5196 48.8946 44.2652 49 44 49H40V38C40 37.7348 39.8946 37.4804 39.7071 37.2929C39.5196 37.1054 39.2652 37 39 37H25C24.7348 37 24.4804 37.1054 24.2929 37.2929C24.1054 37.4804 24 37.7348 24 38V49H17V44C17 43.7348 16.8946 43.4804 16.7071 43.2929C16.5196 43.1054 16.2652 43 16 43H6C5.73478 43 5.48043 43.1054 5.29289 43.2929C5.10536 43.4804 5 43.7348 5 44V49H4C3.73478 49 3.48043 48.8946 3.29289 48.7071C3.10536 48.5196 3 48.2652 3 48V40C3 39.7348 3.10536 39.4804 3.29289 39.2929C3.48043 39.1054 3.73478 39 4 39H16C16.7956 39 17.5587 38.6839 18.1213 38.1213C18.6839 37.5587 19 36.7956 19 36V12C19 11.7348 19.1054 11.4804 19.2929 11.2929C19.4804 11.1054 19.7348 11 20 11H44C44.2652 11 44.5196 11.1054 44.7071 11.2929C44.8946 11.4804 45 11.7348 45 12V48Z" fill="#202020"/>
<path d="M39 31H25C24.7348 31 24.4804 31.1054 24.2929 31.2929C24.1054 31.4804 24 31.7348 24 32C24 32.2652 24.1054 32.5196 24.2929 32.7071C24.4804 32.8946 24.7348 33 25 33H39C39.2652 33 39.5196 32.8946 39.7071 32.7071C39.8946 32.5196 40 32.2652 40 32C40 31.7348 39.8946 31.4804 39.7071 31.2929C39.5196 31.1054 39.2652 31 39 31Z" fill="#202020"/>
<path d="M39 22H25C24.7348 22 24.4804 22.1054 24.2929 22.2929C24.1054 22.4804 24 22.7348 24 23C24 23.2652 24.1054 23.5196 24.2929 23.7071C24.4804 23.8946 24.7348 24 25 24H39C39.2652 24 39.5196 23.8946 39.7071 23.7071C39.8946 23.5196 40 23.2652 40 23C40 22.7348 39.8946 22.4804 39.7071 22.2929C39.5196 22.1054 39.2652 22 39 22Z" fill="#202020"/>
<path d="M39 13H25C24.7348 13 24.4804 13.1054 24.2929 13.2929C24.1054 13.4804 24 13.7348 24 14C24 14.2652 24.1054 14.5196 24.2929 14.7071C24.4804 14.8946 24.7348 15 25 15H39C39.2652 15 39.5196 14.8946 39.7071 14.7071C39.8946 14.5196 40 14.2652 40 14C40 13.7348 39.8946 13.4804 39.7071 13.2929C39.5196 13.1054 39.2652 13 39 13Z" fill="#202020"/>
<path d="M11 7H29C29.2652 7 29.5196 6.89464 29.7071 6.70711C29.8946 6.51957 30 6.26522 30 6C30 5.73478 29.8946 5.48043 29.7071 5.29289C29.5196 5.10536 29.2652 5 29 5H11C10.7348 5 10.4804 5.10536 10.2929 5.29289C10.1054 5.48043 10 5.73478 10 6C10 6.26522 10.1054 6.51957 10.2929 6.70711C10.4804 6.89464 10.7348 7 11 7V7Z" fill="#202020"/>
</svg>
