<svg width="64" height="64" viewBox="0 0 64 64" fill="none" xmlns="http://www.w3.org/2000/svg">
<path d="M56.868 26.148L52.313 14.284L48.929 17.331L56.868 26.148Z" fill="#ED954A"/>
<path d="M57 29.284L47.741 19H26C25.7348 19 25.4804 18.8946 25.2929 18.7071C25.1054 18.5196 25 18.2652 25 18C25 17.7348 25.1054 17.4804 25.2929 17.2929C25.4804 17.1054 25.7348 17 26 17H46.308L50.75 13H22C21.2044 13 20.4413 13.3161 19.8787 13.8787C19.3161 14.4413 19 15.2044 19 16V35H57V29.284ZM27 24C27 23.7348 27.1054 23.4804 27.2929 23.2929C27.4804 23.1054 27.7348 23 28 23H46C46.2652 23 46.5196 23.1054 46.7071 23.2929C46.8946 23.4804 47 23.7348 47 24C47 24.2652 46.8946 24.5196 46.7071 24.7071C46.5196 24.8946 46.2652 25 46 25H28C27.7348 25 27.4804 24.8946 27.2929 24.7071C27.1054 24.5196 27 24.2652 27 24ZM50 31H30C29.7348 31 29.4804 30.8946 29.2929 30.7071C29.1054 30.5196 29 30.2652 29 30C29 29.7348 29.1054 29.4804 29.2929 29.2929C29.4804 29.1054 29.7348 29 30 29H50C50.2652 29 50.5196 29.1054 50.7071 29.2929C50.8946 29.4804 51 29.7348 51 30C51 30.2652 50.8946 30.5196 50.7071 30.7071C50.5196 30.8946 50.2652 31 50 31Z" fill="#ED954A"/>
<path d="M60 37H39V63H60C60.7956 63 61.5587 62.6839 62.1213 62.1213C62.6839 61.5587 63 60.7956 63 60V40C63 39.2044 62.6839 38.4413 62.1213 37.8787C61.5587 37.3161 60.7956 37 60 37ZM56.707 54.293C56.8892 54.4816 56.99 54.7342 56.9877 54.9964C56.9854 55.2586 56.8802 55.5094 56.6948 55.6948C56.5094 55.8802 56.2586 55.9854 55.9964 55.9877C55.7342 55.99 55.4816 55.8892 55.293 55.707L51 51.414L46.707 55.707C46.5184 55.8892 46.2658 55.99 46.0036 55.9877C45.7414 55.9854 45.4906 55.8802 45.3052 55.6948C45.1198 55.5094 45.0146 55.2586 45.0123 54.9964C45.01 54.7342 45.1108 54.4816 45.293 54.293L49.586 50L45.293 45.707C45.1108 45.5184 45.01 45.2658 45.0123 45.0036C45.0146 44.7414 45.1198 44.4906 45.3052 44.3052C45.4906 44.1198 45.7414 44.0146 46.0036 44.0123C46.2658 44.01 46.5184 44.1108 46.707 44.293L51 48.586L55.293 44.293C55.4816 44.1108 55.7342 44.01 55.9964 44.0123C56.2586 44.0146 56.5094 44.1198 56.6948 44.3052C56.8802 44.4906 56.9854 44.7414 56.9877 45.0036C56.99 45.2658 56.8892 45.5184 56.707 45.707L52.414 50L56.707 54.293Z" fill="#ED954A"/>
<path d="M13 40V60C13 60.7956 13.3161 61.5587 13.8787 62.1213C14.4413 62.6839 15.2044 63 16 63H37V37H16C15.2044 37 14.4413 37.3161 13.8787 37.8787C13.3161 38.4413 13 39.2044 13 40ZM17.36 48.231C17.5637 48.0613 17.8265 47.9795 18.0905 48.0035C18.3545 48.0275 18.5982 48.1554 18.768 48.359L23.029 53.473L31.257 44.331C31.436 44.1399 31.6828 44.0267 31.9443 44.0156C32.2059 44.0045 32.4614 44.0964 32.6559 44.2715C32.8505 44.4467 32.9686 44.6912 32.9848 44.9525C33.0011 45.2138 32.9143 45.471 32.743 45.669L23.743 55.669C23.6471 55.7755 23.5295 55.8602 23.398 55.9173C23.2666 55.9744 23.1244 56.0026 22.9811 55.9999C22.8378 55.9973 22.6968 55.9639 22.5675 55.9019C22.4383 55.84 22.3239 55.751 22.232 55.641L17.232 49.641C17.1477 49.5401 17.0841 49.4235 17.0449 49.298C17.0057 49.1725 16.9916 49.0404 17.0035 48.9094C17.0154 48.7785 17.053 48.6511 17.1142 48.5347C17.1754 48.4183 17.2589 48.3151 17.36 48.231Z" fill="#ED954A"/>
<path d="M36.684 31.292L27 28.265V25.647C28.5182 24.7704 29.7794 23.5101 30.6569 21.9925C31.5345 20.4748 31.9977 18.7531 32 17V11C32 8.34784 30.9464 5.8043 29.0711 3.92893C27.1957 2.05357 24.6522 1 22 1C19.3478 1 16.8043 2.05357 14.9289 3.92893C13.0536 5.8043 12 8.34784 12 11V17C12.0023 18.7531 12.4655 20.4748 13.343 21.9925C14.2206 23.5101 15.4817 24.7704 17 25.647V28.265L7.31599 31.292C5.48196 31.8584 3.87831 32.9988 2.74124 34.5453C1.60416 36.0918 0.993778 37.9625 0.999986 39.882V45C0.999986 45.7956 1.31606 46.5587 1.87867 47.1213C2.44127 47.6839 3.20434 48 3.99999 48H40C40.7956 48 41.5587 47.6839 42.1213 47.1213C42.6839 46.5587 43 45.7956 43 45V39.882C43.0062 37.9625 42.3958 36.0918 41.2587 34.5453C40.1217 32.9988 38.518 31.8584 36.684 31.292V31.292ZM22 3C23.7717 3.00336 25.4922 3.59414 26.8923 4.67986C28.2923 5.76557 29.2927 7.28492 29.737 9H14.263C14.7072 7.28492 15.7077 5.76557 17.1077 4.67986C18.5078 3.59414 20.2283 3.00336 22 3V3ZM14 17V11H30V17C30 19.1217 29.1571 21.1566 27.6568 22.6569C26.1566 24.1571 24.1217 25 22 25C19.8783 25 17.8434 24.1571 16.3431 22.6569C14.8428 21.1566 14 19.1217 14 17ZM25 26.539V28.586L22 31.586L19 28.586V26.539C20.9528 27.1537 23.0472 27.1537 25 26.539ZM3.99999 46C3.73477 46 3.48042 45.8946 3.29288 45.7071C3.10534 45.5196 2.99999 45.2652 2.99999 45V39.882C2.99706 38.6152 3.34013 37.3716 3.99219 36.2855C4.64424 35.1994 5.58052 34.312 6.69999 33.719L17.755 46H3.99999ZM20.445 46L8.69999 32.953L17.718 30.135L21.29 33.707C21.4775 33.8945 21.7318 33.9998 21.997 33.9998C22.2622 33.9998 22.5165 33.8945 22.704 33.707L26.276 30.135L35.3 32.953L23.555 46H20.445ZM41 45C41 45.2652 40.8946 45.5196 40.7071 45.7071C40.5196 45.8946 40.2652 46 40 46H26.245L37.3 33.718C38.4195 34.3112 39.3557 35.1988 40.0078 36.2851C40.6598 37.3714 41.0029 38.6151 41 39.882V45Z" fill="#202020"/>
</svg>
