<svg width="64" height="64" viewBox="0 0 64 64" fill="none" xmlns="http://www.w3.org/2000/svg">
<path d="M60 30H24C23.2044 30 22.4413 30.3161 21.8787 30.8787C21.3161 31.4413 21 32.2044 21 33V59C21 59.7956 21.3161 60.5587 21.8787 61.1213C22.4413 61.6839 23.2044 62 24 62H60C60.7956 62 61.5587 61.6839 62.1213 61.1213C62.6839 60.5587 63 59.7956 63 59V33C63 32.2044 62.6839 31.4413 62.1213 30.8787C61.5587 30.3161 60.7956 30 60 30ZM27 55C27 55.2652 26.8946 55.5196 26.7071 55.7071C26.5196 55.8946 26.2652 56 26 56C25.7348 56 25.4804 55.8946 25.2929 55.7071C25.1054 55.5196 25 55.2652 25 55V37C25 36.7348 25.1054 36.4804 25.2929 36.2929C25.4804 36.1054 25.7348 36 26 36C26.2652 36 26.5196 36.1054 26.7071 36.2929C26.8946 36.4804 27 36.7348 27 37V55ZM47.554 50.688C47.3644 51.8621 46.8135 52.9479 45.9779 53.7943C45.1423 54.6406 44.0636 55.2054 42.892 55.41V57C42.892 57.2652 42.7866 57.5196 42.5991 57.7071C42.4116 57.8946 42.1572 58 41.892 58C41.6268 58 41.3724 57.8946 41.1849 57.7071C40.9974 57.5196 40.892 57.2652 40.892 57V55.485C39.4269 55.4589 38.0054 54.9819 36.821 54.119C36.599 53.9731 36.4441 53.7451 36.3902 53.4849C36.3364 53.2248 36.3881 52.954 36.534 52.732C36.6799 52.51 36.9079 52.3551 37.1681 52.3012C37.4282 52.2474 37.699 52.2991 37.921 52.445C38.7792 53.0952 39.8197 53.4596 40.896 53.487V45.856C39.9721 45.4805 39.0997 44.9889 38.3 44.393C37.724 43.9017 37.2939 43.2617 37.0565 42.5428C36.8192 41.8239 36.7837 41.0537 36.954 40.316C37.1003 39.4604 37.4795 38.6618 38.05 38.0076C38.6205 37.3535 39.3603 36.8692 40.188 36.608C40.428 36.536 40.66 36.481 40.888 36.436V35C40.888 34.7348 40.9934 34.4804 41.1809 34.2929C41.3684 34.1054 41.6228 34 41.888 34C42.1532 34 42.4076 34.1054 42.5951 34.2929C42.7826 34.4804 42.888 34.7348 42.888 35V36.359C44.0605 36.4935 45.1687 36.9656 46.078 37.718C46.267 37.8987 46.3777 38.1462 46.3865 38.4075C46.3952 38.6688 46.3012 38.9232 46.1247 39.116C45.9482 39.3089 45.7031 39.425 45.442 39.4394C45.181 39.4538 44.9247 39.3653 44.728 39.193C44.1923 38.7734 43.5595 38.4955 42.888 38.385V44.511C43.262 44.655 43.658 44.802 44.1 44.958C45.2807 45.3196 46.2862 46.1044 46.9236 47.1619C47.5611 48.2195 47.7856 49.4751 47.554 50.688V50.688ZM59 55C59 55.2652 58.8946 55.5196 58.7071 55.7071C58.5196 55.8946 58.2652 56 58 56C57.7348 56 57.4804 55.8946 57.2929 55.7071C57.1054 55.5196 57 55.2652 57 55V37C57 36.7348 57.1054 36.4804 57.2929 36.2929C57.4804 36.1054 57.7348 36 58 36C58.2652 36 58.5196 36.1054 58.7071 36.2929C58.8946 36.4804 59 36.7348 59 37V55Z" fill="#ED954A"/>
<path d="M38.924 40.687C38.824 41.0645 38.8284 41.4621 38.9365 41.8374C39.0446 42.2126 39.2525 42.5515 39.538 42.818C39.961 43.1382 40.4145 43.4158 40.892 43.647V38.5C40.3876 38.6352 39.9332 38.9137 39.584 39.3019C39.2347 39.6901 39.0054 40.1712 38.924 40.687Z" fill="#ED954A"/>
<path d="M31 19C31 18.7348 31.1054 18.4804 31.2929 18.2929C31.4804 18.1054 31.7348 18 32 18H52C52.2652 18 52.5196 18.1054 52.7071 18.2929C52.8946 18.4804 53 18.7348 53 19V28H59V17C59 15.6739 58.4732 14.4021 57.5355 13.4645C56.5979 12.5268 55.3261 12 54 12H30C28.6739 12 27.4021 12.5268 26.4645 13.4645C25.5268 14.4021 25 15.6739 25 17V28H31V19Z" fill="#ED954A"/>
<path d="M42.892 46.646V53.352C43.5792 53.1594 44.1972 52.7748 44.6736 52.2435C45.15 51.7122 45.4652 51.056 45.582 50.352C45.944 48.2 44.6 47.267 42.892 46.646Z" fill="#ED954A"/>
<path d="M48 2H4C3.20435 2 2.44129 2.31607 1.87868 2.87868C1.31607 3.44129 1 4.20435 1 5V41C1 41.7956 1.31607 42.5587 1.87868 43.1213C2.44129 43.6839 3.20435 44 4 44H8V46C8 46.7956 8.31607 47.5587 8.87868 48.1213C9.44129 48.6839 10.2044 49 11 49H17C17.7956 49 18.5587 48.6839 19.1213 48.1213C19.6839 47.5587 20 46.7956 20 46V44H32V46C32 46.7956 32.3161 47.5587 32.8787 48.1213C33.4413 48.6839 34.2044 49 35 49H41C41.7956 49 42.5587 48.6839 43.1213 48.1213C43.6839 47.5587 44 46.7956 44 46V44H48C48.7956 44 49.5587 43.6839 50.1213 43.1213C50.6839 42.5587 51 41.7956 51 41V5C51 4.20435 50.6839 3.44129 50.1213 2.87868C49.5587 2.31607 48.7956 2 48 2ZM18 46C18 46.2652 17.8946 46.5196 17.7071 46.7071C17.5196 46.8946 17.2652 47 17 47H11C10.7348 47 10.4804 46.8946 10.2929 46.7071C10.1054 46.5196 10 46.2652 10 46V44H18V46ZM42 46C42 46.2652 41.8946 46.5196 41.7071 46.7071C41.5196 46.8946 41.2652 47 41 47H35C34.7348 47 34.4804 46.8946 34.2929 46.7071C34.1054 46.5196 34 46.2652 34 46V44H42V46ZM49 41C49 41.2652 48.8946 41.5196 48.7071 41.7071C48.5196 41.8946 48.2652 42 48 42H4C3.73478 42 3.48043 41.8946 3.29289 41.7071C3.10536 41.5196 3 41.2652 3 41V5C3 4.73478 3.10536 4.48043 3.29289 4.29289C3.48043 4.10536 3.73478 4 4 4H48C48.2652 4 48.5196 4.10536 48.7071 4.29289C48.8946 4.48043 49 4.73478 49 5V41Z" fill="#202020"/>
<path d="M27.215 13.841C27.205 13.831 27.202 13.818 27.192 13.808C27.182 13.798 27.169 13.795 27.159 13.785C24.7271 11.3611 21.4336 9.99998 18 9.99998C14.5664 9.99998 11.2729 11.3611 8.841 13.785C8.831 13.795 8.818 13.798 8.808 13.808C8.798 13.818 8.795 13.831 8.785 13.841C6.36107 16.2729 4.99998 19.5664 4.99998 23C4.99998 26.4336 6.36107 29.7271 8.785 32.159C8.795 32.169 8.798 32.182 8.808 32.192C8.818 32.202 8.831 32.205 8.841 32.215C11.2729 34.6389 14.5664 36 18 36C21.4336 36 24.7271 34.6389 27.159 32.215C27.169 32.205 27.182 32.202 27.192 32.192C27.202 32.182 27.205 32.169 27.215 32.159C29.6389 29.7271 31 26.4336 31 23C31 19.5664 29.6389 16.2729 27.215 13.841V13.841ZM26 24H28.949C28.7493 26.2189 27.8771 28.3241 26.449 30.034L24.364 27.95C24.1754 27.7678 23.9228 27.6671 23.6606 27.6693C23.3984 27.6716 23.1476 27.7768 22.9622 27.9622C22.7768 28.1476 22.6716 28.3984 22.6693 28.6606C22.6671 28.9228 22.7678 29.1754 22.95 29.364L25.034 31.448C23.3241 32.8763 21.219 33.7489 19 33.949V31C19 30.7348 18.8946 30.4804 18.7071 30.2929C18.5196 30.1054 18.2652 30 18 30C17.7348 30 17.4804 30.1054 17.2929 30.2929C17.1054 30.4804 17 30.7348 17 31V33.949C14.7811 33.7491 12.6761 32.877 10.966 31.449L13.05 29.365C13.2322 29.1764 13.333 28.9238 13.3307 28.6616C13.3284 28.3994 13.2232 28.1486 13.0378 27.9632C12.8524 27.7778 12.6016 27.6726 12.3394 27.6703C12.0772 27.6681 11.8246 27.7688 11.636 27.951L9.552 30.034C8.1235 28.3242 7.25096 26.219 7.051 24H10C10.2652 24 10.5196 23.8946 10.7071 23.7071C10.8946 23.5196 11 23.2652 11 23C11 22.7348 10.8946 22.4804 10.7071 22.2929C10.5196 22.1054 10.2652 22 10 22H7.051C7.25067 19.7811 8.12286 17.676 9.551 15.966L11.635 18.05C11.8236 18.2322 12.0762 18.333 12.3384 18.3307C12.6006 18.3284 12.8514 18.2232 13.0368 18.0378C13.2222 17.8524 13.3274 17.6016 13.3297 17.3394C13.332 17.0772 13.2312 16.8246 13.049 16.636L10.965 14.552C12.6752 13.1235 14.7807 12.2509 17 12.051V15C17 15.2652 17.1054 15.5196 17.2929 15.7071C17.4804 15.8946 17.7348 16 18 16C18.2652 16 18.5196 15.8946 18.7071 15.7071C18.8946 15.5196 19 15.2652 19 15V12.051C21.2189 12.2509 23.324 13.123 25.034 14.551L22.95 16.636C22.7678 16.8246 22.6671 17.0772 22.6693 17.3394C22.6716 17.6016 22.7768 17.8524 22.9622 18.0378C23.1476 18.2232 23.3984 18.3284 23.6606 18.3307C23.9228 18.333 24.1754 18.2322 24.364 18.05L26.448 15.966C27.8765 17.6758 28.749 19.781 28.949 22H26C25.7348 22 25.4804 22.1054 25.2929 22.2929C25.1054 22.4804 25 22.7348 25 23C25 23.2652 25.1054 23.5196 25.2929 23.7071C25.4804 23.8946 25.7348 24 26 24Z" fill="#202020"/>
<path d="M18 19C17.2089 19 16.4355 19.2346 15.7777 19.6741C15.1199 20.1136 14.6072 20.7384 14.3045 21.4693C14.0017 22.2002 13.9225 23.0044 14.0769 23.7804C14.2312 24.5563 14.6122 25.269 15.1716 25.8284C15.731 26.3878 16.4437 26.7688 17.2196 26.9231C17.9956 27.0775 18.7998 26.9983 19.5307 26.6955C20.2616 26.3928 20.8864 25.8801 21.3259 25.2223C21.7654 24.5645 22 23.7911 22 23C22 21.9391 21.5786 20.9217 20.8284 20.1716C20.0783 19.4214 19.0609 19 18 19ZM18 25C17.6044 25 17.2178 24.8827 16.8889 24.6629C16.56 24.4432 16.3036 24.1308 16.1522 23.7654C16.0009 23.3999 15.9613 22.9978 16.0384 22.6098C16.1156 22.2219 16.3061 21.8655 16.5858 21.5858C16.8655 21.3061 17.2219 21.1156 17.6098 21.0384C17.9978 20.9613 18.3999 21.0009 18.7654 21.1522C19.1308 21.3036 19.4432 21.56 19.6629 21.8889C19.8827 22.2178 20 22.6044 20 23C20 23.5304 19.7893 24.0391 19.4142 24.4142C19.0391 24.7893 18.5304 25 18 25Z" fill="#202020"/>
<path d="M46 10C45.7348 10 45.4804 10.1054 45.2929 10.2929C45.1054 10.4804 45 10.7348 45 11V16H39V11C39 10.7348 38.8946 10.4804 38.7071 10.2929C38.5196 10.1054 38.2652 10 38 10C37.7348 10 37.4804 10.1054 37.2929 10.2929C37.1054 10.4804 37 10.7348 37 11V35C37 35.2652 37.1054 35.5196 37.2929 35.7071C37.4804 35.8946 37.7348 36 38 36C38.2652 36 38.5196 35.8946 38.7071 35.7071C38.8946 35.5196 39 35.2652 39 35V30H45V35C45 35.2652 45.1054 35.5196 45.2929 35.7071C45.4804 35.8946 45.7348 36 46 36C46.2652 36 46.5196 35.8946 46.7071 35.7071C46.8946 35.5196 47 35.2652 47 35V11C47 10.7348 46.8946 10.4804 46.7071 10.2929C46.5196 10.1054 46.2652 10 46 10ZM39 28V18H45V28H39Z" fill="#202020"/>
</svg>
