<svg width="64" height="64" viewBox="0 0 64 64" fill="none" xmlns="http://www.w3.org/2000/svg">
<path d="M60 12.5H28C27.2044 12.5 26.4413 12.8161 25.8787 13.3787C25.3161 13.9413 25 14.7044 25 15.5V59.5C25 60.2956 25.3161 61.0587 25.8787 61.6213C26.4413 62.1839 27.2044 62.5 28 62.5H60C60.7956 62.5 61.5587 62.1839 62.1213 61.6213C62.6839 61.0587 63 60.2956 63 59.5V15.5C63 14.7044 62.6839 13.9413 62.1213 13.3787C61.5587 12.8161 60.7956 12.5 60 12.5V12.5ZM31 18.5H36C36.2652 18.5 36.5196 18.6054 36.7071 18.7929C36.8946 18.9804 37 19.2348 37 19.5C37 19.7652 36.8946 20.0196 36.7071 20.2071C36.5196 20.3946 36.2652 20.5 36 20.5H31C30.7348 20.5 30.4804 20.3946 30.2929 20.2071C30.1054 20.0196 30 19.7652 30 19.5C30 19.2348 30.1054 18.9804 30.2929 18.7929C30.4804 18.6054 30.7348 18.5 31 18.5ZM31 24.5H46C46.2652 24.5 46.5196 24.6054 46.7071 24.7929C46.8946 24.9804 47 25.2348 47 25.5C47 25.7652 46.8946 26.0196 46.7071 26.2071C46.5196 26.3946 46.2652 26.5 46 26.5H31C30.7348 26.5 30.4804 26.3946 30.2929 26.2071C30.1054 26.0196 30 25.7652 30 25.5C30 25.2348 30.1054 24.9804 30.2929 24.7929C30.4804 24.6054 30.7348 24.5 31 24.5ZM31 30.5H36C36.2652 30.5 36.5196 30.6054 36.7071 30.7929C36.8946 30.9804 37 31.2348 37 31.5C37 31.7652 36.8946 32.0196 36.7071 32.2071C36.5196 32.3946 36.2652 32.5 36 32.5H31C30.7348 32.5 30.4804 32.3946 30.2929 32.2071C30.1054 32.0196 30 31.7652 30 31.5C30 31.2348 30.1054 30.9804 30.2929 30.7929C30.4804 30.6054 30.7348 30.5 31 30.5ZM31 36.5H46C46.2652 36.5 46.5196 36.6054 46.7071 36.7929C46.8946 36.9804 47 37.2348 47 37.5C47 37.7652 46.8946 38.0196 46.7071 38.2071C46.5196 38.3946 46.2652 38.5 46 38.5H31C30.7348 38.5 30.4804 38.3946 30.2929 38.2071C30.1054 38.0196 30 37.7652 30 37.5C30 37.2348 30.1054 36.9804 30.2929 36.7929C30.4804 36.6054 30.7348 36.5 31 36.5ZM31 42.5H36C36.2652 42.5 36.5196 42.6054 36.7071 42.7929C36.8946 42.9804 37 43.2348 37 43.5C37 43.7652 36.8946 44.0196 36.7071 44.2071C36.5196 44.3946 36.2652 44.5 36 44.5H31C30.7348 44.5 30.4804 44.3946 30.2929 44.2071C30.1054 44.0196 30 43.7652 30 43.5C30 43.2348 30.1054 42.9804 30.2929 42.7929C30.4804 42.6054 30.7348 42.5 31 42.5ZM31 48.5H46C46.2652 48.5 46.5196 48.6054 46.7071 48.7929C46.8946 48.9804 47 49.2348 47 49.5C47 49.7652 46.8946 50.0196 46.7071 50.2071C46.5196 50.3946 46.2652 50.5 46 50.5H31C30.7348 50.5 30.4804 50.3946 30.2929 50.2071C30.1054 50.0196 30 49.7652 30 49.5C30 49.2348 30.1054 48.9804 30.2929 48.7929C30.4804 48.6054 30.7348 48.5 31 48.5ZM36 56.5H31C30.7348 56.5 30.4804 56.3946 30.2929 56.2071C30.1054 56.0196 30 55.7652 30 55.5C30 55.2348 30.1054 54.9804 30.2929 54.7929C30.4804 54.6054 30.7348 54.5 31 54.5H36C36.2652 54.5 36.5196 54.6054 36.7071 54.7929C36.8946 54.9804 37 55.2348 37 55.5C37 55.7652 36.8946 56.0196 36.7071 56.2071C36.5196 56.3946 36.2652 56.5 36 56.5ZM57 56.5H42C41.7348 56.5 41.4804 56.3946 41.2929 56.2071C41.1054 56.0196 41 55.7652 41 55.5C41 55.2348 41.1054 54.9804 41.2929 54.7929C41.4804 54.6054 41.7348 54.5 42 54.5H57C57.2652 54.5 57.5196 54.6054 57.7071 54.7929C57.8946 54.9804 58 55.2348 58 55.5C58 55.7652 57.8946 56.0196 57.7071 56.2071C57.5196 56.3946 57.2652 56.5 57 56.5ZM57 50.5H52C51.7348 50.5 51.4804 50.3946 51.2929 50.2071C51.1054 50.0196 51 49.7652 51 49.5C51 49.2348 51.1054 48.9804 51.2929 48.7929C51.4804 48.6054 51.7348 48.5 52 48.5H57C57.2652 48.5 57.5196 48.6054 57.7071 48.7929C57.8946 48.9804 58 49.2348 58 49.5C58 49.7652 57.8946 50.0196 57.7071 50.2071C57.5196 50.3946 57.2652 50.5 57 50.5ZM57 44.5H42C41.7348 44.5 41.4804 44.3946 41.2929 44.2071C41.1054 44.0196 41 43.7652 41 43.5C41 43.2348 41.1054 42.9804 41.2929 42.7929C41.4804 42.6054 41.7348 42.5 42 42.5H57C57.2652 42.5 57.5196 42.6054 57.7071 42.7929C57.8946 42.9804 58 43.2348 58 43.5C58 43.7652 57.8946 44.0196 57.7071 44.2071C57.5196 44.3946 57.2652 44.5 57 44.5ZM57 38.5H52C51.7348 38.5 51.4804 38.3946 51.2929 38.2071C51.1054 38.0196 51 37.7652 51 37.5C51 37.2348 51.1054 36.9804 51.2929 36.7929C51.4804 36.6054 51.7348 36.5 52 36.5H57C57.2652 36.5 57.5196 36.6054 57.7071 36.7929C57.8946 36.9804 58 37.2348 58 37.5C58 37.7652 57.8946 38.0196 57.7071 38.2071C57.5196 38.3946 57.2652 38.5 57 38.5ZM57 32.5H42C41.7348 32.5 41.4804 32.3946 41.2929 32.2071C41.1054 32.0196 41 31.7652 41 31.5C41 31.2348 41.1054 30.9804 41.2929 30.7929C41.4804 30.6054 41.7348 30.5 42 30.5H57C57.2652 30.5 57.5196 30.6054 57.7071 30.7929C57.8946 30.9804 58 31.2348 58 31.5C58 31.7652 57.8946 32.0196 57.7071 32.2071C57.5196 32.3946 57.2652 32.5 57 32.5ZM57 26.5H52C51.7348 26.5 51.4804 26.3946 51.2929 26.2071C51.1054 26.0196 51 25.7652 51 25.5C51 25.2348 51.1054 24.9804 51.2929 24.7929C51.4804 24.6054 51.7348 24.5 52 24.5H57C57.2652 24.5 57.5196 24.6054 57.7071 24.7929C57.8946 24.9804 58 25.2348 58 25.5C58 25.7652 57.8946 26.0196 57.7071 26.2071C57.5196 26.3946 57.2652 26.5 57 26.5ZM57 20.5H42C41.7348 20.5 41.4804 20.3946 41.2929 20.2071C41.1054 20.0196 41 19.7652 41 19.5C41 19.2348 41.1054 18.9804 41.2929 18.7929C41.4804 18.6054 41.7348 18.5 42 18.5H57C57.2652 18.5 57.5196 18.6054 57.7071 18.7929C57.8946 18.9804 58 19.2348 58 19.5C58 19.7652 57.8946 20.0196 57.7071 20.2071C57.5196 20.3946 57.2652 20.5 57 20.5Z" fill="#ED954A"/>
<path d="M36 1.5H4C3.20435 1.5 2.44129 1.81607 1.87868 2.37868C1.31607 2.94129 1 3.70435 1 4.5V47.5C1 48.2956 1.31607 49.0587 1.87868 49.6213C2.44129 50.1839 3.20435 50.5 4 50.5H36C36.7956 50.5 37.5587 50.1839 38.1213 49.6213C38.6839 49.0587 39 48.2956 39 47.5V4.5C39 3.70435 38.6839 2.94129 38.1213 2.37868C37.5587 1.81607 36.7956 1.5 36 1.5V1.5ZM37 47.5C37 47.7652 36.8946 48.0196 36.7071 48.2071C36.5196 48.3946 36.2652 48.5 36 48.5H4C3.73478 48.5 3.48043 48.3946 3.29289 48.2071C3.10536 48.0196 3 47.7652 3 47.5V4.5C3 4.23478 3.10536 3.98043 3.29289 3.79289C3.48043 3.60536 3.73478 3.5 4 3.5H36C36.2652 3.5 36.5196 3.60536 36.7071 3.79289C36.8946 3.98043 37 4.23478 37 4.5V47.5Z" fill="#202020"/>
<path d="M23 43.5H17C16.7348 43.5 16.4804 43.6054 16.2929 43.7929C16.1054 43.9804 16 44.2348 16 44.5C16 44.7652 16.1054 45.0196 16.2929 45.2071C16.4804 45.3946 16.7348 45.5 17 45.5H23C23.2652 45.5 23.5196 45.3946 23.7071 45.2071C23.8946 45.0196 24 44.7652 24 44.5C24 44.2348 23.8946 43.9804 23.7071 43.7929C23.5196 43.6054 23.2652 43.5 23 43.5Z" fill="#202020"/>
<path d="M33 6.5H7C6.73478 6.5 6.48043 6.60536 6.29289 6.79289C6.10536 6.98043 6 7.23478 6 7.5V39.5C6 39.7652 6.10536 40.0196 6.29289 40.2071C6.48043 40.3946 6.73478 40.5 7 40.5H33C33.2652 40.5 33.5196 40.3946 33.7071 40.2071C33.8946 40.0196 34 39.7652 34 39.5V7.5C34 7.23478 33.8946 6.98043 33.7071 6.79289C33.5196 6.60536 33.2652 6.5 33 6.5ZM32 38.5H8V8.5H32V38.5Z" fill="#202020"/>
<path d="M12 32.5H28C28.2652 32.5 28.5196 32.3946 28.7071 32.2071C28.8946 32.0196 29 31.7652 29 31.5C29 31.2348 28.8946 30.9804 28.7071 30.7929C28.5196 30.6054 28.2652 30.5 28 30.5H12C11.7348 30.5 11.4804 30.6054 11.2929 30.7929C11.1054 30.9804 11 31.2348 11 31.5C11 31.7652 11.1054 32.0196 11.2929 32.2071C11.4804 32.3946 11.7348 32.5 12 32.5V32.5Z" fill="#202020"/>
<path d="M12 24.5H23C23.2652 24.5 23.5196 24.3946 23.7071 24.2071C23.8946 24.0196 24 23.7652 24 23.5C24 23.2348 23.8946 22.9804 23.7071 22.7929C23.5196 22.6054 23.2652 22.5 23 22.5H12C11.7348 22.5 11.4804 22.6054 11.2929 22.7929C11.1054 22.9804 11 23.2348 11 23.5C11 23.7652 11.1054 24.0196 11.2929 24.2071C11.4804 24.3946 11.7348 24.5 12 24.5V24.5Z" fill="#202020"/>
<path d="M12 16.5H28C28.2652 16.5 28.5196 16.3946 28.7071 16.2071C28.8946 16.0196 29 15.7652 29 15.5C29 15.2348 28.8946 14.9804 28.7071 14.7929C28.5196 14.6054 28.2652 14.5 28 14.5H12C11.7348 14.5 11.4804 14.6054 11.2929 14.7929C11.1054 14.9804 11 15.2348 11 15.5C11 15.7652 11.1054 16.0196 11.2929 16.2071C11.4804 16.3946 11.7348 16.5 12 16.5V16.5Z" fill="#202020"/>
</svg>
