<svg width="64" height="64" viewBox="0 0 64 64" fill="none" xmlns="http://www.w3.org/2000/svg">
<path d="M62 57.5H16C15.4477 57.5 15 57.9477 15 58.5V61.5C15 62.0523 15.4477 62.5 16 62.5H62C62.5523 62.5 63 62.0523 63 61.5V58.5C63 57.9477 62.5523 57.5 62 57.5Z" fill="#ED954A"/>
<path d="M43 40.5C43 39.7089 42.7654 38.9355 42.3259 38.2777C41.8864 37.6199 41.2616 37.1072 40.5307 36.8045C39.7998 36.5017 38.9956 36.4225 38.2196 36.5769C37.4437 36.7312 36.731 37.1122 36.1716 37.6716C35.6122 38.231 35.2312 38.9437 35.0769 39.7196C34.9225 40.4956 35.0017 41.2998 35.3045 42.0307C35.6072 42.7616 36.1199 43.3864 36.7777 43.8259C37.4355 44.2654 38.2089 44.5 39 44.5C40.0609 44.5 41.0783 44.0786 41.8284 43.3284C42.5786 42.5783 43 41.5609 43 40.5ZM38 41.5V39.5C38 39.2348 38.1054 38.9804 38.2929 38.7929C38.4804 38.6054 38.7348 38.5 39 38.5C39.2652 38.5 39.5196 38.6054 39.7071 38.7929C39.8946 38.9804 40 39.2348 40 39.5V41.5C40 41.7652 39.8946 42.0196 39.7071 42.2071C39.5196 42.3946 39.2652 42.5 39 42.5C38.7348 42.5 38.4804 42.3946 38.2929 42.2071C38.1054 42.0196 38 41.7652 38 41.5Z" fill="#ED954A"/>
<path d="M39 31.5C37.22 31.5 35.4799 32.0278 33.9999 33.0168C32.5198 34.0057 31.3663 35.4113 30.6851 37.0559C30.0039 38.7004 29.8257 40.51 30.1729 42.2558C30.5202 44.0016 31.3774 45.6053 32.636 46.864C33.8947 48.1226 35.4984 48.9798 37.2442 49.3271C38.99 49.6743 40.7996 49.4961 42.4442 48.8149C44.0887 48.1337 45.4943 46.9802 46.4832 45.5001C47.4722 44.0201 48 42.28 48 40.5C47.9974 38.1139 47.0483 35.8262 45.361 34.139C43.6738 32.4517 41.3861 31.5026 39 31.5V31.5ZM39 46.5C37.8133 46.5 36.6533 46.1481 35.6666 45.4888C34.6799 44.8295 33.9109 43.8925 33.4567 42.7961C33.0026 41.6997 32.8838 40.4933 33.1153 39.3295C33.3468 38.1656 33.9182 37.0965 34.7574 36.2574C35.5965 35.4182 36.6656 34.8468 37.8295 34.6153C38.9933 34.3838 40.1997 34.5026 41.2961 34.9567C42.3925 35.4108 43.3295 36.1799 43.9888 37.1666C44.6481 38.1533 45 39.3133 45 40.5C44.9984 42.0908 44.3658 43.616 43.2409 44.7409C42.116 45.8658 40.5908 46.4984 39 46.5Z" fill="#ED954A"/>
<path d="M57 25.5H21C20.2044 25.5 19.4413 25.8161 18.8787 26.3787C18.3161 26.9413 18 27.7044 18 28.5V54.5C18 54.7652 18.1054 55.0196 18.2929 55.2071C18.4804 55.3946 18.7348 55.5 19 55.5H59C59.2652 55.5 59.5196 55.3946 59.7071 55.2071C59.8946 55.0196 60 54.7652 60 54.5V28.5C60 27.7044 59.6839 26.9413 59.1213 26.3787C58.5587 25.8161 57.7956 25.5 57 25.5ZM39 51.5C36.8244 51.5 34.6977 50.8549 32.8887 49.6462C31.0798 48.4375 29.6699 46.7195 28.8373 44.7095C28.0048 42.6995 27.7869 40.4878 28.2114 38.354C28.6358 36.2202 29.6834 34.2602 31.2218 32.7218C32.7602 31.1834 34.7202 30.1358 36.854 29.7114C38.9878 29.2869 41.1995 29.5048 43.2095 30.3373C45.2195 31.1699 46.9375 32.5798 48.1462 34.3887C49.3549 36.1977 50 38.3244 50 40.5C49.9966 43.4163 48.8365 46.2122 46.7744 48.2744C44.7122 50.3365 41.9163 51.4966 39 51.5V51.5Z" fill="#ED954A"/>
<path d="M46.26 11.9L49.828 8.33199C50.0155 8.14446 50.1208 7.89016 50.1208 7.62499C50.1208 7.35983 50.0155 7.10552 49.828 6.91799L45.586 2.67199C45.3985 2.48452 45.1442 2.37921 44.879 2.37921C44.6138 2.37921 44.3595 2.48452 44.172 2.67199L40.6 6.23999C36.3596 3.1508 31.2463 1.49074 26 1.49999C21.0555 1.49999 16.222 2.96622 12.1107 5.71325C7.99951 8.46029 4.7952 12.3648 2.90301 16.9329C1.01082 21.5011 0.515733 26.5277 1.48036 31.3773C2.44499 36.2268 4.82601 40.6813 8.32233 44.1777C11.8186 47.674 16.2732 50.055 21.1227 51.0196C25.9723 51.9843 30.9989 51.4892 35.5671 49.597C40.1352 47.7048 44.0397 44.5005 46.7867 40.3892C49.5338 36.278 51 31.4445 51 26.5C51.0089 21.2537 49.3489 16.1406 46.26 11.9V11.9ZM44.879 4.79999L47.707 7.62799L33.414 21.914C33.2265 22.1015 33.1212 22.3558 33.1212 22.621C33.1212 22.8862 33.2265 23.1405 33.414 23.328L35.586 25.5H27V16.914L29.172 19.086C29.3595 19.2735 29.6138 19.3788 29.879 19.3788C30.1442 19.3788 30.3985 19.2735 30.586 19.086L44.879 4.79999ZM26 31.5C24.76 31.5012 23.5639 31.0417 22.6437 30.2106C21.7235 29.3795 21.1449 28.2362 21.0203 27.0025C20.8957 25.7688 21.2339 24.5328 21.9693 23.5345C22.7047 22.5362 23.7848 21.8467 25 21.6V26.5C25 26.7652 25.1054 27.0196 25.2929 27.2071C25.4804 27.3946 25.7348 27.5 26 27.5H30.9C30.6679 28.6286 30.0538 29.6426 29.1612 30.3713C28.2687 31.0999 27.1522 31.4985 26 31.5V31.5ZM32.92 27.5H36.949C36.7601 29.5823 35.9815 31.5677 34.7047 33.2234C33.4278 34.8792 31.7055 36.1367 29.7396 36.8487C27.7736 37.5606 25.6455 37.6975 23.6045 37.2433C21.5636 36.7891 19.6943 35.7626 18.2158 34.2842C16.7373 32.8057 15.7109 30.9364 15.2567 28.8955C14.8025 26.8545 14.9394 24.7264 15.6513 22.7604C16.3633 20.7945 17.6208 19.0722 19.2766 17.7953C20.9323 16.5184 22.9177 15.7399 25 15.551V19.58C23.7131 19.7639 22.5029 20.3026 21.5049 21.1355C20.5069 21.9685 19.7606 23.063 19.3496 24.2962C18.9385 25.5295 18.879 26.8528 19.1777 28.118C19.4764 29.3831 20.1215 30.5401 21.0407 31.4593C21.9599 32.3785 23.1169 33.0236 24.382 33.3223C25.6472 33.621 26.9705 33.5615 28.2038 33.1504C29.437 32.7394 30.5315 31.9931 31.3645 30.9951C32.1974 29.9971 32.7361 28.7869 32.92 27.5V27.5ZM26.7 13.79C26.5922 13.6918 26.4659 13.6161 26.3286 13.5672C26.1913 13.5182 26.0456 13.4971 25.9 13.505V13.505C23.337 13.5238 20.8368 14.2998 18.7136 15.7354C16.5904 17.1711 14.9389 19.2023 13.9667 21.5738C12.9946 23.9454 12.7452 26.5513 13.2498 29.0642C13.7544 31.5771 14.9906 33.8847 16.803 35.697C18.6153 37.5094 20.9229 38.7455 23.4358 39.2502C25.9487 39.7548 28.5546 39.5054 30.9262 38.5332C33.2977 37.5611 35.3289 35.9096 36.7646 33.7864C38.2002 31.6632 38.9762 29.163 38.995 26.6V26.59C39.0025 26.4455 38.9812 26.301 38.9322 26.1648C38.8833 26.0287 38.8077 25.9036 38.71 25.797V25.797L35.539 22.626L40.498 17.667C42.135 20.3223 43.0013 23.3806 43 26.5C43 29.8623 42.003 33.1491 40.135 35.9447C38.267 38.7403 35.612 40.9193 32.5056 42.2059C29.3993 43.4926 25.9811 43.8293 22.6835 43.1733C19.3858 42.5174 16.3567 40.8983 13.9792 38.5208C11.6017 36.1433 9.9826 33.1142 9.32665 29.8165C8.6707 26.5189 9.00735 23.1007 10.294 19.9944C11.5807 16.888 13.7597 14.233 16.5553 12.365C19.3509 10.497 22.6377 9.49999 26 9.49999C29.1215 9.49901 32.1816 10.3667 34.838 12.006L29.879 16.965L26.708 13.794L26.7 13.79ZM26 49.5C19.9 49.5 14.0499 47.0768 9.73654 42.7634C5.4232 38.4501 3 32.6 3 26.5C3 20.4 5.4232 14.5499 9.73654 10.2365C14.0499 5.9232 19.9 3.49999 26 3.49999C30.7167 3.49116 35.3195 4.94912 39.171 7.67199L36.281 10.563C33.2242 8.56516 29.6517 7.50082 26 7.49999C22.2422 7.49999 18.5687 8.61432 15.4442 10.7021C12.3196 12.7898 9.88435 15.7572 8.44628 19.229C7.00822 22.7008 6.63196 26.5211 7.36508 30.2067C8.09819 33.8923 9.90777 37.2778 12.565 39.935C15.2222 42.5922 18.6076 44.4018 22.2933 45.1349C25.9789 45.868 29.7992 45.4918 33.271 44.0537C36.7428 42.6156 39.7102 40.1804 41.7979 37.0558C43.8857 33.9313 45 30.2578 45 26.5C44.9989 22.8484 43.9349 19.2761 41.938 16.219L44.827 13.329C47.5505 17.1802 49.0088 21.7831 49 26.5C48.9931 32.5979 46.5677 38.444 42.2559 42.7558C37.944 47.0677 32.0979 49.4931 26 49.5V49.5Z" fill="#202020"/>
</svg>
