<svg width="64" height="64" viewBox="0 0 64 64" fill="none" xmlns="http://www.w3.org/2000/svg">
<path d="M62.5 44.67L59.37 42.862C60.4967 39.0349 60.4967 34.9641 59.37 31.137L62.5 29.33C62.7297 29.1974 62.8973 28.979 62.9659 28.7228C63.0345 28.4666 62.9986 28.1937 62.866 27.964L58.866 21.036C58.7334 20.8063 58.515 20.6387 58.2588 20.5701C58.0026 20.5015 57.7297 20.5374 57.5 20.67L54.36 22.482C51.6131 19.5881 48.0912 17.5461 44.215 16.6V13C44.215 12.7348 44.1096 12.4804 43.9221 12.2929C43.7346 12.1054 43.4802 12 43.215 12H35.215C34.9498 12 34.6954 12.1054 34.5079 12.2929C34.3204 12.4804 34.215 12.7348 34.215 13V16.6C30.3388 17.5461 26.8169 19.5881 24.07 22.482L20.93 20.67C20.7003 20.5374 20.4274 20.5015 20.1712 20.5701C19.915 20.6387 19.6966 20.8063 19.564 21.036L15.564 27.964C15.4314 28.1937 15.3955 28.4666 15.4641 28.7228C15.5327 28.979 15.7003 29.1974 15.93 29.33L19.06 31.137C17.9333 34.9641 17.9333 39.0349 19.06 42.862L15.93 44.67C15.7003 44.8026 15.5327 45.021 15.4641 45.2772C15.3955 45.5334 15.4314 45.8063 15.564 46.036L19.564 52.964C19.6966 53.1937 19.915 53.3613 20.1712 53.4299C20.4274 53.4985 20.7003 53.4626 20.93 53.33L24.07 51.518C26.8168 54.412 30.3388 56.454 34.215 57.4V61C34.215 61.2652 34.3204 61.5196 34.5079 61.7071C34.6954 61.8946 34.9498 62 35.215 62H43.215C43.4802 62 43.7346 61.8946 43.9221 61.7071C44.1096 61.5196 44.215 61.2652 44.215 61V57.4C48.0912 56.454 51.6132 54.412 54.36 51.518L57.5 53.33C57.7297 53.4626 58.0026 53.4985 58.2588 53.4299C58.515 53.3613 58.7334 53.1937 58.866 52.964L62.866 46.036C62.9986 45.8063 63.0345 45.5334 62.9659 45.2772C62.8973 45.021 62.7297 44.8026 62.5 44.67ZM28.215 37C28.215 34.8244 28.8601 32.6977 30.0688 30.8887C31.2775 29.0798 32.9955 27.6699 35.0055 26.8373C37.0155 26.0048 39.2272 25.7869 41.361 26.2114C43.4948 26.6358 45.4548 27.6834 46.9932 29.2218C48.5315 30.7602 49.5792 32.7202 50.0036 34.854C50.4281 36.9878 50.2102 39.1995 49.3777 41.2095C48.5451 43.2195 47.1352 44.9375 45.3263 46.1462C43.5173 47.3549 41.3906 48 39.215 48C36.2987 47.9966 33.5028 46.8365 31.4406 44.7744C29.3785 42.7122 28.2184 39.9163 28.215 37V37ZM39.215 55C38.9498 55 38.6954 54.8946 38.5079 54.7071C38.3204 54.5196 38.215 54.2652 38.215 54C38.215 53.7348 38.3204 53.4804 38.5079 53.2929C38.6954 53.1054 38.9498 53 39.215 53C43.4569 52.995 47.5237 51.3076 50.5232 48.3082C53.5226 45.3087 55.21 41.2419 55.215 37C55.215 36.7348 55.3204 36.4804 55.5079 36.2929C55.6954 36.1054 55.9498 36 56.215 36C56.4802 36 56.7346 36.1054 56.9221 36.2929C57.1096 36.4804 57.215 36.7348 57.215 37C57.2094 41.7722 55.3112 46.3473 51.9368 49.7218C48.5623 53.0962 43.9872 54.9944 39.215 55V55Z" fill="#ED954A"/>
<path d="M47.9 32.553L43 22.762C42.9679 19.9268 42.3619 17.1275 41.2187 14.5328C40.0755 11.9382 38.4187 9.60188 36.3482 7.66481C34.2777 5.72773 31.8364 4.23001 29.1714 3.26193C26.5065 2.29385 23.673 1.87547 20.842 2.032C15.5173 2.38729 10.521 4.7321 6.84512 8.60079C3.16928 12.4695 1.0828 17.5791 1.00001 22.915C0.997005 26.5546 1.93531 30.1332 3.72379 33.3031C5.51227 36.4731 8.09013 39.1266 11.207 41.006C11.7079 41.31 12.1069 41.7562 12.3532 42.2878C12.5995 42.8194 12.682 43.4124 12.59 43.991L12.011 47.852C11.9897 47.9942 11.9994 48.1394 12.0393 48.2776C12.0792 48.4158 12.1485 48.5437 12.2424 48.6527C12.3363 48.7617 12.4525 48.8491 12.5833 48.909C12.714 48.969 12.8562 49 13 49H31C31.2652 49 31.5196 48.8946 31.7071 48.7071C31.8947 48.5196 32 48.2652 32 48V45C32 44.7348 32.1054 44.4804 32.2929 44.2929C32.4804 44.1054 32.7348 44 33 44H38C39.3256 43.9984 40.5964 43.4711 41.5338 42.5338C42.4711 41.5964 42.9984 40.3256 43 39V34H47C47.1709 34.0009 47.3392 33.9581 47.4888 33.8755C47.6384 33.7929 47.7644 33.6733 47.8546 33.5282C47.9449 33.383 47.9965 33.2172 48.0044 33.0465C48.0123 32.8758 47.9764 32.7059 47.9 32.553ZM42 32C41.7348 32 41.4804 32.1054 41.2929 32.2929C41.1054 32.4804 41 32.7348 41 33V39C41 39.7956 40.6839 40.5587 40.1213 41.1213C39.5587 41.6839 38.7957 42 38 42H33C32.2044 42 31.4413 42.3161 30.8787 42.8787C30.3161 43.4413 30 44.2043 30 45V47H14.161L14.568 44.287C14.7198 43.3162 14.5791 42.3222 14.1637 41.4317C13.7484 40.5412 13.0773 39.7946 12.236 39.287C9.4167 37.5867 7.08477 35.1865 5.4665 32.3193C3.84824 29.4521 2.99859 26.2153 3.00001 22.923C3.07439 18.0955 4.96168 13.4726 8.28707 9.97232C11.6125 6.47205 16.1327 4.3505 20.95 4.029C23.5296 3.88622 26.1112 4.27104 28.537 5.15991C30.9629 6.04879 33.1819 7.42306 35.0585 9.19871C36.9352 10.9744 38.43 13.1141 39.4515 15.4871C40.4731 17.8601 41 20.4165 41 23C40.9998 23.1556 41.0361 23.309 41.106 23.448L45.382 32H42Z" fill="#202020"/>
<path d="M22 28C22.2652 28 22.5196 27.8946 22.7071 27.7071C22.8946 27.5196 23 27.2652 23 27C23 26.7348 22.8946 26.4804 22.7071 26.2929C22.5196 26.1054 22.2652 26 22 26C21.2044 26 20.4413 25.6839 19.8787 25.1213C19.3161 24.5587 19 23.7956 19 23C19 22.7348 18.8946 22.4804 18.7071 22.2929C18.5196 22.1054 18.2652 22 18 22C17.7348 22 17.4804 22.1054 17.2929 22.2929C17.1054 22.4804 17 22.7348 17 23C17.0016 24.3256 17.5289 25.5964 18.4662 26.5338C19.4036 27.4711 20.6744 27.9984 22 28V28Z" fill="#202020"/>
<path d="M7 24H12.051C12.2464 25.9543 13.0157 27.8071 14.262 29.325L10.687 32.9C10.5092 33.0893 10.4121 33.3404 10.4161 33.6001C10.4201 33.8598 10.525 34.1077 10.7086 34.2914C10.8922 34.4751 11.14 34.5802 11.3997 34.5844C11.6594 34.5886 11.9105 34.4917 12.1 34.314L15.675 30.739C17.1932 31.9849 19.0458 32.7541 21 32.95V38C21 38.2652 21.1054 38.5196 21.2929 38.7071C21.4804 38.8946 21.7348 39 22 39C22.2652 39 22.5196 38.8946 22.7071 38.7071C22.8946 38.5196 23 38.2652 23 38V32.95C24.9539 32.7541 26.8062 31.9849 28.324 30.739L31.9 34.314C32.0886 34.4962 32.3412 34.597 32.6034 34.5947C32.8656 34.5924 33.1164 34.4872 33.3018 34.3018C33.4872 34.1164 33.5924 33.8656 33.5947 33.6034C33.597 33.3412 33.4962 33.0886 33.314 32.9L29.739 29.325C30.985 27.807 31.7539 25.9542 31.949 24H37C37.2652 24 37.5196 23.8946 37.7071 23.7071C37.8946 23.5196 38 23.2652 38 23C38 22.7348 37.8946 22.4804 37.7071 22.2929C37.5196 22.1054 37.2652 22 37 22H31.949C31.7537 20.0462 30.9848 18.1938 29.739 16.676L33.314 13.1C33.4917 12.9105 33.5886 12.6594 33.5844 12.3997C33.5802 12.14 33.4751 11.8922 33.2914 11.7086C33.1077 11.525 32.8598 11.4201 32.6001 11.4161C32.3404 11.4121 32.0893 11.5092 31.9 11.687L28.324 15.262C26.8064 14.0157 24.954 13.2464 23 13.051V8C23 7.73478 22.8946 7.48043 22.7071 7.29289C22.5196 7.10536 22.2652 7 22 7C21.7348 7 21.4804 7.10536 21.2929 7.29289C21.1054 7.48043 21 7.73478 21 8V13.051C19.0461 13.2466 17.1937 14.0159 15.676 15.262L12.1 11.687C11.9101 11.5122 11.6601 11.4177 11.4021 11.423C11.1441 11.4283 10.8981 11.5332 10.7157 11.7157C10.5332 11.8981 10.4283 12.1441 10.423 12.4021C10.4177 12.6601 10.5122 12.9101 10.687 13.1L14.262 16.675C13.0157 18.1929 12.2464 20.0457 12.051 22H7C6.73478 22 6.48043 22.1054 6.29289 22.2929C6.10536 22.4804 6 22.7348 6 23C6 23.2652 6.10536 23.5196 6.29289 23.7071C6.48043 23.8946 6.73478 24 7 24ZM22 15C23.5823 15 25.129 15.4692 26.4446 16.3482C27.7602 17.2273 28.7855 18.4767 29.391 19.9385C29.9965 21.4003 30.155 23.0089 29.8463 24.5607C29.5376 26.1126 28.7757 27.538 27.6569 28.6569C26.538 29.7757 25.1126 30.5376 23.5607 30.8463C22.0089 31.155 20.4003 30.9965 18.9385 30.391C17.4767 29.7855 16.2273 28.7602 15.3482 27.4446C14.4692 26.129 14 24.5823 14 23C14.0024 20.879 14.846 18.8456 16.3458 17.3458C17.8456 15.846 19.879 15.0024 22 15Z" fill="#202020"/>
</svg>
