<svg width="36" height="38" viewBox="0 0 36 38" fill="none" xmlns="http://www.w3.org/2000/svg">
<path d="M35.489 12.553C35.4153 10.6115 34.9075 8.7112 34.0027 6.99184C33.0979 5.27248 31.8192 3.77779 30.2607 2.61768C28.7022 1.45757 26.9035 0.661551 24.9968 0.288151C23.0901 -0.0852491 21.124 -0.0265292 19.243 0.459992C17.1118 1.01144 15.1566 2.09733 13.562 3.61499C12.28 4.84013 11.2592 6.31206 10.5611 7.94214C9.86303 9.57222 9.50208 11.3267 9.5 13.1C9.50461 15.5423 8.69826 17.917 7.20748 19.8516C5.7167 21.7862 3.62586 23.1711 1.263 23.789C1.00508 23.8545 0.783743 24.0198 0.647685 24.2485C0.511628 24.4772 0.471994 24.7506 0.537502 25.0085C0.603011 25.2664 0.768296 25.4878 0.996996 25.6238C1.2257 25.7599 1.49908 25.7995 1.757 25.734C3.88806 25.1818 5.84324 24.0956 7.438 22.578C8.7192 21.3537 9.73952 19.8829 10.4376 18.2541C11.1357 16.6253 11.497 14.8721 11.5 13.1C11.4931 10.6551 12.299 8.27723 13.7909 6.34031C15.2829 4.4034 17.3763 3.01731 19.742 2.39999C21.3351 1.98846 23.0002 1.93939 24.6147 2.25638C26.2293 2.57338 27.7522 3.24837 29.0714 4.2317C30.3906 5.21502 31.4725 6.48163 32.2376 7.93833C33.0026 9.39503 33.4313 11.0047 33.492 12.649C33.5 12.8 33.5 12.943 33.5 13.094C33.5126 18.5054 32.2679 23.8458 29.864 28.694C28.5027 31.4512 26.7835 34.0166 24.751 36.324C24.5745 36.5229 24.4842 36.7838 24.5001 37.0492C24.5159 37.3147 24.6366 37.563 24.8355 37.7395C25.0344 37.916 25.2953 38.0062 25.5608 37.9904C25.8262 37.9746 26.0745 37.8539 26.251 37.655C28.3999 35.2145 30.2179 32.5015 31.658 29.586C34.1978 24.4622 35.513 18.8187 35.5 13.1C35.5 12.906 35.5 12.727 35.489 12.553Z" fill="#202020"/>
</svg>
