<svg width="22" height="26" viewBox="0 0 22 26" fill="none" xmlns="http://www.w3.org/2000/svg">
<path d="M11 26C13.9163 25.9966 16.7122 24.8365 18.7744 22.7744C20.8365 20.7122 21.9966 17.9163 22 15V9C21.9971 6.61395 21.0479 4.32645 19.3607 2.63925C17.6735 0.952057 15.3861 0.00291096 13 0H9C6.61395 0.00291096 4.32645 0.952057 2.63925 2.63925C0.952057 4.32645 0.00291096 6.61395 0 9V15C0.00344047 17.9163 1.16347 20.7122 3.22563 22.7744C5.28778 24.8365 8.08367 25.9966 11 26V26ZM9 2H13C14.8543 2.00211 16.6322 2.73905 17.9442 4.0494C19.2563 5.35976 19.9955 7.1367 20 8.991C9.265 8.812 7.975 5.757 7.97 5.757C7.9191 5.5514 7.80423 5.36727 7.64195 5.23115C7.47967 5.09503 7.27836 5.01396 7.06704 4.99961C6.85572 4.98526 6.6453 5.03838 6.46611 5.15132C6.28693 5.26425 6.14822 5.43117 6.07 5.628C4.9 8.551 3.05 9.057 2 9.088V9C2.00212 7.14413 2.7403 5.36489 4.05259 4.05259C5.36489 2.7403 7.14413 2.00212 9 2V2ZM2 11.087C3.06695 11.0394 4.10381 10.7187 5.01131 10.1556C5.91882 9.59249 6.66658 8.80585 7.183 7.871C8.7 9.2 12.162 10.855 20 10.987V15C20 17.3869 19.0518 19.6761 17.364 21.364C15.6761 23.0518 13.3869 24 11 24C8.61305 24 6.32387 23.0518 4.63604 21.364C2.94821 19.6761 2 17.3869 2 15V11.087Z" fill="#202020"/>
</svg>
