<svg width="42" height="22" viewBox="0 0 42 22" fill="none" xmlns="http://www.w3.org/2000/svg">
<path d="M28.3 0.066C28.174 0.025 27.079 0 27 0H15C14.921 0 13.826 0.025 13.7 0.066C9.96376 0.394245 6.48568 2.10901 3.95023 4.87284C1.41478 7.63666 0.00559357 11.2494 0 15V21C0 21.2652 0.105357 21.5196 0.292893 21.7071C0.48043 21.8946 0.734784 22 1 22H41C41.2652 22 41.5196 21.8946 41.7071 21.7071C41.8946 21.5196 42 21.2652 42 21V15C41.9946 11.2493 40.5855 7.63647 38.05 4.8726C35.5145 2.10872 32.0363 0.394023 28.3 0.066V0.066ZM24 4.877V2H26.382L24.314 6.135L24 4.877ZM22 2V4H20V2H22ZM18 4.877L17.686 6.135L15.618 2H18V4.877ZM2 15C2.00389 11.825 3.16849 8.76103 5.27447 6.38504C7.38044 4.00905 10.2825 2.48504 13.434 2.1L16.94 9.113L14.219 20H8V14C8 13.7348 7.89464 13.4804 7.70711 13.2929C7.51957 13.1054 7.26522 13 7 13C6.73478 13 6.48043 13.1054 6.29289 13.2929C6.10536 13.4804 6 13.7348 6 14V20H2V15ZM16.281 20L19.781 6H22.219L25.719 20H16.281ZM40 20H36V14C36 13.7348 35.8946 13.4804 35.7071 13.2929C35.5196 13.1054 35.2652 13 35 13C34.7348 13 34.4804 13.1054 34.2929 13.2929C34.1054 13.4804 34 13.7348 34 14V20H27.781L25.06 9.117L28.566 2.1C31.7175 2.48504 34.6196 4.00905 36.7255 6.38504C38.8315 8.76103 39.9961 11.825 40 15V20Z" fill="#202020"/>
</svg>
