<svg width="49" height="22" viewBox="0 0 49 22" fill="none" xmlns="http://www.w3.org/2000/svg">
<path d="M47 8H38V3C38 2.20435 37.6839 1.44129 37.1213 0.878679C36.5587 0.31607 35.7956 0 35 0H15C14.2044 0 13.4413 0.31607 12.8787 0.878679C12.3161 1.44129 12 2.20435 12 3V8H3C2.20435 8 1.44129 8.31607 0.878679 8.87868C0.31607 9.44129 0 10.2044 0 11V17H4.283C7.5531 16.999 10.7575 17.918 13.53 19.652C15.9846 21.1874 18.8217 22.001 21.717 22H28.283C31.1783 22.001 34.0154 21.1874 36.47 19.652C39.2425 17.918 42.4469 16.999 45.717 17H50V11C50 10.2044 49.6839 9.44129 49.1213 8.87868C48.5587 8.31607 47.7956 8 47 8V8ZM14 3C14 2.73478 14.1054 2.48043 14.2929 2.29289C14.4804 2.10536 14.7348 2 15 2H35C35.2652 2 35.5196 2.10536 35.7071 2.29289C35.8946 2.48043 36 2.73478 36 3V8H14V3Z" fill="#ED954A"/>
</svg>
