<svg width="44" height="41" viewBox="0 0 44 41" fill="none" xmlns="http://www.w3.org/2000/svg">
<path d="M33.22 2.15399C30.7844 0.903552 28.1085 0.191068 25.3736 0.0647768C22.6386 -0.0615148 19.9085 0.401334 17.368 1.42199C15.3339 2.24008 13.461 3.41221 11.836 4.88399C10.2426 6.30446 8.90308 7.98623 7.875 9.85699C6.31639 12.6883 5.49938 15.868 5.5 19.1C5.50073 20.3195 5.05702 21.4974 4.25191 22.4133C3.4468 23.3292 2.33549 23.9203 1.126 24.076C0.861845 24.1089 0.621573 24.2453 0.458041 24.4554C0.294509 24.6654 0.221114 24.9318 0.254 25.196C0.286887 25.4601 0.423362 25.7004 0.633403 25.8639C0.843444 26.0275 1.10984 26.1009 1.374 26.068C3.0677 25.8499 4.62391 25.0221 5.75145 23.7396C6.879 22.4571 7.50061 20.8077 7.5 19.1C7.49999 16.2092 8.23098 13.3654 9.625 10.833C10.5451 9.15889 11.7439 7.65399 13.17 6.38299C14.6231 5.06581 16.298 4.01628 18.117 3.28298C20.6545 2.25502 23.4028 1.85513 26.128 2.11733C28.8533 2.37953 31.4749 3.29606 33.7698 4.78897C36.0648 6.28187 37.9653 8.30698 39.3096 10.6921C40.6539 13.0771 41.4022 15.7516 41.491 18.488C41.503 18.756 41.504 19.413 41.491 19.736C41.3936 26.4768 39.6456 33.0911 36.4 39C36.2711 39.232 36.2397 39.5058 36.3126 39.7611C36.3856 40.0163 36.5569 40.2321 36.789 40.361C37.0211 40.4899 37.2948 40.5213 37.5501 40.4484C37.8053 40.3754 38.0211 40.204 38.15 39.972C41.5524 33.7841 43.3872 26.8568 43.494 19.796C43.509 19.448 43.509 18.735 43.494 18.409C43.3713 15.0332 42.3557 11.7503 40.5509 8.89481C38.7461 6.03934 36.2166 3.71339 33.22 2.15399Z" fill="#202020"/>
</svg>
