<svg width="26" height="32" viewBox="0 0 26 32" fill="none" xmlns="http://www.w3.org/2000/svg">
<path d="M25.5 7.10001C25.5 6.18075 25.3189 5.2705 24.9672 4.42122C24.6154 3.57194 24.0998 2.80027 23.4497 2.15026C22.7997 1.50025 22.0281 0.984632 21.1788 0.632849C20.3295 0.281066 19.4193 0.100006 18.5 0.100006C17.5807 0.100006 16.6705 0.281066 15.8212 0.632849C14.9719 0.984632 14.2003 1.50025 13.5503 2.15026C12.9002 2.80027 12.3846 3.57194 12.0328 4.42122C11.6811 5.2705 11.5 6.18075 11.5 7.10001C11.4999 9.99043 10.7689 12.8339 9.375 15.366C8.45492 17.0401 7.25607 18.545 5.83 19.816C4.37851 21.1334 2.70494 22.183 0.886999 22.916C0.640083 23.0148 0.442525 23.2076 0.337786 23.4521C0.233047 23.6965 0.229706 23.9726 0.328499 24.2195C0.427292 24.4664 0.620127 24.664 0.86458 24.7687C1.10903 24.8735 1.38508 24.8768 1.632 24.778C3.66606 23.9599 5.53902 22.7878 7.164 21.316C8.75739 19.8955 10.0969 18.2138 11.125 16.343C12.6837 13.5117 13.5007 10.332 13.5 7.10001C13.4987 5.88103 13.9417 4.70336 14.7461 3.78744C15.5505 2.87153 16.6611 2.28015 17.87 2.12401C18.0789 2.09642 18.2893 2.08172 18.5 2.08001C19.8282 2.08424 21.1006 2.61513 22.0379 3.55622C22.9753 4.49731 23.5011 5.77175 23.5 7.10001C23.5056 10.8935 22.7666 14.6511 21.325 18.16C20.3907 20.4375 19.1724 22.5879 17.699 24.56C16.2393 26.5184 14.5348 28.2818 12.627 29.807C12.4188 29.9722 12.2848 30.2134 12.2544 30.4775C12.224 30.7415 12.2998 31.0068 12.465 31.215C12.6302 31.4232 12.8714 31.5572 13.1354 31.5876C13.3995 31.618 13.6648 31.5422 13.873 31.377C15.9139 29.7458 17.7377 27.8601 19.3 25.766C20.8743 23.6572 22.1759 21.358 23.174 18.923C24.715 15.172 25.5053 11.1552 25.5 7.10001V7.10001Z" fill="#202020"/>
</svg>
