<svg width="51" height="27" viewBox="0 0 51 27" fill="none" xmlns="http://www.w3.org/2000/svg">
<path d="M50.49 24.176C50.3448 20.0941 49.2043 16.1095 47.1678 12.5689C45.1313 9.02825 42.2604 6.03893 38.805 3.861C36.044 2.11124 32.9646 0.923953 29.7435 0.367262C26.5225 -0.189428 23.2232 -0.104558 20.035 0.617001C15.2738 1.69347 10.9315 4.13925 7.54301 7.653C4.52034 10.7883 2.36303 14.6543 1.28201 18.873C0.760811 20.9076 0.498074 22.9997 0.500011 25.1C0.500011 25.3652 0.605367 25.6196 0.792904 25.8071C0.98044 25.9946 1.23479 26.1 1.50001 26.1C1.76523 26.1 2.01958 25.9946 2.20712 25.8071C2.39465 25.6196 2.50001 25.3652 2.50001 25.1C2.49867 23.1691 2.74024 21.2456 3.21901 19.375C4.21406 15.4926 6.19981 11.9349 8.98201 9.05C12.1 5.81755 16.0948 3.56694 20.475 2.575C23.066 1.98848 25.7395 1.85887 28.375 2.192C31.7078 2.60168 34.9067 3.75214 37.737 5.559C40.9164 7.56218 43.5581 10.3119 45.4323 13.5689C47.3066 16.8259 48.3566 20.4916 48.491 24.247C48.504 24.636 48.504 25.557 48.491 25.947C48.4861 26.0786 48.5072 26.2099 48.5531 26.3333C48.599 26.4567 48.6688 26.5698 48.7586 26.6662C48.8483 26.7625 48.9562 26.8402 49.0761 26.8947C49.196 26.9493 49.3254 26.9796 49.457 26.984H49.491C49.7513 26.9841 50.0013 26.8827 50.1881 26.7014C50.3748 26.5201 50.4835 26.2732 50.491 26.013C50.5 25.594 50.5 24.6 50.49 24.176Z" fill="#202020"/>
</svg>
