<svg width="50" height="51" viewBox="0 0 50 51" fill="none" xmlns="http://www.w3.org/2000/svg">
<path d="M49 27H47.781L44.281 13H45C45.2652 13 45.5196 12.8946 45.7071 12.7071C45.8946 12.5196 46 12.2652 46 12C46 11.7348 45.8946 11.4804 45.7071 11.2929C45.5196 11.1054 45.2652 11 45 11H26V8.858C26.9427 8.61461 27.7642 8.03577 28.3106 7.22999C28.857 6.42421 29.0908 5.44681 28.9681 4.481C28.8454 3.51518 28.3747 2.62727 27.6442 1.98368C26.9137 1.34009 25.9736 0.985016 25 0.985016C24.0264 0.985016 23.0863 1.34009 22.3558 1.98368C21.6253 2.62727 21.1546 3.51518 21.0319 4.481C20.9092 5.44681 21.143 6.42421 21.6894 7.22999C22.2358 8.03577 23.0573 8.61461 24 8.858V11H5C4.73478 11 4.48043 11.1054 4.29289 11.2929C4.10536 11.4804 4 11.7348 4 12C4 12.2652 4.10536 12.5196 4.29289 12.7071C4.48043 12.8946 4.73478 13 5 13H5.719L2.219 27H1C0.734784 27 0.48043 27.1054 0.292893 27.2929C0.105357 27.4804 0 27.7348 0 28C0 29.8565 0.737498 31.637 2.05025 32.9497C3.36301 34.2625 5.14348 35 7 35C8.85652 35 10.637 34.2625 11.9497 32.9497C13.2625 31.637 14 29.8565 14 28C14 27.7348 13.8946 27.4804 13.7071 27.2929C13.5196 27.1054 13.2652 27 13 27H11.781L8.281 13H22.581L16.288 19.293C16.1567 19.4242 16.0645 19.5895 16.0217 19.7701C15.979 19.9508 15.9874 20.1398 16.046 20.316L23.612 43H20.441C19.8123 43.001 19.1997 43.1996 18.6899 43.5676C18.1802 43.9356 17.7989 44.4545 17.6 45.051L16.056 49.684C16.0061 49.8339 15.9924 49.9936 16.016 50.1498C16.0397 50.3061 16.1001 50.4545 16.1922 50.5829C16.2843 50.7113 16.4055 50.816 16.546 50.8885C16.6864 50.9611 16.842 50.9992 17 51H33C33.1585 51 33.3146 50.9624 33.4557 50.8903C33.5968 50.8181 33.7187 50.7134 33.8113 50.5849C33.904 50.4564 33.9648 50.3077 33.9888 50.151C34.0127 49.9944 33.9991 49.8343 33.949 49.684L32.405 45.051C32.2058 44.4537 31.8238 43.9343 31.313 43.5662C30.8022 43.1981 30.1886 43 29.559 43H26.388L33.949 20.316C34.0076 20.1398 34.016 19.9508 33.9733 19.7701C33.9305 19.5895 33.8383 19.4242 33.707 19.293L27.414 13H41.719L38.219 27H37C36.7348 27 36.4804 27.1054 36.2929 27.2929C36.1054 27.4804 36 27.7348 36 28C36 29.8565 36.7375 31.637 38.0503 32.9497C39.363 34.2625 41.1435 35 43 35C44.8565 35 46.637 34.2625 47.9497 32.9497C49.2625 31.637 50 29.8565 50 28C50 27.7348 49.8946 27.4804 49.7071 27.2929C49.5196 27.1054 49.2652 27 49 27ZM7 33C5.84775 32.9987 4.73117 32.6002 3.83857 31.8715C2.94596 31.1428 2.33192 30.1287 2.1 29H11.9C11.6681 30.1287 11.054 31.1428 10.1614 31.8715C9.26883 32.6002 8.15225 32.9987 7 33V33ZM4.281 27L7 16.123L9.719 27H4.281ZM23 5C23 4.60444 23.1173 4.21776 23.3371 3.88886C23.5568 3.55996 23.8692 3.30362 24.2346 3.15224C24.6001 3.00087 25.0022 2.96126 25.3902 3.03843C25.7781 3.1156 26.1345 3.30608 26.4142 3.58579C26.6939 3.86549 26.8844 4.22186 26.9616 4.60982C27.0387 4.99778 26.9991 5.39991 26.8478 5.76537C26.6964 6.13082 26.44 6.44318 26.1111 6.66294C25.7822 6.8827 25.3956 7 25 7C24.4696 7 23.9609 6.78929 23.5858 6.41421C23.2107 6.03914 23 5.53043 23 5ZM24 14.414V37.838L18.144 20.27L24 14.414ZM30.507 45.684L31.613 49H18.387L19.493 45.684C19.5593 45.485 19.6865 45.3118 19.8566 45.189C20.0268 45.0663 20.2312 45.0002 20.441 45H29.559C29.7688 45.0002 29.9732 45.0663 30.1434 45.189C30.3135 45.3118 30.4407 45.485 30.507 45.684V45.684ZM26 37.838V14.414L31.856 20.27L26 37.838ZM43 16.123L45.719 27H40.281L43 16.123ZM43 33C41.8477 32.9987 40.7312 32.6002 39.8386 31.8715C38.946 31.1428 38.3319 30.1287 38.1 29H47.9C47.6681 30.1287 47.054 31.1428 46.1614 31.8715C45.2688 32.6002 44.1523 32.9987 43 33Z" fill="#202020"/>
</svg>
