<svg width="15" height="23" viewBox="0 0 15 23" fill="none" xmlns="http://www.w3.org/2000/svg">
<path d="M11.363 13.251C12.4014 11.3843 13.193 9.3906 13.718 7.32001C14.2386 5.2877 14.5013 3.19794 14.5 1.10001C14.5 0.83479 14.3946 0.580435 14.2071 0.392899C14.0196 0.205362 13.7652 0.100006 13.5 0.100006C13.2348 0.100006 12.9804 0.205362 12.7929 0.392899C12.6053 0.580435 12.5 0.83479 12.5 1.10001C12.5013 3.03061 12.2598 4.95371 11.781 6.82401C10.7859 10.7064 8.80019 14.2641 6.01799 17.149C4.54361 18.6928 2.85339 20.0148 0.999987 21.074C0.768851 21.2066 0.599859 21.4256 0.53019 21.6828C0.46052 21.94 0.495878 22.2144 0.628487 22.4455C0.761095 22.6766 0.98009 22.8456 1.2373 22.9153C1.4945 22.985 1.76885 22.9496 1.99999 22.817C4.01631 21.6615 5.85527 20.221 7.45999 18.54C8.99119 16.9591 10.3039 15.1803 11.363 13.251V13.251Z" fill="#202020"/>
</svg>
