<svg width="39" height="49" viewBox="0 0 39 49" fill="none" xmlns="http://www.w3.org/2000/svg">
<path d="M37.722 22.024L16.5 17.2V4.5C16.5 3.30653 16.0259 2.16193 15.182 1.31802C14.3381 0.474106 13.1935 0 12 0C10.8065 0 9.66193 0.474106 8.81802 1.31802C7.97411 2.16193 7.5 3.30653 7.5 4.5V27.586L5.828 25.914C5.39041 25.4804 4.83449 25.1857 4.23001 25.0669C3.62554 24.9481 2.99943 25.0105 2.43028 25.2462C1.86114 25.482 1.37431 25.8806 1.0309 26.392C0.687483 26.9035 0.502791 27.505 0.5 28.121V38C0.500163 38.205 0.563349 38.4051 0.681 38.573L7.081 47.72C7.35779 48.1156 7.72596 48.4385 8.15423 48.6613C8.5825 48.8841 9.05822 49.0003 9.541 49H35.5C36.2956 49 37.0587 48.6839 37.6213 48.1213C38.1839 47.5587 38.5 46.7956 38.5 46V23C38.5002 22.7732 38.4233 22.5531 38.282 22.3757C38.1406 22.1984 37.9431 22.0743 37.722 22.024Z" fill="#ED954A"/>
</svg>
