<svg width="49" height="23" viewBox="0 0 49 23" fill="none" xmlns="http://www.w3.org/2000/svg">
<path d="M37.53 2.348C35.2509 3.76994 32.6737 4.64511 30 4.905V8C30 8.26522 29.8946 8.51957 29.7071 8.70711C29.5196 8.89464 29.2652 9 29 9H21C20.7348 9 20.4804 8.89464 20.2929 8.70711C20.1054 8.51957 20 8.26522 20 8V4.905C17.3263 4.64511 14.7491 3.76994 12.47 2.348C10.0154 0.812642 7.17826 -0.00103268 4.283 9.8362e-07H0V20C0 20.7957 0.31607 21.5587 0.878679 22.1213C1.44129 22.6839 2.20435 23 3 23H47C47.7956 23 48.5587 22.6839 49.1213 22.1213C49.6839 21.5587 50 20.7957 50 20V9.8362e-07H45.717C42.8217 -0.00103268 39.9846 0.812642 37.53 2.348V2.348ZM41 19H9C8.73478 19 8.48043 18.8946 8.29289 18.7071C8.10536 18.5196 8 18.2652 8 18C8 17.7348 8.10536 17.4804 8.29289 17.2929C8.48043 17.1054 8.73478 17 9 17H41C41.2652 17 41.5196 17.1054 41.7071 17.2929C41.8946 17.4804 42 17.7348 42 18C42 18.2652 41.8946 18.5196 41.7071 18.7071C41.5196 18.8946 41.2652 19 41 19Z" fill="#ED954A"/>
</svg>
