<svg width="64" height="64" viewBox="0 0 64 64" fill="none" xmlns="http://www.w3.org/2000/svg">
<path d="M37.025 39.025H27.037C27.223 50.025 30.464 59.525 34.761 62.805C35.507 62.905 36.261 62.97 37.025 63.005V39.025Z" fill="#ED954A"/>
<path d="M39.025 39.025V63C39.79 62.97 40.544 62.9 41.289 62.8C45.589 59.523 48.828 50.02 49.014 39.02L39.025 39.025Z" fill="#ED954A"/>
<path d="M37.025 37.025V13.051C36.261 13.081 35.507 13.151 34.761 13.245C30.461 16.522 27.223 26.025 27.037 37.025H37.025Z" fill="#ED954A"/>
<path d="M51.014 37.025H63C62.7816 31.7468 60.8995 26.673 57.623 22.5291C54.3466 18.3853 49.8435 15.3838 44.758 13.954C48.418 18.64 50.859 27.1 51.014 37.025Z" fill="#ED954A"/>
<path d="M51.014 39.025C50.859 48.95 48.414 57.411 44.758 62.097C49.8435 60.6669 54.3465 57.6651 57.623 53.5212C60.8994 49.3772 62.7815 44.3032 63 39.025H51.014Z" fill="#ED954A"/>
<path d="M41.289 13.245C40.544 13.145 39.789 13.081 39.025 13.051V37.025H49.014C48.828 26.025 45.587 16.522 41.289 13.245Z" fill="#ED954A"/>
<path d="M25.037 39.025H13.051C13.269 44.3036 15.1507 49.3781 18.427 53.5226C21.7033 57.6671 26.2063 60.6694 31.292 62.1C27.633 57.411 25.191 48.95 25.037 39.025Z" fill="#ED954A"/>
<path d="M25.037 37.025C25.191 27.101 27.637 18.64 31.292 13.954C26.2067 15.384 21.7038 18.3855 18.4276 22.5294C15.1513 26.6732 13.2694 31.747 13.051 37.025H25.037Z" fill="#ED954A"/>
<path d="M48 1H4C3.20435 1 2.44129 1.31607 1.87868 1.87868C1.31607 2.44129 1 3.20435 1 4V48C1 48.7956 1.31607 49.5587 1.87868 50.1213C2.44129 50.6839 3.20435 51 4 51H48C48.7956 51 49.5587 50.6839 50.1213 50.1213C50.6839 49.5587 51 48.7956 51 48V4C51 3.20435 50.6839 2.44129 50.1213 1.87868C49.5587 1.31607 48.7956 1 48 1V1ZM49 48C49 48.2652 48.8946 48.5196 48.7071 48.7071C48.5196 48.8946 48.2652 49 48 49H4C3.73478 49 3.48043 48.8946 3.29289 48.7071C3.10536 48.5196 3 48.2652 3 48V13H49V48ZM49 11H3V4C3 3.73478 3.10536 3.48043 3.29289 3.29289C3.48043 3.10536 3.73478 3 4 3H48C48.2652 3 48.5196 3.10536 48.7071 3.29289C48.8946 3.48043 49 3.73478 49 4V11Z" fill="#202020"/>
<path d="M10 6H7C6.73478 6 6.48043 6.10536 6.29289 6.29289C6.10536 6.48043 6 6.73478 6 7C6 7.26522 6.10536 7.51957 6.29289 7.70711C6.48043 7.89464 6.73478 8 7 8H10C10.2652 8 10.5196 7.89464 10.7071 7.70711C10.8946 7.51957 11 7.26522 11 7C11 6.73478 10.8946 6.48043 10.7071 6.29289C10.5196 6.10536 10.2652 6 10 6Z" fill="#202020"/>
<path d="M7 44H33C33.2652 44 33.5196 43.8946 33.7071 43.7071C33.8946 43.5196 34 43.2652 34 43V19C34 18.7348 33.8946 18.4804 33.7071 18.2929C33.5196 18.1054 33.2652 18 33 18H7C6.73478 18 6.48043 18.1054 6.29289 18.2929C6.10536 18.4804 6 18.7348 6 19V43C6 43.2652 6.10536 43.5196 6.29289 43.7071C6.48043 43.8946 6.73478 44 7 44ZM8 20H32V42H8V20Z" fill="#202020"/>
<path d="M38 20H45C45.2652 20 45.5196 19.8946 45.7071 19.7071C45.8946 19.5196 46 19.2652 46 19C46 18.7348 45.8946 18.4804 45.7071 18.2929C45.5196 18.1054 45.2652 18 45 18H38C37.7348 18 37.4804 18.1054 37.2929 18.2929C37.1054 18.4804 37 18.7348 37 19C37 19.2652 37.1054 19.5196 37.2929 19.7071C37.4804 19.8946 37.7348 20 38 20Z" fill="#202020"/>
<path d="M38 28H45C45.2652 28 45.5196 27.8946 45.7071 27.7071C45.8946 27.5196 46 27.2652 46 27C46 26.7348 45.8946 26.4804 45.7071 26.2929C45.5196 26.1054 45.2652 26 45 26H38C37.7348 26 37.4804 26.1054 37.2929 26.2929C37.1054 26.4804 37 26.7348 37 27C37 27.2652 37.1054 27.5196 37.2929 27.7071C37.4804 27.8946 37.7348 28 38 28Z" fill="#202020"/>
<path d="M38 36H45C45.2652 36 45.5196 35.8946 45.7071 35.7071C45.8946 35.5196 46 35.2652 46 35C46 34.7348 45.8946 34.4804 45.7071 34.2929C45.5196 34.1054 45.2652 34 45 34H38C37.7348 34 37.4804 34.1054 37.2929 34.2929C37.1054 34.4804 37 34.7348 37 35C37 35.2652 37.1054 35.5196 37.2929 35.7071C37.4804 35.8946 37.7348 36 38 36Z" fill="#202020"/>
<path d="M38 44H45C45.2652 44 45.5196 43.8946 45.7071 43.7071C45.8946 43.5196 46 43.2652 46 43C46 42.7348 45.8946 42.4804 45.7071 42.2929C45.5196 42.1054 45.2652 42 45 42H38C37.7348 42 37.4804 42.1054 37.2929 42.2929C37.1054 42.4804 37 42.7348 37 43C37 43.2652 37.1054 43.5196 37.2929 43.7071C37.4804 43.8946 37.7348 44 38 44Z" fill="#202020"/>
<path d="M28 33H12C11.7348 33 11.4804 33.1054 11.2929 33.2929C11.1054 33.4804 11 33.7348 11 34C11 34.2652 11.1054 34.5196 11.2929 34.7071C11.4804 34.8946 11.7348 35 12 35H28C28.2652 35 28.5196 34.8946 28.7071 34.7071C28.8946 34.5196 29 34.2652 29 34C29 33.7348 28.8946 33.4804 28.7071 33.2929C28.5196 33.1054 28.2652 33 28 33Z" fill="#202020"/>
<path d="M28 27H12C11.7348 27 11.4804 27.1054 11.2929 27.2929C11.1054 27.4804 11 27.7348 11 28C11 28.2652 11.1054 28.5196 11.2929 28.7071C11.4804 28.8946 11.7348 29 12 29H28C28.2652 29 28.5196 28.8946 28.7071 28.7071C28.8946 28.5196 29 28.2652 29 28C29 27.7348 28.8946 27.4804 28.7071 27.2929C28.5196 27.1054 28.2652 27 28 27Z" fill="#202020"/>
</svg>
